<svg xmlns="http://www.w3.org/2000/svg" viewBox="0 0 557.62 599.59"><polygon class="cardboard-brown-3" points="243.57 0.63 0.63 93.58 244.25 195.06 333.93 232.41 556.99 90.27 243.57 0.63"/><path class="cardboard-brown-2" d="M432.83,126.31s-6.87-9.26-21-13.33S116.78,15.82,116.78,15.82L.62,93.58h0L21.79,328.72h0c.37,4.17.43,4.81,2.39,9.94s-.63,9.6,0,16.65l5.71,66.95L333.35,598l4.58,1,4-2.07.74-370-8.73,5.56Z"/><path class="cardboard-brown-3" d="M334,234.37c0-1.13,0-2,0-2h0L557,90.27,539.33,409,341.92,596.9s-4,3.78-8.57,1.12L29.89,422.26l-2.47-28.95a66.22,66.22,0,0,1,3.89,15.63c.36,3.89-.4,11.08,2.44,12.24s5.68,2.07,6.32,3.36,1.68,3,3,3.22,3.87.26,4.64,1.16.91,1.55,2.33,2.2,2.71.77,3.61,1.67a118.8,118.8,0,0,0,12.25,7.74c2.2,1,16.39,9,17.94,10.2s15.48,9.41,16.9,9.16,3.09-.77,3.61,0,.26,2.7,1.16,4,4.39,2.58,6.45,2.71,7.87,3.87,11.36,6.07,24.64,14.45,26.31,16,6.33,2.84,8.2,3.62,1.61,4.51,3.67,4.51,1.1-14.83.94-19.22.87-2.32,1-.52.19,11.74.93,13.29-.1,4.13,0,5.94,4.23,3.74,5.91,4.64,30.83,18.19,33.93,18.84,12,5,13.67,7.09,4.9,4.13,7.48,5.68,26.06,13.8,28.26,15.09,3.48,4.78,6.71,5.81,6.19-.9,7.87,0,3.61,5,6.06,6.45,10.19,7.61,12.64,8.9,8.91,3.1,11.49,4.65,12.64,7.48,14.19,8.38,18.63,11,21.38,12.26,5.32.77,5.06-1.94-1.25-3.21-.53-5.72-.71-3.47-.73-5.46,1.06-2.51.93-4.38-1-2.57-1-4.49,1-2.45.89-4.25-1-2.44-1-4.62,1-2.9.8-5-.88-2.38-.91-4.56,1-2.25.84-4.44-.5-6.21,0-7.78,1.5-6.1.72-8a7.28,7.28,0,0,1-.66-4.54c.29-1.33.81-1.92.35-3.37s-.93-1.57-1.28-3.31a9.21,9.21,0,0,1,.09-5.19,6.11,6.11,0,0,0-.16-4.29,10.83,10.83,0,0,1-.1-5,10.55,10.55,0,0,0-.06-4.71,5.56,5.56,0,0,1,.16-3.92c.64-1.21.62-3.63,0-5.6a8.84,8.84,0,0,1-.13-5.13,10.68,10.68,0,0,0-.12-5.28,13.84,13.84,0,0,1-.89-4.12h0c-.2-2,.6-3.62.6-5.36s-.8-3.46-.93-5.33.67-4.53.93-6.53-1.6-3.6-1.6-5.2,1.7-3.45,1.53-5.36-1.33-3.79-1.16-6.41,1.16-2.6,1.33-6-1.66-5.4-1.83-8.05,1.83-4,2-6.8-2-6.14-2-8,1.27-4.09,1.27-7-1.13-3.57-1-5.66,1.3-4.79,1.14-7.73-1.3-2.29-1.46-5.13,1.26-4.18,1.12-7.48-1.42-4.44-1.42-7.92,2.27-5.31,2-8.43-1.85-5.29-1.85-9,1.56-6.44,1.56-9-1.27-4.71-1.27-6.9,1.7-6,1.56-8.06-1.7-3.9-1.85-8.16,2-6.53,1.85-9.22-2.13-5.11-2.13-9.79,2-7.37,1.84-10.07-1.7-5.28-1.84-9.16,2.13-6.73,2-10.13-2.69-8.33-2.69-13.67,1.41-4.35,1.83-8.6-2.25-8.8-1.83-12.48Z"/><path class="cardboard-brown-4" d="M546.73,275.5l-11.39,9.18s1.59,2.5,0,6.38-18,13.66-18,15.71,16.8-13.4,18.94-12.18.3,6.12-1,7.65-30,23.37-29.84,25.59,26.82-21.45,29.69-21.58,2,6.71-2.73,10.39-36.94,28.11-36.94,30.46,30.18-24.7,34.15-24.71-.15,7.74-4.42,11.22-20.9,15-20.75,16.62,19.28-14.34,20.9-13.59.94,6.49-4.24,10.61-26.67,20-26.6,21.63,20.1-16.35,23.78-17.3,2.06,5.53-.89,8.62-34.58,27.38-34.29,29.29,28.76-24.14,31.82-24.73-.62,9.28-3.12,11.78-43,34.47-43.28,37.3,35.2-30,39.11-30.84-.6,9.34-4.93,13.34-57.53,47.84-57.53,50.51,51.52-45.06,55.36-45.54-6.5,14.37-13,19.7-69.36,61.53-69.36,63.19,47.86-43.76,51-43.89-4.33,13.38-12.83,21.55-57,50.66-56.69,53.17S444,472.7,448.83,471.87s-4,13.89-11.67,20-54,47.82-54.19,50,41.19-37.43,45-39.89-11.67,19.38-18.84,25S384.64,550.39,381,555.4s-5,3.83-7.5,5.17-3.33,3.5-4.5,5-4.67,6.25-6.67,7-6.34,6.74-7.67,8.39-9.43,7.82-12,10.82-2.3,6-4.43,7.06a8.63,8.63,0,0,0,3.69-1.9L539.33,409Z"/><path class="cardboard-brown-3" d="M26,336.43c-.94.73.89,5.43,1.78,7.11s2.67,2,2.86.49-1.39-2.07-2.32-4.25S26.89,335.73,26,336.43Z"/><path class="cardboard-brown-3" d="M24.71,332.49c-.34-.06-.52,2.08.39,2.2S25.42,332.62,24.71,332.49Z"/><path class="cardboard-brown-1" d="M28.2,347.13c-1.49-.39-2.48,3.64-1.66,4.36S30.89,347.83,28.2,347.13Z"/><path class="cardboard-brown-3" d="M161,427.74c-.84,0-.87,11,0,11S161.63,427.74,161,427.74Z"/><path class="cardboard-brown-3" d="M161.56,443.31c-1.14.25-.71,3.71,0,3.71S162.71,443.06,161.56,443.31Z"/><path class="cardboard-brown-3" d="M161.56,450.37c-1,.4-1.21,4.45,0,4.08S163.7,449.5,161.56,450.37Z"/><path class="cardboard-brown-3" d="M323.68,478.35c.26-1.77-54.94-25.46-59.14-26s20.28,9.66,26.78,12.41S323.36,480.61,323.68,478.35Z"/><path class="cardboard-brown-3" d="M261.57,450.94c.54-1.21-9.88-4.92-10-3.92S261,452.16,261.57,450.94Z"/><path class="cardboard-brown-3" d="M246.6,444.4c0-1.09-4.5-3-4.56-1.82S246.6,445.49,246.6,444.4Z"/><path class="cardboard-brown-3" d="M238.84,440.88c0-1.09-3.1-2.06-3.25-1.21S238.84,442,238.84,440.88Z"/><path class="cardboard-brown-3" d="M332.66,491.37c-.55-2.48-14.54-7.72-14.43-6.06S333.21,493.85,332.66,491.37Z"/><path class="cardboard-brown-3" d="M332.68,481.39c.17-1.69-3.21-3.38-3.34-1.82S332.5,483.08,332.68,481.39Z"/><path class="cardboard-brown-3" d="M333.19,501.57c0-1.56-6-3.9-6-2.73S333.19,503.13,333.19,501.57Z"/><path class="cardboard-brown-3" d="M333.19,508.85c-.25-1.57-3.45-.71-3,0S333.39,510.17,333.19,508.85Z"/><path class="cardboard-brown-3" d="M333.19,515.53c-.23-.9-2.43-.5-2.18.61S333.49,516.75,333.19,515.53Z"/><path class="cardboard-brown-3" d="M333.21,586.76c.36-2.84-7.69-3.18-7.76-1.84S332.85,589.61,333.21,586.76Z"/><path class="cardboard-brown-3" d="M332.1,580.41c-.74-1.16-3.24-2-3.24-.82S332.79,581.46,332.1,580.41Z"/><path class="cardboard-brown-3" d="M332.18,573.85c0-.84-7.3-3.4-7.3-2.93S332.23,575.37,332.18,573.85Z"/><path class="cardboard-brown-3" d="M323.68,583c.49-1.29-3.14-1.52-3.14-.82S323.2,584.27,323.68,583Z"/><path class="cardboard-brown-3" d="M389.71,327c-.59,1,3.73,5.19,4.45,4.29S390.31,326,389.71,327Z"/><path class="cardboard-brown-3" d="M395.73,341.72c-1,.61,1.13,6.46,2.16,6.15S396.76,341.1,395.73,341.72Z"/><path class="cardboard-brown-3" d="M398.45,350.34c-.8.56.26,2.87.87,2.56S399.48,349.63,398.45,350.34Z"/><path class="cardboard-brown-3" d="M333.93,232.41h0l98.9-106.1a32,32,0,0,0-5.19-5.13c1.62,1.38,1.07,3.14-1.71,6.12s-30.18,32.36-33.55,35.14-2.39,6.35-5.36,8.34-4.57,1.71-7.55,5.32-22.23,24.46-25.81,29-4,7.94-6.35,8.74-6.3,1.95-7.62,5.14-9.45,8.56-9.26,10.54,3.5,2.87,3.5,2.87Z"/><path class="cardboard-brown-3" d="M327.21,468.87c.65-1.12-46.18-21.09-46-19.86C281.36,450.46,326.86,469.47,327.21,468.87Z"/><path class="cardboard-brown-3" d="M273,446.85c.56-1.69-6.81-4.57-6.81-3.55S272.81,447.42,273,446.85Z"/><path class="cardboard-brown-3" d="M255.13,439.35c0,1.35-2,.58-2.23-.81S255.13,438,255.13,439.35Z"/><path class="cardboard-brown-3" d="M160.73,411.89c1.8,1.07-.25-37.09-1-37.28S158.94,410.82,160.73,411.89Z"/><path class="cardboard-brown-3" d="M324.45,457.18c-.07-1.54-26.35-11.34-26.13-10.65C298.65,447.53,324.51,458.34,324.45,457.18Z"/><path class="cardboard-brown-3" d="M327.22,448.15c-.05-1.85-14.59-6.53-14.57-5.65C312.68,443.19,327.23,448.8,327.22,448.15Z"/><path class="cardboard-brown-1" d="M8.2,96.78c-1.6-.42-3.55.66-2.5,2s4.6,1.06,7.48,2.44,7.22,2.55,7.49,1.63S10.69,97.44,8.2,96.78Z"/><path class="cardboard-brown-1" d="M24.87,105.39c-.55.49,1.31,2.1,2.62,1.18S26.31,104.07,24.87,105.39Z"/><path class="cardboard-brown-1" d="M31.43,107.49c-.24.4,2.76,2.49,3.81,2S32.22,106.17,31.43,107.49Z"/><path class="cardboard-brown-1" d="M39.23,110.3c-.43.68,2.39,2,3.88,2.34s8.16,4.35,8.66,3.74-6.07-3.09-7.27-4.59S40.42,108.41,39.23,110.3Z"/><path class="cardboard-brown-1" d="M58.26,117.73c-1.82,1.24,5.52,3.85,6.31,3.22S59,117.18,58.26,117.73Z"/><path class="cardboard-brown-1" d="M77,125.74c-.47,1,2.37,2,2.68,1.2S77.43,124.7,77,125.74Z"/><path class="cardboard-brown-1" d="M87.68,130.3c-.38.43,6.78,4.26,9.3,4.11S88.78,129,87.68,130.3Z"/><path class="cardboard-brown-1" d="M100,135.2c-.58,1.73,31.14,13.61,31.05,12.93S100.59,133.46,100,135.2Z"/><path class="cardboard-brown-1" d="M140.27,152c-.16,1.76,4.84,3.31,4.93,2.06S140.43,150.21,140.27,152Z"/><path class="cardboard-brown-1" d="M152,156.85c-.14,1.38,5.16,3,5,2.07S152.14,155.47,152,156.85Z"/><path class="cardboard-brown-1" d="M168.71,163.82c-.67,2,29.23,13.43,29.26,12.18S169.18,162.43,168.71,163.82Z"/><path class="cardboard-brown-1" d="M205.49,178.91c-1.73,1,16.3,7.81,16.22,6.76S206.81,178.2,205.49,178.91Z"/><path class="cardboard-brown-1" d="M232.25,190.06c0,1.55,8.3,4.65,8.18,3.41S232.25,187.74,232.25,190.06Z"/><path class="cardboard-brown-1" d="M247.9,196.58c-.23,1.77,3.22,2.32,2.95,1.23S248.13,194.8,247.9,196.58Z"/><path class="cardboard-brown-1" d="M259.74,201.51c.27,2.15,4.52,2.67,4.57,1.9S259.67,200.94,259.74,201.51Z"/><path class="cardboard-brown-1" d="M277.74,209c0,1.49,30.48,14.14,30.76,12.81S277.74,207.6,277.74,209Z"/><path class="carton-offwhite-3" d="M58,206.81s77.86,4.86,85.91,5.25c7.78.38,9.57,5.18,10.22,15.55S170,366.29,171,378.7c1,12.12-3.69,15.8-11.77,14.86-8.7-1-65.92-7.22-76.69-9.51s-12.28-7-13.73-16.2c-1.53-9.65-17.66-132.62-19-145.93C48.6,209.48,51,206.15,58,206.81Z"/><path class="cardboard-brown-4" d="M427,129.63c-.7-2.49-6.42,2.79-6.58,5.76s-3,3.13-4.94,4.94-2.47,5.43-4.61,6.25-2.81,5.9-6.09,6.26-1.1,4.29.86,2.39S427.81,132.34,427,129.63Z"/><path class="illu__stroke" d="M58,206.81s77.86,4.86,85.91,5.25c7.78.38,9.57,5.18,10.22,15.55S170,366.29,171,378.7c1,12.12-3.69,15.8-11.77,14.86-8.7-1-65.92-7.22-76.69-9.51s-12.28-7-13.73-16.2c-1.53-9.65-17.66-132.62-19-145.93C48.6,209.48,51,206.15,58,206.81Z"/><polygon class="carton-offwhite-4" points="288.78 381.8 282.24 365.51 274.92 376.35 288.78 381.8"/><path class="carton-offwhite-3" d="M231.28,331.42s44.91,29.3,49.9,32.95c4.15,3-2.37,7.58-1.72,11.18.47,2.55,3.6,2,6.31,3.24,3.06,1.4,3.9,4.06,3,7.19s-4.06,18.75-5.15,22.87c-1.06,4-5.43,3.79-9.23,1.35s-43.93-30.1-48.54-33.9-4.51-6.23-4.15-10.3,2.79-24.72,3.34-29.72S228.71,329.75,231.28,331.42Z"/><path class="illu__stroke" d="M231.28,331.42s44.91,29.3,49.9,32.95c4.15,3-2.37,7.58-1.72,11.18.47,2.55,3.6,2,6.31,3.24,3.06,1.4,3.9,4.06,3,7.19s-4.06,18.75-5.15,22.87c-1.06,4-5.43,3.79-9.23,1.35s-43.93-30.1-48.54-33.9-4.51-6.23-4.15-10.3,2.79-24.72,3.34-29.72S228.71,329.75,231.28,331.42Z"/><line class="illu__stroke" x1="282.24" y1="365.51" x2="288.78" y2="381.8"/><polygon class="cardboard-red-2" points="160.93 42.25 84.46 71.04 108.75 101.63 187.99 70.81 160.93 42.25"/><polygon class="illu__stroke" points="160.93 42.25 84.46 71.04 108.75 101.63 187.99 70.81 160.93 42.25"/><path class="cardboard-brown-3" d="M386.13,164.42c-2.94-.44-7.28,5.81-4.41,5.46S388.51,164.77,386.13,164.42Z"/><path class="cardboard-brown-3" d="M347,208.54c-2.58-.15-5.48,4.25-1.91,4S349.56,208.69,347,208.54Z"/><path class="cardboard-brown-4" d="M399.55,158.92c-1-1.2-7.55,4.67-7,6.56S400.55,160.14,399.55,158.92Z"/><path class="cardboard-brown-4" d="M383.21,175.5c-.89-1-5.68,2.78-4.23,4.12S384.1,176.5,383.21,175.5Z"/><path class="cardboard-brown-4" d="M381,181.88s15.64,4.64,16.43,5,3.55,2.74.55,4.66l-62.48,39.81,26.21-28.82s5.44,1.48,7.43,2.28,5.63-.77,7.5-2.28,1.32-2.5,0-3.1-9.21-3-9.21-3l1.8-1.93s9.88,3.56,11.77,3.86,7.67-3.45,8.46-3.86,9.8-5.2,6.59-6.4-16.76-4.39-16.76-4.39Z"/><path class="cardboard-brown-4" d="M376.2,182.73c-1.62-1.08-3.45,3.56-4.57,5.57s-3,3.22-5,4.89-2.56,4.9-4.68,6.57-4.45,1.78-6.12,4.68.89,2.44,2.89,0,13.25-12.71,14.69-15S377.82,183.83,376.2,182.73Z"/><path class="cardboard-brown-2" d="M557,90.27s-79.62,16.07-87.11,18.07-24.8-1-33-3.46S150.88,11.47,145.21,10s-3.38-3-3.38-3.72,1.59-1.1,4.75-1,97-4.65,97-4.65Z"/><path class="cardboard-brown-4" d="M345,217.23c-.94-1.15-3.45,1.45-3.78,3.57s-3.56,3.34-4.34,4,0,3.89,2,1.88S346.59,219.13,345,217.23Z"/><polygon class="cardboard-brown-4" points="283.2 54.81 345.79 75.24 325.28 84.72 260.68 63.42 283.2 54.81"/><path class="cardboard-brown-4" d="M531.45,95.45s5.54.54,5.9,1.5-2.28,2.88-3.48,2.76-10.61-2.59-10.61-2.59l-2.27.46s11.8,3.45,13.24,4.06a6.55,6.55,0,0,0,6.1-.76C542.64,99.35,557,90.27,557,90.27Z"/><path class="illu__stroke" d="M333.93,232.41l98.9-106.1s-6.87-9.26-21-13.33S116.78,15.82,116.78,15.82L.62,93.58l19.63,218,1.54,17.13h0c.37,4.17.43,4.81,2.39,9.94s-.63,9.6,0,16.65h0l5.71,66.95L333.35,598c4.6,2.66,8.57-1.12,8.57-1.12L539.33,409,557,90.27,333.93,232.41"/><line class="illu__stroke" x1="185.33" y1="22.91" x2="163.46" y2="31.27"/><line class="illu__stroke" x1="345.79" y1="75.24" x2="325.28" y2="84.72"/><line class="illu__stroke" x1="283.2" y1="54.81" x2="260.68" y2="63.42"/><path class="cardboard-brown-4" d="M519.58,111.73c-.82-.82-5.35,1.18-6.53,2.72s-12.52,7.71-11.88,8.35,6.44-3.36,8.16-4.36S520.31,112.46,519.58,111.73Z"/><path class="cardboard-brown-4" d="M524.57,108.37c1.41.79,4.08-.81,3.45-1.9S523.9,108,524.57,108.37Z"/><path class="cardboard-brown-4" d="M529.83,105.11c.55.55,3-.82,2.27-1.45S528.92,104.2,529.83,105.11Z"/><path class="cardboard-brown-4" d="M493.85,128.35c-1-1.51-11.89,5-11.18,5.74S494.43,129.21,493.85,128.35Z"/><path class="cardboard-brown-4" d="M478.37,137.84c-1-.53-8.66,3.75-7.59,4.45S479.47,138.45,478.37,137.84Z"/><path class="cardboard-brown-4" d="M444.12,158.76c-1.93-2.1-6.2,2.88-5.13,3.52S445.4,160.15,444.12,158.76Z"/><path class="cardboard-brown-4" d="M429.68,168.26c-1.3-1.67-8.88,2.36-10.57,5s-9,6.3-10.91,7.87.9,1.69,3.49,0,13.09-9,15.37-9.9S430.47,169.27,429.68,168.26Z"/><path class="cardboard-brown-1" d="M145.05,7.75c-.18,1.65,21.27,8.07,21.27,7.18C166.32,13.77,145.19,6.46,145.05,7.75Z"/><path class="cardboard-brown-1" d="M174.4,17.19c0,1.35,7.84,3.66,8.12,2.81S174.4,15.77,174.4,17.19Z"/><path class="cardboard-brown-1" d="M190.27,22.49c-.14,1.69,3.52,2.16,3.52,1.32C193.79,22.68,190.41,20.8,190.27,22.49Z"/><path class="cardboard-brown-1" d="M201.36,25.7c-.27,1.77,15.33,6,15.37,5.22S201.63,23.93,201.36,25.7Z"/><path class="cardboard-brown-1" d="M230.84,35.7c0,1.06,3.54,2.66,3.54,1.33S230.84,34.64,230.84,35.7Z"/><path class="cardboard-brown-1" d="M237.84,38c-.18,1.24,2.57,2.13,2.57,1S238,36.76,237.84,38Z"/><path class="cardboard-brown-1" d="M245.63,40.57c.32.81,28.27,10.35,28.24,9S245,39.06,245.63,40.57Z"/><path class="cardboard-brown-1" d="M329.79,68.28c-.11,1.71,11.85,5,11.85,3.66S329.85,67.24,329.79,68.28Z"/><path class="cardboard-brown-1" d="M357.27,76.81c0,1,8.79,4.48,8.79,3.17S357.32,75.85,357.27,76.81Z"/><path class="cardboard-brown-1" d="M392.49,88.66c0,1.28,5.37,2.53,5.37,1.61S392.49,87.39,392.49,88.66Z"/><path class="cardboard-brown-3" d="M535.45,86.33c4.72,1.38,10.73,3.2,9,3.67a10.65,10.65,0,0,1-4.48.66c-1.25-.24-23.14-7.48-23.74-7.12s20,6.78,20.94,7.19-.06.64-.72.76S534,92,533,92.25c-1.67.39-16.69-5.23-17.88-4.93s10.78,4.12,12.26,4.66,1.6.8,1,.92-6.47,1.28-9.21,1.69-2.95,1.52-5,1.58-3.29-.63-4.87,0-14.19,3.43-17.7,4.14-15.48,2.73-17.27,3.59-2.3,1.67-3.73,1.34-1.79-1.64-3.37-.88-5.44,1.15-7.81,1-8.46.38-11.25-1.13-6.81-.5-8.82-.28,0,1.68,1.22,2c8.95,2.18,22.8,4.17,29.28,2.44,7.49-2,87.11-18.07,87.11-18.07L422.46,51.79C429.42,55,530.74,85,535.45,86.33Z"/><path class="cardboard-brown-1" d="M402.63,91.65c-.08,1.27,3.5,2.47,3.5,1S402.72,90.37,402.63,91.65Z"/><path class="cardboard-brown-3" d="M462.43,103.94c.52-1.18-14.36-4.79-14.58-4.12S461.92,105.12,462.43,103.94Z"/><path class="cardboard-brown-3" d="M437,102.07c.15-.7-2.8-1.41-2.72-.13S436.72,103.44,437,102.07Z"/><path class="cardboard-brown-3" d="M471.64,103c.14-1.17-4.43-2.21-4.72-1.41S471.5,104.27,471.64,103Z"/><path class="cardboard-brown-3" d="M442.61,97.9c.15-1.18-2.43-1.86-2.5-.83S442.47,99.08,442.61,97.9Z"/><path class="cardboard-brown-3" d="M425.07,122.86c-1.22-.49-5.18-1.28-5.93-1.68s-7.18-3.84-7.51-3.17,6,3.61,7.43,4.85A6.17,6.17,0,0,0,424,124C425.32,123.77,425.6,123.08,425.07,122.86Z"/><path class="cardboard-brown-3" d="M420.39,126.44c.32-.64-4.17-2.08-4.42-1.58S419.47,128.28,420.39,126.44Z"/><path class="cardboard-brown-3" d="M408.29,117.2c.42-1-2.42-2.19-2.92-1.11S407.87,118.23,408.29,117.2Z"/><path class="cardboard-brown-4" d="M469.28,106.21c-.19-1.43-6.28-.4-5.4,1.18S469.52,108,469.28,106.21Z"/><path class="cardboard-brown-4" d="M477.45,103.82c-1,1.29,1.78,1.88,3.14,1.59s10.12-2,11.78-2.47-1.06-1.86-2.65-1.36-3.86,2.58-5.3,1.9-3.37-.89-4.33,0S478.17,102.92,477.45,103.82Z"/><path class="cardboard-brown-4" d="M496.79,101.23c-.25.88,5.76-.41,6.12-1.49S497.19,99.82,496.79,101.23Z"/><path class="cardboard-brown-4" d="M506.73,98.64c-.06,1.34,3.6.48,3.84-.88S506.78,97.29,506.73,98.64Z"/><path class="cardboard-brown-4" d="M519.21,96.17c.52,1,12.37-.81,13-1.69s-.91-1.7-1.86-1.3-2,2.18-3.27,1.91-2.24-.94-3.4-.3S518.36,94.57,519.21,96.17Z"/><path class="cardboard-brown-4" d="M535.68,93.08c-.07,1.06,5.44,0,5.44-.71S535.74,92,535.68,93.08Z"/><path class="cardboard-brown-4" d="M544.45,91.08c-.07.74,5.78.15,5.78-.81S544.52,90.33,544.45,91.08Z"/><path class="illu__stroke" d="M557,90.27s-79.62,16.07-87.11,18.07-24.8-1-33-3.46S150.88,11.47,145.21,10s-3.38-3-3.38-3.72,1.59-1.1,4.75-1,97-4.65,97-4.65Z"/></svg>
