<svg xmlns="http://www.w3.org/2000/svg" viewBox="0 0 824.36 514.64"><path class={`${clr1}-2`} d="M531.33,276.82s123.12,50.8,124.12,51.46.91,1.79,0,2.81L495.69,512c-1.64,1.84-4.2,2.89-6.61,1.49S362.78,438,362.78,438s-1.44,1.38-2.76.62L96,285.31c-1.32-.76.34-1.85.34-1.85S3.84,231.2,2.46,230.51s-2.82-1.92-1.33-2.71S171.5,125.11,171.5,125.11l105.55,43.33,1.26-.8s-100-42.1-102.48-43.29.54-2.08,1.88-2.86L384.2,1c1.35-.79,2.92-.56,4.89,0S489.23,33.4,489.23,33.4l.82-.52,221.5,71.63s.56.48,0,1.35c0,0,106.35,32.44,110.19,33.71s1.61,3.77,0,5.59L661.3,325.67c-1.31,1.48-2.71,1.88-5.28,1.27s-123.79-51-123.79-51Z"/><path class={`${clr1}-1`} d="M97.89,283.5c-1.41.27-.92,1.93,1.21,2.63s15.8,10,17.22,9.12S99.51,283.2,97.89,283.5Z"/><path class={`${clr1}-1`} d="M120.78,297.35c-.52,2.23,16.23,11.19,16.86,10.24S121.33,295,120.78,297.35Z"/><path class={`${clr1}-1`} d="M141.58,308.85c-.32,1.89,3.93,4.89,4.09,3.15S141.89,307,141.58,308.85Z"/><path class={`${clr1}-1`} d="M156.63,318c0,2.67,23.47,15.72,23.47,14.31S156.63,313.58,156.63,318Z"/><path class={`${clr1}-1`} d="M190.42,337.28c-.07,3.1,20.89,14.17,20.42,11.83S190.49,334.17,190.42,337.28Z"/><path class={`${clr1}-1`} d="M217.41,353c0,3.17,15.72,11.61,15.72,9.5S217.4,349.9,217.41,353Z"/><path class={`${clr1}-1`} d="M240.23,366.46c-.4,3.16,14.43,10.65,15.22,8.87S240.62,363.31,240.23,366.46Z"/><path class={`${clr1}-1`} d="M260.78,378c.05,2.65,5,5.26,5.49,3.49C267,378.92,260.75,376,260.78,378Z"/><path class={`${clr1}-1`} d="M3.71,228.45C3.36,231,15,236.44,15,234.86S4,226.55,3.71,228.45Z"/><path class={`${clr1}-1`} d="M22.53,238.91c-.3,1.48,5.6,5.31,5.6,3.24S22.82,237.44,22.53,238.91Z"/><path class={`${clr1}-1`} d="M42,250c-.15,1.48,22,14.74,22.25,12.53S42.12,248.49,42,250Z"/><path class={`${clr1}-1`} d="M76.31,269.56c.15,1.62,5.3,5.45,5.45,3.54S76.16,267.94,76.31,269.56Z"/><path class={`${clr1}-1`} d="M85,274.28c0,1,3.25,4.71,3.1,2.35S85.11,271.55,85,274.28Z"/><path class={`${clr1}-1`} d="M301.15,401.16c-.33,3,26.75,19.69,27.13,17.2S301.47,398.12,301.15,401.16Z"/><path class={`${clr1}-1`} d="M367.84,437.85c-.25,1.9,22.35,16.82,22.73,14.53S368.21,434.94,367.84,437.85Z"/><path class={`${clr1}-1`} d="M102.14,279.69c1.78.6,22.28-12.14,20.27-12.64S100.89,279.27,102.14,279.69Z"/><path class={`${clr1}-1`} d="M128.89,262.74c1.06.7,9.18-4.4,7.84-5.07S127.82,262,128.89,262.74Z"/><path class={`${clr1}-1`} d="M141.67,254.65c1.26.42,4.44-1.76,3-2.09S140.42,254.23,141.67,254.65Z"/><path class={`${clr1}-1`} d="M153.7,247c1.42.44,20.89-11.57,18.74-12.08S152.37,246.58,153.7,247Z"/><path class={`${clr1}-3`} d="M182.27,229.81c.67.42,16.89-8.9,15.64-9.56S181.61,229.4,182.27,229.81Z"/><path class={`${clr1}-3`} d="M203.32,216.51c1.08.74,5.82-3,5.07-3.58S202.23,215.76,203.32,216.51Z"/><path class={`${clr1}-3`} d="M213.88,209.77c.71.46,30.68-18.09,29.51-18.47C241.27,190.62,212.91,209.14,213.88,209.77Z"/><path class={`${clr1}-3`} d="M247.73,188.47c1,.37,13-6.73,11.56-7.31S246.4,188,247.73,188.47Z"/><path class={`${clr1}-3`} d="M276.51,169.76c-1.21-.36-14.31,8.4-13,8.82S278.76,170.43,276.51,169.76Z"/><path class={`${clr1}-3`} d="M374.83,426.44c1.61.88,24-19.31,20.92-19.9S373.22,425.57,374.83,426.44Z"/><path class={`${clr1}-3`} d="M406,396.74c1.9,1,12.29-8.78,9.8-9.37S404.09,395.71,406,396.74Z"/><path class={`${clr1}-3`} d="M423.12,380.5c2.39,1.47,6-4.08,4.88-4.9S421.22,379.33,423.12,380.5Z"/><path class={`${clr1}-3`} d="M439.07,365.42c1.9,1.18,26.63-23.56,25.75-24.87S436,363.52,439.07,365.42Z"/><path class={`${clr1}-3`} d="M473.16,332.65c2,.73,10.69-7.17,8.64-8.64S471.11,331.91,473.16,332.65Z"/><path class={`${clr1}-3`} d="M485.89,320.06c1.76.88,6-2.78,4-3.95S484.14,319.18,485.89,320.06Z"/><path class={`${clr1}-3`} d="M492.56,313.88c1.88,1.46,4.31-2,2.85-2.89S490.46,312.23,492.56,313.88Z"/><path class={`${clr1}-3`} d="M504.86,302.18c2.79.8,20.4-17.32,18.4-17.65S502.85,301.6,504.86,302.18Z"/><path class={`${clr1}-3`} d="M575.62,296.86c-.65.88,7.11,5,7.63,3.31S576.92,295.13,575.62,296.86Z"/><path class={`${clr1}-3`} d="M593.46,304.19c-.44,1.3,4.32,4.06,4.89,2.3S593.89,302.9,593.46,304.19Z"/><path class={`${clr1}-3`} d="M603.81,308.36c.09,1,3.76,3.06,3.6,1.44S603.67,306.78,603.81,308.36Z"/><path class={`${clr1}-3`} d="M619.77,315c-.28,1.29,18.58,9.78,18.84,8S620.06,313.69,619.77,315Z"/><path class={`${clr1}-3`} d="M654,327.65s-8,8.83-9.16,10.27-2.71,2.44-3.14,3.73a8.24,8.24,0,0,1-3.09,3.59c-1.3.86-12.22,13.7-13.08,15.14s-2.37,4.62-3.66,4.76-2.57,1.85-3.29,3.14-32.37,35.92-35.34,39.59-6.31,5.29-8.56,8-1.42,5-3.51,6.37-6.85,6.36-9.3,9.51-40.19,45-44.55,49.75S499,501.56,497,504.08c-2.26,2.88-9.44,9.19-6.6,9.94h0a5.53,5.53,0,0,0,5.3-2L655.45,331.09C656.36,330.07,657.22,328.55,654,327.65Z"/><path class={`${clr1}-4`} d="M652.89,331.64c-.9-1-9.74,7.5-8.79,9.36S654.17,333,652.89,331.64Z"/><path class={`${clr1}-4`} d="M639.15,346.58c-.58-.64-5.48,3.41-4.16,4.73S640.38,347.93,639.15,346.58Z"/><path class={`${clr1}-4`} d="M632.5,354.67c-.69-.83-4.59,2.06-3.41,3.5S633.66,356.08,632.5,354.67Z"/><path class={`${clr1}-4`} d="M622.44,366.42c-1-.92-4.41,1.23-3.28,3.38S623.46,367.34,622.44,366.42Z"/><path class={`${clr1}-4`} d="M574.6,420.1c-2.13-1.72,4.45-8.42,6.16-7.39S576.24,421.42,574.6,420.1Z"/><path class={`${clr1}-4`} d="M584.55,408.92c1.12,1.2,11.67-10.65,10.65-11.47S582.91,407.18,584.55,408.92Z"/><path class={`${clr1}-4`} d="M612.3,377.89c-1.4-.85-12.09,10.55-10.65,12S613.69,378.75,612.3,377.89Z"/><path class={`${clr1}-4`} d="M571.49,423.91c-.77-1.09-11.57,8.9-9.67,11.13S572.66,425.55,571.49,423.91Z"/><path class={`${clr1}-4`} d="M554.25,443.72c-1.07-1.19-4.12,2.45-4.79,5.12s-3.89,5-5.89,6.12a9.75,9.75,0,0,0-5.12,6.23c-.67,3.11-4.34,5.32-6.68,6.12s-6.12,5.79-6.45,8.35,2,.91,3.39-1.05S547,453.73,547,453.73l6.69-7.43S555.25,444.83,554.25,443.72Z"/><path class={`${clr1}-4`} d="M516.28,486.62c-1.37-2.57-9.3,6.42-7.45,8.4S517.37,488.65,516.28,486.62Z"/><path class={`${clr1}-1`} d="M281.69,169.75c-1.22.16-1.59,1.28.29,1.78s4.78,1.38,5.65,2.25,2.24.94,2.32,0-4.06-2.83-5.8-3S283.14,169.56,281.69,169.75Z"/><path class={`${clr1}-3`} d="M300.73,177.16c-.69.86,6.89,4.49,8,4S301.42,176.29,300.73,177.16Z"/><path class={`${clr1}-3`} d="M315.11,183.61c-.43.75,5.42,4,5.94,2.85S315.8,182.41,315.11,183.61Z"/><path class={`${clr1}-3`} d="M324.75,187.58c-.6.77,2.67,2.15,2.85,1.37S325.36,186.8,324.75,187.58Z"/><path class={`${clr1}-3`} d="M335.78,192.4c-1,1,11.79,7,13,5.77S336.64,191.54,335.78,192.4Z"/><path class={`${clr1}-3`} d="M358.3,202c-.6,1.29,6.84,4.56,7.36,3.61S358.9,200.66,358.3,202Z"/><path class={`${clr1}-3`} d="M383.93,212.68c-.89,1.48,38.89,18.78,39.48,17.45S384.82,211.21,383.93,212.68Z"/><path class={`${clr1}-3`} d="M379.11,210.46c-.35.91,2.51,3.21,3.14,1.68S379.46,209.56,379.11,210.46Z"/><path class={`${clr1}-3`} d="M430.62,232.7c-.31.65,5.44,4.25,6.27,2.85S431.25,231.37,430.62,232.7Z"/><path class={`${clr1}-3`} d="M440.79,237.09c-.2.56,2,2.93,2.58,1.39S441,236.53,440.79,237.09Z"/><path class={`${clr1}-3`} d="M447.63,240.08c-.28.77,2.64,2.86,2.92,1.19S447.9,239.32,447.63,240.08Z"/><path class={`${clr1}-3`} d="M470.63,249.69c-.25,1.17,23.95,11.89,24.21,10.53S471.06,247.74,470.63,249.69Z"/><path class={`${clr1}-3`} d="M499.68,262.34c-.17,1.19,8.66,5.1,8.74,3.48S499.85,261.15,499.68,262.34Z"/><path class={`${clr1}-3`} d="M516.15,269.05c-.17.85,10.36,6.71,10.62,4.76S516.32,268.2,516.15,269.05Z"/><path class={`${clr1}-3`} d="M511.48,266.67c-.17,1.11,2.36,3.49,2.58,1.45S511.65,265.57,511.48,266.67Z"/><path class={`${clr1}-3`} d="M286.22,163.19c2.1.75,36.75-20.53,33.38-20.95S283.27,162.14,286.22,163.19Z"/><path class={`${clr1}-3`} d="M327.6,137.08c1.68.63,8.95-3,6.84-4S325.93,136.45,327.6,137.08Z"/><path class={`${clr1}-3`} d="M339.6,129.39c1.68.74,10.32-3.68,8.32-5.26S337.92,128.66,339.6,129.39Z"/><path class={`${clr1}-3`} d="M360.76,116.44c2.11,1,20.53-11.44,18.53-11.93S358.24,115.31,360.76,116.44Z"/><path class={`${clr1}-3`} d="M398.27,92.26c1.84,1,12.16-5.23,9.33-5.94S396.44,91.27,398.27,92.26Z"/><path class={`${clr1}-3`} d="M424.69,74.71C426.81,76.1,448.76,62.23,446.8,61S423.82,74.14,424.69,74.71Z"/><path class={`${clr1}-3`} d="M453.94,56.49c1.27.62,11.74-6.57,10.53-7S451.86,55.48,453.94,56.49Z"/><path class={`${clr1}-3`} d="M471.45,45.08c1.35.8,9.46-3.82,7.25-4.49S470.31,44.41,471.45,45.08Z"/><path class={`${clr1}-3`} d="M821.74,139.57c-3.84-1.27-110.19-33.71-110.19-33.71.56-.87,0-1.35,0-1.35l-17.21-5.57h0c2.41,2,5.41,3.59,7.37,3.85s8.35,1.57,7.31,2.22-1.17,2.09,1.57,2.48,15,2.48,18,5,11.48,4.17,13.7,4.31,20.1,6.39,24.15,8.35,10,2.22,11,2.87-7.83,7.18-6.52,7.7,8-7.31,10.18-6.66,3.91.92,3.39,1.83S767,146.12,768,146.51s17.23-14.22,18-14.61,3.91,0,5.35.52-27.28,27.41-26.11,27.93,26.63-25.71,27.67-26.24a3.65,3.65,0,0,1,3.53-.39c1.56.66,1.8,1.07,1.17,2.61-.71,1.75-20.87,20.7-18.87,21.19,1.43.34,20.18-21.19,22-21.19s3.79,0,5,.79-18.3,18.31-16.6,18.84,16.47-16.76,18.56-17.28,3.4-.52,4.83.39-44,46.34-42.29,47.12,42.68-44.77,44-45.55,4.44,0,5.48.39-2.87,3-4.7,5.09-1.83,5-3.65,6.4-3.92,2.09-4.57,4.17-3.66,5.09-7.18,8.49-32,35.76-36,40.07-54.43,60.44-57.36,63.67-5.64,3.85-6.9,7-2.86,6.69-5,7.53-4,4-5.05,5.85-24.89,26.62-24.89,26.62-6.69,5.57-7.11,7.35c-.32,1.38-1.61,3.14-1,3.73.4.08.76.14,1.11.18a8,8,0,0,1,1.13,0,4.11,4.11,0,0,0,2.82-1.53L821.74,145.16C823.35,143.34,825.57,140.84,821.74,139.57Z"/><path class="stroke" d="M531.33,276.82s123.12,50.8,124.12,51.46.91,1.79,0,2.81L495.69,512c-1.64,1.84-4.2,2.89-6.61,1.49S362.78,438,362.78,438s-1.44,1.38-2.76.62L96,285.31c-1.32-.76.34-1.85.34-1.85S3.84,231.2,2.46,230.51s-2.82-1.92-1.33-2.71S171.5,125.11,171.5,125.11l105.55,43.33,1.26-.8s-100-42.1-102.48-43.29.54-2.08,1.88-2.86L384.2,1c1.35-.79,2.92-.56,4.89,0S489.23,33.4,489.23,33.4l.82-.52,221.5,71.63s.56.48,0,1.35c0,0,106.35,32.44,110.19,33.71s1.61,3.77,0,5.59L661.3,325.67c-1.31,1.48-2.71,1.88-5.28,1.27s-123.79-51-123.79-51Z"/><path class={`${clr1}-3`} d="M787.14,159.22c-1.13-.43-10.78,8.37-9.36,9.36S788.28,159.64,787.14,159.22Z"/><path class={`${clr1}-3`} d="M772.53,172.69c-1-.71-3.69,1.7-2.27,2.41S773.52,173.4,772.53,172.69Z"/><path class={`${clr1}-3`} d="M768,176.66c-1-.42-3,2.27-1.84,2.56S769,177.09,768,176.66Z"/><path class={`${clr1}-3`} d="M765.81,191.42c-.63-.44-6.61,5.24-5.19,6.09S767,192.27,765.81,191.42Z"/><path class={`${clr1}-3`} d="M774.94,160.49c-1-.56-4.52,2.47-3.6,3.44S775.94,161.06,774.94,160.49Z"/><path class={`${clr1}-3`} d="M769,166c-1.28-.43-4.42,1-3,1.7S770.26,166.45,769,166Z"/><path class={`${clr1}-3`} d="M761.18,164.08c-.61-.4-6.8,4.07-5.24,4.57S762.32,164.83,761.18,164.08Z"/><path class={`${clr1}-4`} d="M659,323.86c.39,3.17,12.29-8,12.1-11.35S659,323.86,659,323.86Z"/><path class={`${clr1}-4`} d="M675,307.06c.26,2.73,6-1.95,5.62-4.85S674.8,305.28,675,307.06Z"/><path class={`${clr1}-4`} d="M690.48,290.61c.27,1.92,5.68-3.06,4.77-5.11S690.21,288.68,690.48,290.61Z"/><path class={`${clr1}-4`} d="M700.7,276.8c.61,3.63,5.63-1.53,5.46-3.58S700.36,274.76,700.7,276.8Z"/><path class={`${clr1}-4`} d="M712,265.51c1.63,1.51,11.07-9.3,14.5-13.15s6.5-8.51,4.51-7.85a11.37,11.37,0,0,0-6.19,6.41,10.33,10.33,0,0,1-5,5.86c-1.88,1.1-2.76,2.54-3.87,4.31S710.41,264.07,712,265.51Z"/><path class={`${clr1}-4`} d="M737.94,236c-.37,3.46,8.27-5.81,8.16-8S738.15,233.93,737.94,236Z"/><path class={`${clr1}-4`} d="M756.85,215c-.3,2.7,12.12-9.68,12.46-12.37S757.07,213.08,756.85,215Z"/><path class={`${clr1}-4`} d="M773.84,196.1c-.13,2.53,6.56-4.52,7-7.1S774,194,773.84,196.1Z"/><path class={`${clr1}-4`} d="M788.46,180.32c0,3,7.94-6.24,8.49-9S788.43,177,788.46,180.32Z"/><path class={`${clr1}-4`} d="M807.27,158c-.11,2.15,3.38-.84,3.33-2.9S807.38,155.89,807.27,158Z"/><path class={`${clr1}-4`} d="M815.58,148.91c.75,1.66,6.42-3.12,6.52-5.81s-2.25-.64-3.17.86S814.61,146.76,815.58,148.91Z"/><path class={`${clr1}-3`} d="M537.3,270.89c1.42.83,15.63-12.08,13.86-13S535.88,270.06,537.3,270.89Z"/><path class={`${clr1}-3`} d="M557.55,251.7c1.54.59,8.53-5.68,6.4-6.16S556,251.11,557.55,251.7Z"/><path class={`${clr1}-3`} d="M572,237.92c1.69,1.13,3.67-1.74,2.72-2.33S571.07,237.29,572,237.92Z"/><path class={`${clr1}-3`} d="M583,227.39c1.84,1.31,23.69-20.11,22.15-21.17S581.48,226.3,583,227.39Z"/><path class={`${clr1}-3`} d="M610.62,201.36c1.66.95,4.5-2.37,3.08-3.08S609,200.41,610.62,201.36Z"/><path class={`${clr1}-3`} d="M619.38,192.6c1.54.94,12.32-9.36,10.9-10.31S617.84,191.65,619.38,192.6Z"/><path class={`${clr1}-3`} d="M646,167.38c1.93.88,31.38-26.73,28.83-27.87S644.07,166.5,646,167.38Z"/><path class={`${clr1}-3`} d="M681.88,133c1.65,1,17.4-14.07,15.38-14.77S680.73,132.3,681.88,133Z"/><path class={`${clr1}-3`} d="M700.87,114.54c1.31.41,7.47-5.19,6.33-5.8S699.2,114,700.87,114.54Z"/><path class={`${clr1}-1`} d="M179.52,122.23c-1.38.23-3,.87-1.52,1.64s5.44,2.79,5.57,1.91S180.29,122.11,179.52,122.23Z"/><path class={`${clr1}-1`} d="M187.05,127c-.06.9,4.43,3.47,4.65,2.13S187.11,126.19,187.05,127Z"/><path class={`${clr1}-1`} d="M194.45,129.86c-.29.87,2.16,2.74,2.23,1.44S194.74,129,194.45,129.86Z"/><path class={`${clr1}-1`} d="M197.93,131.3c-.3.9,1.59,2.42,1.9,1.28S198.23,130.4,197.93,131.3Z"/></svg>
