<svg xmlns="http://www.w3.org/2000/svg" viewBox="0 0 651.14 618.75"><path class={`${clr1}-2`} d="M646.37,30.3,640,33.4,504.51,36.77v-16l-32.32,7.19c-8.77,3.2-10.57,9.92-10.57,9.92h0l-120.19,3-26.65-1.14c-14.12-.61-12.15,2.49-12.82,17.68s-11.25,251.35-11.91,266.41-.42,15.06,15.66,15.45l25.11.61-2.23,4.91-18.65,40.94L91.76,457l243.05,76.44-4,1.64,2.15.46,121.28-11.43,63.18-75.27,83.15.93L621.07,389l4.83,4.39c1.72,1.56,4.41,4,5.24-10.87S649.78,50.3,650.31,40.83,650.6,28.23,646.37,30.3Z"/><path class={`${clr1}-3`} d="M341.43,40.83,321.81,20.58c-5.54-5.72-6.18-7.83,9.11-8.47L602.57.7C620.16,0,623,4.75,627.79,12.8L640,33.4,504.51,36.62a43.87,43.87,0,0,0-28.16-9.07c-16.94.59-14.73,10.29-14.73,10.29Z"/><polygon class={`${clr1}-2`} points="541.69 427.32 540.86 380.06 601.83 392.25 583.38 433.17 541.69 427.32"/><path class={`${clr1}-3`} d="M355.26,358.62,369.37,361s-5.13,11.33-5.65,12.56-2.05,2.76-2.12,4.07-1.74,5.44-2.47,7.4-3.48,9.29-3.48,9.29l-.39-.43Z"/><path class={`${clr1}-3`} d="M6.09,430c21.29-7.35,289.76-85.46,303.85-87.67l45.32,5.86v45.68l-45.32-8.19L91.76,457Z"/><polygon class={`${clr1}-3`} points="601.83 400.74 616.12 403.69 600.58 449.72 601.83 400.74"/><path class={`${clr1}-2`} d="M355.26,348.2l-30.21-3.91-15.11-2h0C295.85,344.55,27.38,422.66,6.09,430l2.32.72c167.77-50,301.53-86.8,301.53-86.8s9.84,14.2,12.52,16.87,1.17,3.35,2.68,5.36,8,13.55,9.67,16.73,3.88,7.2,8.74,7.7a44.65,44.65,0,0,1,10.88,3.14l.83.15V348.2Z"/><path class={`${clr1}-1`} d="M23,424.74c-3.67.5-3.58,2.72.85,1.41S24.55,424.52,23,424.74Z"/><path class={`${clr1}-1`} d="M29.68,422.72c-1.67.5-1,2,.59,1.51S31.35,422.21,29.68,422.72Z"/><path class={`${clr2}-4`} d="M333.32,616.08l3.25,1.49,264-167.85,1.25-57.47C498,455.23,345.62,531.74,333,535.49l-2.15-.46-3.47,1.44Z"/><path class={`${clr1}-3`} d="M345.11,393.4c-49.95,21.35-48.54,20.51-51.56,21.92s-2,2.27-4.88,3.33-9.2.57-10.23,1.32-4.3,1.43-5,1.8-2.71,2.12-3.84,2.5-4,.26-6.3,1.29S194.26,452,189.16,454.21s-3.64,3.06-8.06,3.74-5.18.21-7.72,1.74-32.81,12.61-32.81,12.61L91.76,457l218.18-71.26Z"/><polygon class={`${clr2}-3`} points="0.63 431.63 4.46 485.46 333.47 618.12 327.35 536.47 334.81 533.39 6.09 430.01 0.63 431.63"/><path class="stroke" d="M91.76,457l218.18-71.26,45.32,8.19V348.2l-45.32-5.86C295.85,344.55,27.38,422.66,6.09,430"/><path class={`${clr2}-2`} d="M.62,431.62,14.26,436c3.92,1.26,8,3.31,11,3.51s15.48,5,18.45,5.92l77.62,24.91c11.68,3.75,18.94,7,21.91,7s10.17,3.27,12.3,3.95l87.64,28.12c2.92.94,4.71.22,6.09.88s.42,1.21,2.56,1.9,8.07,3.15,8.93,4.27,3.07-.42,5.78.45l59,18.93,9.34-2.48L6.09,430Z"/><line class="stroke" x1="330.82" y1="339.84" x2="328.59" y2="344.75"/><line class="stroke" x1="600.58" y1="449.72" x2="621.07" y2="389"/><path class="stroke" d="M341.43,40.83,321.81,20.58c-5.54-5.72-6.18-7.83,9.11-8.47L602.57.7C620.16,0,623,4.75,627.79,12.8L640,33.4"/><path class="stroke" d="M640,33.4l6.34-3.1c4.23-2.07,4.47,1.06,3.94,10.53L631.14,382.52c-.83,14.87-3.52,12.43-5.24,10.87L621.07,389"/><path class="stroke" d="M461.62,37.84s-2.21-9.7,14.73-10.29a43.87,43.87,0,0,1,28.16,9.07"/><polygon class="stroke" points="0.63 431.63 4.46 485.46 333.47 618.12 327.35 536.47 334.81 533.39 6.09 430.01 0.63 431.63"/><path class={`${clr2}-2`} d="M246.74,511.18c-.59,1.19,2.48,1.66,2.54,1S247.33,510,246.74,511.18Z"/><path class="stroke" d="M601.83,392.25l-61-12.19.83,47.26"/><path class={`${clr2}-2`} d="M333.78,537.74s44.1-20.88,53.89-25.95,88-46.22,108.72-57S580.59,407,601.78,394.6l.05-2.35C498,455.23,345.62,531.74,333,535.49l-2.73,1.3Z"/><path class="stroke" d="M330.82,535l2.15.46c12.65-3.75,165-80.26,268.86-143.24l-1.25,57.47-264,167.85-3.25-1.49"/><path class={`${clr1}-3`} d="M326.55,364.35c-.59.29-.64,2,.8,2.61s15.53,3.82,15.83,2.9-11.25-2.43-12.94-3.05S327.32,364,326.55,364.35Z"/><path class={`${clr1}-5`} d="M239.9,465c-2.32.76-7,6.78,0,7.31s16.86-.78,21.43,0,10.11-2.84,5.06-4.77S251,467.5,248,465,244.72,463.41,239.9,465Z"/><path class={`${clr1}-5`} d="M301.6,472.3c-3.37,1.81-19.26,10.48-8.35,10.64s12-5.95,22.39-6.91,29,2.25,35.4-2.25-13.84-6.88-16.23-10.34-20.69-5.77-27.43-2.85S306.89,469.46,301.6,472.3Z"/><path class={`${clr1}-5`} d="M357.25,447.92c-4.1,3.4.59,8.27,10.34,5.32s16.25-12.41,8.86-12.41-7.68,6.67-11.52,6.58S359,446.45,357.25,447.92Z"/><path class={`${clr1}-5`} d="M310.82,434c-5.86.13,1.17,7.47,10.07,4.51S314.61,433.87,310.82,434Z"/><path class={`${clr1}-5`} d="M423.81,394.78c-5.14.41-9,4.11-6.5,4.86s15.82,1.33,21.47,2.45,11.86,4,13.55,1.6-6.21-5.27-13.83-5.55S427.3,394.51,423.81,394.78Z"/><path class={`${clr1}-5`} d="M459.68,403.69c-2.54.38,3.67,4.62,6.35,4.05S462.22,403.3,459.68,403.69Z"/><path class={`${clr1}-5`} d="M473.52,405.73c-.85,2,4.51,4.09,5.08,2.06S474.36,403.71,473.52,405.73Z"/><path class={`${clr1}-5`} d="M296.73,436.56c-3.61,2.33.48,3.92,4.5,2.6S298.15,435.64,296.73,436.56Z"/><path class={`${clr1}-5`} d="M362.76,442.11c3.08-.95-1.42-2.8-3.78-1.28S359.69,443.06,362.76,442.11Z"/><path class={`${clr1}-5`} d="M330.24,487.31c-3.21,1.18,1.47,2.37,4.57,1.66S333.46,486.13,330.24,487.31Z"/><path class={`${clr1}-1`} d="M360.26,396.73c-1.43.7,2.2,1.15,3.57,1.31s3.14.86,3.63.27-3.87-1.44-4.84-1.58S361.14,396.3,360.26,396.73Z"/><path class={`${clr1}-1`} d="M372.54,399.42c-.87.56,3,1.54,3.3.73S373.41,398.86,372.54,399.42Z"/><path class={`${clr1}-1`} d="M379.57,401c-.46.47,2,1.28,2.53.55S380,400.49,379.57,401Z"/><path class={`${clr1}-1`} d="M383.88,401.81c-.33.76,1.37,1.24,1.69.52S384.2,401.05,383.88,401.81Z"/><path class={`${clr1}-1`} d="M391.82,403.65c.23.74,2.81,1.29,4.75,1.61s6.09,1.34,7.41,1.06-7.25-1.08-8.55-2.3S391.5,402.65,391.82,403.65Z"/><path class={`${clr1}-1`} d="M409.51,407.54c-.62.75,2.8,1.42,3.38.74S410.14,406.78,409.51,407.54Z"/><path class={`${clr1}-1`} d="M415,408.74c.1.62,2,1.5,2.5.55S415,408.43,415,408.74Z"/><path class={`${clr1}-1`} d="M428.42,411.69c-.72.35,1.11.79,1.6.35S429.41,411.2,428.42,411.69Z"/><path class={`${clr1}-1`} d="M434.54,413.14c1-.81-1.36-.95-2.15-.58S433.71,413.81,434.54,413.14Z"/><path class={`${clr1}-1`} d="M438.54,413.91c-.75,1.12,9.19,2.26,10.94,2.75s10.52,2,11.71,2.67,3.61,1.17,3.77.37-5.8-1.32-7.34-1.81-8-2.07-11.57-2.77S439,413.18,438.54,413.91Z"/><path class={`${clr1}-1`} d="M470.71,421c-1,1.24,7.87,2.11,9.53,2.44s10.1,2.07,11,2.48,1.32.34,1.36-.12-6.13-1.37-7.18-1.57-7.59-2.45-9.91-2.86S471.36,420.18,470.71,421Z"/><path class={`${clr1}-1`} d="M500.11,427.42c-.66.88,6.91,2.42,7.51,1.65S500.76,426.54,500.11,427.42Z"/><path class={`${clr1}-1`} d="M514.16,430.5c-.19.51,4.48,2,4.61,1S514.54,429.48,514.16,430.5Z"/><path class={`${clr1}-1`} d="M522.85,432.41c-.21.69,3,1.59,3.13.69S523.07,431.72,522.85,432.41Z"/><path class={`${clr1}-3`} d="M370.27,396.5c-2-.3-3.88-.25-2.77.41a14.51,14.51,0,0,0,5.84,1c1.16-.17,2.73-.25,3.39.63s2.5,1.42,2.78.64-1.66-1.66-4.19-2.19C373.21,396.55,371.51,396.69,370.27,396.5Z"/><path class={`${clr1}-3`} d="M383.36,399.18c-1,.05-.2,1.67.47,1.28s2.51-.78,3.42.28,4.05,1.58,5,1.07-1.16-1.74-3.81-2S384.43,399.13,383.36,399.18Z"/><path class={`${clr1}-3`} d="M400.17,403.66c-.3.67,3.14,1.58,3.56,1S400.58,402.71,400.17,403.66Z"/><path class={`${clr1}-3`} d="M406.62,404.9c-.24.62,2.16,1.61,2.32.83S406.87,404.28,406.62,404.9Z"/><path class={`${clr1}-3`} d="M419.46,407.9c-.17.77,8.23,2.92,8.79,2.18S419.62,407.13,419.46,407.9Z"/><path class={`${clr1}-3`} d="M437.35,411.46c-.85.07-.19,1.73,1.15,1.41s4,1,5.3.51S438.67,411.36,437.35,411.46Z"/><path class={`${clr1}-3`} d="M456.64,415.79c-.58.75,2.9,1.79,3.81,1.1S457.22,415.05,456.64,415.79Z"/><path class={`${clr1}-3`} d="M467.07,418.61c-.58.91,2.16,2.15,2.65.49S467.65,417.7,467.07,418.61Z"/><path class={`${clr1}-3`} d="M493.74,424.4c-.15.51,3.06,1.49,4.38,1.33S494.19,422.89,493.74,424.4Z"/><path class="stroke" d="M461.62,37.84s1.8-6.72,10.57-9.92"/><path class={`${clr1}-1`} d="M342.2,46c-.79.21-1,10.72-1.05,13s-.54,14.07-.13,14.53,1.11-5.77,1.11-10.72S343.17,45.78,342.2,46Z"/><path class={`${clr1}-1`} d="M340.86,81.08c-.86,0-.84,9.27,0,9.25C341.86,90.31,341.74,81.08,340.86,81.08Z"/><path class={`${clr1}-1`} d="M340.61,94.23c-1.33,0-.81,3.75,0,3.59S341.94,94.23,340.61,94.23Z"/><path class={`${clr1}-1`} d="M340.61,104.81c-1.43.3-1.28,19.74-1.28,23.19s-.53,12.64,0,10.55,1.2-20.37,1.28-23.82S342.08,104.5,340.61,104.81Z"/><path class={`${clr1}-1`} d="M339.09,152.27c-2.26-.39-.91,21.08-1.18,25.59s1.27.28,1.18-9S340.7,152.55,339.09,152.27Z"/><path class={`${clr1}-1`} d="M337.76,193.74c-1.75-.12-1.36,9.31-1.22,11.09S339.5,193.86,337.76,193.74Z"/><path class={`${clr1}-1`} d="M336.4,213.18c-1.77,0-1.36,8.48,0,7.94S338.18,213.18,336.4,213.18Z"/><path class={`${clr1}-1`} d="M335.22,243.7c-2.06.67-.87,26.28-1.14,30.52s-2.6,33.95-1.23,32.58,2.69-26.56,2.37-35.59S337.32,243,335.22,243.7Z"/><path class={`${clr1}-3`} d="M339.09,71.28c-1-.24-1.51,7.56-1.33,11.09s1.36-2.52,1.33-5.55S340.13,71.53,339.09,71.28Z"/><path class={`${clr1}-3`} d="M336.4,135c-1.14.13-.39,11-1.18,14s-.49,7.94.59,5.34,1.89-9.72,1.55-13S337.56,134.9,336.4,135Z"/><path class={`${clr1}-3`} d="M334.77,181.3c-1.85.14-1.24,11.36-.52,11.22S336.63,181.16,334.77,181.3Z"/><path class={`${clr1}-3`} d="M334.25,206.21c-1.33.41-1.15,7.26,0,5.89S335.58,205.8,334.25,206.21Z"/><path class={`${clr1}-3`} d="M333.55,225c-1.14-.26-.4,5.2-1.13,8.62s-.84,10.12.56,7.94.68-7.53,1.27-11.22S334.72,225.24,333.55,225Z"/><path class={`${clr1}-3`} d="M330.82,309.41c-1.19,0-1.59,12.87-1.59,15.6s.09,10.68-.64,11.5S296,338.72,296,338.72s32.33,3.29,33.6,1.09,1.68-5.9,1.18-9.18.73-11.21.87-15.2S332.15,309.41,330.82,309.41Z"/><path class="stroke" d="M341.43,40.83l-26.65-1.14c-14.12-.61-12.15,2.49-12.82,17.68s-11.25,251.35-11.91,266.41-.42,15.06,15.66,15.45l25.11.61"/><path class={`${clr1}-1`} d="M639.64,40.83c-1.35.2-1.27,13-1.36,15.67s-.57,16.92-1,19-.28,4.22.33,4,1.16-8.89,1.26-12.07.1-18,.8-20.75S640.63,40.67,639.64,40.83Z"/><path class={`${clr1}-1`} d="M637,90.56c-1.6.49-1.06,11.84-1.2,13.43s-1.82,22.81-.7,22.06,1.41-13.93,1.41-15.33S638.41,90.13,637,90.56Z"/><path class={`${clr1}-1`} d="M634.71,133.26c-1.2.27-1.17,5-.25,4.66S635.91,133,634.71,133.26Z"/><path class={`${clr1}-1`} d="M634.22,142.51c-1.26.09-1,3.55-.19,3.46S635.39,142.43,634.22,142.51Z"/><path class={`${clr1}-1`} d="M633.73,151.67c-1.12.29-1.53,20.94-1.91,23.65s-2.35,31-1,30.56,1.24-12.43,1.21-14.48S634.79,151.39,633.73,151.67Z"/><path class={`${clr1}-1`} d="M630,220.75c-1.47,1.47-1.69,11.48-.58,10.92S630.74,220,630,220.75Z"/><path class={`${clr1}-1`} d="M628.5,249.75c-1,.33-1.25,7.16-.37,6.92S629.55,249.41,628.5,249.75Z"/><path class={`${clr1}-1`} d="M626,296.54c-1.25,0-4,44.57-2.35,44S627.57,296.54,626,296.54Z"/><path class={`${clr1}-1`} d="M335.11,340.57c-.06,1.22,23.36,4.84,28.54,5.56s27.78,5.91,28,4-26.58-5-32.4-6S335.18,339,335.11,340.57Z"/><path class={`${clr1}-1`} d="M409.44,353.16c-.54,2,6.09,1.79,5.58.94S410,351.19,409.44,353.16Z"/><path class={`${clr1}-1`} d="M425.07,355.8c-.14,1.5,13.92,3.76,14.13,2.4S425.22,354.31,425.07,355.8Z"/><path class={`${clr1}-1`} d="M450.32,360.08c.26,1.9,12,2.2,14.64,3.13s16.41,4.09,17.29,2.28-18.27-3.68-20.91-4S450,358,450.32,360.08Z"/><path class={`${clr1}-1`} d="M492.13,367.16c-.14,1.65,8.72,2.51,9,1.53S492.27,365.52,492.13,367.16Z"/><path class={`${clr1}-1`} d="M509,370c.65,1.61,3.75,1.77,3.94.66S508.7,369.21,509,370Z"/><path class={`${clr1}-1`} d="M527.32,373.12c.11,1.63,17.26,3.63,20.22,4.25s30.16,6.22,30.56,4.36-15.16-3.56-20-4.12S527.17,370.9,527.32,373.12Z"/><path class={`${clr1}-1`} d="M587.9,383.39c-.37,1.91,17.47,4.68,17.65,3S588.27,381.47,587.9,383.39Z"/></svg>
