<svg xmlns="http://www.w3.org/2000/svg" viewBox="0 0 43.76 43.76"><path class="stroke round" d="M13.91,12.16l4.38-7.55c.75-1.3,2.15-2.1,3.65-2.1h0c1.5,0,2.89,.8,3.65,2.1l6.52,11.19"/><polyline class="stroke round" points="33.74 9.67 32.1 15.79 25.82 14.11"/><path class="stroke round" d="M15.73,36.69l-8.73-.02c-1.5,0-2.89-.81-3.65-2.11h0c-.75-1.3-.75-2.9,0-4.2l6.43-11.25"/><polyline class="stroke round" points="3.66 20.75 9.78 19.11 11.46 25.4"/><path class="stroke round" d="M36.06,22.84l4.35,7.57c.75,1.3,.75,2.91,0,4.21h0c-.75,1.3-2.14,2.1-3.64,2.11l-12.96,.05"/><polyline class="stroke round" points="28.3 41.26 23.82 36.78 28.42 32.18"/></svg>
