<svg xmlns="http://www.w3.org/2000/svg" viewBox="0 0 43.76 43.76"><path class="stroke " d="M35.58,19.59c-.09-.54-.22-1.07-.37-1.59-.14-.46,0-.97,.38-1.27l3.08-2.45c.44-.35,.59-.96,.32-1.46-.55-1.05-1.19-2.06-1.96-3.01s-1.61-1.81-2.5-2.58c-.43-.36-1.06-.36-1.5,0l-3.07,2.45c-.38,.3-.9,.33-1.33,.09-.47-.26-.96-.5-1.47-.71-.46-.19-.77-.62-.77-1.11v-3.92c0-.56-.39-1.06-.94-1.17-1.16-.22-2.35-.35-3.58-.35s-2.42,.13-3.58,.35c-.55,.11-.94,.6-.94,1.17v3.92c0,.49-.31,.92-.77,1.11-.5,.21-.99,.44-1.47,.71-.43,.24-.95,.21-1.33-.09l-3.07-2.45c-.44-.35-1.07-.36-1.5,0-.9,.77-1.74,1.62-2.5,2.58s-1.41,1.97-1.96,3.01c-.26,.5-.11,1.11,.32,1.46l3.08,2.45c.38,.3,.52,.8,.38,1.27-.15,.52-.28,1.05-.37,1.59-.08,.49-.43,.88-.91,.99l-3.81,.87c-.55,.12-.95,.62-.93,1.18,.04,1.18,.18,2.37,.46,3.57,.27,1.19,.66,2.33,1.14,3.41,.23,.51,.8,.78,1.35,.66l3.83-.87c.48-.11,.96,.1,1.25,.5,.31,.45,.65,.87,1.01,1.28,.33,.37,.42,.88,.21,1.32l-1.7,3.53c-.24,.51-.11,1.12,.34,1.46,.95,.7,1.97,1.34,3.07,1.87,1.1,.53,2.23,.94,3.38,1.24,.54,.14,1.11-.14,1.35-.64l1.7-3.54c.21-.44,.67-.69,1.16-.66,.27,.02,.54,.03,.82,.03s.55-.01,.82-.03c.49-.03,.95,.22,1.16,.66l1.7,3.54c.24,.51,.81,.79,1.35,.64,1.14-.3,2.27-.71,3.38-1.24,1.1-.53,2.12-1.16,3.07-1.87,.45-.33,.58-.95,.34-1.46l-1.7-3.53c-.21-.44-.12-.96,.21-1.32,.36-.4,.7-.83,1.01-1.28,.28-.4,.77-.61,1.25-.5l3.83,.87c.55,.12,1.12-.14,1.35-.66,.47-1.08,.86-2.22,1.14-3.41,.27-1.19,.42-2.39,.46-3.57,.02-.56-.38-1.05-.93-1.18l-3.81-.87c-.48-.11-.83-.51-.91-.99Z"/><circle class="stroke" cx="21.88" cy="21.88" r="6.22"/></svg>
