<svg xmlns="http://www.w3.org/2000/svg" viewBox="0 0 624.22 486.97"><path class="paper-white-1" d="M614.19,75.74S424.94,25.3,385.57,15.55L325.34.63,10.3,164.14l1.29.5h0l-2,1L310.73,287.54,603.92,84l-7.82-2C602.05,77.61,614.19,75.74,614.19,75.74Z"/><path class="paper-white-2" d="M239.39,252.42c14,4.5,39.92,9.62,64.9,7s58.22-9.92,65.2-12.64,17.89-12.42,17.89-12.42l1.28-6.53L371,234l-99,16-24.67,2.49Z"/><path class="paper-white-3" d="M239.39,252.42c21.76,3,39.08,4.28,55.07,3S364,244,371.21,242.22s14.65-7.1,16-8.7,2.55-5.27,5.83-7.54l-15.48,6.48-97.44,15.17-27,4.48Z"/><path class="paper-white-3" d="M378.82,232l-129,20.41s16.49-2.15,26.83-13.84,48.78-12.31,52.54-14.05-10-10.12-12.45-14.62c0,0,16.67,13.06,31.07,18.11S368.67,233.69,378.82,232Z"/><polygon class="paper-white-2" points="603.92 84.02 591.23 214.62 307.08 486.34 23.62 326.32 9.56 165.65 310.73 287.54 603.92 84.02"/><path class="paper-white-3" d="M307.08,486.34,591.23,214.62,603.92,84,310.73,287.54c-.08,2.13-1,19-.54,23.16s-.14,13.79-.2,17.47.54,7.09-.1,5.07-1.58-8.36-3.68-7.92c-16.92,3.6-26.1,20.19-26.1,20.19l29.31,14.13c0,13.2-1.67,82.07-1.67,84.18S307.08,486.34,307.08,486.34Z"/><line class="illu__stroke" x1="249.8" y1="252.42" x2="378.82" y2="232.01"/><path class="paper-white-3" d="M57.41,314.48s2.93,8,2.72,13.54c0,0-9-6.33-11.39-9.43Z"/><path class="illu__stroke" d="M325.34.62,10.3,164.14s169.67,66.37,218,85.37S303,198.22,303,198.22s53.58,53,90.07,27.76C423.15,205.12,552.47,114,596.1,82c5.95-4.36,18.09-6.23,18.09-6.23S424.94,25.3,385.57,15.55Z"/><path class="paper-white-3" d="M287.65,396.44s5.76,16.57,4.8,30.19l-24.2-17Z"/><polyline class="illu__stroke" points="11.59 164.64 9.56 165.65 310.73 287.54 603.92 84.02 596.11 81.97"/><polyline class="illu__stroke" points="9.56 165.65 23.62 326.32 307.08 486.34 591.23 214.62 603.92 84.02"/><path class="paper-white-1" d="M66,284.43l220.93,112s-31.47,18.88-34,32.1C252.92,428.57,180.54,355.56,66,284.43Z"/><path class="paper-white-1" d="M35.12,304l21.35,10.55s-12.49,5.31-17,11.74C39.49,326.32,35.06,318,35.12,304Z"/><path class="illu__stroke" d="M66,284.43l220.93,112s-31.47,18.88-34,32.1C252.92,428.57,180.54,355.56,66,284.43Z"/><path class="illu__stroke" d="M35.12,304l21.35,10.55s-12.49,5.31-17,11.74C39.49,326.32,35.06,318,35.12,304Z"/><path class="paper-white-1" d="M312.25,463.65c1.43-4,10.46-15,22.61-28.58h0c-7.81-1.75-25.95,10-25.95,10l-32.14-16.48C302.19,441.32,312.25,463.65,312.25,463.65Z"/><path class="illu__stroke" d="M276.77,428.57l32.14,16.48,106-94.11s-97.65,98.65-102.65,112.71C312.25,463.65,302.19,441.31,276.77,428.57Z"/><path class="paper-white-3" d="M351,297.81S577.5,141.19,623.59,131.42c0,0-5.28-22.62-22.1-22.33Z"/><path class="paper-white-3" d="M409.66,321.57l186.05-153,.94-9.64,26.94,17S598.39,171.74,409.66,321.57Z"/><path class="paper-white-1" d="M12.63,200.7s-12,7.73-12,13.92L273.93,356.77s10.57-26.31,31.59-30.85Z"/><path class="illu__stroke" d="M12.63,200.7s-12,7.73-12,13.92L273.93,356.77s10.57-26.31,31.59-30.85Z"/><path class="illu__stroke" d="M351,297.81S577.5,141.19,623.59,131.42c0,0-5.28-22.62-22.1-22.33Z"/><path class="illu__stroke" d="M409.66,321.57l186.05-153,.94-9.64,26.94,17S598.39,171.74,409.66,321.57Z"/><path class="paper-white-3" d="M27.66,253.82c-.34,2,69.79,35.42,69.76,34.21S27.83,252.8,27.66,253.82Z"/><path class="paper-white-1" d="M27.66,184.76c0,1.61,38.32,17.39,38.32,15.94C66,199.08,27.66,183.58,27.66,184.76Z"/><path class="paper-white-1" d="M53.58,203.92c0,2.19,24.69,11.08,24.8,10S53.58,201.72,53.58,203.92Z"/><path class="paper-white-3" d="M122.76,288.06c0,1.22,49.75,24.2,49.77,22.2C172.53,309.35,122.78,286.33,122.76,288.06Z"/><path class="paper-white-3" d="M165.74,258.86c.18.57,75.17,32.2,75,30.75C240.66,288.7,165.22,257.21,165.74,258.86Z"/><path class="paper-white-3" d="M66,343c.22,1.31,99.82,56.42,99.75,54.29C165.69,395.73,65.6,340.69,66,343Z"/><path class="paper-white-3" d="M93.37,333.78c0,.5,26.47,14.19,26.12,13C119,345.13,93.49,331.88,93.37,333.78Z"/><path class="paper-white-3" d="M140,370.28c0,.5,48.05,26.47,47.65,25.25C187,393.59,140,368,140,370.28Z"/><path class="paper-white-4" d="M322.74,384.05c.23,2,57.8-42.55,58.05-44.62C381.07,337.09,322.48,381.82,322.74,384.05Z"/><path class="paper-white-4" d="M367.23,374.44c.26-3.61,45.95-40.95,45.95-39.22S367.07,376.64,367.23,374.44Z"/><path class="paper-white-4" d="M427.84,279.94c1.48-3.23,22.51-18.9,22.51-17.71S427.16,281.42,427.84,279.94Z"/><path class="paper-white-4" d="M355.74,427.35c.65-3.33,79.38-78.12,78.87-76.41C434,352.81,355.35,429.35,355.74,427.35Z"/><path class="paper-white-4" d="M483,183.28c.73-4.08,70.53-53.11,69.87-51.87S482.71,185,483,183.28Z"/><path class="paper-white-4" d="M454.33,245.41c0-3.26,42.23-36.34,42-35.5C496,211.27,454.31,247.67,454.33,245.41Z"/></svg>
