<svg xmlns="http://www.w3.org/2000/svg" viewBox="0 0 653.52 404.05"><path class="paper-white-1" d="M384.27,28.34s99.66,4.85,118.25,6.17,83.14,1.71,83.14,1.71c4,6-7.53,59.52-7.39,63.8L564.41,212.21s-10.83,58.06-13.49,83.28-10,64.29-10,64.29c-30.53-6.64-78-5.34-124.27-7.81L251.72,339s-56.85-8.43-91.23-11.12-114-15.95-114-15.95c16.74-30.3,27.2-55.42,33.72-69.55L164.39,94.72c13.26-22,33.93-80.84,33.93-80.84,13.75,1.14,81.95,5.44,81.95,5.44"/><path class="paper-white-3" d="M235.47,336.68c9.83,1.37,16.25,2.32,16.25,2.32l57.35,4.51,24.19-50.32-223.89-102L80.18,242.38c-.21.44-.42.9-.63,1.36,2.94,2.86,71.62,40.52,86.71,48.88,19.13,10.6,68.25,38.26,70.32,40.59S235.47,336.68,235.47,336.68Z"/><path class="paper-white-3" d="M585.66,36.22h-1.12c-.74,9-7,41.88-8.55,57.1s-2.5,23.32-2.5,23.32l2.79-.51,2-16.1C578.13,95.74,589.65,42.19,585.66,36.22Z"/><path class="paper-white-2" d="M547.52,298.24c-14.89-4.16-34-10.07-34.45-23.26s-30.22,6.94-35.35,23.26,59.11,14.76,66,7.34S547.52,298.24,547.52,298.24Z"/><path class="paper-white-3" d="M365.27,347.93l51.34,4c46.28,2.47,93.74,1.17,124.27,7.81,0,0,7.39-39.07,10-64.29s13.49-83.28,13.49-83.28L576,118.54ZM556.43,227.42s-5.6,28.67-6.92,41.52,1.41,26.55-4.61,34.6-6.59,43.83-6.59,48.77-3,1.65-15.16,0-87.66-3.29-92.6-3.62.33-4,5.77-9.62,99.35-91.88,106.6-99.79S558.08,222.15,556.43,227.42Z"/><path class="paper-white-1" d="M.62,198.8C28.38,214.38,190.07,302.1,211.41,314s38.75,24.9,56.69,35,82,41,90.3,47.06,6.82,7.45,6.82,7.45,46.28-47.28,113.62-112.24,87.4-79.61,105.82-97.18l68.23-65.13S471.73,58.3,420.27,40.94,310.45.62,310.45.62,244.56,41,205.32,67.39s-98.07,65.23-114.79,75.66S.62,198.8.62,198.8Z"/><path class="paper-white-3" d="M402.45,70.36l3.29-6.18S316.06,28,296.73,84.76a51.33,51.33,0,0,0-2.8,19.13,57.41,57.41,0,0,1,8.47-24C326.76,39.92,402.45,70.36,402.45,70.36Z"/><path class="paper-white-3" d="M294,104.45l0-.56c0,.17,0,.34-.05.51Z"/><path class="illu__stroke" d="M280.27,19.32s-68.2-4.3-81.95-5.44c0,0-20.67,58.83-33.93,80.84"/><path class="illu__stroke" d="M80.18,242.38c-6.52,14.13-17,39.25-33.72,69.55,0,0,79.65,13.27,114,15.95S251.72,339,251.72,339"/><path class="illu__stroke" d="M416.61,352c46.28,2.47,93.74,1.17,124.27,7.81,0,0,7.39-39.07,10-64.29s13.49-83.28,13.49-83.28"/><path class="illu__stroke" d="M578.27,100c-.14-4.28,11.38-57.83,7.39-63.8,0,0-64.56-.38-83.14-1.71s-118.25-6.17-118.25-6.17"/><path class="paper-white-2" d="M283.76,118.38l1.71,9.7c14.32,7.31,33.35,14.5,58.48,20,82.66,18.26,109.88-28.54,109.88-28.54l2-10.64C424,161.48,339.6,150.13,283.76,118.38Z"/><path class="paper-white-3" d="M453.83,119.59l2-10.64c-17.08,28.16-49.25,38-84,36.1l4.75,7.26C433.93,153.77,453.83,119.59,453.83,119.59Z"/><path class="illu__stroke" d="M244.59,87c42.13,51.37,170.2,89.62,211.22,22l-2,10.64S426.61,166.39,344,148.13s-99.36-54.22-99.36-54.22Z"/><path class="paper-white-2" d="M261.68,125.91c-23.65-4.49-48.63,24.73-67.06,39.48s-76.55,53.43-83.17,66.22,14.65,16.1,29.3-2.33,93.56-74.17,115.3-81S277.24,128.87,261.68,125.91Z"/><path class="paper-white-1" d="M294.1,106.2l-.36,0c-1.57,27.75,20.49,51,44.13,59.15l2.05-7C319.1,151.56,296.58,131.84,294.1,106.2Z"/><path class="paper-white-1" d="M382.51,87c-28.88-8.64-71.77,7.6-94.83,22.14s-36.38,11.64-39.08,6.13l1.76,6.39s9.53,13.43,40.84-7.21c27.22-17.94,59.17-27.14,86.31-23.61Z"/><path class="paper-white-1" d="M372.18,148.25c10.33,19.66,109.24,8.16,132.89-32.86L503,110s-20.68,27.43-61.74,36.63c-35.5,7.95-66.34,10.91-73.66-8.88Z"/><path class="paper-white-2" d="M272.56,123.94a80.55,80.55,0,0,0,18.64-9.53c27.22-17.94,59.17-27.14,86.31-23.61l5-3.84c-28.88-8.64-71.77,7.6-94.83,22.14a93.18,93.18,0,0,1-11.44,6.21C274.85,118.27,273.57,121.37,272.56,123.94Z"/><path class="illu__stroke" d="M339.92,158.39c-26.32-8.63-55.37-37.88-43.19-73.63,19.33-56.77,109-20.58,109-20.58l-3.29,6.18S326.76,39.92,302.4,79.85c-23.55,38.58,4.61,74.84,35.47,85.54Z"/><path class="illu__stroke" d="M248.6,115.23c-2.72-7.6,3.25-13.84,3.25-13.84l1.63,7.71s-3.49,3-1.14,9.42"/><path class="paper-white-2" d="M443.56,152.38c25.78-6.44,51-18.81,61.51-37L503,110s-19.19,25.43-57.28,35.53Z"/><path class="paper-white-3" d="M478.89,138.93c11.36-6.28,20.75-14.13,26.18-23.54L503,110s-7.37,9.75-22,19.57Z"/><path class="illu__stroke" d="M372.18,148.25c10.33,19.66,109.24,8.16,132.89-32.86L503,110s-20.68,27.43-61.74,36.63c-35.5,7.95-66.34,10.91-73.66-8.88"/><path class="paper-white-2" d="M488.37,91.65s-52,18.16-94.12,18.3c-24,.08-40.44-6.63-51.76-17,.23,3.19.48,6.65.7,9.77,11.49,8.21,28.12,13.54,52.64,12.09,53.93-3.18,86-16.3,86-16.3Z"/><path class="paper-white-3" d="M387.12,109.75l4.56,5.19c1.36,0,2.74-.1,4.15-.18,53.93-3.18,86-16.3,86-16.3l6.56-6.81s-52,18.16-94.12,18.3C391.79,110,389.43,109.88,387.12,109.75Z"/><path class="paper-white-2" d="M408,354.76c13.64-14.12,17.07-38.38,18.26-55s-3.17-52.27,32.47-64.55,11.74,10,3.52,21.29-17.19,15.44-23.32,39.69-5.14,35.91-5.14,35.91Z"/><path class="illu__stroke" d="M324.6,64.18c8.58,25.09,27.51,45.92,69.65,45.77s94.12-18.3,94.12-18.3l-6.56,6.81s-32.05,13.12-86,16.3S326.11,88.37,319.3,67.42Z"/><path class="paper-white-3" d="M649.71,127.65h0s-.82,3.22-23.81,22.65S571,198.73,567.07,203.93s-9.05,13.89-20.14,20.8-40.95,34.77-63.7,54.6S436.1,330,436.32,325.67,442,285,451.7,271.1s27-35.65,2.6-9.32-17.87,63-25.67,71.49-56.55,58.5-65.22,66.85c2.56,2.58,1.81,3.31,1.81,3.31s46.28-47.28,113.62-112.24,87.4-79.61,105.82-97.18l68.23-65.13Z"/><path class="paper-white-3" d="M287.85,116.53c1.09-.66,2.2-1.36,3.35-2.12,27.22-17.94,59.17-27.14,86.31-23.61l5-3.84c-28.16-8.43-69.61,6.8-93.05,21Z"/><path class="paper-white-3" d="M395.83,105.23c-25.54,14.56-30.56,27.11-23.65,43l-4.6-10.55s-6.91-21.26,26.36-37.68Z"/><path class="illu__stroke" d="M382.51,87c-28.88-8.64-71.77,7.6-94.83,22.14s-36.38,11.64-39.08,6.13l1.76,6.39s9.53,13.43,40.84-7.21c27.22-17.94,59.17-27.14,86.31-23.61Z"/><path class="paper-white-2" d="M259.13,339c-5.39-1.36-9.95-2.72-8.45-16.83s10.69-41.42,29.59-41.19,14.5,22.91,4.32,32.63S264,340.23,259.13,339Z"/><path class="illu__stroke" d="M.62,198.8C28.38,214.38,190.07,302.1,211.41,314s38.75,24.9,56.69,35,82,41,90.3,47.06,6.82,7.45,6.82,7.45,46.28-47.28,113.62-112.24,87.4-79.61,105.82-97.18l68.23-65.13S471.73,58.3,420.27,40.94,310.45.62,310.45.62,244.56,41,205.32,67.39s-98.07,65.23-114.79,75.66S.62,198.8.62,198.8Z"/><path class="paper-white-3" d="M265.45,312.42c-9.53.43-14.65,16.38-12,22.89s7.24-9.87,12-11.45S274.14,312,265.45,312.42Z"/><path class="illu__stroke" d="M395.83,105.23c-25.54,14.56-30.56,27.11-23.65,43l-4.6-10.55s-6.91-21.26,26.36-37.68Z"/></svg>
