<svg xmlns="http://www.w3.org/2000/svg" viewBox="0 0 443.99 742.29"><path class="carton-offwhite-2" d="M177.82,741.67c261.62-90.08,265.54-616.46,265.54-616.46L105.07.62S240.69,369.85.62,518.56Z"/><path class="carton-offwhite-3" d="M415,371.15,125.22,72.2h0c26,114.92,49.41,338.57-124.59,446.36L177.82,741.67C317.39,693.61,383.61,521.38,415,371.15Z"/><path class="carton-offwhite-4" d="M409,398.23l-34.82-41.52L269,548l82.48,18.77C377.19,513.84,395.7,455.11,409,398.23Z"/><path class="paper-white-1" d="M379.15,500.6C417.81,386.58,385,211.51,207.89,282L141.57,180C150.06,295.61,129.38,438.8.63,518.56L177.82,741.67C277.91,707.2,340.29,608.88,379.15,500.6Z"/><path class="paper-white-0" d="M25.42,501.42c-4.27,3.28-8.66,6.48-13.21,9.6h0c40.9,50,139.45,168.35,147.26,160.74s-134-170.34-134-170.34Z"/><path class="paper-white-0" d="M163.49,677.79c-3.75,2.82,1.82,12.2,6,8.22S167.25,675,163.49,677.79Z"/><path class="paper-white-0" d="M178,695.93c-2.35,2.58,2.81,9.15,4.46,6.34S180.33,693.35,178,695.93Z"/><path class="paper-white-0" d="M184.47,706.19c-1,2.19,1.54,3.73,2.18,1.16S185.49,704,184.47,706.19Z"/><path class="paper-white-0" d="M187.8,710.27c-.47,1.46-.12,5.26,1,2.77C190.11,710.27,189,706.73,187.8,710.27Z"/><path class="paper-white-0" d="M30.84,497.16s108.38,128,111.76,124.63S34.38,494.27,34.38,494.27h0c-1.16,1-2.35,1.93-3.54,2.89Z"/><path class="illu__stroke" d="M177.82,741.67c261.62-90.08,265.54-616.46,265.54-616.46L105.07.62S240.69,369.85.62,518.56Z"/><path class="paper-white-1" d="M112.64,56.13c-23.28-22.74-61.3-15-61.3-15L207.89,282c69.65-27.73,117-17.49,146.43,12.08Z"/><path class="paper-white-2" d="M112.64,56.13a54.48,54.48,0,0,0-22.1-12.84l180.69,222.9c36.36-2.71,63.63,8.38,83.09,27.92Z"/><path class="paper-white-3" d="M103.62,49.14h0L309.57,269h0a93.37,93.37,0,0,1,44.75,25.14l-241.68-238A50.83,50.83,0,0,0,103.62,49.14Z"/><path class="paper-white-0" d="M78.91,40.71h0A91.78,91.78,0,0,0,61.76,40h0S68,47.09,74.81,56.55s54.33,75.6,65.22,87.73c11.75,13.09,32.62,34.58.83-16.19C111.75,81.62,78.91,40.71,78.91,40.71Z"/><path class="illu__stroke" d="M374.71,512.65C420,399.49,391.39,209,207.89,282L51.34,41.12s38-7.73,61.3,15"/><path class="illu__stroke" d="M112.64,56.13c-23.28-22.74-61.3-15-61.3-15L207.89,282c69.65-27.73,117-17.49,146.43,12.08Z"/><path class="paper-white-0" d="M159.73,167c-2,3.28,8.43,11.89,10.11,8.52S161.25,164.53,159.73,167Z"/><path class="paper-white-0" d="M170.7,181.5c-1.31,1.68,2.89,6.56,4.39,3.93S172,179.81,170.7,181.5Z"/><path class="paper-white-0" d="M177,190.86c-.55,1.32,2.06,5.06,3.37,2.44S177.9,188.61,177,190.86Z"/></svg>
