<svg xmlns="http://www.w3.org/2000/svg" viewBox="0 0 668.31 708.38"><path d="M615.28,381.31c5.57-15.18,4.95-31.9-1.01-49.27-6.23-18.16,1.06-38.02,17.55-47.84,15.78-9.4,27.07-21.74,32.64-36.93,24.48-66.7-70.53-162.92-212.21-214.91C310.57-19.63,175.87-7.7,151.4,59c-5.57,15.18-4.95,31.9,1.01,49.27,6.23,18.16-1.06,38.02-17.56,47.84-15.78,9.4-27.07,21.74-32.64,36.93-5.57,15.18-4.95,31.9,1.01,49.27,6.23,18.16-1.06,38.02-17.56,47.84s-27.07,21.74-32.64,36.93c-5.57,15.18-4.95,31.9,1.01,49.27,6.23,18.16-1.06,38.02-17.55,47.84-15.78,9.4-27.07,21.74-32.64,36.93-24.48,66.7,70.53,162.92,212.21,214.91,141.68,51.99,276.37,40.06,300.85-26.64,5.57-15.18,4.95-31.9-1.01-49.27-6.23-18.16,1.06-38.02,17.55-47.84,15.78-9.4,27.07-21.74,32.64-36.93,5.57-15.18,4.95-31.9-1.01-49.27-6.23-18.16,1.06-38.02,17.55-47.84,15.78-9.4,27.07-21.74,32.64-36.93Z"/></svg>
