<svg xmlns="http://www.w3.org/2000/svg" viewBox="0 0 389.47 214.76"><path class="clr-700" d="M81.45,144.73c-1.17-1.92-3.07-2.87-5.68-2.87s-4.7,1-6,3c-1.31,2-2,5.31-2.09,9.92h15.67c-.09-4.79-.72-8.14-1.89-10.06Z"/><path class="clr-700" d="M144.2,164.19c-1.4,0-2.48,.63-3.26,1.89-.79,1.26-1.18,3.07-1.18,5.42s.39,4.16,1.18,5.42c.78,1.26,1.87,1.89,3.26,1.89s2.48-.63,3.26-1.89c.78-1.26,1.17-3.07,1.17-5.42s-.39-4.16-1.17-5.42-1.87-1.89-3.26-1.89Z"/><path class="clr-700" d="M380.74,120.28c-6.75-9.48-16.88-14.5-29.3-14.5-2.23,0-4.38,.16-6.45,.46-1.19-2.8-3.01-5.26-5.39-7.26-3.93-3.29-8.91-4.96-14.79-4.96h-11.5c-7.92,0-12.92,3.33-15.71,6.13-2.29,2.29-4.93,6.06-5.82,11.7-1.16-2.19-2.7-4.14-4.6-5.75-2.6-2.21-7.11-4.83-13.81-4.83-.89,0-1.8,.05-2.72,.14l-11.52,1.18c-6.02,.63-10.97,3.06-14.45,6.82-3.41-2.19-7.5-3.36-11.94-3.36-.61,0-1.21,.02-1.81,.04,1.29-1.57,2.53-3.25,3.72-5.07,4.7-7.16,8.37-16.56,11.2-28.73l7.4-31.93c.53-2.05,.8-4.06,.8-5.99,0-6.1-2.47-11.5-6.96-15.22-2.65-2.19-7.25-4.79-14.22-4.79h-13.32c-5.93,0-10.23,1.86-13.12,3.83-3.6-2.46-8.03-3.83-13-3.83h-13.98c-6.86,0-11.45,2.6-14.08,4.78-1.42,1.17-2.63,2.51-3.63,3.98-1.11-3.86-3.2-7.21-6.19-9.74-2.61-2.21-7.11-4.83-13.81-4.83-.89,0-1.8,.05-2.72,.14l-11.52,1.18c-2.72,.29-5.21,.94-7.46,1.92-1.59-2.61-3.72-4.89-6.36-6.73-4.88-3.4-11.05-5.06-18.84-5.06s-13.9,1.63-18.81,4.99c-4.19,2.86-7.12,6.8-8.63,11.44-2.52-.8-5.16-1.5-7.94-2.05-4.37-.87-8.85-1.32-13.33-1.32-14.14,0-25.31,3.37-33.19,10.03C4.47,30.23,0,40.19,0,51.87c0,7.46,1.69,14.11,4.98,19.76-2.41,3.26-3.94,7.62-3.94,13.15v9.53c0,9.85,4.91,17.83,13.46,21.91,.17,.08,.33,.15,.5,.23,4.65,2,9.63,3.45,14.8,4.33,3.26,.56,6.4,.91,9.42,1.09-7.57,9.24-11.41,21.7-11.41,37.08,0,.84,.02,1.66,.04,2.48-.22,0-.43-.02-.66-.02-16.52,0-27.19,10.47-27.19,26.67s10.67,26.67,27.19,26.67c8.02,0,14.58-2.36,19.52-7.01,.48-.45,.96-.95,1.45-1.5,8.27,5.65,18.79,8.5,31.39,8.5,9.26,0,17.78-1.17,25.34-3.47,2.92-.88,5.48-2.21,7.67-3.91,6.04,4.85,13.56,7.38,22.1,7.38,5.89,0,11.25-1.26,15.98-3.75,3.22,1.62,7.01,2.44,11.31,2.44h9.14c4.67,0,8.31-1.16,11.1-2.68,2.78,1.52,6.43,2.68,11.1,2.68h11.5c7.92,0,12.91-3.33,15.71-6.13,2.79-2.79,6.12-7.78,6.12-15.71v-23.51c0-5.14,1.13-7.17,1.62-7.81,.13-.17,.22-.25,.24-.27h0s.32-.12,1.12-.12c.34,0,1.05,.04,2.22,.27,1.38,.34,2.84,.51,4.44,.51,.83,0,1.74-.07,2.69-.23,.05,.05,.1,.1,.15,.15v11.02c0,14.09,4.26,24.97,12.67,32.34,7.87,6.9,19.08,10.39,33.32,10.39,2.49,0,5.21-.15,8.31-.46,.25-.02,.5-.06,.74-.09,3.37-.52,6.1-1.6,8.3-2.9,2.75,1.45,6.32,2.54,10.84,2.54h11.5c7.88,0,12.87-3.3,15.67-6.09,2.78,2.77,7.77,6.09,15.67,6.09h11.5c7.94,0,12.93-3.34,15.72-6.14,2.78-2.77,6.11-7.77,6.11-15.7v-37.87c0-14.26-2.86-25.2-8.74-33.46ZM193.43,28.37c4.79,0,7.58,2.39,8.36,7.18l1.57,9.27c1.65,10.19,2.48,21.59,2.48,34.22h3c0-15.67,.44-27.12,1.31-34.35l1.04-9.01c.26-2.44,1.11-4.27,2.55-5.48,1.44-1.22,3.37-1.83,5.81-1.83h13.32c2.26,0,4.03,.52,5.29,1.57,1.26,1.04,1.89,2.53,1.89,4.44,0,.78-.13,1.65-.39,2.61l-7.44,32.13c-2.44,10.45-5.53,18.52-9.27,24.23-3.74,5.7-7.86,9.58-12.34,11.62-2.07,.94-4.28,1.66-6.63,2.16-.42-.02-.84-.04-1.27-.04h-9.4c-1.86,0-3.54,.19-5.09,.5-2.67-.33-5.31-.86-7.92-1.59,.62-2.07,1.02-4.48,1.02-7.25v-8.62c0-2.67-.37-5.1-1.07-7.31,2.45,1.32,5.1,2.24,7.96,2.74l-8.25-26.09c.82-2.28,1.36-4.97,1.36-8.13v-6.01c0-7.92-3.33-12.92-6.12-15.71-.06-.06-.13-.11-.18-.17,1.18-.72,2.65-1.1,4.45-1.1h13.98Zm-64.51-4.57l11.49-1.17c.46-.05,.9-.07,1.33-.07,1.98,0,3.56,.5,4.75,1.5,1.44,1.22,2.15,3.09,2.15,5.62v7.83h10.01c.2,1.42,.52,2.81,.99,4.17l5.06,16.01c-1.26,1-2.9,1.5-4.92,1.5-.14,0-.29,0-.43,0l-10.71-.26v18.67c0,4.53,2.52,6.79,7.58,6.79,1.13,0,1.96-.04,2.48-.13,.26-.03,.49-.06,.73-.09-.15,1.21-.24,2.5-.24,3.87v8.88c0,3.72,.72,7.12,2.05,10.13-.28,.06-.54,.14-.84,.19-1.14,.11-2.21,.2-3.23,.26-5.05-1.14-10.59-1.72-16.62-1.72-.51,0-1.01,.01-1.52,.02-3.87-1.15-7.09-2.85-9.65-5.09-3.45-3.03-5.77-7.2-6.96-12.5V45.34c0-3.03-.49-5.62-1.25-7.84h.3v-3.88c.95-2.25,1.53-4.7,1.75-7.28,1.24-1.43,3.13-2.28,5.69-2.55Zm-45.95,36.28c1.92-3.25,2.89-7.09,2.89-11.47v-1.13c2.73,.58,5.7,.89,8.98,.89,1.96,0,3.82-.11,5.58-.32v2.91c0,5.4,1.43,10.07,4.25,13.88,.84,1.13,1.78,2.15,2.81,3.05v11.02c0,3.81,.32,7.38,.95,10.72v9.26c0,2.53-.68,4.46-2.03,5.81-1.35,1.35-3.28,2.03-5.81,2.03h-11.5c-2.53,0-4.46-.68-5.81-2.03-.08-.08-.15-.17-.22-.25,4.07-6.12,6.19-13.41,6.19-21.5,0-9.99-2.75-17.44-6.28-22.88Zm.97-43.53c2.48-1.7,6.11-2.55,10.9-2.55s8.4,.85,10.84,2.55c2.08,1.45,3.26,3.48,3.57,6.09-.29,.69-.53,1.41-.75,2.14-2.23-.77-4.85-1.27-7.91-1.27h-11.5c-3.17,0-5.87,.54-8.15,1.36-.23-.3-.48-.58-.73-.87,.01-3.28,1.25-5.76,3.72-7.45ZM20.53,103.59c-3.66-1.74-5.49-4.83-5.49-9.27v-9.53c0-4.44,1.79-6.66,5.36-6.66,1.13,0,2.26,.18,3.39,.52,4.53,1.39,9.51,2.55,14.95,3.46s9.86,1.37,13.26,1.37l.13-3c-11.67-1.22-20.94-4.05-27.82-8.49-6.88-4.44-10.32-11.14-10.32-20.11,0-7.58,2.66-13.6,7.97-18.09,5.31-4.49,13.36-6.73,24.16-6.73,3.57,0,7.1,.35,10.58,1.04,3.48,.7,6.66,1.61,9.53,2.74,.35,.14,.68,.31,1,.47,.47,1.6,1.12,3.12,1.91,4.54-1.11,2.54-1.89,5.67-1.89,9.48v9.86c-.25,.03-.49,.07-.75,.07-.95,0-2.17-.22-3.66-.65-4.18-1.39-8.36-2.5-12.54-3.33-4.18-.83-7.66-1.37-10.45-1.63l-.39,3c12.8,2.09,21.96,5.48,27.49,10.19,.1,.09,.19,.18,.29,.26v35.78c0,.83,.04,1.62,.11,2.38-5.18,4.5-13.13,6.76-23.85,6.76-3.48,0-7.27-.35-11.36-1.04-4.09-.7-7.97-1.83-11.62-3.4Zm6.66,97.17c-8.79,0-13.19-4.22-13.19-12.67s4.4-12.67,13.19-12.67c.74,0,1.44,.04,2.13,.1,1.62,8.23,4.53,15.25,8.74,20.98-.29,.37-.6,.73-.95,1.05-2.26,2.13-5.57,3.2-9.92,3.2Zm52.37,0c-10.81,0-19.29-2.51-25.44-7.53,.25-1.59,.39-3.29,.39-5.14,0-10.18-4.24-16.31-7.79-19.66-1.42-1.34-3-2.47-4.69-3.43-.14-1.94-.21-3.94-.21-6.04,0-12.62,2.98-22.31,8.95-29.06,5.96-6.75,14.48-10.12,25.53-10.12,9.92,0,17.67,3.19,23.28,9.55-.03,.51-.06,1.03-.06,1.55v11.49c0,4.46,.85,8.09,2.59,11.12,.05,.08,.1,.17,.15,.25-2.32,5.33-3.57,11.45-3.75,18.28h-32.14l-.26,2.87c4.35,.78,9.97,1.17,16.85,1.17s12.06-.08,15.55-.24c.26,7.93,1.98,14.87,5.13,20.73-.79,.56-1.71,1-2.79,1.32-6.27,1.92-13.36,2.87-21.29,2.87Zm82.4-1.31c-2.35,0-4.16-.39-5.42-1.17-1.26-.78-1.89-1.87-1.89-3.27,0-.26,.09-.83,.26-1.7,.87-2.53,1.44-4.66,1.7-6.4l-2.74-.65c-1.57,4.7-3.98,8.29-7.25,10.77-3.26,2.48-7.25,3.72-11.95,3.72-5.9,0-10.71-1.77-14.47-5.29,.5-2.03,.78-4.18,.78-6.46v-5.48c0-3.26-.57-6.02-1.44-8.35,1.49-2.77,2.61-6.38,2.61-10.98v-7.71c0-2.06-.08-4.05-.23-6.01,3.8-2.87,8.56-4.31,14.31-4.31,7.75,0,13.23,3.05,16.46,9.14l2.61-1.44c-3.57-7.49-10.01-11.23-19.33-11.23-5.45,0-10.29,1.12-14.54,3.35-1.08-7.5-3.39-14.13-6.88-19.84,1.08-2.03,2.99-3.38,5.75-4.02,5.61-1.33,11.31-2.09,17.1-2.29,4.83,1.19,10.18,1.79,16.07,1.79,.77,0,1.58-.02,2.41-.05,5.61,1.51,10.16,3.98,13.66,7.4,.68,.67,1.32,1.38,1.93,2.14v60.49c0,2.98,.47,5.54,1.21,7.73-.5,.06-1.01,.1-1.57,.1h-9.14Zm67.65-53.55c-5.31,0-9.47,1.96-12.47,5.88-3,3.92-4.51,9.36-4.51,16.33v23.51c0,2.53-.67,4.46-2.02,5.81-1.35,1.35-3.28,2.03-5.81,2.03h-11.5c-.55,0-1.07-.04-1.57-.1,.74-2.19,1.21-4.75,1.21-7.73v-33.3c0-12.64-2.47-23.1-7.33-31.28,.27-1.62,.89-2.93,1.88-3.92,.56-.56,1.22-1,1.98-1.32,1.88,.15,3.76,.24,5.65,.24,3.32,0,6.51-.28,9.58-.8,2.92,.4,4.4,1.73,4.4,4.04,0,1.22-.22,2.31-.65,3.27-.96,2.35-1.66,5.14-2.09,8.36l2.74,.39c1.74-5.83,4.55-10.17,8.42-12.99,3.88-2.83,8.95-4.24,15.22-4.24,2.2,0,3.91,.59,5.15,1.75-2.7,2.64-5.84,7.26-5.84,14.57v7.31c0,.81,.04,1.6,.11,2.38-.89-.1-1.75-.16-2.55-.16Zm55.5,54.46c-10.8,0-18.83-2.31-24.1-6.92-5.27-4.62-7.9-11.88-7.9-21.81v-20.5l-1.17,.13c-.09,0-.17,0-.26-.01,1.54-2.99,2.51-6.84,2.51-11.74v-11.49c0-2.29-.28-4.34-.74-6.16,.82-3.14,3.19-4.92,7.11-5.33l11.49-1.17c.46-.05,.9-.07,1.33-.07,1.98,0,3.56,.5,4.75,1.5,1.44,1.22,2.15,3.09,2.15,5.62v7.83h10.84c.12,0,.24,0,.35,.01v21.67s-.03,0-.05,0c-.14,0-.29,0-.43,0l-10.71-.26v18.67c0,4.53,2.53,6.79,7.58,6.79,1.13,0,1.96-.04,2.48-.13,.43-.05,.8-.1,1.14-.13v14.76c0,3.18,.54,5.89,1.37,8.17-.27,.06-.52,.14-.81,.18-2.62,.26-4.92,.39-6.92,.39Zm90.37-8.75c0,2.53-.68,4.46-2.03,5.81-1.35,1.35-3.28,2.03-5.81,2.03h-11.5c-2.52,0-4.46-.68-5.81-2.03-1.35-1.35-2.03-3.29-2.03-5.81v-37.87c0-3.4-.67-6.03-2.02-7.9s-3.29-2.81-5.81-2.81-4.46,.93-5.81,2.81c-1.35,1.87-2.02,4.51-2.02,7.9v37.87c0,2.53-.68,4.46-2.03,5.81-1.35,1.35-3.28,2.03-5.81,2.03h-11.5c-.56,0-1.08-.04-1.58-.1,.73-2.21,1.22-4.82,1.22-7.86v-8.62c0-6.1-1.84-11.04-5.47-14.67-.56-.56-1.23-1.15-2-1.72v-5.44c.47-.4,.91-.8,1.3-1.19,2.81-2.81,6.18-7.84,6.18-15.77v-6.01c0-7.92-3.33-12.92-6.12-15.71-.4-.4-.86-.81-1.35-1.22v-5.27c0-2.53,.68-4.46,2.02-5.81,1.35-1.35,3.29-2.03,5.81-2.03h11.5c2.52,0,4.46,.57,5.81,1.7,1.35,1.13,2.03,2.74,2.03,4.83v1.17c0,1.74-.22,3.31-.66,4.7-.43,1.39-1.17,3.13-2.22,5.22-1.57,3.31-2.7,7.01-3.39,11.1l2.74,.52c1.48-5.57,4.12-9.88,7.9-12.93,3.79-3.05,8.6-4.57,14.43-4.57,7.84,0,13.8,2.87,17.89,8.62,4.09,5.75,6.14,14.19,6.14,25.34v37.87Z"/><path class="clr-50" d="M20.53,103.59c-3.66-1.74-5.49-4.83-5.49-9.27v-9.53c0-4.44,1.79-6.66,5.36-6.66,1.13,0,2.26,.18,3.39,.52,4.53,1.39,9.51,2.55,14.95,3.46s9.86,1.37,13.26,1.37l.13-3c-11.67-1.22-20.94-4.05-27.82-8.49-6.88-4.44-10.32-11.14-10.32-20.11,0-7.58,2.66-13.6,7.97-18.09,5.31-4.49,13.36-6.73,24.16-6.73,3.57,0,7.1,.35,10.58,1.04,3.48,.7,6.66,1.61,9.53,2.74,3.74,1.48,5.62,4.48,5.62,9.01v8.75c0,2.18-.46,3.83-1.37,4.96-.91,1.13-2.24,1.7-3.99,1.7-.95,0-2.17-.22-3.66-.65-4.18-1.39-8.36-2.5-12.54-3.33-4.18-.83-7.66-1.37-10.45-1.63l-.39,3c12.8,2.09,21.96,5.48,27.49,10.19,5.53,4.7,8.29,11.41,8.29,20.11,0,7.58-2.59,13.65-7.77,18.22-5.18,4.57-13.17,6.86-23.97,6.86-3.48,0-7.27-.35-11.36-1.04-4.09-.7-7.97-1.83-11.62-3.4Z"/><path class="clr-50" d="M83.93,16.55c2.48-1.7,6.11-2.55,10.9-2.55s8.4,.85,10.84,2.55c2.44,1.7,3.66,4.2,3.66,7.51s-1.22,5.96-3.66,7.71c-2.44,1.74-6.05,2.61-10.84,2.61-9.75,0-14.63-3.44-14.63-10.32,0-3.31,1.24-5.81,3.72-7.51Z"/><path class="clr-50" d="M89.09,37.51h11.5c2.53,0,4.46,.68,5.81,2.03s2.03,3.29,2.03,5.81v53.55c0,2.53-.68,4.46-2.03,5.81-1.35,1.35-3.28,2.03-5.81,2.03h-11.5c-2.53,0-4.46-.68-5.81-2.03-1.35-1.35-2.02-3.29-2.02-5.81V45.34c0-2.53,.68-4.46,2.02-5.81,1.35-1.35,3.29-2.03,5.81-2.03Z"/><path class="clr-50" d="M159.35,59.19l-10.71-.26v18.67c0,4.53,2.53,6.79,7.58,6.79,1.13,0,1.96-.04,2.48-.13,1.4-.18,2.35-.26,2.88-.26,2,0,3.46,.46,4.37,1.37s1.37,2.5,1.37,4.77v8.62c0,2.44-.59,4.38-1.76,5.81-1.17,1.44-2.89,2.33-5.16,2.68-2.61,.26-4.92,.39-6.92,.39-10.8,0-18.83-2.31-24.1-6.92-5.27-4.62-7.9-11.88-7.9-21.81v-20.5l-1.17,.13c-1.92,0-3.37-.67-4.38-2.02-1-1.35-1.5-3.2-1.5-5.55v-7.31c0-2,.55-3.53,1.63-4.57,1.09-1.04,2.59-1.57,4.51-1.57h.91v-5.62c0-4.87,2.48-7.58,7.44-8.1l11.49-1.17c2.61-.26,4.64,.22,6.07,1.44,1.44,1.22,2.15,3.09,2.15,5.62v7.83h10.84c2.53,0,4.46,.68,5.81,2.03s2.02,3.29,2.02,5.81v6.01c0,2.53-.69,4.48-2.09,5.88-1.39,1.39-3.35,2.05-5.87,1.96Z"/><path class="clr-50" d="M219.55,28.37h13.32c2.26,0,4.03,.52,5.29,1.57,1.26,1.04,1.89,2.53,1.89,4.44,0,.78-.13,1.65-.39,2.61l-7.44,32.13c-2.44,10.45-5.53,18.52-9.27,24.23-3.74,5.7-7.86,9.58-12.34,11.62-4.49,2.05-9.64,3.07-15.48,3.07-5.31,0-10.49-.74-15.54-2.22-4.27-1.22-6.4-4.18-6.4-8.88v-8.88c0-4.27,1.13-6.4,3.4-6.4,1.13,0,2.26,.35,3.39,1.04,2.53,1.39,5.27,2.35,8.23,2.87l-15.28-48.32c-.35-.96-.52-1.96-.52-3,0-1.83,.63-3.27,1.89-4.31,1.26-1.05,2.98-1.57,5.16-1.57h13.98c4.78,0,7.58,2.39,8.36,7.18l1.57,9.27c1.65,10.19,2.48,21.59,2.48,34.22h3c0-15.67,.44-27.12,1.31-34.35l1.04-9.01c.26-2.44,1.11-4.27,2.55-5.48,1.44-1.22,3.37-1.83,5.81-1.83Z"/><path class="clr-50" d="M27.19,175.42c4.35,0,7.66,1.07,9.92,3.2s3.39,5.29,3.39,9.47-1.13,7.34-3.39,9.47c-2.26,2.13-5.57,3.2-9.92,3.2-8.79,0-13.19-4.22-13.19-12.67s4.4-12.67,13.19-12.67Z"/><path class="clr-50" d="M100.32,172.02h-33.96l-.26,2.87c4.35,.78,9.97,1.17,16.85,1.17,7.23,0,12.58-.09,16.06-.26,2.53-.09,4.48,.54,5.88,1.89,1.39,1.35,2.09,3.29,2.09,5.81v5.48c0,4.7-2.05,7.66-6.14,8.88-6.27,1.92-13.36,2.87-21.29,2.87-12.63,0-22.07-3.42-28.34-10.25-6.27-6.83-9.4-17.35-9.4-31.54,0-12.62,2.98-22.31,8.95-29.06,5.96-6.75,14.48-10.12,25.53-10.12,10.01,0,17.83,3.24,23.44,9.73,5.62,6.49,8.42,15.48,8.42,26.97v7.71c0,2.52-.67,4.46-2.02,5.81s-3.29,2.02-5.81,2.02Zm-32.65-17.24h15.67c-.09-4.79-.72-8.14-1.89-10.06s-3.07-2.87-5.68-2.87-4.7,1-6,3c-1.31,2-2,5.31-2.09,9.92Z"/><path class="clr-50" d="M112.46,173.72c0-8.62,2.09-15.37,6.27-20.24,4.18-4.87,10.01-7.31,17.5-7.31s13.23,3.05,16.46,9.14l2.61-1.44c-3.57-7.49-10.01-11.23-19.33-11.23-5.49,0-10.36,1.13-14.63,3.4-1.91,1.13-3.52,1.7-4.83,1.7-1.04,0-1.81-.41-2.29-1.24-.48-.83-.72-2.2-.72-4.11v-11.49c0-4.79,2.26-7.71,6.79-8.75,6.62-1.57,13.36-2.35,20.25-2.35,13.06,0,22.72,3.07,28.99,9.21,6.27,6.14,9.4,15.91,9.4,29.32v33.3c0,2.53-.67,4.46-2.02,5.81-1.35,1.35-3.29,2.03-5.81,2.03h-9.14c-2.35,0-4.16-.39-5.42-1.17-1.26-.78-1.89-1.87-1.89-3.27,0-.26,.09-.83,.26-1.7,.87-2.53,1.44-4.66,1.7-6.4l-2.74-.65c-1.57,4.7-3.98,8.29-7.25,10.77-3.26,2.48-7.25,3.72-11.95,3.72-6.88,0-12.3-2.39-16.26-7.18-3.96-4.79-5.94-11.41-5.94-19.85Zm36.17-2.22c0-2.35-.39-4.16-1.17-5.42s-1.87-1.89-3.26-1.89-2.48,.63-3.26,1.89c-.79,1.26-1.18,3.07-1.18,5.42s.39,4.16,1.18,5.42c.78,1.26,1.87,1.89,3.26,1.89s2.48-.63,3.26-1.89,1.17-3.07,1.17-5.42Z"/><path class="clr-50" d="M193.3,121.09h9.4c4.27,0,6.4,1.39,6.4,4.18,0,1.22-.22,2.31-.65,3.27-.96,2.35-1.66,5.14-2.09,8.36l2.74,.39c1.74-5.83,4.55-10.17,8.42-12.99s8.95-4.24,15.22-4.24c2.44,0,4.29,.72,5.55,2.15,1.26,1.44,1.89,3.38,1.89,5.81v11.49c0,4.79-1.31,7.18-3.92,7.18-.52,0-.91-.04-1.17-.13-2-.43-3.83-.65-5.48-.65-5.31,0-9.47,1.96-12.47,5.88s-4.51,9.36-4.51,16.33v23.51c0,2.53-.67,4.46-2.02,5.81-1.35,1.35-3.28,2.03-5.81,2.03h-11.5c-2.53,0-4.46-.68-5.81-2.03-1.35-1.35-2.03-3.29-2.03-5.81v-62.69c0-2.53,.68-4.46,2.03-5.81,1.35-1.35,3.28-2.03,5.81-2.03Z"/><path class="clr-50" d="M290.99,151.91l-10.71-.26v18.67c0,4.53,2.53,6.79,7.58,6.79,1.13,0,1.96-.04,2.48-.13,1.4-.18,2.35-.26,2.88-.26,2,0,3.46,.46,4.37,1.37s1.37,2.5,1.37,4.77v8.62c0,2.44-.59,4.38-1.76,5.81-1.17,1.44-2.89,2.33-5.16,2.68-2.61,.26-4.92,.39-6.92,.39-10.8,0-18.83-2.31-24.1-6.92-5.27-4.62-7.9-11.88-7.9-21.81v-20.5l-1.17,.13c-1.92,0-3.37-.67-4.38-2.02-1-1.35-1.5-3.2-1.5-5.55v-7.31c0-2,.55-3.53,1.63-4.57,1.09-1.04,2.59-1.57,4.51-1.57h.91v-5.62c0-4.87,2.48-7.58,7.44-8.1l11.49-1.17c2.61-.26,4.64,.22,6.07,1.44,1.44,1.22,2.15,3.09,2.15,5.62v7.83h10.84c2.53,0,4.46,.68,5.81,2.03s2.02,3.29,2.02,5.81v6.01c0,2.53-.69,4.48-2.09,5.88-1.39,1.39-3.35,2.05-5.87,1.96Z"/><path class="clr-50" d="M313.31,108.03h11.5c2.53,0,4.46,.57,5.81,1.7,1.35,1.13,2.03,2.74,2.03,4.83v1.17c0,1.74-.22,3.31-.66,4.7-.43,1.39-1.17,3.13-2.22,5.22-1.57,3.31-2.7,7.01-3.39,11.1l2.74,.52c1.48-5.57,4.12-9.88,7.9-12.93,3.79-3.05,8.6-4.57,14.43-4.57,7.84,0,13.8,2.87,17.89,8.62,4.09,5.75,6.14,14.19,6.14,25.34v37.87c0,2.53-.68,4.46-2.03,5.81-1.35,1.35-3.28,2.03-5.81,2.03h-11.5c-2.53,0-4.46-.68-5.81-2.03-1.35-1.35-2.03-3.29-2.03-5.81v-37.87c0-3.4-.67-6.03-2.02-7.9s-3.29-2.81-5.81-2.81-4.46,.93-5.81,2.81-2.02,4.51-2.02,7.9v37.87c0,2.53-.68,4.46-2.03,5.81-1.35,1.35-3.28,2.03-5.81,2.03h-11.5c-2.53,0-4.46-.68-5.81-2.03-1.35-1.35-2.02-3.29-2.02-5.81V115.87c0-2.53,.68-4.46,2.02-5.81,1.35-1.35,3.29-2.03,5.81-2.03Z"/></svg>
