<svg xmlns="http://www.w3.org/2000/svg" viewBox="0 0 82.78 34.44"><path class="clr-700" d="M2.39,32.81a3.45,3.45,0,0,1-2-3.4V25.92c0-1.62.66-2.44,2-2.44a4.51,4.51,0,0,1,1.25.19,42,42,0,0,0,5.47,1.27,30,30,0,0,0,4.86.5l.05-1.1a23.15,23.15,0,0,1-10.19-3.1A8.19,8.19,0,0,1,0,13.87,8.21,8.21,0,0,1,2.92,7.25q2.91-2.48,8.85-2.47a19.32,19.32,0,0,1,3.87.39,20.24,20.24,0,0,1,3.49,1,3.2,3.2,0,0,1,2.06,3.3v3.2a2.86,2.86,0,0,1-.5,1.82,1.77,1.77,0,0,1-1.46.62,4.94,4.94,0,0,1-1.34-.24,38.93,38.93,0,0,0-4.59-1.22,38.14,38.14,0,0,0-3.83-.59l-.14,1.1q7,1.14,10.07,3.73a9.13,9.13,0,0,1,3,7.36,8.5,8.5,0,0,1-2.84,6.68q-2.85,2.51-8.78,2.51a24.41,24.41,0,0,1-4.16-.39A18.71,18.71,0,0,1,2.39,32.81Z"/><path class="clr-700a" d="M25.61.93a7.09,7.09,0,0,1,4-.93,7,7,0,0,1,4,.93,3.12,3.12,0,0,1,1.34,2.75A3.21,3.21,0,0,1,33.57,6.5a6.78,6.78,0,0,1-4,1q-5.35,0-5.35-3.78A3.11,3.11,0,0,1,25.61.93Z"/><path class="clr-700" d="M27.5,8.61h4.21a2.92,2.92,0,0,1,2.13.74,2.89,2.89,0,0,1,.74,2.13V31.09A2.59,2.59,0,0,1,31.71,34H27.5a2.59,2.59,0,0,1-2.87-2.87V11.48a2.89,2.89,0,0,1,.74-2.13A2.9,2.9,0,0,1,27.5,8.61Z"/><path class="clr-700" d="M53.23,16.55l-3.92-.1v6.84c0,1.66.92,2.49,2.77,2.49a6.28,6.28,0,0,0,.91-.05q.76-.09,1-.09a2.15,2.15,0,0,1,1.6.5,2.38,2.38,0,0,1,.51,1.74V31a3.28,3.28,0,0,1-.65,2.13,2.94,2.94,0,0,1-1.89,1c-1,.09-1.8.14-2.53.14q-5.94,0-8.83-2.53t-2.89-8V16.26l-.43,0a1.87,1.87,0,0,1-1.6-.74,3.33,3.33,0,0,1-.55-2V10.86a2.26,2.26,0,0,1,.59-1.68A2.31,2.31,0,0,1,39,8.61h.33V6.55a2.69,2.69,0,0,1,2.73-3l4.2-.43a2.9,2.9,0,0,1,2.23.52,2.57,2.57,0,0,1,.79,2.06V8.61h4a2.92,2.92,0,0,1,2.13.74,2.89,2.89,0,0,1,.74,2.13v2.2a2.91,2.91,0,0,1-.77,2.15A2.76,2.76,0,0,1,53.23,16.55Z"/><path class="clr-700" d="M75.28,5.26h4.87a2.92,2.92,0,0,1,1.94.58,2,2,0,0,1,.69,1.62,3.48,3.48,0,0,1-.14,1L79.91,20.18a28,28,0,0,1-3.39,8.88A11.26,11.26,0,0,1,72,33.31a13.5,13.5,0,0,1-5.67,1.13,20.23,20.23,0,0,1-5.69-.82,3,3,0,0,1-2.34-3.25V27.12c0-1.56.41-2.35,1.24-2.35a2.31,2.31,0,0,1,1.24.39,9.67,9.67,0,0,0,3,1.05L58.2,8.51A3.1,3.1,0,0,1,58,7.41a1.92,1.92,0,0,1,.69-1.57,2.85,2.85,0,0,1,1.89-.58h5.12a2.81,2.81,0,0,1,3.06,2.63l.58,3.4a79.36,79.36,0,0,1,.9,12.53h1.1a116.76,116.76,0,0,1,.48-12.58l.39-3.3a2.9,2.9,0,0,1,.93-2A3.14,3.14,0,0,1,75.28,5.26Z"/></svg>
