<svg xmlns="http://www.w3.org/2000/svg" viewBox="0 0 311.25 476.22"><defs><style>.cls-1{fill:#b9f1fa;}.cls-2{fill:#e0f2fc;}.cls-3{fill:#224885;}.cls-4{fill:none;stroke:#202220;stroke-linecap:round;stroke-linejoin:round;stroke-width:1.25px;}.cls-5{fill:#2f6c9e;}.cls-6{fill:#284d8a;}.cls-7{fill:#a16d3f;}.cls-8{fill:#87622f;}.cls-9{fill:#7d5529;}.cls-10{fill:#31909e;}.cls-11{fill:#25a8ba;}.cls-12{fill:#d0d1ac;}.cls-13{fill:#1e7085;}.cls-14{fill:#8f9973;}.cls-15{fill:#bdf8ff;}.cls-16{fill:red;}.cls-17{fill:#18577a;}.cls-18{fill:#d1d1cf;}.cls-19{fill:#c4c4c2;}.cls-20{fill:#858583;}.cls-21{fill:#9c9c9a;}.cls-22{fill:#b8b8b6;}.cls-23{fill:#adadab;}.cls-24{fill:#acad83;}.cls-25{fill:#dbdac1;}.cls-26{fill:#d1d1b4;}.cls-27{fill:#baba99;}.cls-28{fill:#d6d5b6;}.cls-29{fill:#9e9e9c;}.cls-30{fill:#a0a37f;}.cls-31{fill:#adb08b;}.cls-32{fill:#6b6b60;}.cls-33{fill:#556155;}.cls-34{fill:#99853c;}</style></defs><g id="Layer_2" data-name="Layer 2"><g id="Layer_3" data-name="Layer 3"><path class="cls-1" d="M81.3,75.45c-4.3,0-13.4-6.7-8.45-8.44s8.88-12.82-1.39-12.82S52.17,59.73,45.77,66.13,30,70.5,22.47,79.82.55,91.88.63,104.28c.08,14.34,28.1-2.45,40.07,10.49,6.18,6.67-.28,9.85,17.06,13.88,26.22,6.08,40.93,10.06,47.71-.48,5.38-8.37-11.39-14.06,6.41-11.65,28.71,3.88,37-12.24,44.26-8.16s7.87,12.82,26.51,10.49,6.7-12.53,17.76-18.06,27.67-16,36.41-14.85,25.92-10.78,23.88-19.52-24.76-6.11-21.55-9.32,23.59-3.49,30.28,2.33,21.85,2.33,23.59-2-2.91-20.39-6.4-31.17-20.39-18-24.76-14-15.43,7.58-15.43,2.92S248.76-.56,234.2,0s-31.46,8.16-40.78,5.54-7.28,1.16-11.94,9.61S161.1,33.51,155.56,30.31s-18.64-.87-23.3,5.53-13.39,3.5-17.76,12.82-2,18.35-9.32,22.42S86,75.45,81.3,75.45Z"/><path class="cls-2" d="M69.54,58.43c-7.5-1.77-15.33,2.42-16.68,7.8S40.76,75.64,41.3,80.48,50.17,94.19,58,93.92s17.86,2.16,26,2.42,18.1-4.84,12.45-11.56S70.9,82.09,69.68,74.56,72.58,59.14,69.54,58.43Z"/><path class="cls-2" d="M112.61,85.36c-6.36-1.21-4.22,8.86-12.24,12.23s-36.92,4.65-27,10.13,35.45,7.81,45.16,6.12,20.89-1.48,23.21-7.38-27.22,1.68-25.74-5.7S117,86.2,112.61,85.36Z"/><path class="cls-2" d="M147.2,39.68c-5.6-1.55-13.33-2.58-17.47,2.61s-9.35,7.47-8.38,13.66,8.79,0,16-1.63S155.82,49.11,157,44.23,152.12,41,147.2,39.68Z"/><path class="cls-2" d="M135.35,64.08c-4.28,4.75,6.2,16.77,23.6,13.11s25.78-10.56,38.41-5.94,10.16-12.7,0-13.23S169.74,70.39,158,65.72,138.44,60.64,135.35,64.08Z"/><path class="cls-2" d="M183.57,17.11c-6.22,5.42-9.8,10.76-7.6,15.58s5.2,8,13.61,7.23a25.79,25.79,0,0,0,19.6-12.81c4.2-7,10-8.2,18.41-10s12.2-7.4,5.6-11-16.41-2.8-23.41,1-15.8,6.2-20.6,4.6S185.81,15.17,183.57,17.11Z"/><path class="cls-1" d="M102,220c-5.5,3.14-8.12,13.62,1.83,15.71s22.26,1.83,32,2.62,14.92-6.29,21.21-7.07,25.92,4.45,37.44-3.41,16.5.59,22.52,1.34,24.35,2.07,27.49-6.83,3.93-15.19-3.66-12.57-20.43-4.45-23.05-14.93-34-22.78-55.24-20.94-32,6.54-36.66,5-8.64-2.09-12.83,1.57-13.62,5-19.9,4.71-8.64,4.72-17.55,5.76S63,186.49,63,182.57,45.21,176,32.38,184.92,4.62,202.2,12,208,16.67,223.15,6.2,226s-6,8.76,12,12.37,38.68,6.48,49.19-1.37,17.32-19.9,27.79-20.69S102,220,102,220Z"/><path class="cls-2" d="M144.49,182.5c-7.26,1.22-17.28,3.4-20.81,6.51s-14.56,9.34-10.6,15,23.2,3.68,28.3,0,19.52-5.94,26.88-5.38,11,7.93,17.54,5.38,16.41-19.27,9.62-21.52-17,0-24.33,1.15S156.36,180.51,144.49,182.5Z"/><path class="cls-2" d="M125.25,219.86c-4.54-.18-13.81,7.92-7.33,9.9s17.8,3.11,22.89-1.13,16.13-5.38,23.49-4.81,20.09,2.54,22.92-2.55-8.49-10.75-15.28-11.88-14.07-.29-21.89,3.39S132.32,220.14,125.25,219.86Z"/><path class="cls-2" d="M220.09,211.29c-4.1-1.06-12.65,4.93-8.36,7.72s11.62,8.15,20,5.36-.23-8.15-4.31-10.29S227.6,213.22,220.09,211.29Z"/><path class="cls-2" d="M65.54,208.92c-7.39-1.66-15.71.81-21.09,3.82s-20.87,6.67-18.5,12,11,12.05,26,5.81S80.18,212.2,65.54,208.92Z"/><polygon class="cls-3" points="0.63 373.6 0.63 383.16 43.13 376.22 51.83 376.22 51.83 364.86 0.63 373.6"/><polyline class="cls-4" points="118.49 378.29 120.02 378.29 120.02 384.55 118.49 384.52"/><polygon class="cls-5" points="71.06 353.67 60.09 353.67 60.09 364.86 51.83 364.86 51.83 376.22 43.13 376.22 43.13 387.21 34.51 387.21 34.51 475.6 71.06 475.6 71.06 353.67"/><polygon class="cls-6" points="70.4 411.95 44.54 411.95 44.54 406.01 39.95 405.92 39.95 411.95 34.51 411.95 34.51 475.6 71.06 475.6 70.4 411.95"/><polygon class="cls-7" points="118.49 384.52 118.49 377.02 110.07 377.02 110.07 365.89 101.85 365.39 101.85 342.53 71.06 341.43 71.06 364.19 62.24 364.29 62.24 375.62 53.6 375.5 53.6 386.96 44.54 386.75 44.54 475.6 118.49 475.6 118.49 384.52"/><polygon class="cls-3" points="60.09 353.67 5.71 364 5.71 372.73 51.83 364.86 60.09 364.86 60.09 353.67"/><polygon class="cls-3" points="71.06 353.67 60.09 353.67 8.84 363.4 8.84 353.67 71.06 341.43 71.06 353.67"/><polygon class="cls-4" points="60.09 353.67 5.71 364 5.71 372.73 51.83 364.86 60.09 364.86 60.09 353.67"/><polygon class="cls-4" points="71.06 353.67 60.09 353.67 8.84 363.4 8.84 353.67 71.06 341.43 71.06 353.67"/><polyline class="cls-5" points="110.07 366.56 111.87 366.56 111.87 377.02 110.07 377.02"/><polygon class="cls-5" points="118.49 378.29 118.49 384.52 120.02 384.55 120.02 378.29 118.49 378.29"/><polyline class="cls-5" points="101.85 354.65 103.96 354.65 103.96 365.52 101.85 365.39"/><polygon class="cls-8" points="44.54 406.01 118.49 407.45 118.49 475.6 44.54 475.6 44.54 406.01"/><polygon class="cls-4" points="118.49 384.52 118.49 377.02 110.07 377.02 110.07 365.89 101.85 365.39 101.85 342.53 71.06 341.43 71.06 364.19 62.24 364.29 62.24 375.62 53.6 375.5 53.6 386.96 44.54 386.75 44.54 475.6 118.49 475.6 118.49 384.52"/><path class="cls-4" d="M86.47,349.44a8.8,8.8,0,0,0-9.07,8.82v19.29l18.14.43V358.69A9.32,9.32,0,0,0,86.47,349.44Z"/><path class="cls-9" d="M86.47,349.44a8.8,8.8,0,0,0-9.07,8.82v19.29l18.14.43V358.69A9.32,9.32,0,0,0,86.47,349.44Z"/><path class="cls-5" d="M84.12,349.75H83.9a8.79,8.79,0,0,0-6.5,8.51v19.29l15.79.37V359A9.32,9.32,0,0,0,84.12,349.75Z"/><path class="cls-4" d="M86.47,349.44a8.8,8.8,0,0,0-9.07,8.82v19.29l18.14.43V358.69A9.32,9.32,0,0,0,86.47,349.44Z"/><polygon class="cls-4" points="118.49 378.29 118.49 377.02 111.87 377.02 111.87 366.56 110.07 366.56 110.07 365.89 103.96 365.52 103.96 354.65 101.85 354.65 101.85 342.53 71.06 341.43 8.84 353.67 8.84 363.4 5.71 364 5.71 372.73 0.63 373.6 0.63 475.6 34.51 475.6 44.54 475.6 71.06 475.6 118.49 475.6 118.49 384.52 120.02 384.55 120.02 378.29 118.49 378.29"/><polygon class="cls-4" points="0.63 373.6 0.63 383.16 43.13 376.22 51.83 376.22 51.83 364.86 0.63 373.6"/><polygon class="cls-3" points="0.63 383.16 0.63 392.45 34.51 387.21 43.13 387.21 43.13 376.22 0.63 383.16"/><polygon class="cls-4" points="0.63 383.16 0.63 392.45 34.51 387.21 43.13 387.21 43.13 376.22 0.63 383.16"/><polygon class="cls-3" points="0.63 392.45 0.63 475.6 34.51 475.6 34.51 387.21 0.63 392.45"/><polygon class="cls-4" points="0.63 392.45 0.63 475.6 34.51 475.6 34.51 387.21 0.63 392.45"/><polygon class="cls-10" points="287.58 475.6 219.15 475.6 219.15 221.46 287.58 226.89 287.58 475.6"/><polygon class="cls-11" points="287.53 307.97 242.49 305.94 242.49 312.04 276.61 313.62 276.61 320.19 237.06 318.41 237.06 325.53 254.85 326.16 254.85 333.03 227.14 332.39 227.14 339.63 241.12 339.63 241.12 346.37 219.1 346.37 219.1 221.25 287.53 226.67 287.53 307.97"/><polygon class="cls-12" points="219.15 221.46 219.15 228.87 287.58 234.56 287.58 226.89 219.15 221.46"/><polygon class="cls-13" points="219.15 228.87 219.15 230.35 287.58 235.95 287.58 234.56 219.15 228.87"/><polyline class="cls-13" points="179.09 475.6 179.09 234.73 219.15 221.46 219.15 475.6"/><polygon class="cls-14" points="219.15 228.87 179.1 240.97 179.09 234.73 219.15 221.46 219.15 228.87"/><polyline class="cls-4" points="287.58 475.6 287.58 226.89 219.15 221.46 179.09 234.73 179.09 475.6"/><polygon class="cls-15" points="223.96 234.56 223.96 239.88 251.1 241.97 251.1 237.07 223.96 234.56"/><polygon class="cls-16" points="257.24 237.79 257.24 242.33 260.61 242.62 260.61 237.98 257.24 237.79"/><polygon class="cls-16" points="245.37 243.84 245.37 248.38 250.1 248.74 250.1 244.18 245.37 243.84"/><polygon class="cls-16" points="239.75 250.36 239.75 254.74 246.74 255.15 246.74 250.93 239.75 250.36"/><polygon class="cls-15" points="237.16 257.16 237.16 261.45 240.25 261.57 240.25 257.24 237.16 257.16"/><polygon class="cls-15" points="223.96 242.37 223.96 246.91 241.83 248.22 241.83 243.76 223.96 242.37"/><polygon class="cls-15" points="223.96 249.53 223.96 254.07 237.1 254.65 236.99 250.31 223.96 249.53"/><polygon class="cls-15" points="223.96 256.75 223.96 261.29 232.52 261.46 232.56 257.1 223.96 256.75"/><polygon class="cls-16" points="266.33 238.26 266.33 240.97 272.79 241.57 272.79 238.85 266.33 238.26"/><polygon class="cls-15" points="223.91 263.56 223.91 265.34 229.16 265.4 229.22 263.56 223.91 263.56"/><polygon class="cls-17" points="179.09 359.33 197.29 357.4 197.29 364.16 192.73 364.63 192.73 370.7 201.83 370.08 201.83 376.72 211.74 376.09 211.74 382.63 208.28 382.9 208.28 387.66 213.03 387.44 213.03 392.2 210.76 392.37 210.76 396.82 212.07 396.82 212.07 414.07 209.33 414.07 209.33 418.17 213.03 418.17 213.03 431.13 211.23 431.13 211.23 435.49 212.35 435.49 212.35 475.6 179.09 475.6 179.09 359.33"/><polygon class="cls-18" points="121.62 384.28 84.54 383.65 84.54 376.72 121.62 377.35 121.62 384.28"/><polygon class="cls-19" points="195.42 388.43 184.6 386.06 184.6 375.24 195.42 377.61 195.42 388.43"/><polygon class="cls-20" points="132.97 378.59 127.94 379.34 127.94 364.91 132.97 364.16 132.97 378.59"/><polygon class="cls-21" points="168.97 376.94 132.97 378.74 132.97 364.16 168.97 362.36 168.97 376.94"/><polygon class="cls-22" points="177.3 379.04 168.97 377.39 168.97 362.36 177.3 364.01 177.3 379.04"/><polygon class="cls-23" points="184.6 385.8 121.62 387.91 121.62 377.35 184.6 375.24 184.6 385.8"/><polygon class="cls-24" points="80.58 475.6 61.55 475.6 61.55 384.32 80.58 382.09 80.58 475.6"/><polygon class="cls-25" points="126.7 475.6 80.58 475.6 80.58 382.09 126.7 383.65 126.7 475.6"/><rect class="cls-26" x="126.7" y="383.65" width="6.27" height="91.94"/><polygon class="cls-27" points="177.3 382.09 132.97 383.65 132.97 475.6 177.3 475.6 177.3 382.09"/><polygon class="cls-28" points="204.17 475.6 177.3 475.6 177.3 382.09 203.27 386.12 204.17 475.6"/><polyline class="cls-29" points="71.07 383.21 71.07 378.5 84.54 376.72 84.54 382.22"/><polygon class="cls-30" points="126.7 396.16 132.97 383.65 132.97 475.6 126.7 475.6 126.7 396.16"/><polyline class="cls-4" points="204.17 475.6 203.27 386.12 195.42 384.9 195.42 377.61 184.6 375.24 177.3 375.49 177.3 364.01 168.97 362.36 132.97 364.16 127.94 364.91 127.94 377.14 121.63 377.35 84.54 376.72 71.07 378.5 71.07 383.21 71.07 383.21 61.55 384.32 61.55 475.6"/><polyline class="cls-4" points="71.07 383.21 80.58 382.09 126.7 383.65 132.97 383.65 177.3 382.09 195.42 384.9"/><line class="cls-4" x1="132.97" y1="475.59" x2="132.97" y2="383.65"/><polygon class="cls-31" points="126.7 396.16 99.23 412.65 99.23 475.6 126.7 475.6 126.7 396.16"/><polygon class="cls-32" points="89.1 395.37 85.07 395.3 85.07 388.74 89.1 388.81 89.1 395.37"/><polygon class="cls-32" points="89.1 405.76 85.07 405.69 85.07 399.13 89.1 399.2 89.1 405.76"/><polygon class="cls-32" points="89.1 416.15 85.07 416.08 85.07 409.52 89.1 409.59 89.1 416.15"/><polygon class="cls-32" points="89.1 426.54 85.07 426.47 85.07 419.91 89.1 419.98 89.1 426.54"/><polygon class="cls-32" points="95.71 395.53 91.67 395.46 91.67 388.89 95.71 388.97 95.71 395.53"/><polygon class="cls-32" points="95.71 405.92 91.67 405.85 91.67 399.28 95.71 399.36 95.71 405.92"/><polygon class="cls-32" points="95.71 416.31 91.67 416.24 91.67 409.67 95.71 409.75 95.71 416.31"/><polygon class="cls-32" points="102.28 395.71 98.25 395.64 98.25 389.07 102.28 389.14 102.28 395.71"/><polygon class="cls-32" points="108.65 395.9 104.61 395.82 104.61 389.26 108.65 389.33 108.65 395.9"/><polygon class="cls-32" points="102.28 406.1 98.25 406.03 98.25 399.46 102.28 399.54 102.28 406.1"/><polygon class="cls-33" points="310.63 397.72 287.58 397.97 287.58 383.68 310.63 383.43 310.63 397.72"/><polygon class="cls-34" points="310.63 397.72 287.58 397.97 287.58 475.6 310.63 475.6 310.63 397.72"/><polygon class="cls-4" points="310.63 397.72 287.58 397.97 287.58 383.68 310.63 383.43 310.63 397.72"/><polygon class="cls-4" points="310.63 397.72 287.58 397.97 287.58 475.6 310.63 475.6 310.63 397.72"/></g></g></svg>