<svg xmlns="http://www.w3.org/2000/svg" viewBox="0 0 454.08 454.08"><defs><style>.cls-1{fill:#acbd88;}</style></defs><g id="Layer_2" data-name="Layer 2"><g id="main"><path class="cls-1" d="M375.41,96.93l44.69,10.24a37.57,37.57,0,0,1,24.61,54.58L422.78,202A37.57,37.57,0,0,0,424,240l24.36,38.84a37.57,37.57,0,0,1-21.19,56l-44,13a37.58,37.58,0,0,0-26,27.65L346.91,420.1a37.58,37.58,0,0,1-54.59,24.61l-40.27-21.93A37.57,37.57,0,0,0,214.13,424l-38.85,24.36a37.56,37.56,0,0,1-56-21.19l-13-44a37.57,37.57,0,0,0-27.64-26L34,346.91A37.57,37.57,0,0,1,9.37,292.32l21.92-40.27a37.55,37.55,0,0,0-1.17-37.92L5.76,175.28a37.56,37.56,0,0,1,21.2-56l44-13a37.57,37.57,0,0,0,26-27.64L107.17,34A37.56,37.56,0,0,1,161.75,9.37L202,31.29A37.55,37.55,0,0,0,240,30.12L278.79,5.76a37.57,37.57,0,0,1,56,21.2l13,44A37.58,37.58,0,0,0,375.41,96.93Z"/></g></g></svg>