<svg xmlns="http://www.w3.org/2000/svg" viewBox="0 0 608.65 534.74"><path class="cardboard-brown-2" d="M358.61,217.53,97.68,34.67,71.33,241.34h0c-.47,3.67-.54,4.23.18,9s-2.37,8.16-3.16,14.36h0l-7.78,58.77,228.22,209,3.76,1.68,3.84-1,70.8-318.79Z"/><path class="cardboard-brown-3" d="M358.61,217.53h0s-.15.71-.35,1.69l-280-15.6-6.4,33.71c5.33,4.35,54.16,47.07,60,52.47s38.55,31.35,41.1,34.29,5.19,3.94,3.53,9.21a152.24,152.24,0,0,0-3.59,15.33c-.52,2.69.76.83,1.56-2.83s2.82-8.09,3.09-9.84,2.31-5,4.36-2.92,39.16,31.63,42.67,33.73,15,9.71,18.64,11.86S262.07,393,266.3,395.06s22.51,15.38,30,21.72,10.9,11.34,17.52,13.65h0a12.17,12.17,0,0,0,0,3.72,9.4,9.4,0,0,1-.9,4.57,7.75,7.75,0,0,0-.86,4.45A7.55,7.55,0,0,1,311,448a4.84,4.84,0,0,0-.88,3.35,9.39,9.39,0,0,1-.85,4.07,9.48,9.48,0,0,0-.85,4.31,5.42,5.42,0,0,1-.68,3.72,8.18,8.18,0,0,0-1.06,4.46c0,1.56.35,1.76.47,3.1s-.43,1.74-.94,2.84a6.48,6.48,0,0,0-.29,4c.31,1.8-1.39,5.52-2.14,6.78s-1.19,4.79-1.49,6.7-1.17,1.78-1.56,3.66.15,2.24-.09,4.11-1.25,2.28-1.64,4.17.21,2.6,0,4.18-1.23,1.82-1.58,3.48.27,2.44,0,4.07-1.27,1.88-1.63,3.6.69,2.81-.4,4.84-.34,2.65-.63,5-2.61,2.34-4.73.7-14.94-13.54-16.11-14.61-8.71-8.1-10.64-9.92-7.14-4.6-9-6.18-7.37-8.38-9.21-10.07-2.73-5.61-4-6.71-4.2,0-6.79-1.49-3-4.75-4.68-6.28S210,457.41,208.11,455.59s-4.32-4.22-5.37-6.32-7.89-7.56-10.44-8.7S167.9,419,166.63,417.9s-4.47-3.55-4.21-5.12,1.47-3.64,1.13-5.12S165,397.61,165.26,396s-.27-3.56-1,.26-2.67,16.78-4.45,16.39-.85-3.57-2.31-4.59-5.23-3-6.38-4.67-17.06-16.23-19.65-18.78-6.88-6.87-8.63-7.38-4.51-2.27-5-3.55.06-2.91-.24-3.67-1.84-.64-3.11-.69-11.72-9.8-12.83-11.1-11.83-10.87-13.53-12.18a107.92,107.92,0,0,1-9.09-9c-.61-.94-1.7-1.3-2.8-2.13s-1.09-1.4-1.58-2.33-2.72-1.41-3.78-1.88-1.64-2.11-2-3.34-2.59-2.55-4.81-4.09-.21-7.59.21-11a57.8,57.8,0,0,0-.38-14.21l-3.37,25.42,228.22,209c3.46,3.16,7.6.66,7.6.66L502.16,408.64l75.65-271.33Z"/><path class="cardboard-brown-4" d="M533.84,295l-11.55,5.75s.9,2.47-1.21,5.5-18.1,8.37-18.49,10.13,17-8.36,18.64-6.9-.9,5.33-2.33,6.39-30.26,14.46-30.57,16.41,27.18-13.41,29.68-13,.44,6.16-4.32,8.44S476.52,345,476.08,347s30.68-15.57,34.11-14.82-1.59,6.64-5.93,8.83-20.87,9-21,10.39,19.34-8.71,20.59-7.75-.42,5.77-5.67,8.34-26.78,12.19-27,13.6,20.42-10.28,23.77-10.4.73,5.15-2.4,7.26-35,17-35.11,18.74,29.36-15.35,32.11-15.28-2.28,7.88-4.92,9.56S441,397,440.2,399.41s36-19.19,39.55-19.17-2.28,7.94-6.78,10.57-58.64,30.33-59.15,32.63,52.95-29.07,56.34-28.76-8.33,11.15-14.94,14.52-71.45,39.87-71.76,41.31,49.54-28.65,52.29-28.16-6.27,10.71-15.15,16.14-58.75,32.84-58.94,35.08,46.25-28.08,50.58-27.88-6.09,11.22-13.86,15.05-55.63,31-56.18,32.81,42.59-24.45,46.36-25.84-13.73,14.49-21,18S342,501.2,337.91,504.81s-5,2.36-7.44,3-3.54,2.38-4.83,3.45-5.21,4.51-7.07,4.74-6.74,4.61-8.2,5.78-9.61,4.95-12.37,7.06-3.11,4.69-5.15,5.23a7.59,7.59,0,0,0,3.54-.93L502.16,408.64Z"/><path class="illu__stroke" d="M73.25,226.29l-1.92,15.05h0c-.47,3.67-.54,4.23.18,9s-2.37,8.16-3.16,14.36h0l-7.78,58.77,228.22,209c3.46,3.16,7.6.66,7.6.66L502.16,408.64l75.65-271.33-219.2,80.22"/><path class="cardboard-brown-2" d="M358.06,220.15s25.6,88.14,28.92,92,1.66,6.61,1.74,9.41S392,363.82,392,363.82l2.76.41L608,258.1S606,228.81,603,220.52s-25.16-83.21-25.16-83.21l-219.2,80.22Z"/><path class="cardboard-brown-2" d="M97.68,34.67S4.8,158.81,2.19,162.28,1,167.54,1,167.54,217.1,343.41,221.54,346.42s8.18,4.52,14.13,6.8a33.31,33.31,0,0,0,10.56,2.33L357.76,221.38l.85-3.85Z"/><path class="cardboard-brown-3" d="M357.76,221.38l.85-3.85-1.2-.84c-4.28,4.34-8.71,8-9.72,10.79s-1.6,2.67-3.47,3.86-6.63,7.39-8.56,10-1.47,4.31-3.83,5.08-2.83,2.87-4,4.06-31,38.67-33.87,40.86-6.19,6.27-7.89,8.3-14.73,18.93-16.46,20.64-3.25,2.42-4,4.25a9.89,9.89,0,0,1-3,4.57c-1.67,1.41-12.09,15-14,16.68s-3.13,2.34-4.11,2-1.34-2-2.84-1.35-6.16,2.86-9.31,2.23-5.94-2.26-8.31-2.61-6.24-2.59-7.24-3.39c2.75,2.2,4.41,3.5,4.76,3.74,4.43,3,8.18,4.52,14.13,6.8a33.31,33.31,0,0,0,10.56,2.33Z"/><path class="cardboard-brown-4" d="M355.88,220.43c-.22-.66-1.34-.57-1.84.79s-.41,3-1.55,3.39-2.81.38-3.05,2.06-1.29,2.52-.14,2.44,2.7-1.67,3.28-2.48S356.81,223.16,355.88,220.43Z"/><path class="cardboard-brown-4" d="M347.75,230.2c-.44-.07-1.82.72-.94,1.14S348.56,230.34,347.75,230.2Z"/><path class="cardboard-brown-4" d="M346.09,232.11c-.61-.18-2.43,1.36-2.8,2.39s-2.29,3.48-2.51,4,.64-.18,1.07-.87,1.87-2.79,2.73-3.11S346.69,232.29,346.09,232.11Z"/><path class="cardboard-brown-4" d="M340.77,236.91c-.54.11-1.71,1.45-1.31,1.53S341.64,236.73,340.77,236.91Z"/><path class="cardboard-brown-4" d="M339.67,240.05c-.42,0-1.7.09-2,.94s-.54,1-.06,1.24S340.48,240,339.67,240.05Z"/><path class="cardboard-brown-4" d="M336.46,243.46c-.69.12-1.43,1-.66,1.11S337.51,243.28,336.46,243.46Z"/><path class="cardboard-brown-4" d="M335.11,245.9c-.83,0-1.56.59-1.05,1S336,245.89,335.11,245.9Z"/><path class="cardboard-brown-4" d="M332.83,247.89a2.56,2.56,0,0,0-2.34,1.17c-.4.92.09,2-1,2.82s-1.69.37-2.3,1a2.31,2.31,0,0,0-.47,2.11c.16.51,2,.71,2.23-.52a7.48,7.48,0,0,1,3.24-3.8C333.16,250.39,333.68,247.88,332.83,247.89Z"/><path class="cardboard-brown-4" d="M326.25,256c-1.57.05-2.95,1.24-2,1.72S327,256,326.25,256Z"/><path class="cardboard-brown-4" d="M323.49,259.34c-.74-.43-2.34.72-2.54,1.62s-.15,3.31-1.94,3.86-2.7,1.37-3,2.69-1,2.9-2.38,3.25a4.16,4.16,0,0,0-2.84,2.65c-.31,1.09-1.14,2.22-.09,2.38s4.22-2.8,5.35-4.25S325.94,260.75,323.49,259.34Z"/><path class="cardboard-brown-4" d="M309,276.94c-.9-.2-2.93,1.1-1.88,1.91S309.91,277.14,309,276.94Z"/><path class="cardboard-brown-4" d="M306.48,279.87c-.2-.12-1.68,1-.71,1.22S307.19,280.32,306.48,279.87Z"/><path class="cardboard-brown-4" d="M304.76,282a3.19,3.19,0,0,0-2.47,2.29c-.3,1.38-.16,2.07-1.32,2.39s-2.25.31-2.6,1.9-.15,2.66-1.7,3.12-1.73.27-2.37,2.17-.41,2.89.45,2.57,5.54-5.45,6.75-7.41,3.11-2.88,3.65-4S305.73,281.82,304.76,282Z"/><path class="cardboard-brown-4" d="M291.45,300.31a3.55,3.55,0,0,0-4.5,1c-1.13,1.55-.86,4.42-2.49,5.19s-3.56,1.35-4.2,3.24-1.44,4.51-3.52,5.29a7.92,7.92,0,0,0-4.68,5.39c-.38,2.27-1.92,2.61-2.38,4.19s-.1,2.83.9,1.62S291,302.34,291,302.34Z"/><path class="cardboard-brown-4" d="M268.66,323.75c-1.26-.41-3.37,1.21-2,2.29S269.92,324.16,268.66,323.75Z"/><path class="cardboard-brown-4" d="M266.76,328.87c-2.14-.15-3.7,1.89-4.11,3.15s-.22,2.57-2.63,2.77-3.34,2.27-3.54,4.39-1.18,1.09-2.32,2.59-2.14,3.59-2.11,4.67,10.2-10.16,12.26-12.64S267.47,328.92,266.76,328.87Z"/><path class="cardboard-brown-4" d="M249.56,347.92c-1.71-.22-3.58,1.52-3.09,3S251.13,348.14,249.56,347.92Z"/><path class="cardboard-brown-4" d="M245.09,352.89c-.71-2.26-2.11-2.95-1.87-4.42s-3.25,0-4,2-2.78.34-3.6-.25-4.15-1.39-3.88-.14,4.06,3.58,7.17,4.25S245.72,354.92,245.09,352.89Z"/><path class="illu__stroke" d="M97.68,34.67S4.8,158.81,2.19,162.28,1,167.54,1,167.54,217.1,343.41,221.54,346.42s8.18,4.52,14.13,6.8a33.31,33.31,0,0,0,10.56,2.33L357.76,221.38l.85-3.85Z"/><path class="cardboard-brown-3" d="M240.37,343c0-2.29-6.37,0-9.91-.7s-12.71-6.56-13-5.12,6.95,4.23,11.44,6.16S240.32,346.47,240.37,343Z"/><path class="cardboard-brown-3" d="M246.29,339.16c-1.46-.55-5.18.59-2.73,2.36S249.35,340.33,246.29,339.16Z"/><path class="cardboard-brown-3" d="M250.4,339.08c1.81.09,2.93-3.41,3.62-4.86s3.22-2.86,2.3-3.19-3.78,3.48-5.1,4.3S249,339,250.4,339.08Z"/><path class="cardboard-brown-3" d="M258.13,329c-.43-.83,1-3.35,1.79-2.56S258.56,329.8,258.13,329Z"/><path class="cardboard-brown-3" d="M211,327.82c-.21.94-2.7.52-2.47-.54S211.2,326.88,211,327.82Z"/><path class="cardboard-brown-1" d="M95.83,44.38c-1.68-.53-4.15,2-4.66,3.46s-3,3.83-3.69,5.24,1.42-.66,2.86-2.24a15.61,15.61,0,0,1,3.89-3.14C95.38,47.05,96.72,44.66,95.83,44.38Z"/><path class="cardboard-brown-1" d="M86.07,55.46c-.73-.16-2.81,1.17-1.94,1.87S86.81,55.62,86.07,55.46Z"/><path class="cardboard-brown-1" d="M81.93,61.12c-.24-.95-2.66,1.85-2.4,2.42S82.39,62.89,81.93,61.12Z"/><path class="cardboard-brown-1" d="M104.25,42.9c-1.29-.66-3.18-.11-2.53,1.22s3.76,1.79,6,3.52,5.74,3.57,6.14,2.83S106.27,43.94,104.25,42.9Z"/><path class="cardboard-brown-1" d="M117,53.48c-.56.32.74,2.06,2,1.51S118.48,52.62,117,53.48Z"/><path class="cardboard-brown-1" d="M122.24,56.53c-.28.3,1.91,2.67,2.91,2.42S123.17,55.55,122.24,56.53Z"/><path class="cardboard-brown-1" d="M100,40.05c-1-.58-2.19-.86-2.72-.13s-2.36,3.52-.22,2.77,2.57-1.41,3.33-1.43S100.78,40.53,100,40.05Z"/><path class="cardboard-brown-1" d="M128.43,60.44c-.5.5,1.68,2.16,2.9,2.75s6.21,5.3,6.75,4.87-4.64-3.82-5.39-5.34S129.82,59,128.43,60.44Z"/><path class="cardboard-brown-1" d="M143.42,70.44c-1.8.73,4,4.37,4.83,4S144.2,70.13,143.42,70.44Z"/><path class="cardboard-brown-1" d="M158,80.9c-.6.81,1.67,2.16,2.09,1.54S158.62,80.09,158,80.9Z"/><path class="cardboard-brown-1" d="M166.55,86.14c-.4.3,5,5,7.25,5.3S167.74,85.26,166.55,86.14Z"/><path class="cardboard-brown-3" d="M238.48,338.27c-1.53,1.31-13.69-9-18.65-12.28s-33.8-24.4-32.56-26.08,28.31,21.58,32.85,24.52S240.45,336.59,238.48,338.27Z"/><path class="cardboard-brown-3" d="M178.53,292.49c-2.1.64,4.47,6.8,5.75,5.15S179.51,292.19,178.53,292.49Z"/><path class="cardboard-brown-3" d="M170.74,288.06c-.6,1.11,3.13,3.21,3.77,2.59S171.34,287,170.74,288.06Z"/><path class="cardboard-brown-3" d="M243,330.54c1.12-.6-16.45-11.91-20.18-15.52s-15.15-12-16.16-10.76,10.1,9.82,14,12.32S241.42,331.36,243,330.54Z"/><path class="cardboard-brown-3" d="M174.49,300.71c-.9.72,31.5,25.32,32.7,24.11s-18-14-21.2-16.79S175.63,299.8,174.49,300.71Z"/><path class="cardboard-brown-3" d="M213.13,329.7c-1.26.81,3,6.3,4.26,5.29S214,329.17,213.13,329.7Z"/><path class="cardboard-brown-1" d="M98.65,49.56c-1.28,1.94,11,8.93,12,7.94C111.42,56.71,99.89,47.68,98.65,49.56Z"/><path class="cardboard-brown-3" d="M73.5,248.78c-1,.45-.27,4.85.18,6.47s1.93,2.21,2.38,1-.81-2.05-1.2-4.1S74.4,248.36,73.5,248.78Z"/><path class="cardboard-brown-3" d="M73.13,245.15c-.28-.12-.83,1.69-.08,2S73.72,245.4,73.13,245.15Z"/><path class="cardboard-brown-1" d="M73.36,258.43c-1.2-.62-2.82,2.66-2.25,3.44S75.55,259.54,73.36,258.43Z"/><path class="cardboard-brown-3" d="M172.53,353.08c-.72-.16-2.83,9.32-2.08,9.48S173.07,353.2,172.53,353.08Z"/><path class="cardboard-brown-3" d="M170.07,366.61c-1,0-1.32,3.06-.71,3.2S171.1,366.61,170.07,366.61Z"/><path class="cardboard-brown-3" d="M168.73,372.69c-.94.16-1.89,3.61-.77,3.52S170.73,372.35,168.73,372.69Z"/><path class="cardboard-brown-3" d="M303.15,427.55c.55-1.48-42.53-32.37-46-33.61s15.65,12.17,20.73,15.77S302.44,429.44,303.15,427.55Z"/><path class="cardboard-brown-3" d="M254.81,392.15c.7-.94-7.58-6.12-7.88-5.27S254.12,393.09,254.81,392.15Z"/><path class="cardboard-brown-3" d="M243.15,383.67c.2-.94-3.3-3.47-3.58-2.43S242.94,384.61,243.15,383.67Z"/><path class="cardboard-brown-3" d="M237.13,379.17c.2-.94-2.28-2.36-2.57-1.66S236.92,380.11,237.13,379.17Z"/><path class="cardboard-brown-3" d="M308.42,440.47c0-2.24-11.07-9.41-11.3-8S308.42,442.71,308.42,440.47Z"/><path class="cardboard-brown-3" d="M310.32,431.87c.47-1.42-2.12-3.52-2.52-2.2S309.85,433.29,310.32,431.87Z"/><path class="cardboard-brown-3" d="M306.93,449.36c.3-1.34-4.41-4.49-4.63-3.48S306.64,450.71,306.93,449.36Z"/><path class="cardboard-brown-3" d="M305.55,455.64c.09-1.4-2.83-1.27-2.57-.57S305.48,456.81,305.55,455.64Z"/><path class="cardboard-brown-3" d="M304.29,461.39c0-.82-2-.89-2,.12S304.32,462.5,304.29,461.39Z"/><path class="cardboard-brown-3" d="M290.81,522.79c.84-2.38-6-4.2-6.35-3.06S290,525.17,290.81,522.79Z"/><path class="cardboard-brown-3" d="M291.05,517.1c-.42-1.13-2.42-2.33-2.64-1.32S291.44,518.14,291.05,517.1Z"/><path class="cardboard-brown-3" d="M292.36,511.47c.14-.73-5.65-4.32-5.74-3.91S292.12,512.79,292.36,511.47Z"/><path class="cardboard-brown-3" d="M283.31,517.72c.66-1-2.42-1.9-2.55-1.3S282.64,518.74,283.31,517.72Z"/><path class="cardboard-brown-1" d="M392.53,316.44c-1.78-.06-2.94,4.48-1.84,5S394.3,316.51,392.53,316.44Z"/><path class="cardboard-brown-3" d="M388.75,309.64c-.7.74,2.23,5.18,3,4.53S389.45,308.89,388.75,309.64Z"/><path class="cardboard-brown-3" d="M391.15,323.45c-1,.34-.25,5.79.69,5.72S392.15,323.11,391.15,323.45Z"/><path class="cardboard-brown-3" d="M391.86,331.4c-.8.33-.32,2.52.26,2.37S392.88,331,391.86,331.4Z"/><path class="cardboard-brown-3" d="M603,220.52c-3-8.29-25.16-83.21-25.16-83.21l-2.58.95s3.1.79,1.88,2.23-9.35,4.3-11.67,5.08a33.33,33.33,0,0,0-5.88,2.57c-1.07.69-2.26.24-3.91.61s-2.29-.87-3.68.39-9.7,4.77-14.15,6.56-15.39,5.91-17.26,6.88a31.38,31.38,0,0,1-7.36,2.07c-1.14.12-4.17.92-4.75,1.9s-1.73,1.56-4.24,1.28-2.28.9-7,2.93-62.87,23-69.4,25.4-54.44,20.08-56.3,20.62a20.21,20.21,0,0,0-4.84,2.58c-1,.62-2.2-.07-2.9.25s-.92,2-.38,3.88,3.9,14.14,6.66,23.23,6.86,22.15,7,24.36,1.15,6.24,2,7.3,1.18.71,1.12,3,7.15,21,7.88,23.25a23.63,23.63,0,0,0,4.14,6.85c1.64,1.95,2,6.16,1.46,7.57a12,12,0,0,0-.47,5.56,43.52,43.52,0,0,1,0,9.39c-.34,2.16,1.57,26.59,1.61,30.21L608,258.1S606,228.81,603,220.52Z"/><path class="illu__stroke" d="M358.06,220.15s25.6,88.14,28.92,92,1.66,6.61,1.74,9.41S392,363.82,392,363.82l2.76.41L608,258.1S606,228.81,603,220.52s-25.16-83.21-25.16-83.21l-219.2,80.22Z"/><path class="cardboard-brown-1" d="M362.68,218.47c.7.55,12.42-3.75,11.7-4.33S361.73,217.74,362.68,218.47Z"/><path class="cardboard-brown-4" d="M604.37,246.29c-1.09-.14-.58,3.41-.28,4.74s-2.27,5.31-1.31,5.94,2.46-.47,2.7-1.93S605.35,246.42,604.37,246.29Z"/><path class="cardboard-brown-4" d="M601.32,256.31c-.65-.48-1.87,2-.93,2.32S602,256.79,601.32,256.31Z"/><path class="cardboard-brown-4" d="M602.08,251.85c-.65-.23-.77,1.68-.41,1.84S602.72,252.07,602.08,251.85Z"/><path class="cardboard-brown-4" d="M598.76,258.78c.06-.76-1.88.51-1.56,1S598.72,259.36,598.76,258.78Z"/><path class="cardboard-brown-4" d="M596,260.45c-.34-.75-6.32,2.31-6,3.14S596.38,261.2,596,260.45Z"/><path class="cardboard-brown-4" d="M603.07,244.14c.77-.18,1.5-3.9.32-3.64S602.31,244.31,603.07,244.14Z"/><path class="cardboard-brown-4" d="M599.49,252.25s-15.69,6.73-15,7.9S599.87,253.16,599.49,252.25Z"/><path class="cardboard-brown-4" d="M600.53,244.29c-.29-.75-21.09,9.18-20.71,10.12S601,245.54,600.53,244.29Z"/><path class="cardboard-brown-4" d="M587.94,264.3c-.35-.86-12.32,5-12,6.2C576.12,271.18,588.51,265.68,587.94,264.3Z"/></svg>
