<svg xmlns="http://www.w3.org/2000/svg" viewBox="0 0 243.06 375.3"><path class="carton-offwhite-3" d="M149.41.69C153,.7,155.08.44,156.24,6s2.32,11.15,4.7,12.11c7.14,2.87,40.33,17,42.35,25.36,5.05,20.76,37.18,206.75,39.15,244.15,0,0-28,47.27-61.88,87l-103-248Z"/><path class="carton-offwhite-4" d="M242.44,287.64c-2-37.4-34.1-223.39-39.15-244.15a4.25,4.25,0,0,0-.3-.84,3.76,3.76,0,0,1-1.69-.95,70.8,70.8,0,0,0-14.92-10.56A73.93,73.93,0,0,0,170.83,25c-1.06-.28-1.51-1.63-2.1-2.07s-1.47-.13-1.91-.38a8.12,8.12,0,0,0-1.95-1.09c-.89-.26-1.7.91-2.58.42s-.25-1.5-2.62-2.17-3.12-5.28-3.12-5.28l-6.35.61s-22.46,68.29-15,68.18,20.15-3.88,32.32-9.51,12.41-8.12,12.63-8.67A2.14,2.14,0,0,1,182,63.53c1.28-.26,1.32-2.12,1.73-3s2-1.43,2.9-1.78,2.08-2.11,3-3.39,3.88-1,3.88-1l3.73-4a6.55,6.55,0,0,1-.94,5.08c-.33.71-1.05.73-1.85,1s-.39,1-1,2-2,1-2.77,2.16-1.49,2.92.63,12.6A68.64,68.64,0,0,0,197.39,90c.4,1,.74.61.93,2s.05,1,.45,1.73,1.18,1.06,1.14,2.11-.28,1.13.54,2.36,2.32,3.74,5.64,13.6,6.22,23.66,6.16,24.87a9.09,9.09,0,0,0,.73,3.68c.37.75-.24,1.4-.18,2.22s.81.5,1,1.88-.27,5.28.75,8.16,4.58,14.58,4.6,19.52,2.77,16.2,3.21,17.14.34,3.08.4,4a5.1,5.1,0,0,0,.74,2.39c.45.7.2,1.54.21,3.6s1.28,1.68,1.84,3.71-.89,3.6-.18,5,.17-2.46,6.94,35.71-7.27,69-7.72,69.6-1.58,1.09-1.61,2.19a2,2,0,0,1-1.29,1.82c-.37.08-1-1-2.5,2.83s-8.19,12.58-9.59,14.54-11.34,13.82-12,16.08-1.58,1.68-3.09,3.09a11.4,11.4,0,0,0-3.21,5.3c-.21,1.46-2.23,1.85-3.85,3.37-4.56,4.29-6.87,8.87-6.88,12.31C214.46,334.91,242.44,287.64,242.44,287.64Z"/><path class="carton-blue-3" d="M203.29,43.49c-2-8.33-35.21-22.49-42.35-25.36-2.38-1-3.54-6.54-4.7-12.11S153,.7,149.41.69L111.16,67.81,99.35,112.33l40.24,76.26c10.39-14.38,28.6-34,45-29.28s33.3-18.84,34.63-28.66C212,88.25,205.36,52,203.29,43.49Z"/><path class="carton-offwhite-3" d="M.75,102.7c6.12,34,51,201.34,66.17,236,0,0,62.45,24.09,113.64,36,0,0-14.64-56.9-30-130.62s-23.2-121.53-24.08-127.53S150.13,35.89,154,26.83c3.43-8,3.58-7.28.68-21.22C153.54,0,150.75.61,143.49.67,134.13.74,39.8,5.51,34.08,6s-4.16,4.5-3.58,7.29,3.57,10.16.81,14.37S-1.58,89.73.75,102.7Z"/><path class="carton-blue-4" d="M135.22,83.26c7.47-.1,20.15-3.88,32.32-9.51s12.41-8.12,12.63-8.67A2.14,2.14,0,0,1,182,63.53c1.28-.26,1.32-2.12,1.73-3s2-1.43,2.9-1.78,2.08-2.11,3-3.39,3.88-1,3.88-1l3.73-4a6.55,6.55,0,0,1-.94,5.08c-.33.71-1.05.73-1.85,1s-.39,1-1,2-2,1-2.77,2.16-1.49,2.92.63,12.6A68.64,68.64,0,0,0,197.39,90c.4,1,.74.61.93,2s.05,1,.45,1.73,1.18,1.06,1.14,2.11-.28,1.13.54,2.36,2.32,3.74,5.64,13.6,6.22,23.66,6.16,24.87a9.09,9.09,0,0,0,.73,3.68c.37.75-.24,1.4-.18,2.22,0,.47.31.57.57.84,3.25-4.71,5.39-9.44,5.83-12.67C212,88.25,205.36,52,203.29,43.49a4.25,4.25,0,0,0-.3-.84,3.76,3.76,0,0,1-1.69-.95,70.8,70.8,0,0,0-14.92-10.56A73.93,73.93,0,0,0,170.83,25c-1.06-.28-1.51-1.63-2.1-2.07s-1.47-.13-1.91-.38a8.12,8.12,0,0,0-1.95-1.09c-.89-.26-1.7.91-2.58.42s-.25-1.5-2.62-2.17-3.12-5.28-3.12-5.28l-6.35.61S127.74,83.37,135.22,83.26Z"/><path class="carton-blue-2" d="M154.82,5.58c-1.16-5.57-3.94-5-11.2-4.94C134.25.71,39.92,5.48,34.2,6s-4.15,4.5-3.57,7.28,3.57,10.17.81,14.38S-1.45,89.71.88,102.67C4,120,17.12,171.76,31.28,223h0c14.32-41.69,29.48-49.21,49.66-39.59s41,13.8,58.65,5.14h0c-8.06-41.75-12.32-67.76-13-72.08-.88-6,23.63-80.65,27.52-89.7C157.58,18.82,157.72,19.52,154.82,5.58Z"/><path class="carton-blue-3" d="M74.23,94.47a24.94,24.94,0,0,0,21.37-13c.3-.63-.07-1.4.31-1.87s.7-.14.93-.71l.06-.17c.23-.62.7-2,.91-2.72,0-.12.07-.24.1-.36.11-.5-.4-.71.41-2a24.25,24.25,0,0,0,.33-3A22.83,22.83,0,0,0,76,46.46,25.1,25.1,0,0,0,51,70.28a22.82,22.82,0,0,0,21,24.12C73.55,94.13,73.56,94,74.23,94.47Z"/><path class="carton-white-2" d="M87.76,49.52h0l0,0a14.36,14.36,0,0,0-1.45-1.24l-11.4-9.74-.18-.14-.18-.16h0a16.19,16.19,0,0,0-12.27-3.4C50.64,36,39.73,46.89,37.87,59.11c-1,6.61.84,12.25,4.58,15.85h0a16.39,16.39,0,0,0,1.35,1.15l11.33,9.66c.23.21.45.4.69.59l.06,0h0a16.26,16.26,0,0,0,12,3.17c11.6-1.2,22.51-12.08,24.37-24.3C93.24,58.73,91.43,53.13,87.76,49.52Z"/><path class="illu__stroke" d="M149.55,39.16c11.41.05,47.59,2.7,53.74,4.33"/><path class="carton-blue-1" d="M35.86,11.29c-2.35.07-4.08.33-3.2,1.2s3.07-.35,5.48-.39,4.22.13,4-.83C42,10.77,38.79,11.21,35.86,11.29Z"/><path class="carton-blue-1" d="M45.15,11c-.39-.07-1.15.07-.78.58s1.47.35,1.75.1S45.83,11.12,45.15,11Z"/><path class="carton-blue-1" d="M48.33,11.09c-.54,0-.66.47-.39.63s1.43.1,1.24-.25S48.82,11.05,48.33,11.09Z"/><path class="carton-blue-1" d="M53.43,10.44c-.83.29-.46.91-.09.93s3.59-.29,4.57-.28,2.1-.05,1.75-.25a9.66,9.66,0,0,0-3.4-.2C55.53,10.82,54.68,10,53.43,10.44Z"/><path class="carton-blue-1" d="M143.49.67C134.13.74,39.8,5.51,34.08,6c-3.24.26-4.14,1.68-4.21,3.35.36-2.84,4.33-1.67,7.89-1.92s5.41-.2,5.66-.37.95-1.06,1.63-1,.54.93,1.44.89a3.42,3.42,0,0,0,1.79-.84,1.18,1.18,0,0,1,1.17,0,5.44,5.44,0,0,0,2.61.47C53.38,6.52,85.19,5,113.94,3.32S145.8,1.59,148.34.64C147,.6,145.4.65,143.49.67Z"/><path class="carton-blue-3" d="M150.72,5.2a1.91,1.91,0,0,1,1.88,1.39c.26.77,1.64-.75.84-2.65s-1-1.13-1.63-.64-2.43.2-3.39.81-2,.46-4.49.47-16.71.44-18.29.51S124.29,6,123,6s-.87-.68-1.93-.82-1.09,1-2,.84-.3-.71-1.39-.74-46.9,2.25-50,2.55-3.4,1.26-4.89,1-1.17-.66-2-.68-.42.45-1.17.54,0-.17-1.59-.2S33.5,10,32,10.1c-.89.05-1-1.27-2.14-.78a8.6,8.6,0,0,0,.22,2.06,1.92,1.92,0,0,0,1.18-.09c2.07-.72,36.87-2.08,41.93-2.4s10.13-.64,11.29-1.24,1.77.2,2.4.32,1.18-.65,2.32-.48,1.18,1.27,1.9.36,3.16-.31,5.91-.42S144.71,6,147,6,149.77,5.26,150.72,5.2Z"/><path class="carton-blue-3" d="M31.06,15.07c.75,1.17,2.12.95,3.87.52s6.3-1.06,7.49-.69,1.95.52,2.35.06.71-.38,1.18-.08.8.17,1.44-.3,1.44-.2,3.54-.46S75,12.91,78.27,12.79a15.53,15.53,0,0,1,4.76.43c.63,0,1,.17,1.35-.28s.73-.95,1.18-.56.5,1.5,1.06.95,0-1.47.72-1.25.77,1.32,1.42.9a2.8,2.8,0,0,1,2.42-.78c1.84,0,23.66-1.57,25.52-1.25s1,1,1.67.93.72-.85,1.31-.78.76.87,1.33.81,1-1,1.58-1,1.14.28,1.73.35,1.07-.42,2.09-.44,19.34-.43,21.09-1,1.89-2,3.27-1.83,2.52.63,3.51-.28,1.68,7.73,1.82,8.76,0,1.51-1.12,1.28a8,8,0,0,0-3.65-.49c-2.47.12-42.21,1.82-44.73,1.82s-3.35,0-3.69.26-1.18.28-1.27,0-.78-.45-1.11-.35-.66.43-.92.26-1-.57-1.35-.43a2.85,2.85,0,0,1-1.06.38c-.57.05-43.57,1.25-45.37,1.34s-3.61.7-4.1.65-.56-.6-1-.5-.78.64-1.24.49a4.66,4.66,0,0,0-1.82-.43,14.7,14.7,0,0,1-4.11.85c-2.06,0-5.35.39-6,.15s-1.1-.6-1.38-1.93S31.06,15.07,31.06,15.07Z"/><path class="carton-blue-1" d="M34.45,23.75c-1.12.45.47,1.47,1.31,1s2.58-1,3.4-.61a5.71,5.71,0,0,0,2.89.35c1.19-.12,4-1,3.71-1.36s-2.76-.06-3.69.2S36.61,22.87,34.45,23.75Z"/><path class="carton-blue-1" d="M51.43,22.86c-.87,0-1.16.38-.91.62s1.76.71,2.34.3S52.45,22.85,51.43,22.86Z"/><path class="carton-blue-1" d="M58.19,22.59c-.21.09-.23.94.18.89s1.54-.71,1-.86A1.42,1.42,0,0,0,58.19,22.59Z"/><path class="carton-blue-1" d="M56.73,22.55c-.51.2-.82.62-.59.77s1.11,0,1.07-.38S57,22.46,56.73,22.55Z"/><path class="carton-blue-1" d="M65.55,22.32c-.51.12-.45.52,0,.66A22.11,22.11,0,0,0,69,22.63a14.22,14.22,0,0,1,2.76,0c.7.08,1.2-.73.73-.63a25.3,25.3,0,0,1-4.58.15A4.94,4.94,0,0,0,65.55,22.32Z"/><path class="carton-blue-3" d="M151,19.21c-.2-.46-2.26-.41-2.8.1s-6.24.25-7,.41-1.51.87-1.08,1,3-.74,4.61-.68a21.85,21.85,0,0,1,4,.39C149.56,20.64,151.5,20.24,151,19.21Z"/><path class="carton-blue-3" d="M135.29,20.31c-.47,0-1.23,1.06-.41,1.13S136.25,20.27,135.29,20.31Z"/><path class="carton-blue-3" d="M130.42,20.64c-.53-.61-3.53.09-4.47.21s.86.29,1.92.32S131.37,21.72,130.42,20.64Z"/><path class="carton-blue-1" d="M32.8,30.18c-.89-.22-2.47,2.08-2.69,3.06S28.32,37.13,28,37.89s1.45-.65,2.13-2.38.79-2.88,2-3.43S33.56,30.36,32.8,30.18Z"/><path class="carton-blue-1" d="M12.88,70.56c-.69.35-.87.72-.28,1s2.05-.48,1.63-.78A1.43,1.43,0,0,0,12.88,70.56Z"/><path class="carton-blue-1" d="M11.54,73.61a2.6,2.6,0,0,0-1.17,1.86c0,.66.69,1.3.93.71s0-1,.46-1.53S12.35,73.45,11.54,73.61Z"/><path class="carton-blue-1" d="M9.69,77.4c-.56.11-.85,1.48-.17,1.5S10.73,77.18,9.69,77.4Z"/><path class="carton-blue-1" d="M2.61,99.83c-.77.21-1,1.12-.22,1.33s4.48-.49,5.39.08,4.29.9,5,.87.78-1-.19-.94-5.26-.92-6.39-.74S3.65,99.55,2.61,99.83Z"/><path class="carton-blue-1" d="M16.54,101.34c-.62.38-1,.81-.61.91s1.76-.18,2.08-.06.92.11.66-.14S17.09,101,16.54,101.34Z"/><path class="carton-blue-1" d="M20.75,101.8c-.25.18,0,.86.46.82s7.55.2,8.77.8,2.24.76,2,.2-2.52-1.33-3.64-1.43-3.09-.16-3.43-.58-2.16.2-2.67.43S21.45,101.29,20.75,101.8Z"/><path class="carton-blue-1" d="M36.13,103.39c-.43.16-.27.88.53,1.09s2.9-.08,3.68.06,2.74.55,2.81.16-2.39-1-3.71-.87S37.52,102.88,36.13,103.39Z"/><path class="carton-blue-1" d="M47.21,105.36c-1-.19-1.09-.55-.61-.75a2.77,2.77,0,0,1,2.09.44C48.93,105.38,47.71,105.45,47.21,105.36Z"/><path class="carton-blue-1" d="M50.66,104.67c-.6.07-1.44.9-.76,1S51.91,104.5,50.66,104.67Z"/><path class="carton-blue-3" d="M154.82,5.58c-.59-2.82-1.59-4.07-3.39-4.6l-.15,0c-1.16.17-.87.73.53,2.3s1.46,3.19,1.27,5.25a14.32,14.32,0,0,0,.9,5.53c.53,1.89-.39,3.8.9,5.3s-1.09,3.84-2,5-4.26,11.4-5.31,14.37-3.84,11.49-4.41,13.44-.45,4.31-1,5.91-1.95,2.18-1.85,3.55a16.6,16.6,0,0,1-1.7,5.76,2.38,2.38,0,0,0-.87,2.52c.46,1.3-.37,1.38-1.47,4.58s-7,21.62-6.72,22.43a3.51,3.51,0,0,1-.43,2.73c-.44.59-.91,1-.48,1.59s0,1.3-.85,2.48-2.72,10.51-2.72,11.13-.22.73-1.23.75-9.62-1.23-10.26-1-10.11-1.07-10.65-1.27a7.44,7.44,0,0,0-2.94-.13c-.59.18-.29-.19-.68-.86s-.82.24-1.79.37-9.7-1-11.21-1a29.21,29.21,0,0,1-4.77-.81c-.46-.15-.7.21-1.19.59s-.43-.63-1-.8-.65.17-1,.21-1.27.23-1.73-.28-1.7-.4-5.34-.57-14.64-1.62-16.65-1.88c-1-.12-3.74-.58-4.65-.76a13,13,0,0,0-2.41.1,8.22,8.22,0,0,1-2.24-.85c-.61-.26-4.33.07-6.13.05a8.36,8.36,0,0,1-4.41-1.6c-.53-.5-1.41.61-2.1.87a5.27,5.27,0,0,1-3.7-.85c-.89-.74-6.61-.84-7.87-1.2a45.73,45.73,0,0,0-6.3-.88c-.8,0-4.44.56-5.81-.12a4.28,4.28,0,0,0-3-.6c-1.07.14-4-.27-5.17.34v0C4,120,17.12,171.76,31.28,223h0c14.32-41.69,29.48-49.21,49.65-39.59s41,13.8,58.66,5.14c-8.06-41.75-12.32-67.76-13-72.08-.88-6,23.63-80.65,27.52-89.7C157.58,18.82,157.72,19.52,154.82,5.58Z"/><path class="illu__stroke" d="M.75,102.7c6.12,34,51,201.34,66.17,236,0,0,62.45,24.09,113.64,36,0,0-14.64-56.9-30-130.62s-23.2-121.53-24.08-127.53S150.13,35.89,154,26.83c3.43-8,3.58-7.28.68-21.22C153.54,0,150.75.61,143.49.67,134.13.74,39.8,5.51,34.08,6s-4.16,4.5-3.58,7.29,3.57,10.16.81,14.37S-1.58,89.73.75,102.7Z"/><path class="carton-blue-3" d="M140.26,55.7c-.59.11-1.81,2.88-.49,2.61S141.47,55.46,140.26,55.7Z"/><path class="carton-blue-2" d="M5.76,104.24a1.73,1.73,0,0,1,1.71-.11,3.56,3.56,0,0,0,1.13.54c.3,0,.4.51-.12.62S4.88,104.9,5.76,104.24Z"/><path class="carton-blue-2" d="M19.79,105.27c.7-.14.95,1.4.24,1.14S17.9,105.66,19.79,105.27Z"/><path class="carton-blue-2" d="M101.5,114.36c-.57.09-.89,1.16-.16,1.17S103.23,114.08,101.5,114.36Z"/><path class="carton-white-3" d="M92.24,65.28a20.33,20.33,0,0,0-.73-9.67c-.22-.22-4.7-4.55-7-6.79s-4.45-3.56-5.34-3.59h0a20.27,20.27,0,0,1,.67,9.52C78,67,67.1,77.87,55.5,79.07a19.6,19.6,0,0,1-3.83,0h0c.39,3,4.76,5.26,6.38,6.2,1,.57,5.07,2.76,8.13,4.4.55,0,1.11,0,1.69-.1C79.47,88.38,90.38,77.5,92.24,65.28Z"/><path class="illu__stroke" d="M52.62,83.63a16.25,16.25,0,0,0,12.58,3.6C76.8,86,87.71,75.15,89.57,62.93c1.07-7.07-1.22-13-5.5-16.56"/><path class="illu__stroke" d="M87.76,49.52h0l0,0a14.36,14.36,0,0,0-1.45-1.24l-11.4-9.74-.18-.14-.18-.16h0a16.19,16.19,0,0,0-12.27-3.4C50.64,36,39.73,46.89,37.87,59.11c-1,6.61.84,12.25,4.58,15.85h0a16.39,16.39,0,0,0,1.35,1.15l11.33,9.66c.23.21.45.4.69.59l.06,0h0a16.26,16.26,0,0,0,12,3.17c11.6-1.2,22.51-12.08,24.37-24.3C93.24,58.73,91.43,53.13,87.76,49.52Z"/><path class="carton-white-3" d="M64.46,73.23c-.72.27-.24,1.56.26,1.27s1-.78.69-1S65,73,64.46,73.23Z"/><path class="carton-white-3" d="M67,71.61c-.32.28-.22,1,.21,1s1.46-.34,1-.75S67.46,71.19,67,71.61Z"/><path class="carton-white-3" d="M69.31,69.79a.46.46,0,0,0,.18.83c.51.1,1.39,0,1-.63S69.9,69.46,69.31,69.79Z"/><path class="carton-white-3" d="M71.23,68.11c-.41.43.71.89,1,.33s.13-.93.67-1.29,1.08-.77.54-1-1.05-.1-1.19.24A4.42,4.42,0,0,1,71.23,68.11Z"/><path class="carton-white-3" d="M74,64.19c-.32.62.71,1.06,1,.63s.66-.92-.2-1A.63.63,0,0,0,74,64.19Z"/><path class="carton-white-3" d="M75.79,61.8c-.4-.1-.57.76-.22.89s1.05-.18.84-.59S76.13,61.89,75.79,61.8Z"/><path class="carton-white-3" d="M76.51,59.09c-.4.11-.61.93-.15,1s1-.09.92-.43S77,59,76.51,59.09Z"/><path class="carton-white-1" d="M47.08,43.68c-1.23,1.22-4.27,4.5-5.46,7.36s1.29,0,1.7-.77,2.67-5.17,4.59-6S48.53,42.22,47.08,43.68Z"/><path class="carton-white-1" d="M52.41,39.24c-.54.4-1.77,1.26-2.13,1.56s-.66.88-.07,1.06,1-.58,1.47-1.22,2.13-.18,2.11-1S52.91,38.88,52.41,39.24Z"/><path class="illu__stroke" d="M149.41.69C153,.7,155.08.44,156.24,6s2.32,11.15,4.7,12.11c7.14,2.87,40.33,17,42.35,25.36,5.05,20.76,37.18,206.75,39.15,244.15,0,0-28,47.27-61.88,87"/><path class="carton-blue-4" d="M167.33,80c-.45-.48-2.44.88-2.74,1.12s-1.5,2.3-2.41,3.27.25.8.71.54.67-1.41,1.74-2.2S167.82,80.55,167.33,80Z"/><path class="carton-blue-4" d="M159.9,86.6c-.5,0-1.59,1-.68,1.26S160.86,86.66,159.9,86.6Z"/><path class="carton-blue-4" d="M157.19,88c-.38.18-1.3.78-.35,1.19s1.52.8,1.47-.31S157.58,87.84,157.19,88Z"/><path class="carton-blue-4" d="M129.93,110.63c-1.1.62-2.18,1.88-1.36,2.38s3.63-.14,3.6-1.18.72-.89.65-1.48S130.93,110.06,129.93,110.63Z"/><path class="carton-blue-4" d="M134.38,108.28c-.25.67-1.44.58-.92,1a1.41,1.41,0,0,0,2-.66c.22-.76.14-.93.72-1.34S134.85,107,134.38,108.28Z"/><path class="carton-blue-4" d="M138,105.57c-.49.3-1,.89-.39,1.06s1.57-.18,1.45-.79S138.24,105.43,138,105.57Z"/><path class="carton-blue-4" d="M154.32,91.36c-.51-.31-3.09,2.06-3.65,2.91a62.14,62.14,0,0,1-6.11,5.51c-1.08.83-.1,1.24.73.42s5-4.94,5.58-5.27S155.25,91.91,154.32,91.36Z"/><path class="carton-blue-4" d="M142.58,101.52c-.94.36-1.64.71-.77,1s2-.46,1.79-.78S143.1,101.33,142.58,101.52Z"/><path class="carton-blue-4" d="M173.08,74.38c-1.27.43-3.25,2.86-3.46,3.39s.52.43.92-.38a2.81,2.81,0,0,1,1.51-1.56C172.63,75.66,174.28,74,173.08,74.38Z"/><path class="carton-blue-4" d="M177.15,70c-.4.33-.85.79-.45.87s.73-.72,1.3-1S177.69,69.58,177.15,70Z"/><path class="carton-blue-4" d="M179.67,67.83c-.36.21-.69.85-.2.78s1.2-.21.78-.53S179.92,67.68,179.67,67.83Z"/><path class="carton-blue-4" d="M182,64.79c-.38,0-.27.59-.5,1s-.83,1-.22,1,1.24-.41,1.22-.8S183.14,64.91,182,64.79Z"/><path class="carton-blue-4" d="M185.28,61.77c-.42.06-.17,1.21.24,1.16s1.18-.28.76-.76S185.7,61.72,185.28,61.77Z"/><path class="carton-blue-4" d="M187.28,60.76c-.22-.26-1.29,0-1.17.25s.1,1,.57.83S187.54,61.07,187.28,60.76Z"/><path class="carton-blue-4" d="M190.08,57.27c-.68,0-.18,1.14-.66,1.31s-1.84,1.08-1.26,1.28,1.55-.78,1.86-1.16S192,57.24,190.08,57.27Z"/><path class="carton-blue-4" d="M191.28,55.71a.53.53,0,0,0-.05,1c.42.14,1,.56,1.26.06s.9-1.13.11-1.15S191.9,55.44,191.28,55.71Z"/></svg>
