<svg xmlns="http://www.w3.org/2000/svg" viewBox="0 0 608.65 534.74"><polygon class="cardboard-brown-2" points="324.68 0.63 97.68 34.67 288.4 168.33 358.61 217.53 577.81 137.31 324.68 0.63"/><path class="cardboard-brown-3" d="M358.61,217.53s-14.43-71.11-14.27-73.75-1.48-3.54-2.16-5.3.81-4.91,0-8.57S323.74,5,323.74,5h0C322,4.74,314.31,7,309.68,7.52s-21.94,3.53-28.08,4.74S224,20.68,219.84,21.44s-15.26,1.27-16.38,2.12a6.23,6.23,0,0,1-5.17,1c-2.43-.45-15.12,1.74-18.34,2.29s-20.43,3.73-22.66,3.7A13.08,13.08,0,0,0,150.75,32c-1.6,1-13.34,1-16.46,1.64S109.35,38,102.75,38.23L288.4,168.33h0Z"/><path class="cardboard-brown-4" d="M288.4,168.33l44,30.81a4.28,4.28,0,0,0-.51-2.51c-.72-1.46-1-1.26-1.12-2.32s-1.29-2.44-1.93-3.36a3.86,3.86,0,0,1-.65-2.94,5.17,5.17,0,0,0-.58-3.58c-.73-1.14-.7-10.18.64-10.35s6.43,3.63,6.62,3.09-7.88-4.69-9.41-5.61-1.36-4.14-.35-4.08,6.7,4.18,6.81,3.44-8.11-5.35-9.89-6.6-2.95-3.78-2.07-4.34,8.6,5.34,8.86,4.65-13.27-8.65-13.86-9.43-1-3.67.57-3.54,8.36,6.16,8.79,5.22-24.21-17.15-25.16-17.95a2.82,2.82,0,0,1-.65-3.22c.47-.87,4,1.74,6,2.95s11.63,8.28,12,7.05S299.32,134.86,299.07,134s0-2.33.9-2.28,8.35,5.62,8.52,4.83-8.54-5.45-8.67-6.52.33-2.41,1.33-2.5,13.92,9.74,14.24,8.72-11.72-8.38-13.19-9.48-2.79-4.29,0-4,20.81,14.68,21.3,13-21.79-14-21-15.19-.22-1.67.15-2.6,16,10.5,16.29,9.31-16.44-10.36-15.75-11.4.27-3.34.5-4.36,1.29-2.5,1.13-3.61-.3-1.42.63-4.5.48-3.52,1.18-8.64,5.5-24.18,4-29L323.74,5c-3.25,2.57-9.09,28.26-9.72,32S310.13,59,308.75,60.66,308,63.33,308,64.2s-.83,1.77-1.08,2.69.25,2.69-.25,3.17S290.75,73.4,290.56,75s14.52-3.6,15.48-3.09-.87,2.64-1,3.5.13,2.11-.54,2.94-19.48,4.33-20,5.91,18.4-4,19.49-3.48-.18,2.62-.92,3.26S290,87,289.65,88.13c-.21.74,12.2-2.81,12.82-2.28s-.84,2.28-.87,2.74-16.73,3.62-16.79,4.48,15.63-3.14,16.2-3,.79,1,0,2.58S280.83,97.42,280.5,99c-.28,1.39,18.28-5,19.54-4.4s-.68,2.59-1,3.25-31.92,9.18-32,10.22,19.48-5.06,22.58-5.93c3.25-.91,8.7-2.7,9.45-2s-.68,2.24-1.55,2.73-35.33,10.3-35.61,11.58,34.37-10.8,35.27-10.27-.89,2-1,3.07-13.18,4.38-13.3,5.23,12.35-3.4,12.89-3.08-1.66,3.88-2.69,4.86-19.89,4.18-19.87,6c0,.65,10-2.61,11.27-2,1.42.64.49,2.71-1.86,3.7s-23.36,5.78-23.61,6.88,11.43-3.44,13.6-2.43,1.22,2.25-3.67,4.37-25.17,6.08-25.17,6.08L287.87,168h0l.53.37Z"/><path class="illu__stroke" d="M577.81,137.31,324.68.62S100,33.06,97.68,34.67"/><path class="cardboard-brown-1" d="M105.14,36.31c-1.86-1.22,13.55-3.67,14.23-2.94S106.61,37.28,105.14,36.31Z"/><path class="cardboard-brown-1" d="M123.81,33.18c-1.68-.89,3.76-2.08,4.57-1.38S124.85,33.74,123.81,33.18Z"/><path class="cardboard-brown-1" d="M147.13,31.26c-2.08-.21,2.25-3.19,3.61-2.89S149.85,31.54,147.13,31.26Z"/><path class="cardboard-brown-1" d="M202.34,20.36c-2,.05-3.85,2.07-2.14,2.56S204.3,20.3,202.34,20.36Z"/><path class="cardboard-brown-1" d="M249.25,14.27c.66.88,8.16-.39,7.69-1.1S248.59,13.4,249.25,14.27Z"/><path class="cardboard-brown-1" d="M260.49,12.37c.77.9,4.14-.06,3.52-.56S259.71,11.47,260.49,12.37Z"/><path class="cardboard-brown-1" d="M326.5,4c-.29,1.34,7.39,5.17,8,4.6S326.76,2.82,326.5,4Z"/><path class="cardboard-brown-1" d="M336.5,9.42c-.45.54,1.51,1.49,1.77.9S336.79,9.05,336.5,9.42Z"/><path class="cardboard-brown-1" d="M340,11.21c-.26.37,1.53,1.19,1.71,1S340.21,10.83,340,11.21Z"/><line class="illu__stroke" x1="288.4" y1="168.33" x2="324.68" y2="0.63"/></svg>
