<svg xmlns="http://www.w3.org/2000/svg" viewBox="0 0 151.43 208.74"><ellipse class="can-silver-3" cx="46.88" cy="178.68" rx="26.54" ry="44.16" transform="translate(-136.69 158.06) rotate(-68.89)"/><path class="can-silver-4" d="M23.75,194.17c1.25,1.09.27,1.36-1.37.35s-8.17-5.78-9.39-7.19a7.36,7.36,0,0,1-1.55-2.9Z"/><path class="can-silver-2" d="M47,204.91c-.87-.08-.37,1,1.25,1.36s6.42,1,6.74.64S49,205.09,47,204.91Z"/><path class="can-silver-2" d="M56.77,206.73c-.64-.27-1.58.21-.87.71S57.6,207.07,56.77,206.73Z"/><path class="can-silver-2" d="M27.57,196.42a2.53,2.53,0,0,0,1.56,2.68c.8.31,2.09,0,1.68-1S27.57,196.42,27.57,196.42Z"/><path class="can-silver-2" d="M33.88,199.56c-1-.15-2.27,1.12-.68,1.4S35.31,199.79,33.88,199.56Z"/><path class="can-silver-2" d="M37,200.88c-1-.17-2.56,1.33-.47,1.9S38.37,201.1,37,200.88Z"/><ellipse class="illu__stroke" cx="46.88" cy="178.68" rx="26.54" ry="44.16" transform="translate(-136.69 158.06) rotate(-68.89)"/><path class="can-silver-2" d="M148.9,46.88l-4-1.54c-7.12-9.43-20.64-19-37.53-25.49S74.05,11.3,62.45,13.5l-4-1.54s-8.72,4.37-11.57,11.76L1.76,156.55c-5.7,14.77,10.58,34.82,36.37,44.78s51.32,6,57-8.72L149.57,63.36C152.13,56.81,148.9,46.88,148.9,46.88Z"/><path class="can-orange-2" d="M95.16,192.61l27.15-64.48a81.79,81.79,0,0,1-17.22,22.4C89.9,164,60.33,155.08,57.38,124.59S32.91,81.49,23.8,91.69l-22,64.86c-5.7,14.77,10.58,34.82,36.37,44.78S89.45,207.38,95.16,192.61Z"/><ellipse class="illu__stroke" cx="104.84" cy="26.41" rx="20.28" ry="48.63" transform="translate(42.45 114.7) rotate(-68.89)"/><path class="can-silver-1" d="M89.57,66h0q2.27.88,4.81,1.77c11.78,4.07,14.13,4,14.8.91.33-2-1.7-2.37-.76-5s2-3.27,2.31-5.63c0-1.28-.52-2-2.2-2.35a110.94,110.94,0,0,1-11.25-3.34c-2.23-1-1.86-4.34-1.86-4.34A85.13,85.13,0,0,1,82,41.63c-6.1-3.72-10.72-7-10.72-7-.19,2.06-.32,3.93-2.18,2.34a63.27,63.27,0,0,1-7.59-7.55c-.15-.19-.3-.35-.45-.51a34.67,34.67,0,0,1-3.86-6c-.66-1.41-1.22-2.45-2.72-1.42A43.5,43.5,0,0,0,48.7,27h0c-1,1.1-.14-2.66-.55-2.74-.63-.12-1.17,3.33-.78,5.5h0a27.48,27.48,0,0,0,1.27,4.87c.32,1,.33,1.41-.29,3-1.21,2.55-5.69,15-11.18,31.24-.48.5-1.15,0-1.8,1.13s0,2.84-.07,4.39c-12.1,36.09-27.63,86-24.81,90.32S30.75,120.54,43,85c.5-1.47-3.79-5.63-2.25-8.22,1-1.73,4,2.14,4.71,1,5.48-16.09,9.44-28.15,9.68-28.89.78-2.37,1.44-2.7,2.38-1.85a80.3,80.3,0,0,0,7.31,6.1h0c2.43,1.65,1.87,3.86.21,8.16s-8.18,22.13-8.93,24.06,0,2.43-.4,3.8-1.12,1-1.74,2.45-22.3,61.62-23.78,66.3-1.26,6.21-2.19,9.14-2.43,3.9-3.78,7.4c-.9,2.33-3.14,8.73-4.53,12.72-.43,1.23-.91,3.39,1.88,5.57l1.24.84.37.25a55.79,55.79,0,0,0,9.75,5.35h0a85.12,85.12,0,0,0,14,5c-10.14-2.75-12.31-6.66-11.6-8.31h0c1.86-4.75,5.14-13.17,7.5-19.46,3.48-9.24,37.94-101.25,39.65-105.59S85.3,64.4,89.57,66Z"/><path class="can-silver-0" d="M78.22,39.38c-.25,2.24.16,4.56,4.1,6.84s7.57,4.12,7.5,2.9S88,44.74,88,44.74Z"/><path class="can-silver-1" d="M111.05,70.85c-.63,0-1,.54-.36.93a38.23,38.23,0,0,0,8,1.17C119.88,72.86,112.76,71,111.05,70.85Z"/><path class="can-silver-1" d="M121.07,72c-.65,0-1.09.28-.46.71s2.78,1,3.11.5S121.83,72.09,121.07,72Z"/><path class="can-silver-1" d="M126.32,72.42c-.54-.09-2,.63-1.15,1S127.18,72.56,126.32,72.42Z"/><path class="can-silver-1" d="M112.58,62.09c-.87-.18-2.46,3.2-1.78,4.13s1.69.75,2-.55S113.41,62.27,112.58,62.09Z"/><path class="can-silver-1" d="M45.37,81.45c-.6.39-.21,1.74,1.79,3.09S51.34,86.1,52,85.62,46.1,81,45.37,81.45Z"/><path class="can-silver-0" d="M81.55,64a8.79,8.79,0,0,1,1.26-2.38c.76-1.21-3.28-3.37-5.22-4.47s-5.32-2.57-6.41-2.07a3.09,3.09,0,0,0-2.13,2.06S45.76,120.42,31.78,158.32c-1.11,3-2,8.37-2.83,10.63s-3.1,5.45-4.21,8.45h0c-1.86,5-3,8.2-3.21,8.65-1.18,3.07.46,4.15,1.46,5a46.08,46.08,0,0,0,5.51,3,3,3,0,0,0,3.89-1.49C32.88,191.25,80.7,66.33,81.55,64Z"/><path class="can-silver-1" d="M102.86,78.83C99.79,78.67,65,172,62.58,179.31s-.31,3.61,3.92-5.36S106.56,79,102.86,78.83Z"/><path class="can-silver-1" d="M108.31,82.21c-2,.7-35,84.82-37.95,93.45s-.65,5.4,1.12,2S111.34,81.11,108.31,82.21Z"/><path class="can-orange-3" d="M4.29,175.15c-1.72-3.59-.7-10.9.82-15.32s10.45-30.29,8.79-30.26c-1.19,0-7.57,20.55-8.77,23.67-1,2.62-3.84,11.58-4.47,8.69A24.62,24.62,0,0,0,4.29,175.15Z"/><path class="can-silver-3" d="M88.79,194.86c.56-1.28,4.35-10.39,9.63-23.11h0c1.18-2.85,3.79-4.46,2.63-1.7s-6.35,14.6-7.59,18,2-2.6,4-6.54,6.68-15.52,9-21,4.5-12,3.29-11.41-3.92,10.37-5.41,11.12.41-3.85.92-5.08h0C119.89,120,139,73.77,139.73,72c1.17-2.81,2.69-1.83,2.31-6.91-.17-2.19.15-4.27.22-7s2.8-6.46,2.8-6.46c-3.45,3.58-16.64,3.58-16.64,3.58s.45,3.39,2.1,3.39a51.1,51.1,0,0,0,5.54-.44c1.13-.16,2.83-1.08,2.81.26s.11,3.38,0,8-2.4,3.44-3.68,6.94-49,116.48-51.9,123.14-10.31,8.14-15.71,8.37-9.66.51-15.67.5c20.57,4.17,38.61-.63,43.29-12.75l.91-2.16C92.58,196.68,86.69,199.67,88.79,194.86Z"/><polygon class="can-silver-3" points="96.07 190.45 96.07 190.45 96.07 190.45 96.07 190.45"/><path class="can-silver-3" d="M135.41,70.05c-.82-.3-1.23,1.12-1.83,1.64s-5.41.6-5.29,1.17,6.07,0,6.72-.87S135.75,70.18,135.41,70.05Z"/><path class="can-silver-3" d="M127.51,56.6c-.37-.17-1.63-.63-2.15-.07s-5.72.16-5.71.79,5.61.66,6.85.7S128.06,56.85,127.51,56.6Z"/><path class="can-silver-3" d="M118.17,56.19c-.44-.36-3-.41-1.89.54S119.08,57,118.17,56.19Z"/><path class="can-silver-0" d="M76.62,41.28c-.64-.67-2.5-.43-1.45.39S77.49,42.2,76.62,41.28Z"/><path class="can-silver-0" d="M73.77,39c-.53-.23-2.22.4-.92.89S74.58,39.34,73.77,39Z"/><path class="can-silver-5" d="M148.9,46.88l-1.39,2.61c.94,1.59,2.75,9.94,1.23,15.86l.83-2c2.56-6.55-.67-16.48-.67-16.48Z"/><path class="can-silver-3" d="M143.1,67.44c-.4.46-.74,1.66.23,1.31s4-3.35,4.18-4.18-2.25,1.85-2.81,2.39S143.68,66.77,143.1,67.44Z"/><path class="can-orange-1" d="M10.49,164.63C13.17,168.7,28.77,126,40.78,91.32a16.07,16.07,0,0,0-10.1-3C19.63,122.09,8,160.87,10.49,164.63Z"/><path class="can-orange-1" d="M46,203.94c-9.35-2.74-11.36-6.45-10.68-8.05h0c1.86-4.75,5.14-13.17,7.5-19.46,1.47-3.91,8.5-22.65,16.23-43.29a44.83,44.83,0,0,1-1.66-8.55,54.42,54.42,0,0,0-7.11-22.94c-6.4,17.66-19,52.75-20.12,56.28-1.49,4.68-1.26,6.21-2.19,9.14s-2.43,3.9-3.78,7.4c-.9,2.33-3.14,8.73-4.53,12.72-.42,1.2-.87,3.27,1.67,5.39a83.46,83.46,0,0,0,16.81,8.75C40.76,202.35,43.38,203.21,46,203.94Z"/><path class="can-orange-0" d="M51.71,104.25C45,122.41,37.59,142.56,31.78,158.32c-1.11,3-2,8.37-2.83,10.63s-3.1,5.45-4.21,8.45h0c-1.86,5-3,8.2-3.21,8.65-1.18,3.07.46,4.15,1.46,5a46.08,46.08,0,0,0,5.51,3,3,3,0,0,0,3.89-1.49L57.63,126.6c-.1-.66-.18-1.33-.25-2A56.44,56.44,0,0,0,51.71,104.25Z"/><path class="can-orange-1" d="M66.5,174c1.13-2.4,4.51-10.29,8.79-20.56-.88-.46-1.75-1-2.6-1.51-5.28,14-9.34,25.09-10.11,27.43C60.17,186.65,62.27,182.92,66.5,174Z"/><path class="can-orange-1" d="M71.48,177.61c.52-1,4.28-10,9.21-22.09-.79-.22-1.57-.48-2.34-.77-4.08,10.47-7.17,18.54-8,20.91C67.38,184.29,69.71,181.06,71.48,177.61Z"/><path class="can-orange-3" d="M88.79,194.86c.56-1.28,4.35-10.39,9.63-23.11h0c1.18-2.85,3.79-4.46,2.63-1.7s-6.35,14.6-7.59,18,2-2.6,4-6.54,6.68-15.52,9-21,4.5-12,3.29-11.41-3.92,10.37-5.41,11.12.41-3.85.92-5.08h0c1.1-2.64,2.22-5.34,3.35-8.08-1.12,1.15-2.29,2.29-3.53,3.39a22.88,22.88,0,0,1-3.46,2.53c-9.33,22.11-17.26,40.83-18.38,43.43-2.87,6.66-10.31,8.14-15.71,8.37s-9.66.51-15.67.5h0l1.75.33.3.06,1.69.27.25,0a70.74,70.74,0,0,0,7.07.7h.25c.51,0,1,0,1.53,0h2.16c1.59,0,3.14-.11,4.64-.26l.29,0c.42,0,.83-.09,1.24-.15l.55-.07,1.14-.17.59-.11,1.1-.2.54-.12c.71-.16,1.4-.32,2.07-.51l.47-.12.87-.27.7-.23.81-.28.72-.27.74-.3.75-.33.66-.3c.37-.18.73-.37,1.08-.56l.6-.33.88-.52.5-.33c.25-.16.49-.33.72-.5s.33-.23.49-.35l.68-.54c.14-.12.29-.23.42-.35l.75-.69.28-.26q.48-.48.93-1l.24-.3c.21-.25.42-.51.61-.77l.29-.4c.17-.24.33-.49.49-.74l.26-.43c.15-.26.3-.54.44-.81s.14-.26.2-.39c.2-.4.38-.82.55-1.24l.91-2.16C92.58,196.68,86.69,199.67,88.79,194.86Z"/><path class="illu__stroke" d="M148.9,46.88l-4-1.54c-7.12-9.43-20.64-19-37.53-25.49S74.05,11.3,62.45,13.5l-4-1.54s-8.72,4.37-11.57,11.76L1.76,156.55c-5.7,14.77,10.58,34.82,36.37,44.78s51.32,6,57-8.72L149.57,63.36C152.13,56.81,148.9,46.88,148.9,46.88Z"/><path class="can-silver-2" d="M150.21,43.92c4-10.45-13-26.76-38.06-36.43s-48.64-9-52.67,1.4l-.64,1.91a9.26,9.26,0,0,0-.53,1.1c-4,10.45,13,26.77,38.07,36.44s48.63,9,52.67-1.41a9.28,9.28,0,0,0,.35-1.17Z"/><path class="can-silver-1" d="M77,33c-18.1-13.1-16.69-20.28-16-22.84a15.61,15.61,0,0,0,.33,9.64,6.73,6.73,0,0,0,.58,1.27h0a27.94,27.94,0,0,1,1.47,6.12c6.59,7.65,18.42,15.5,33,21.12A111.42,111.42,0,0,0,112,53.11a3.72,3.72,0,0,1,4.24-2.37l-.29-.1a53.08,53.08,0,0,0,17,.15C123.92,51.92,95.09,46.14,77,33Z"/><path class="illu__stroke" d="M97.06,24.1a21.42,21.42,0,0,1,4.72,3.64c1.2,1.29,1.68,2.34,1.5,3"/><path class="can-silver-1" d="M121.38,18.34a42.22,42.22,0,0,0-4.09-2.05c-.79-.33-1.47-1.72-1.38-3.5s.65-2.23-.71-2.8-13.59-5.5-22.08-6.91S79,1.5,71.26,2.84c0,0,6.28-3.1,19.21-1.29s25,7.13,29.24,9.17,15.76,7.93,21,13.47S146.22,32,146.22,32s-4.83-5.9-8.55-8.76S134.2,26.78,129,23s-2.44-5.82-2.44-5.82Z"/><path class="can-silver-0" d="M114.86,8.58c-1.34-.55-2.48.25-.86.91s5.44,2.31,6.66,3,.84,2.48.24,3.62-.05,2,1,2.58a56.37,56.37,0,0,1,6.56,4,1.89,1.89,0,0,0,3.22-.63c.63-1.31,1.42-2.26,2.47-1.49s2.08,1.56,2.86,2.26,2.63,1.54,2.2.06a93.81,93.81,0,0,0-11-7.63C122.57,11.93,114.86,8.58,114.86,8.58Z"/><path class="can-silver-0" d="M77,33a62.29,62.29,0,0,1-12-10.81h0a22.86,22.86,0,0,0,4.84,7.15c1.49,1.24,1,4.82,3.14,6.42.21.16.44.31.66.47,1.52,1,3.55,2.42,5.53,3.65,1,.6,2,1.18,3,1.76,2.84,1.45,3.53-1.58,6.8-.07a85.28,85.28,0,0,0,20.31,5.89h0C98.43,44.57,86.29,39.77,77,33Z"/><path class="can-silver-3" d="M60.68,14.55c5.08-8.63,26.3-8.81,48.79-.13,3.19,1.23,6.23,2.58,9.11,4l0,0C107.23,11.14,91.81,7.3,79.15,6.12s-17.28,3.94-18.09,5.71-.36,1.68-.4,2.71Z"/><path class="can-silver-3" d="M140.75,32.1c-1.83-1.69-5-3.49-9.41-6,10,7.31,15.66,15.36,14.12,21.53A4.17,4.17,0,0,0,147.08,46C149.58,41.22,144,35.12,140.75,32.1Z"/><path class="can-silver-4" d="M136,29.79h0C143,36,146.74,42.49,145.46,47.63a4.69,4.69,0,0,0,1.19-1C147.78,39.3,140.85,33.42,136,29.79Z"/><path class="can-silver-4" d="M96.56,10.35h0c-7.81-2.17-25-5.72-31.93-.59a12.92,12.92,0,0,0-4,4.45,1.82,1.82,0,0,1,0,.33h0C64.77,7.6,79.31,6.13,96.56,10.35Z"/><path class="can-silver-3" d="M143,48.8s.72-.29,1-.44c0,0,3.29-4.46-5.49-14.56-.44-.51-.84-.14-.54.35s5.77,6.38,5.78,10.54C143.78,48.26,143,48.8,143,48.8Z"/><path class="can-silver-3" d="M76.57,19.65c-1.7.17-1.92,1.52.53,2.76s9.17,6.32,9.24,8.08-.67,3.95,1.65,5S103.23,37,103.23,37,86.18,26,85.45,23.28s4.24.32,5.47,1.69,10.84,9.43,10.84,9.43l5-1.56-13-11-13-4Z"/><path class="can-silver-3" d="M137.18,32c-.77-.74-1,.11-.42.58S137.91,32.71,137.18,32Z"/><path class="can-silver-3" d="M134.93,30c-.49-.34-1,0-.41.54S135.41,30.35,134.93,30Z"/><path class="can-silver-3" d="M87.47,35.36c3.45.89,10-.34,25.85,2.38S139,39.3,134.4,32.55c0,0,8.68,9.67-14.46,6.72S91.59,37.08,87.21,36,85,34.72,87.47,35.36Z"/><path class="can-silver-4" d="M77.18,19.9c-1.2.54,2,1.87,3.27,3.05s6.29,4.89,6,2.71S82,21,83.84,20.52s1.3,1.59,3.15,1.9,5.85,2.25,8.81,5.47,4.5,4,4.5,4l-.53-5.54L88.68,19.19l-12-1Z"/><path class="can-silver-1" d="M127.27,27.82c-3.26-1.86-11.44-5.56-18-6.72s-2,.11-.44.44A81.71,81.71,0,0,1,124,26.8C130.5,29.89,128.21,28.36,127.27,27.82Z"/><path class="can-silver-0" d="M119,24c-1.13-.43-2.18-.14-.82.38s3.1,1.13,3.29.92S119.75,24.29,119,24Z"/><path class="can-silver-3" d="M104.51,29.67h0C100.18,25,92,20.4,86.34,19.33l-13-2.43c-5.31-1-6.34,1.69-2.32,6l1.11,1.19c4,4.32,11.59,8.62,16.89,9.62l13,2.43C107.73,37.22,108.85,34.32,104.51,29.67ZM86.29,31.13h0A23.21,23.21,0,0,1,75.55,25L73.8,23.14c-2.56-2.74-1.9-4.46,1.47-3.82h0a15.82,15.82,0,0,1,7.37,4.19l4.66,5C89.06,30.39,88.6,31.56,86.29,31.13Zm13.95,2.15L98.54,33a20.87,20.87,0,0,1-9.65-5.49l-1.64-1.76c-2.3-2.47-1.71-4,1.32-3.43l1.7.31a7.64,7.64,0,0,1,3.53,2L100.72,32C101.56,32.93,101.34,33.49,100.24,33.28Zm-3.69-7.85a21.65,21.65,0,0,1,4.72,3.64c1.2,1.28,1.68,2.34,1.5,3"/><path class="can-silver-2" d="M89.24,21c-1-.2-2.07.69-.67,1.3l1.7.31a7.64,7.64,0,0,1,3.53,2l2.77,3h0c.7.75,1.76.45,1-.8a2.17,2.17,0,0,1-.19-.45l-.83-.89q.35.2.69.42a16.1,16.1,0,0,1-.38-2.15,42.87,42.87,0,0,0-5.52-2.81A10.57,10.57,0,0,1,89.24,21Z"/><path class="can-silver-2" d="M91.37,32.72c-.41-.17-1.66-.82-3.32-1.71a2.54,2.54,0,0,1-1.76.12h0A23.21,23.21,0,0,1,75.55,25l-1.68-1.8-1.56-.85c-1.48-.78-.91.41-1,.85l.83.89c4,4.32,11.59,8.62,16.89,9.62l2.11.39.15,0C92.65,34.45,93.11,33.44,91.37,32.72Z"/><path class="can-silver-2" d="M75.91,18c-.9,0-1,.46-.81,1.28h0l.17,0a15.82,15.82,0,0,1,7.37,4.19l1,1.13a1.07,1.07,0,0,1,.67.17c.9.64,1.28,0,.71-.57S84,20.58,84,20.58,76.8,18,75.91,18Z"/><path class="can-silver-1" d="M84,23.14a8.67,8.67,0,0,1-1.23-3C81.55,19.73,79.52,19,78,18.56l-.23-.07h0c-.86-.31-1.27,1-.54,1.42h0a16.41,16.41,0,0,1,5.46,3.61l.22.24a1.64,1.64,0,0,1,.46.3C83.86,24.71,84.83,24,84,23.14Z"/><path class="can-silver-0" d="M83.05,21a.19.19,0,0,1,0-.07c-.47-.17-2-.77-2.88-1.11-1-.4-.85.83.06,1.44l-.09.19a17.55,17.55,0,0,1,1.56,1.16,1.1,1.1,0,0,1,.34.18c.62.49,1-.57.61-1.13S82.82,21.05,83.05,21Z"/><path class="can-silver-1" d="M96.65,25.79a7.45,7.45,0,0,1-.91-2.73,40.1,40.1,0,0,0-3.88-1.94,6.41,6.41,0,0,1-1.59.05c-.91-.2-.82.8-.51,1.33h0l.51.09a7.64,7.64,0,0,1,3.53,2L96,26.91h0C96.69,27.59,97.45,26.64,96.65,25.79Z"/><path class="can-silver-0" d="M94.35,25c.56.4.88-.41.46-1.19a.93.93,0,0,1,.13-1.18l-.18-.09c-.53-.15-1.94-.57-2.79-.88-1.06-.38-1.44.76-.65,1.26v0A7.87,7.87,0,0,1,93.8,24.6l.22.24A1.45,1.45,0,0,1,94.35,25Z"/><path class="can-silver-1" d="M88,32a17.65,17.65,0,0,1-2.13-1A29.13,29.13,0,0,1,76,25.51a14,14,0,0,1-1.79-1.23c-1-1-1.55.06-.46,1.38a37.42,37.42,0,0,0,14.54,7.89C89.7,33.77,89.77,32.57,88,32Z"/><path class="can-silver-2" d="M105,28.35h0C100.69,23.7,92.56,19.07,86.85,18L73.9,15.57c-5.3-1-6.34,1.69-2.31,6l1.1,1.19c4,4.32,11.59,8.62,16.9,9.62l13,2.43C108.24,35.89,109.36,33,105,28.35ZM86.8,29.8h0a23.12,23.12,0,0,1-10.74-6.12l-1.74-1.87c-2.56-2.74-1.91-4.45,1.47-3.82h0a15.92,15.92,0,0,1,7.37,4.19l4.65,5C89.57,29.06,89.12,30.23,86.8,29.8Zm14,2.15-1.7-.32a20.7,20.7,0,0,1-9.65-5.49l-1.64-1.76c-2.3-2.46-1.7-4,1.32-3.43l1.7.32a7.53,7.53,0,0,1,3.53,2l6.92,7.43C102.07,31.6,101.86,32.16,100.75,32Z"/><path class="can-silver-3" d="M103.28,30.77c.21-.68-.3-1.74-1.5-3a20.89,20.89,0,0,0-4.72-3.64c-.81-.47.84,1,1.78,1.61a14.3,14.3,0,0,1,3.39,3.63C102.62,30.21,103.05,31.54,103.28,30.77Z"/><path class="can-silver-0" d="M81.41,29.24c-.21-.15-.49-.34-.82-.54l-1.26-.76c-.45-.25-.91-.49-1.33-.67-1.18-.51-1,.13-.9,1a40.8,40.8,0,0,0,3.81,2.33C82.09,30.78,82.13,29.75,81.41,29.24Z"/><path class="can-silver-0" d="M82.63,31.37c-.37-.35.1-1.4,1.16-.94S83.93,32.59,82.63,31.37Z"/><path class="illu__stroke" d="M107.57,33.65c.38-1.18-.42-3-2.54-5.3h0C100.69,23.7,92.56,19.07,86.85,18L73.9,15.57c-2.6-.49-4.16-.09-4.62.95h0l0,.06v0l-.48,1.25h0c-.48,1.08.24,2.86,2.3,5.07l1.11,1.19c4,4.32,11.59,8.62,16.89,9.62l13,2.43c2.78.52,4.46.09,5-1h0l.57-1.5ZM86.43,22.34a3.66,3.66,0,0,1,2.14-.06l1.7.31a7.64,7.64,0,0,1,3.53,2l6.83,7.33-1.58-.3a20.7,20.7,0,0,1-9.65-5.49l-1.64-1.76A5.55,5.55,0,0,1,86.43,22.34ZM76.06,23.68l-1.74-1.87a5.71,5.71,0,0,1-1.51-2.38,3.87,3.87,0,0,1,2.46-.11,15.82,15.82,0,0,1,7.37,4.19l4.66,5a4.89,4.89,0,0,1,.93,1.32,3.44,3.44,0,0,1-1.43,0h0A23.12,23.12,0,0,1,76.06,23.68Z"/><path class="illu__stroke" d="M150.21,43.92c4-10.45-13-26.76-38.06-36.43s-48.64-9-52.67,1.4l-.64,1.91a9.26,9.26,0,0,0-.53,1.1c-4,10.45,13,26.77,38.07,36.44s48.63,9,52.67-1.41a9.28,9.28,0,0,0,.35-1.17Z"/></svg>
