<svg xmlns="http://www.w3.org/2000/svg" viewBox="0 0 372.94 720.33"><path class={`${clr3}-2`} d="M79.21,25.44h0L67.72,10.72a1.84,1.84,0,0,1-.17-.22L67,9.85h0C63,4.92,56.83,1.59,49.11.8,30.49-1.1,9.8,12.43,2.88,31-1.06,41.64.34,51.6,5.73,58.56h0l13,16.55h0c4.06,5,10.22,8.32,18,9.12C55.28,86.13,76,72.6,82.9,54,87,42.86,85.29,32.43,79.21,25.44Z"/><path class={`${clr2}-3`} d="M301.48,121.3c5.63,1.19,9,1.46,9,10.61s0,18.3,3.43,20.59c10.29,6.86,57.86,40,58.32,53.74,1.15,34.31-9.15,337.36-18.3,396.82,0,0-59.46,65.19-125.79,116.65L147.3,296Z"/><path class={`${clr2}-4`} d="M353.93,603.06c9.15-59.46,19.45-362.51,18.3-396.82a6.73,6.73,0,0,0-.2-1.42s-1.91-1-2.35-2-9-12.41-20-21.49a119.06,119.06,0,0,0-22.46-14.69c-1.57-.78-1.84-3-2.62-3.93s-2.27-.7-2.89-1.22a12.72,12.72,0,0,0-2.7-2.36c-1.32-.7-3,.87-4.2-.18s.09-2.44-3.41-4.28-3.18-9.31-3.18-9.31L298,144.2s-57.65,100.05-45.87,102.33,33,.49,54-4.39,22.18-8.71,22.7-9.5a3.43,3.43,0,0,1,3.3-1.85c2.12,0,2.78-2.9,3.7-4.09s3.7-1.59,5.15-1.85,4-2.64,5.81-4.36,6.43-.32,6.43-.32l7.17-5c.26,4.25-2.41,6.66-3.15,7.67s-1.89.81-3.24,1-.94,1.42-2.22,2.76-3.44.95-5.06,2.5-3.31,4.11-3.13,20,3.93,26.48,4.2,28.27,1,1.22.82,3.4-.27,1.64.14,2.87,1.5,2.05,1.09,3.69-.8,1.67.08,3.88,2.44,6.64,4.43,23.23,2,39.26,1.55,41.14a14.61,14.61,0,0,0-.06,6c.34,1.3-.84,2.12-1,3.42s1.11,1.06,1,3.31-2.16,8.21-1.49,13.07,2.43,24.43.84,32.21-.93,26.38-.55,28-.47,4.95-.67,6.38a8,8,0,0,0,.39,4c.47,1.23-.19,2.47-.86,5.71s1.47,3.07,1.68,6.44-2.57,5.38-1.9,7.79,1.06-3.81-.77,58.44-34,106.13-34.92,106.94-2.84,1.21-3.24,2.93a3.2,3.2,0,0,1-2.63,2.43c-.61,0-1.22-1.82-4.86,3.64s-17,17.11-19.83,19.74-22.37,18-24.19,21.35-3,2.13-5.87,3.85-6,5.06-6.78,7.28-4.11,2.18-7.16,4.05c-8.58,5.25-13.71,11.7-14.85,17.1C294.47,668.25,353.93,603.06,353.93,603.06Z"/><path class={`${clr1}-3`} d="M372.23,206.24c-.46-13.76-48-46.88-58.32-53.74-3.43-2.29-3.43-11.44-3.43-20.59s-3.37-9.42-9-10.61l-82.12,93.06-33.13,66.16,38.35,133.11c21-19.23,56.09-44.09,80.31-31.34s58.55-18.75,63.85-33.76C371.25,279.48,372.7,220.3,372.23,206.24Z"/><path class={`${clr2}-3`} d="M34.31,233.12c-1.5,55.47,14.29,333.35,26.87,392.81,0,0,90.34,58.33,167,93.78,0,0-4.4-94.28-4.4-215.25S227,305.73,227.57,296s63.54-119.11,72.62-132.08c8-11.43,8-10.29,8-33.16,0-9.15-4.57-9.15-16-11.44-14.75-3-164.67-26.3-173.82-27.44s-8,5.71-8,10.29,2.29,17.15-3.43,22.87S34.88,212,34.31,233.12Z"/><path class={`${clr1}-4`} d="M252.15,246.53c11.79,2.28,33,.49,54-4.39s22.18-8.71,22.7-9.5a3.43,3.43,0,0,1,3.3-1.85c2.12,0,2.78-2.9,3.7-4.09s3.7-1.59,5.15-1.85,4-2.64,5.81-4.36,6.43-.32,6.43-.32l7.17-5c.26,4.25-2.41,6.66-3.15,7.67s-1.89.81-3.24,1-.94,1.42-2.22,2.76-3.44.95-5.06,2.5-3.31,4.11-3.13,20,3.93,26.48,4.2,28.27,1,1.22.82,3.4-.27,1.64.14,2.87,1.5,2.05,1.09,3.69-.8,1.67.08,3.88,2.44,6.64,4.43,23.23,2,39.26,1.55,41.14a14.61,14.61,0,0,0-.06,6c.34,1.3-.84,2.12-1,3.42-.1.77.3,1,.62,1.52,6.65-6.35,11.56-13.08,13.31-18,2.51-69,4-128.23,3.49-142.29a6.73,6.73,0,0,0-.2-1.42s-1.91-1-2.35-2-9-12.41-20-21.49a119.06,119.06,0,0,0-22.46-14.69c-1.57-.78-1.84-3-2.62-3.93s-2.27-.7-2.89-1.22a12.72,12.72,0,0,0-2.7-2.36c-1.32-.7-3,.87-4.2-.18s.09-2.44-3.41-4.28-3.18-9.31-3.18-9.31L298,144.2S240.37,244.25,252.15,246.53Z"/><path class={`${clr1}-2`} d="M308.4,130.77c0-9.15-4.58-9.15-16-11.44-14.75-3-164.68-26.3-173.82-27.44s-8,5.71-8,10.29,2.29,17.15-3.43,22.87S35.08,212,34.51,233.12c-.76,28.21,3,114,8.44,199.26h0c36.16-60.89,62.46-67.75,91.05-46s59.93,35.1,90.58,27.27h0c1-68.31,2.78-110.62,3.2-117.62.57-9.72,63.54-119.11,72.61-132.08C308.4,152.5,308.4,153.64,308.4,130.77Z"/><path class={`${clr1}-3`} d="M152.56,244.21a40.07,40.07,0,0,0,37.88-13.52c.68-.89.35-2.22,1.1-2.84s1.14,0,1.69-.81c.06-.08.11-.17.16-.25.56-.89,1.74-2.92,2.32-4l.27-.53c.34-.76-.39-1.25,1.29-2.95a40.67,40.67,0,0,0,1.49-4.57c5.32-20.65-7.12-41-27.77-45.49s-41.71,8.65-47,29.3c-5.09,19.78,6.1,39.28,25.19,44.82C151.61,243.45,151.65,243.32,152.56,244.21Z"/><path class="stroke" d="M289.12,181.86c17.93,3.8,74,19.81,83.11,24.38"/><path class={`${clr1}-1`} d="M119.42,100.83c-3.72-.66-6.53-.81-5.43.84s4.94.45,8.75,1.18,6.6,1.59,6.54,0C129.24,102,124.06,101.66,119.42,100.83Z"/><path class={`${clr1}-1`} d="M134.13,103.41c-.59-.23-1.83-.26-1.42.67s2.2,1,2.72.72S135.16,103.82,134.13,103.41Z"/><path class={`${clr1}-1`} d="M139.11,104.6c-.88-.11-1.21.53-.82.86s2.21.63,2,0S139.88,104.69,139.11,104.6Z"/><path class={`${clr1}-1`} d="M147.33,105.24c-1.39.18-1,1.29-.43,1.43s5.73.73,7.28,1.06,3.31.61,2.83.18a15.47,15.47,0,0,0-5.3-1.42C150.51,106.53,149.45,105,147.33,105.24Z"/><path class={`${clr1}-1`} d="M292.18,119.33c-14.75-3-164.67-26.3-173.82-27.44-5.18-.65-7.06,1.27-7.72,3.89,1.5-4.36,7.37-1.22,13-.45s8.57,1.46,9,1.28,1.84-1.36,2.88-1,.55,1.64,2,1.87a5.32,5.32,0,0,0,3.09-.75,1.94,1.94,0,0,1,1.85.39,8.67,8.67,0,0,0,3.95,1.59c2.08.35,52.63,8.3,98.38,15.11s50.69,7.71,55,7C297.72,120.38,295.2,119.93,292.18,119.33Z"/><path class={`${clr1}-3`} d="M302.07,128.82a3.05,3.05,0,0,1,2.49,2.81c.17,1.3,2.84-.65,2.19-3.89s-1.21-2.11-2.35-1.54-3.89-.49-5.59.16-3.24.08-7.22-.73-26.42-4.78-28.94-5.19-2.43,1.07-4.45.62-1.14-1.35-2.76-1.91-2,1.13-3.49.64-.24-1.21-1.94-1.62-74.5-11.79-79.45-12.34-5.75.88-8,0-1.62-1.42-2.84-1.71-.81.57-2,.46.09-.25-2.43-.83-39.12-5.67-41.49-6c-1.42-.22-1.18-2.34-3.11-1.93a14.78,14.78,0,0,0-.33,3.3,3.1,3.1,0,0,0,1.89.25c3.49-.46,58.67,8.79,66.74,10s16.14,2.3,18.15,1.72,2.73.91,3.68,1.3,2.07-.63,3.81,0,1.43,2.38,2.86,1.19,5.08.56,9.45,1.27,75.48,13.31,79.14,14.06S300.56,128.61,302.07,128.82Z"/><path class={`${clr1}-3`} d="M110.64,105.21c.79,2.09,3,2.19,5.92,2.09s10.25.39,12,1.35,2.91,1.45,3.68.87,1.25-.37,1.88.25,1.21.55,2.38,0,2.32.16,5.7.44,38.31,6,43.44,6.86a25.53,25.53,0,0,1,7.35,2.22c1,.29,1.45.58,2.23,0s1.45-1.25,2-.48.29,2.52,1.35,1.84.48-2.32,1.55-1.74.77,2.33,1.93,1.89,1.16-1,4.07-.44,37.72,5.27,40.54,6.38,1.21,1.81,2.32,2,1.41-1.11,2.32-.81.91,1.61,1.82,1.71,1.91-1.31,2.82-1.11,1.72.82,2.62,1.12,1.82-.3,3.43,0,30.56,5.64,33.48,5.34,3.63-2.52,5.75-1.82,3.77,1.82,5.61.71.12,12.72,0,14.37-.53,2.38-2.18,1.66-1.65-1.35-5.58-2-67-11-70.95-11.78-5.28-1-5.89-.79-1.94.06-2-.45-1.07-1-1.63-.92-1.17.46-1.53.1-1.42-1.22-2-1.12a4.2,4.2,0,0,1-1.79.25c-.91-.1-68.93-12.28-71.8-12.73s-5.9-.08-6.66-.31-.68-1.13-1.44-1.13-1.43.76-2.12.38-1.89-1.29-2.72-1.29a23.08,23.08,0,0,1-6.73,0c-3.25-.6-8.55-1.13-9.53-1.74s-1.55-1.29-1.54-3.48S110.64,105.21,110.64,105.21Z"/><path class={`${clr1}-1`} d="M113.13,120c-1.9.34.27,2.47,1.72,2.05s4.37-.66,5.56.16a9,9,0,0,0,4.42,1.49c1.91.21,6.65-.26,6.29-.92s-4.33-1-5.87-.89S116.81,119.3,113.13,120Z"/><path class={`${clr1}-1`} d="M140.13,124.13c-1.38-.27-1.95.2-1.64.67s2.54,1.7,3.59,1.23S141.73,124.43,140.13,124.13Z"/><path class={`${clr1}-1`} d="M150.84,125.91c-.36.08-.67,1.41,0,1.46s2.66-.62,1.87-1A2.28,2.28,0,0,0,150.84,125.91Z"/><path class={`${clr1}-1`} d="M148.57,125.38c-.87.14-1.49.7-1.19,1s1.75.31,1.81-.25S149,125.31,148.57,125.38Z"/><path class={`${clr1}-1`} d="M162.51,127.89c-.85,0-.87.67-.26,1s4,.42,5.53.57a23.74,23.74,0,0,1,4.34.87c1.08.36,2.13-.75,1.35-.75a40.24,40.24,0,0,1-7.25-1.26A7.83,7.83,0,0,0,162.51,127.89Z"/><path class={`${clr1}-3`} d="M298,151c-.17-.78-3.42-1.38-4.44-.75s-9.88-1.66-11.15-1.66-2.66.89-2,1.21,4.94-.18,7.48.45a35.19,35.19,0,0,1,6.08,1.89C295.2,152.74,298.37,152.74,298,151Z"/><path class={`${clr1}-3`} d="M272.86,147.54c-.75-.13-2.28,1.27-1,1.65S274.39,147.79,272.86,147.54Z"/><path class={`${clr1}-3`} d="M265.09,146.46c-.64-1.13-5.58-1-7.1-1.13s1.27.74,2.91,1.13S266.23,148.48,265.09,146.46Z"/><path class={`${clr1}-1`} d="M108.43,129.53c-1.33-.62-4.56,2.47-5.23,3.94s-4.08,5.54-4.85,6.63,2.51-.55,4.14-3,2.19-4.28,4.2-4.75S109.57,130.07,108.43,129.53Z"/><path class={`${clr1}-1`} d="M63.9,186.54c-1.2.32-1.6.84-.76,1.41s3.39-.1,2.83-.71A2.29,2.29,0,0,0,63.9,186.54Z"/><path class={`${clr1}-1`} d="M60.79,190.9c-.67,0-2.26,1.51-2.45,2.54s.66,2.26,1.23,1.41.37-1.59,1.22-2.25S62.11,190.9,60.79,190.9Z"/><path class={`${clr1}-1`} d="M56.63,196.25c-.91,0-1.82,2-.75,2.31S58.35,196.25,56.63,196.25Z"/><path class={`${clr1}-1`} d="M38.16,229.21c-1.28.08-1.92,1.45-.77,2s7.2.7,8.45,1.89,6.44,2.82,7.59,3,1.54-1.25,0-1.54-8-3.17-9.8-3.26S39.89,229.12,38.16,229.21Z"/><path class={`${clr1}-1`} d="M59.58,236.15c-1.1.38-1.86.94-1.26,1.23s2.82.29,3.29.58,1.41.48,1.08,0S60.55,235.81,59.58,236.15Z"/><path class={`${clr1}-1`} d="M66.05,238.25c-.45.2-.32,1.34.45,1.44s11.82,2.78,13.54,4.13,3.27,1.92,3.08,1-3.53-2.91-5.26-3.44-4.81-1.26-5.2-2-3.47-.39-4.34-.2S67.32,237.68,66.05,238.25Z"/><path class={`${clr1}-1`} d="M89.72,245.78c-.73.11-.71,1.29.47,1.88s4.6.83,5.78,1.3,4.12,1.77,4.36,1.18-3.43-2.36-5.55-2.59S92.08,245.43,89.72,245.78Z"/><path class={`${clr1}-1`} d="M106.5,252.49c-1.48-.61-1.53-1.21-.71-1.36a4.49,4.49,0,0,1,3.15,1.36C109.21,253.1,107.26,252.81,106.5,252.49Z"/><path class={`${clr1}-1`} d="M112.15,252.54c-1-.08-2.55,1-1.51,1.31S114.18,252.69,112.15,252.54Z"/><path class={`${clr1}-3`} d="M308.4,130.77c0-4.64-1.18-6.92-3.83-8.35l-.25,0c-1.87-.11-1.61.86.08,3.8s1.26,5.49.29,8.67-.63,5.84-.41,9-1.84,5.85-.31,8.63-3,5.67-4.76,7.2-10.44,16.55-13,20.87-9.8,16.82-11.33,19.7-2.12,6.63-3.47,9-3.78,2.79-4.07,5-3.81,7.91-4.55,8.5-2.49,1.47-2.2,3.67-1,2-3.81,6.72-18.1,31.71-17.91,33.08a5.62,5.62,0,0,1-1.56,4.16c-.88.78-1.76,1.27-1.27,2.34s-.39,2.06-2.15,3.62-7.73,15.64-7.92,16.62-.59,1.07-2.18.78-14.73-5.08-15.81-5-15.54-5-16.32-5.47a12.21,12.21,0,0,0-4.6-1.17c-1,.1-.39-.39-.78-1.57s-1.37.1-2.93,0-15-4.69-17.3-5.27a46.92,46.92,0,0,1-7.24-2.84c-.68-.39-1.17.1-2.07.54s-.47-1.13-1.25-1.57-1.07.05-1.66,0-2.08-.06-2.64-1-2.54-1.18-8.21-2.64-22.49-7.34-25.57-8.4c-1.54-.52-5.69-2.13-7.06-2.72s-2.75-.34-3.82-.63a13.08,13.08,0,0,1-3.25-2.07c-.88-.61-6.83-1.3-9.66-1.92a13.31,13.31,0,0,1-6.41-4c-.68-.95-2.43.5-3.6.69s-4.36-1.08-5.53-2.54-10.13-3.49-12-4.47a74,74,0,0,0-9.63-3.44c-1.27-.26-7.17-.57-9.1-2.1a6.86,6.86,0,0,0-4.57-1.93c-1.73-.13-6.15-1.73-8.23-1.16,0,0,0,0,0,.06-.76,28.21,3,114,8.44,199.26h0c36.16-60.89,62.46-67.75,91.05-46s59.93,35.1,90.58,27.27c1-68.31,2.78-110.62,3.2-117.62.57-9.72,63.54-119.11,72.61-132.08C308.4,152.5,308.4,153.64,308.4,130.77Z"/><path class="stroke" d="M34.31,233.12c-1.5,55.47,14.29,333.35,26.87,392.81,0,0,90.34,58.33,167,93.78,0,0-4.4-94.28-4.4-215.25S227,305.73,227.57,296s63.54-119.11,72.62-132.08c8-11.43,8-10.29,8-33.16,0-9.15-4.57-9.15-16-11.44-14.75-3-164.67-26.3-173.82-27.44s-8,5.71-8,10.29,2.29,17.15-3.43,22.87S34.88,212,34.31,233.12Z"/><path class={`${clr1}-3`} d="M269.1,204.83c-1,0-3.79,3.95-1.62,3.95S271.09,204.85,269.1,204.83Z"/><path class={`${clr1}-2`} d="M41.67,237.18a2.82,2.82,0,0,1,2.73.38c.57.47,1.13,1.13,1.6,1.22s.46.94-.38.94S40.07,237.93,41.67,237.18Z"/><path class={`${clr1}-2`} d="M63.41,243.39c1.14,0,1,2.5,0,1.87S60.3,243.39,63.41,243.39Z"/><path class={`${clr1}-2`} d="M189,284.41c-.92,0-1.78,1.53-.63,1.79S191.76,284.54,189,284.41Z"/><path class={`${clr3}-3`} d="M144.15,207.6c-1.22.19-.89,2.38,0,2.08s1.85-.89,1.41-1.41S145.11,207.46,144.15,207.6Z"/><path class={`${clr3}-3`} d="M148.62,205.88c-.6.33-.65,1.44,0,1.69s2.4,0,1.82-.85S149.53,205.38,148.62,205.88Z"/><path class={`${clr3}-3`} d="M48.85,58.15a.73.73,0,0,0,0,1.36c.78.32,2.2.39,1.75-.68S49.88,57.82,48.85,58.15Z"/><path class={`${clr3}-3`} d="M52.42,56.13c-.79.54.81,1.63,1.44.85s.5-1.43,1.48-1.82,1.94-.85,1.17-1.34-1.63-.49-2,0A7.27,7.27,0,0,1,52.42,56.13Z"/><path class={`${clr3}-3`} d="M58,50.86c-.71.87.77,1.9,1.29,1.3s1.33-1.24,0-1.64A1,1,0,0,0,58,50.86Z"/><path class={`${clr3}-3`} d="M61.64,47.7c-.59-.3-1.13,1-.63,1.32s1.71.07,1.52-.66S62.15,48,61.64,47.7Z"/><path class={`${clr3}-3`} d="M63.66,43.66c-.66.06-1.26,1.27-.56,1.58s1.64.19,1.58-.38S64.49,43.6,63.66,43.66Z"/><path class={`${clr3}-1`} d="M21.76,11.06c-2.32,1.53-8.18,5.69-11,9.8s2,.44,2.91-.67,5.9-7.25,9.2-7.93C26.35,11.54,24.53,9.24,21.76,11.06Z"/><path class={`${clr3}-1`} d="M31.61,5.83c-1,.45-3.2,1.41-3.87,1.75s-1.32,1.17-.46,1.65S29.12,8.66,30,7.79s3.42.41,3.64-.84S32.5,5.42,31.61,5.83Z"/><path class="stroke" d="M301.48,121.3c5.63,1.19,9,1.46,9,10.61s0,18.3,3.43,20.59c10.29,6.86,57.86,40,58.32,53.74,1.15,34.31-9.15,337.36-18.3,396.82,0,0-59.46,65.19-125.79,116.65"/><path class={`${clr1}-4`} d="M303.72,251.93c-.55-.92-4.13.58-4.67.86s-3.11,3.13-4.86,4.34.13,1.36.94,1.09,1.51-2,3.46-2.89S304.32,252.94,303.72,251.93Z"/><path class={`${clr1}-4`} d="M289.89,259.86c-.79-.22-2.84,1.08-1.49,1.76S291.37,260.26,289.89,259.86Z"/><path class={`${clr1}-4`} d="M285.16,261.2c-.66.16-2.3.81-1,1.75s2.13,1.76,2.42,0S285.83,261.05,285.16,261.2Z"/><path class={`${clr1}-4`} d="M234.88,287.85c-1.92.62-4,2.24-2.92,3.29s5.76,1,6.06-.67,1.42-1.16,1.5-2.12S236.65,287.28,234.88,287.85Z"/><path class={`${clr1}-4`} d="M242.66,285.61c-.61,1-2.47.44-1.8,1.34a2.28,2.28,0,0,0,3.37-.37c.59-1.12.52-1.42,1.57-1.87S243.79,283.81,242.66,285.61Z"/><path class={`${clr1}-4`} d="M249.24,282.53c-.88.31-1.87,1.06-1,1.54s2.55.23,2.55-.77S249.65,282.38,249.24,282.53Z"/><path class={`${clr1}-4`} d="M279.55,265.51c-.71-.64-5.53,2.23-6.69,3.4s-9.44,5.69-11.41,6.65-.56,1.92,1,.91,9.44-6.15,10.51-6.47S280.83,266.69,279.55,265.51Z"/><path class={`${clr1}-4`} d="M257.76,277.66c-1.59.25-2.81.58-1.53,1.28s3.32-.06,3.07-.64S258.64,277.52,257.76,277.66Z"/><path class={`${clr1}-4`} d="M314.61,244.94c-2.13.27-6,3.45-6.55,4.21s.68.85,1.57-.3a4.47,4.47,0,0,1,2.88-1.95C313.48,246.81,316.64,244.68,314.61,244.94Z"/><path class={`${clr1}-4`} d="M322.44,239.41c-.75.39-1.6,1-1,1.23s1.39-.89,2.39-1.23S323.43,238.9,322.44,239.41Z"/><path class={`${clr1}-4`} d="M327.12,236.8c-.63.21-1.37,1.11-.57,1.17s2,.05,1.4-.59S327.56,236.65,327.12,236.8Z"/><path class={`${clr1}-4`} d="M331.8,232.79c-.6-.19-.63.83-1.13,1.39s-1.63,1.34-.67,1.53,2.09-.23,2.19-.86S333.52,233.34,331.8,232.79Z"/><path class={`${clr1}-4`} d="M337.92,229.11c-.67-.06-.67,1.84,0,1.89s1.95-.05,1.45-.94S338.59,229.17,337.92,229.11Z"/><path class={`${clr1}-4`} d="M341.4,228.18c-.26-.49-2-.44-1.92,0s-.16,1.54.61,1.49S341.71,228.74,341.4,228.18Z"/><path class={`${clr1}-4`} d="M346.94,223.6c-1.07-.21-.65,1.72-1.46,1.84s-3.25,1.11-2.4,1.61,2.7-.72,3.31-1.22S350,224.17,346.94,223.6Z"/><path class={`${clr1}-4`} d="M349.34,221.54a.85.85,0,0,0-.4,1.54c.62.35,1.4,1.21,2,.5s1.78-1.49.56-1.76S350.4,221.31,349.34,221.54Z"/><path class={`${clr3}-2`} d="M187.89,177.07h0l0,0-.08-.1-3.37-4.42-.2-.25-.31-.41h0c-4.06-5.08-10.28-8.51-18.13-9.31-18.62-1.9-39.31,11.63-46.23,30.22-3.88,10.44-2.59,20.26,2.58,27.2h0l0,0,0,0,3.45,4.51.09.12.3.4h0c4.06,5.14,10.31,8.6,18.21,9.41,18.62,1.91,39.32-11.62,46.23-30.22C194.31,193.8,193,184,187.89,177.07Z"/><path class={`${clr3}-3`} d="M190.44,204.22a32.49,32.49,0,0,0,1.95-16.06L189,184.44l-8.28-11.34-55,46.21,4.49,7.51,10.18,7a32.22,32.22,0,0,0,3.79.62C162.83,236.35,183.53,222.82,190.44,204.22Z"/><path class="stroke" d="M187.89,177.07h0l0,0-.08-.1-3.37-4.42-.2-.25-.31-.41h0c-4.06-5.08-10.28-8.51-18.13-9.31-18.62-1.9-39.31,11.63-46.23,30.22-3.88,10.44-2.59,20.26,2.58,27.2h0l0,0,0,0,3.45,4.51.09.12.3.4h0c4.06,5.14,10.31,8.6,18.21,9.41,18.62,1.91,39.32-11.62,46.23-30.22C194.31,193.8,193,184,187.89,177.07Z"/><path class={`${clr3}-2`} d="M182.24,175h0l0,0a20.87,20.87,0,0,0-1.48-1.89l-12-15.33h0c-3.72-4.67-9.43-7.82-16.64-8.56-17.09-1.75-36.08,10.67-42.43,27.73-3.77,10.14-2.22,19.64,3.24,26h0l12.77,16.35,0,0a24.06,24.06,0,0,0,16,7.78c17.09,1.75,36.08-10.66,42.42-27.73C187.62,190.08,186.62,181.35,182.24,175Z"/><ellipse class={`${clr3}-3`} cx="140.65" cy="180.12" rx="33.14" ry="25.46" transform="translate(-81.27 125.58) rotate(-38.21)"/><path class={`${clr3}-3`} d="M184.17,199.36a29.28,29.28,0,0,0,1.57-16L173.44,169l-52,39.78,13,16.56a27.35,27.35,0,0,0,7.32,1.75C158.84,228.84,177.83,216.43,184.17,199.36Z"/><path class={`${clr3}-2`} d="M152.14,149.22c-17.09-1.75-36.08,10.67-42.43,27.73s2.37,32.31,19.45,34.06,36.08-10.67,42.42-27.73S169.22,151,152.14,149.22ZM168.41,183c-5.7,15.31-22.74,26.45-38.07,24.88s-23.15-15.25-17.45-30.56,22.74-26.46,38.07-24.89S174.1,167.64,168.41,183Z"/><ellipse class="stroke" cx="140.65" cy="180.12" rx="35.93" ry="27.61" transform="translate(-81.27 125.58) rotate(-38.21)"/><path class={`${clr3}-1`} d="M133,155.84l.41-.19a34.63,34.63,0,0,1,14.8-3.4h0c4.18-1.1,1.34-3.38-8.21-2l-.12,0c-.34.12-2.45.86-5,1.65l-.66.27C131.69,153.42,130.2,157.32,133,155.84Z"/><path class={`${clr3}-1`} d="M122.27,160.42c2-1.63,4.32-.95,2.17,1S120.29,162.05,122.27,160.42Z"/><path class={`${clr3}-1`} d="M117.52,164.93c1.18-1.32,3.63-1,2,1S116.05,166.57,117.52,164.93Z"/><path class={`${clr3}-1`} d="M113.06,171.27c1.41-2.25,2.51,0,1.77,1.46S111.66,173.52,113.06,171.27Z"/><path class={`${clr1}-5`} d="M128.2,197.85a29,29,0,0,0-1.91,10.1,26.08,26.08,0,0,0,3.76.66c15.76,1.61,33.28-9.84,39.13-25.58a29.11,29.11,0,0,0,1.91-10.09,26.08,26.08,0,0,0-3.76-.66C151.57,170.67,134.05,182.12,128.2,197.85Z"/><path class={`${clr3}-4`} d="M177.08,168.4c2.47,6.3,2.3,13.67-3.34,18.93-1.4,1.3.06,1.24,1.14.83s8.65-7.41,5.1-16Z"/><path class={`${clr3}-1`} d="M180,172.13l-2.9-3.73a21.63,21.63,0,0,1,1.46,6.2h0a1.43,1.43,0,0,1,2.32,1A12.16,12.16,0,0,0,180,172.13Z"/><path class={`${clr3}-4`} d="M153.74,217.81c-6,1.35-20,5-32.28-3.92l3.15,4s8.19,7.8,28.28,2.15C157,218.92,155.17,217.49,153.74,217.81Z"/><path class={`${clr3}-1`} d="M121.46,213.89l3.15,4s2.41,2.29,7.82,3.49a5.82,5.82,0,0,1-4.48-3.95h0A30,30,0,0,1,121.46,213.89Z"/><path class="stroke" d="M182.24,175h0l0,0a20.87,20.87,0,0,0-1.48-1.89l-12-15.33h0c-3.72-4.67-9.43-7.82-16.64-8.56-17.09-1.75-36.08,10.67-42.43,27.73-3.77,10.14-2.22,19.64,3.24,26h0l12.77,16.35,0,0a24.06,24.06,0,0,0,16,7.78c17.09,1.75,36.08-10.66,42.42-27.73C187.62,190.08,186.62,181.35,182.24,175Z"/><path class={`${clr3}-3`} d="M72.45,22.76h0A32.77,32.77,0,0,1,70.37,38C63.45,56.58,42.73,70.12,24.09,68.21a29.72,29.72,0,0,1-6-1.24v0c-.36,4.8,5.77,9.82,8,11.83.73.66,2.74,2.36,5.1,4.35a31.33,31.33,0,0,0,5.5,1.06C55.28,86.13,76,72.6,82.9,54a32.39,32.39,0,0,0,1.92-16.19c-1.75-2.6-3.78-5.6-5.15-7.66C76.76,25.78,73.84,23.08,72.45,22.76Z"/><path class={`${clr3}-4`} d="M180.51,188c-1.74,3.43-9.3,21.57-33.94,24.65-3.54.44-2.44,1.68.37,1.68,7.31,0,27.32-4.63,33.89-23.55C181.51,188.86,181.53,186,180.51,188Z"/><path class="stroke" d="M79.21,25.44h0L67.72,10.72a1.84,1.84,0,0,1-.17-.22L67,9.85h0C63,4.92,56.83,1.59,49.11.8,30.49-1.1,9.8,12.43,2.88,31-1.06,41.64.34,51.6,5.73,58.56h0l13,16.55h0c4.06,5,10.22,8.32,18,9.12C55.28,86.13,76,72.6,82.9,54,87,42.86,85.29,32.43,79.21,25.44Z"/><path class="carton-1000" d="M119.75,144.39l-4.19-45.28c-.36-4-3.8-5.53-5.77-2.65l-4.4,6.46c-1.3,1.9-3.44,2-4.78.15L85.28,82.18c-1.34-1.82-3.47-1.76-4.77.15L70.74,96.64a6.25,6.25,0,0,0,.07,6.75l15.33,20.89a6.25,6.25,0,0,1,.07,6.75l-4.4,6.46c-2,2.88-.72,7.68,2.09,8l32.17,4.26C118.23,150.08,120,147.44,119.75,144.39Z"/></svg>
