<svg xmlns="http://www.w3.org/2000/svg" viewBox="0 0 733.31 733.31"><g id="Layer_2" data-name="Layer 2"><g id="main"><path class="illu__bg aluminum-bg" d="M642,241l61.14,34.76a57.64,57.64,0,0,1,12.05,91.05l-50,49.48a57.65,57.65,0,0,0-15,56.23l18.65,67.81A57.63,57.63,0,0,1,613,613.24l-70.33-.35A57.65,57.65,0,0,0,492.3,642l-34.76,61.14a57.64,57.64,0,0,1-91.05,12.05l-49.48-50a57.65,57.65,0,0,0-56.23-15L193,668.87A57.64,57.64,0,0,1,120.06,613l.36-70.33A57.65,57.65,0,0,0,91.28,492.3L30.14,457.54a57.64,57.64,0,0,1-12-91.05l50-49.48a57.65,57.65,0,0,0,15-56.23L64.44,193a57.64,57.64,0,0,1,55.86-72.91l70.32.36A57.66,57.66,0,0,0,241,91.28l34.76-61.14a57.64,57.64,0,0,1,91.05-12l49.48,50a57.65,57.65,0,0,0,56.23,15l67.81-18.65a57.63,57.63,0,0,1,72.9,55.86l-.35,70.32A57.66,57.66,0,0,0,642,241Z"/></g></g></svg>