<svg xmlns="http://www.w3.org/2000/svg" viewBox="0 0 142.4 281.79"><path class={`${clr1}-250`} d="M49.8,52.12s.01,0-13.81,0c-20.36,0-38.37-17.26-21.7-17.26H49.8v17.26Z"/><path class={`${clr1}-600`} d="M49.8,49.29s.01,0-13.81,0c-20.36,0-38.37-14.44-21.7-14.44H49.8v14.44Z"/><path class={`${clr1}-250`} d="M86.02,227.63c.72-21.47,12.01-14.6,12.01-52.8V66.64c0-14.12-4.96-14.85-11.29-14.85-7.02,0,0-36.47,0-36.47,0,0,19.47-21.43,19.58-13.61s4.66,18.22,10.09,27.04,11.98,12.44,11.98,28.26V195.62c0,16.96-6.48,30.77-9.53,39.78-8.12,24.04-6.34,47.1-12.55,46.31s-18.5-24.37-18.5-24.37l-5.2-22.16,3.4-7.56Z"/><path class={`${clr1}-600`} d="M86.02,227.63c.72-21.47,16.74-14.6,16.74-52.8V66.64c0-18.03-12.12-17.21-16.02-17.35-7.02-.26,0-33.97,0-33.97,0,0,19.47-21.43,19.58-13.61s2.3,18.22,7.72,27.04,11.98,12.44,11.98,28.26V195.62c0,16.96-6.48,30.77-9.53,39.78-8.12,24.04-3.97,47.1-10.19,46.31s-18.5-24.37-18.5-24.37l-5.2-22.16,3.4-7.56Z"/><path class=stroke d="M14.29,34.85H100.05c12.35,0,22.35,10.01,22.35,22.35V192.3c0,7.92-4.19,15.25-11.02,19.26L14.29,268.7"/><path class={`${clr1}-100`} d="M86.74,234.97V40.18c0-22.16,18.47-36.93,18.47-36.93H31.34s18.47,14.77,18.47,36.93V234.97c0,28.98-18.47,40.91-18.47,40.91H105.2s-18.47-11.93-18.47-40.91Z"/><path class=stroke d="M31.34,3.25s18.47,14.77,18.47,36.93V234.97c0,28.98-18.47,40.91-18.47,40.91"/><path class={`${clr1}-250`} d="M86.74,234.97V40.18c0-22.16,18.47-36.93,18.47-36.93,7.65-7.65-31.05-3.2-31.05,37.09V234.12c0,34.58,42.38,59.41,31.05,41.77,0,0-18.47-11.93-18.47-40.91Z"/><path class={`${clr1}-600`} d="M86.74,234.97V40.18c0-22.16,18.47-36.93,18.47-36.93,7.65-7.65-26.39-3.2-26.39,37.09V234.12c0,34.58,37.71,59.41,26.39,41.77,0,0-18.47-11.93-18.47-40.91Z"/><path class=stroke d="M105.2,275.88s-18.47-11.93-18.47-40.91V40.18c0-22.16,18.47-36.93,18.47-36.93"/><path class={`${clr1}-50`} d="M57.02,43.71c-3.98,0-2.66,56.88,0,56.88s2.88-56.88,0-56.88Z"/><path class={`${clr1}-50`} d="M56.81,105.28c-3.24,0-1.77,11.13,0,11.13s3.24-11.13,0-11.13Z"/><path class={`${clr1}-50`} d="M56.81,128.66c-2.55,0-2.46,5.56,0,5.56s3.24-5.56,0-5.56Z"/><path class={`${clr1}-50`} d="M56.94,138.67c-2.96,0-1.34,13.11-.14,13.11s3.09-13.11,.14-13.11Z"/><path class={`${clr1}-50`} d="M134.62,58.88c-2.95,0-2.27,51.28,0,51.28s2.95-51.28,0-51.28Z"/><path class={`${clr1}-50`} d="M134.62,125.25c-2.04,0-1.82,13.39,0,13.39s3.18-13.39,0-13.39Z"/><path class={`${clr1}-50`} d="M134.85,144.08c-3.18,0-1.59,7.49,0,7.49s2.72-7.49,0-7.49Z"/><path class={`${clr1}-50`} d="M134.62,160.19c-2.27,0-1.81,3.18,.23,3.18s2.04-3.18-.23-3.18Z"/></svg>
