<svg xmlns="http://www.w3.org/2000/svg" viewBox="0 0 142.4 281.79"><path class={`${clr1}-250`} d="M55.66,52.12c9.23,0,0,0,0,0v-17.26h-13.31c-12.35,0-22.35,10.01-22.35,22.35V192.3c0,7.92,4.19,15.25,11.02,19.26l24.65,14.5v-8.22s-10.72-16.53-10.72-28.32V62.96c0-8.25,1.37-10.84,10.72-10.84Z"/><path class={`${clr1}-600`} d="M50.78,49.29c9.35,0,4.89,0,4.89,0v-14.44h-13.31c-12.35,0-22.35,10.01-22.35,22.35V192.3c0,7.92,4.19,15.25,11.02,19.26l24.65,14.5v-5.29s-17.83-19.46-17.83-31.24V62.96c0-8.25,3.59-13.67,12.94-13.67Z"/><path class={`${clr1}-250`} d="M134.01,40.07c1.67-2.91,.26-5.22-5.9-5.22h-.43c-2.26-1.89-4.31-3.82-5.71-6.1-5.43-8.82-9.97-19.21-10.09-27.04s-19.58,13.61-19.58,13.61c0,0-7.02,36.47,0,36.47,6.33,0,11.29,.73,11.29,14.85v108.18c0,38.21-11.29,31.34-12.01,52.8l-3.4,7.56,5.2,22.16s12.29,23.58,18.5,24.37c6.21,.79,12.88-22.27,21-46.31,3.04-9.01,9.53-22.83,9.53-39.78V57.02c0-8.04-3.87-12.92-8.39-16.94Z"/><path class={`${clr1}-600`} d="M131.83,41.54c4.28-3.42,4.21-6.69-3.72-6.69h-3.2c-2.02-1.89-3.91-3.82-5.31-6.1-5.43-8.82-7.61-19.21-7.72-27.04s-19.58,13.61-19.58,13.61c0,0-7.02,33.7,0,33.97,3.9,.15,16.02-.68,16.02,17.35v108.18c0,38.21-16.02,31.34-16.74,52.8l-3.4,7.56,5.2,22.16s12.29,23.58,18.5,24.37c6.21,.79,8.12-22.27,16.24-46.31,3.04-9.01,9.53-22.83,9.53-39.78V57.02c0-7.08-2.53-11.72-5.81-15.47Z"/><path class=stroke d="M128.11,34.85H42.35c-12.35,0-22.35,10.01-22.35,22.35V192.3c0,7.92,4.19,15.25,11.02,19.26l97.1,57.14"/><path class={`${clr1}-100`} d="M55.66,234.97V40.18c0-22.16-18.47-36.93-18.47-36.93H111.06s-18.47,14.77-18.47,36.93V234.97c0,28.98,18.47,40.91,18.47,40.91H37.2s18.47-11.93,18.47-40.91Z"/><path class=stroke d="M37.2,275.88s18.47-11.93,18.47-40.91V40.18c0-22.16-18.47-36.93-18.47-36.93"/><path class={`${clr1}-250`} d="M92.5,235.05V40.26c0-22.16,18.47-36.93,18.47-36.93,7.65-7.65-31.05-3.2-31.05,37.09V234.19c0,34.58,42.38,59.41,31.05,41.77,0,0-18.47-11.93-18.47-40.91Z"/><path class={`${clr1}-600`} d="M92.5,235.05V40.26c0-22.16,18.47-36.93,18.47-36.93,7.65-7.65-26.39-3.2-26.39,37.09V234.19c0,34.58,37.71,59.41,26.39,41.77,0,0-18.47-11.93-18.47-40.91Z"/><path class={`${clr1}-50`} d="M62.57,123.97c-3.24,0-1.77,11.13,0,11.13s3.24-11.13,0-11.13Z"/><path class={`${clr1}-50`} d="M62.57,110.85c-2.55,0-2.46,5.56,0,5.56s3.24-5.56,0-5.56Z"/><path class=stroke d="M111.06,3.25s-18.47,14.77-18.47,36.93V234.97c0,28.98,18.47,40.91,18.47,40.91"/><path class={`${clr1}-50`} d="M62.71,49.29c-3.41,0-2.69,54.71-.14,54.71s3.37-54.71,.14-54.71Z"/><path class={`${clr1}-50`} d="M62.57,145.22c-2.73,0-2.01,6.55,0,6.55s2.73-6.55,0-6.55Z"/></svg>
