<svg id="Layer_2" xmlns="http://www.w3.org/2000/svg" viewBox="0 0 1613.71 623.43"><rect class={`${clr1}-9`} width="1613.71" height="623.43"/><path class={`${clr1}-8`} d="M801.97,588.76c-35.5,0-69.98-6.97-102.47-20.71-9.69-4.1-19.21-8.81-28.29-14.01-20.15-11.54-38.77-25.79-55.34-42.36-8.15-8.15-15.85-16.93-22.88-26.1-12.41-12.3-22.83-23.51-30.98-33.33-1.97-2.38-8.78-8.55-14.24-13.52-23.34-21.19-58.62-53.22-67.07-87.06-13.67-54.69,19.35-91.56,23.16-95.58,8.77-9.26,60.44-59.53,70.71-69.52,3.36-3.27,7.29-7.26,11.7-11.84,1.4-2.01,2.7-3.82,3.97-5.53,7.73-10.44,16.35-20.45,25.63-29.73,4.98-4.98,10.31-9.88,15.82-14.57,2.14-2.22,4.41-4.09,6.74-5.56,4.31-3.42,8.76-6.74,13.24-9.86,7.33-5.1,15.01-9.89,22.83-14.22,8.07-4.46,16.48-8.56,25.02-12.17,32.49-13.74,66.96-20.71,102.46-20.71s69.98,6.97,102.47,20.71c22.46,9.5,43.45,22.05,62.39,37.31,3.64,2.27,7.3,5.39,10.9,9.29,3.65,3.28,7.12,6.57,10.34,9.78,9.3,9.29,17.98,19.38,25.8,29.98,6.46,6.85,12.08,12.6,16.7,17.11,6.28,6.1,61.65,59.94,70.74,69.54,3.81,4.03,36.83,40.91,23.16,95.58-8.46,33.84-43.71,65.85-67.04,87.03-5.48,4.97-12.3,11.16-14.28,13.55-9.31,11.22-21.54,24.21-36.36,38.6-5.89,7.28-12.18,14.28-18.72,20.82-24.15,24.15-52.29,43.12-83.64,56.38-32.49,13.74-66.96,20.71-102.46,20.71Z"/><path class={`${clr1}-7`} d="M801.97,583.76c-34.83,0-68.65-6.83-100.52-20.31-9.51-4.02-18.84-8.65-27.76-13.75-19.77-11.32-38.03-25.3-54.29-41.56-8.08-8.08-15.7-16.78-22.66-25.87-12.39-12.27-22.79-23.44-30.89-33.21-2.2-2.65-8.86-8.69-14.73-14.03-22.9-20.79-57.49-52.2-65.58-84.57-13.02-52.1,18.32-87.11,21.94-90.93,8.7-9.19,60.31-59.4,70.57-69.37,3.48-3.39,7.55-7.51,12.09-12.25,1.44-2.07,2.79-3.95,4.11-5.74,7.58-10.25,16.05-20.07,25.15-29.17,4.95-4.94,10.23-9.81,15.71-14.46,1.99-2.08,4.07-3.8,6.21-5.12,4.29-3.42,8.73-6.73,13.2-9.84,7.19-5.01,14.72-9.7,22.39-13.95,7.91-4.38,16.17-8.4,24.54-11.94,31.87-13.48,65.69-20.31,100.51-20.31s68.65,6.83,100.52,20.31c22.13,9.36,42.8,21.74,61.45,36.79,3.39,2.07,6.85,5.02,10.28,8.76,3.64,3.26,7.11,6.55,10.33,9.76,9.19,9.19,17.77,19.17,25.49,29.66,6.6,7,12.34,12.88,17.06,17.48,6.28,6.1,61.66,59.96,70.59,69.39,3.62,3.82,34.96,38.84,21.94,90.93-8.09,32.37-42.67,63.76-65.55,84.54-5.89,5.35-12.56,11.41-14.76,14.06-9.24,11.14-21.42,24.06-36.21,38.42-5.83,7.22-12.07,14.17-18.55,20.66-23.69,23.69-51.3,42.3-82.05,55.31-31.87,13.48-65.68,20.31-100.52,20.31Z"/><path class={`${clr1}-6`} d="M801.97,578.76c-34.16,0-67.32-6.7-98.57-19.92-9.32-3.94-18.48-8.48-27.22-13.48-19.38-11.1-37.29-24.81-53.24-40.76-8-8-15.55-16.63-22.43-25.65-12.39-12.25-22.75-23.38-30.8-33.09-2.42-2.92-8.93-8.83-15.22-14.54-22.46-20.39-56.37-51.18-64.1-82.08-12.38-49.52,17.29-82.66,20.72-86.28,8.86-9.36,64.15-63.12,70.42-69.22,3.59-3.5,7.79-7.76,12.48-12.65,1.5-2.17,2.9-4.11,4.25-5.94,7.44-10.05,15.74-19.68,24.67-28.61,4.91-4.91,10.17-9.74,15.62-14.36,1.83-1.94,3.72-3.51,5.64-4.66,4.29-3.42,8.72-6.73,13.19-9.84,7.05-4.91,14.43-9.51,21.96-13.68,7.76-4.29,15.86-8.23,24.07-11.71,31.25-13.22,64.41-19.92,98.57-19.92s67.32,6.7,98.57,19.92c21.81,9.22,42.17,21.43,60.52,36.29,3.13,1.86,6.37,4.62,9.63,8.21,3.64,3.26,7.11,6.53,10.31,9.74,9.09,9.09,17.56,18.95,25.18,29.33,6.74,7.15,12.6,13.16,17.42,17.85,6.27,6.1,61.59,59.89,70.45,69.25,3.42,3.62,33.1,36.77,20.72,86.28-7.72,30.9-41.63,61.68-64.06,82.05-6.31,5.73-12.82,11.64-15.25,14.57-9.17,11.06-21.31,23.92-36.06,38.24-5.77,7.17-11.96,14.07-18.39,20.5-23.24,23.24-50.31,41.48-80.46,54.24-31.25,13.22-64.41,19.92-98.57,19.92Z"/><path class={`${clr1}-5`} d="M801.97,573.76c-33.48,0-65.99-6.57-96.62-19.52-9.14-3.87-18.12-8.31-26.69-13.22-19-10.88-36.56-24.32-52.19-39.95-7.93-7.93-15.4-16.48-22.2-25.42-12.38-12.24-22.72-23.33-30.72-32.97-2.65-3.19-9-8.96-15.72-15.06-22-19.98-55.24-50.15-62.59-79.58-11.73-46.93,16.27-78.22,19.5-81.63,8.72-9.21,64-62.97,70.28-69.07,3.72-3.63,8.04-8.01,12.88-13.07,1.56-2.26,3-4.27,4.38-6.14,7.29-9.85,15.43-19.29,24.19-28.05,4.88-4.88,10.11-9.68,15.54-14.26,1.66-1.8,3.35-3.19,5.03-4.16,4.29-3.43,8.73-6.75,13.2-9.87,6.91-4.81,14.15-9.32,21.52-13.4,7.61-4.21,15.54-8.07,23.59-11.48,30.63-12.96,63.14-19.52,96.62-19.52s65.99,6.57,96.62,19.52c21.49,9.09,41.55,21.14,59.61,35.81,2.06,1.18,5.16,3.44,8.95,7.64,3.64,3.25,7.11,6.52,10.31,9.72,8.98,8.98,17.35,18.74,24.86,29,6.88,7.3,12.86,13.43,17.78,18.23,6.26,6.09,61.5,59.8,70.31,69.11,3.23,3.41,31.23,34.7,19.5,81.63-7.36,29.43-40.59,59.6-62.58,79.57-6.74,6.12-13.08,11.88-15.73,15.07-9.11,10.98-21.19,23.78-35.92,38.06-5.71,7.12-11.84,13.96-18.22,20.33-22.78,22.78-49.31,40.67-78.88,53.17-30.63,12.96-63.14,19.52-96.62,19.52Z"/><path class={`${clr1}-4`} d="M801.97,568.76c-32.81,0-64.66-6.44-94.67-19.13-8.96-3.79-17.76-8.15-26.15-12.95-18.61-10.66-35.82-23.83-51.14-39.15-7.86-7.86-15.25-16.33-21.97-25.19-12.38-12.22-22.69-23.27-30.64-32.86-2.88-3.47-9.06-9.08-16.22-15.58-21.54-19.56-54.1-49.12-61.09-77.08-11.09-44.35,15.24-73.77,18.28-76.98,8.95-9.45,67.68-66.54,70.17-68.97,3.8-3.7,8.25-8.22,13.24-13.44,1.62-2.35,3.1-4.43,4.51-6.33,7.15-9.66,15.12-18.91,23.71-27.49,4.86-4.86,10.06-9.63,15.47-14.19,1.79-1.98,3.28-3.04,4.35-3.6,4.3-3.46,8.76-6.79,13.26-9.93,6.77-4.71,13.86-9.13,21.08-13.13,7.45-4.12,15.23-7.91,23.12-11.24,30.01-12.69,61.86-19.13,94.67-19.13s64.66,6.44,94.67,19.13c21.19,8.96,40.95,20.86,58.74,35.35,1.43,.77,4.37,2.7,8.24,7.03,3.65,3.25,7.12,6.52,10.31,9.71,8.88,8.88,17.13,18.52,24.55,28.67,7.03,7.46,13.13,13.72,18.14,18.6,2.49,2.42,61.22,59.51,70.17,68.96,3.04,3.21,29.36,32.63,18.28,76.98-6.99,27.96-39.55,57.52-61.09,77.08-7.16,6.5-13.34,12.11-16.22,15.58-9.04,10.89-21.07,23.64-35.78,37.88-5.65,7.06-11.73,13.85-18.05,20.17-22.32,22.32-48.32,39.85-77.29,52.1-30.01,12.69-61.86,19.13-94.67,19.13Z"/><path class={`${clr1}-3`} d="M1083.15,273.28c-8.98-9.48-70.03-68.82-70.03-68.82-5.6-5.45-12-12.08-18.5-18.99-7.29-10-15.36-19.47-24.23-28.33-3.35-3.35-6.8-6.58-10.32-9.71-4.58-5.18-7.44-6.36-7.44-6.36-17.54-14.36-36.94-26.08-57.95-34.96-29.39-12.43-60.59-18.73-92.73-18.73s-63.33,6.3-92.73,18.73c-7.77,3.29-15.32,6.96-22.65,11.01-7.11,3.93-13.99,8.22-20.65,12.86-4.6,3.2-9.08,6.57-13.45,10.1,0,0-1.3,.39-3.53,2.93-5.32,4.47-10.47,9.17-15.43,14.13-8.45,8.45-16.2,17.44-23.22,26.93-1.59,2.15-3.13,4.33-4.64,6.52-4.8,5.03-9.45,9.77-13.65,13.86,0,0-61.05,59.34-70.03,68.82s-26.04,36.42-17.06,72.33c8.98,35.91,64.48,76.43,76.3,90.68,8.86,10.68,19.76,22.09,30.56,32.74,6.63,8.76,13.87,17.1,21.74,24.97,15.06,15.06,31.83,27.89,50.09,38.34,8.24,4.72,16.79,8.95,25.61,12.69,29.39,12.43,60.59,18.73,92.73,18.73s63.34-6.3,92.73-18.73c28.37-12,53.84-29.17,75.7-51.03,6.37-6.37,12.32-13.05,17.88-20.01,12.4-12,25.39-25.35,35.64-37.7,11.82-14.25,67.33-54.77,76.3-90.68,8.98-35.91-8.08-62.85-17.06-72.33Z"/><path class={`${clr1}-1`} d="M801.97,553.76c-30.79,0-60.68-6.04-88.83-17.94-27.18-11.49-51.58-27.94-72.52-48.89-20.95-20.95-37.4-45.35-48.89-72.52-11.91-28.15-17.94-58.04-17.94-88.83s6.04-60.68,17.94-88.83c11.5-27.18,27.95-51.58,48.89-72.52,20.95-20.95,45.35-37.4,72.52-48.89,28.15-11.91,58.04-17.94,88.83-17.94s60.68,6.04,88.83,17.94c27.18,11.49,51.58,27.94,72.52,48.89,20.95,20.95,37.4,45.35,48.89,72.52,11.91,28.15,17.94,58.04,17.94,88.83s-6.04,60.68-17.94,88.83c-11.5,27.18-27.95,51.58-48.89,72.52-20.95,20.95-45.35,37.4-72.52,48.89-28.15,11.91-58.04,17.94-88.83,17.94Z"/><path class={`${clr1}-8`} d="M801.97,538.92c-28.79,0-56.74-5.64-83.05-16.77-25.41-10.75-48.22-26.13-67.81-45.72-19.59-19.59-34.97-42.4-45.72-67.81-11.13-26.31-16.77-54.25-16.77-83.05s5.64-56.74,16.77-83.05c10.75-25.41,26.13-48.22,45.72-67.81,19.59-19.59,42.4-34.97,67.81-45.72,26.31-11.13,54.25-16.77,83.05-16.77s56.74,5.64,83.05,16.77c25.41,10.75,48.22,26.13,67.81,45.72,19.59,19.59,34.97,42.4,45.72,67.81,11.13,26.31,16.77,54.25,16.77,83.05s-5.64,56.74-16.77,83.05c-10.75,25.41-26.13,48.22-45.72,67.81-19.59,19.59-42.4,34.97-67.81,45.72-26.31,11.13-54.25,16.77-83.05,16.77Z"/><circle class={`${clr2}-0`} cx="801.97" cy="325.57" r="198.5"/><path class={`${clr2}-1`} d="M805.95,488.44c-51.96,0-100.81-16.94-137.55-47.7-36.74-30.76-56.97-71.66-56.97-115.17s20.23-84.41,56.97-115.17c36.74-30.76,85.59-47.7,137.55-47.7s100.81,16.94,137.55,47.7c36.74,30.76,56.97,71.66,56.97,115.17s-20.23,84.41-56.97,115.17c-36.74,30.76-85.59,47.7-137.55,47.7Z"/><path class={`${clr2}-2`} d="M805.95,478.44c-49.62,0-96.18-16.11-131.13-45.37-34.43-28.83-53.39-67.01-53.39-107.5s18.96-78.67,53.39-107.5c34.94-29.26,81.51-45.37,131.13-45.37s96.18,16.11,131.13,45.37c34.43,28.83,53.39,67.01,53.39,107.5s-18.96,78.67-53.39,107.5c-34.94,29.26-81.51,45.37-131.13,45.37Z"/><path class={`${clr2}-3`} d="M805.95,468.44c-47.27,0-91.56-15.28-124.71-43.04-32.12-26.9-49.81-62.35-49.81-99.83s17.69-72.94,49.81-99.83c33.15-27.75,77.43-43.04,124.71-43.04s91.56,15.28,124.71,43.04c32.12,26.9,49.81,62.35,49.81,99.83s-17.69,72.94-49.81,99.83c-33.15,27.75-77.43,43.04-124.71,43.04Z"/><path class={`${clr2}-4`} d="M805.95,458.44c-44.93,0-86.94-14.46-118.29-40.71-29.81-24.96-46.23-57.69-46.23-92.17s16.42-67.2,46.23-92.17c31.35-26.25,73.36-40.71,118.29-40.71s86.94,14.46,118.29,40.71c29.81,24.96,46.23,57.7,46.23,92.17s-16.42,67.2-46.23,92.17c-31.35,26.25-73.36,40.71-118.29,40.71Z"/><path class={`${clr2}-5`} d="M805.95,448.44c-42.59,0-82.31-13.63-111.87-38.37-27.51-23.03-42.65-53.04-42.65-84.5s15.15-61.47,42.65-84.5c29.55-24.75,69.28-38.37,111.87-38.37s82.31,13.63,111.87,38.37c27.51,23.03,42.65,53.04,42.65,84.5s-15.15,61.47-42.65,84.5c-29.55,24.75-69.28,38.37-111.87,38.37Z"/><path class={`${clr1}-8`} d="M805.95,438.44c-40.24,0-77.69-12.8-105.45-36.04-25.2-21.1-39.07-48.38-39.07-76.83s13.88-55.74,39.07-76.83c27.76-23.24,65.21-36.04,105.45-36.04s77.69,12.8,105.45,36.04c25.2,21.1,39.07,48.39,39.07,76.83s-13.88,55.73-39.07,76.83c-27.75,23.24-65.2,36.04-105.45,36.04Z"/><path class={`${clr1}-9`} d="M805.95,428.44c-37.9,0-73.07-11.97-99.03-33.71-22.89-19.16-35.49-43.73-35.49-69.17s12.6-50,35.49-69.16c25.96-21.74,61.13-33.71,99.03-33.71s73.07,11.97,99.03,33.71c22.89,19.17,35.49,43.73,35.49,69.17s-12.61,50-35.49,69.17c-25.96,21.74-61.13,33.71-99.03,33.71Z"/><path class={`${clr1}-1`} d="M688.85,295.58c-2.8,0-5.64-.21-8.44-.64-17.7-2.67-31.81-14.05-37.74-30.44-5.86-16.19-3.14-33.07,8.57-53.12,5.05-8.65,12.36-18.65,19.55-26.74,24.44-27.49,56.58-41.27,79.23-47.99,23.58-6.99,42.74-8.09,43.54-8.14l.62-.03c2.18-.08,4.36-.12,6.48-.12,26.15,0,53.61,5.93,79.43,17.14,21.11,9.17,40.87,21.91,54.21,34.97,11.73,11.47,19.27,23.82,22.4,36.7,3.48,14.32,.77,25.76-2.12,32.83-7.81,19.15-25.81,31.04-46.98,31.04-1.75,0-3.53-.09-5.3-.26-13.85-1.34-22.48-8.11-31.62-15.27-10.79-8.45-30.87-24.19-56.46-24.19-2.54,0-5.14,.14-7.74,.43-42.48,4.66-58.44,19.89-69,29.97-10.54,10.06-24.97,23.84-48.65,23.84Z"/><path class={`${clr1}-2`} d="M684.53,302.6c-2.55,0-5.13-.2-7.68-.6-15.77-2.44-28.32-12.84-33.58-27.82-5.3-15.07-2.68-31.06,8.25-50.32,4.95-8.72,12.12-18.8,19.17-26.97,23.89-27.66,55.46-41.57,77.74-48.37,23.28-7.11,42.08-8.22,42.87-8.26l.53-.03c2.14-.08,4.28-.12,6.36-.12,25.76,0,52.84,6.02,78.33,17.42,20.8,9.3,40.23,22.18,53.29,35.32,11.1,11.18,18.21,23.09,21.12,35.42,3.15,13.36,.72,23.98-1.88,30.53-6.99,17.65-23.15,28.61-42.17,28.61-1.59,0-3.2-.08-4.8-.24-12.32-1.23-20.05-7.46-29-14.68-11.54-9.3-33.01-26.62-61.11-26.62-2.8,0-5.67,.16-8.52,.49-45.21,5.1-62.32,21.91-73.64,33.03-10.53,10.34-23.63,23.22-45.28,23.22Z"/><path class={`${clr1}-4`} d="M684.53,296.39c-2.25,0-4.53-.18-6.79-.53-13.54-2.1-24.31-10.99-28.81-23.79-4.64-13.21-2.17-27.53,7.79-45.08,4.76-8.39,11.67-18.1,18.47-25.98,22.95-26.56,53.42-39.97,74.95-46.54,22.61-6.9,40.72-7.97,41.48-8.02l.42-.02c2.09-.08,4.14-.12,6.15-.12,24.93,0,51.19,5.85,75.92,16.9,20.16,9.01,38.92,21.43,51.47,34.06,10.28,10.35,16.83,21.27,19.47,32.44,2.77,11.75,.66,21.02-1.6,26.72-6.05,15.26-20.06,24.74-36.58,24.74-1.4,0-2.81-.07-4.22-.21-10.57-1.05-17.31-6.49-25.85-13.38-12.11-9.77-34.65-27.95-64.83-27.95-3.02,0-6.11,.18-9.18,.52-47.24,5.33-65.24,23.01-77.15,34.71-10.26,10.08-21.88,21.5-41.11,21.5Z"/><path class={`${clr1}-5`} d="M684.53,290.18c-1.95,0-3.93-.15-5.89-.46-11.32-1.75-20.3-9.14-24.03-19.76-3.99-11.34-1.66-24,7.32-39.83,4.57-8.05,11.21-17.39,17.77-24.99,22-25.47,51.38-38.37,72.15-44.71,21.95-6.7,39.35-7.73,40.09-7.77l.37-.02c1.96-.07,3.93-.11,5.87-.11,24.11,0,49.54,5.67,73.52,16.39,19.51,8.72,37.61,20.68,49.66,32.81,9.46,9.52,15.46,19.44,17.83,29.47,2.39,10.14,.6,18.05-1.32,22.91-5.1,12.88-16.98,20.88-30.99,20.88-1.2,0-2.43-.06-3.64-.18-8.81-.88-14.64-5.58-22.71-12.09-12.68-10.23-36.29-29.27-68.56-29.27-3.24,0-6.55,.19-9.84,.56-49.28,5.56-68.16,24.11-80.66,36.39-9.9,9.72-20.13,19.78-36.94,19.78Z"/><path class={`${clr1}-6`} d="M684.53,283.97c-1.65,0-3.33-.13-4.99-.39-9.09-1.41-16.29-7.29-19.25-15.73-3.33-9.48-1.15-20.47,6.86-34.58,4.38-7.72,10.76-16.69,17.07-23.99,21.06-24.37,49.34-36.78,69.36-42.89,21.26-6.49,37.99-7.48,38.69-7.52h.27c1.88-.08,3.78-.12,5.65-.12,23.29,0,47.89,5.49,71.11,15.87,18.86,8.43,36.3,19.93,47.84,31.55,8.64,8.7,14.09,17.61,16.18,26.49,2.01,8.52,.54,15.09-1.05,19.1-4.16,10.49-13.89,17.01-25.4,17.01-1.01,0-2.04-.05-3.06-.15-7.06-.7-12.04-4.72-19.57-10.8-13.26-10.69-37.93-30.59-72.28-30.59-3.46,0-6.99,.2-10.5,.6-51.31,5.79-71.08,25.22-84.17,38.07-9.46,9.29-18.38,18.06-32.77,18.06Z"/><path class={`${clr1}-7`} d="M684.53,277.75c-1.35,0-2.72-.11-4.09-.32-6.97-1.08-12.24-5.34-14.48-11.7-2.68-7.61-.64-16.93,6.4-29.34,4.19-7.39,10.31-15.98,16.37-23,20.11-23.28,47.3-35.18,66.56-41.06,20.59-6.28,36.63-7.24,37.3-7.27h.16c1.83-.08,3.64-.11,5.43-.11,22.47,0,46.23,5.31,68.71,15.36,18.21,8.14,34.99,19.18,46.03,30.3,7.82,7.87,12.71,15.78,14.54,23.52,1.63,6.91,.48,12.13-.77,15.29-3.21,8.11-10.8,13.14-19.81,13.14-.82,0-1.65-.04-2.47-.12-5.31-.53-9.26-3.72-16.43-9.5-13.83-11.16-39.57-31.91-76-31.91-3.68,0-7.43,.21-11.15,.63-53.34,6.02-74,26.32-87.68,39.76-8.93,8.77-16.63,16.34-28.61,16.34Z"/><path class={`${clr1}-8`} d="M684.53,271.54c-1.05,0-2.12-.08-3.19-.25-6.44-1-8.84-5.23-9.7-7.67-1.99-5.67-.05-13.55,5.93-24.09,4-7.05,9.86-15.28,15.67-22,19.16-22.19,45.26-33.58,63.77-39.23,19.92-6.08,35.27-6.99,35.91-7.03h.11c1.7-.07,3.44-.1,5.16-.1,21.65,0,44.58,5.13,66.31,14.85,17.56,7.85,33.68,18.44,44.21,29.04,16.18,16.29,14.06,27.82,12.4,32.02-2.27,5.72-7.72,9.28-14.22,9.28h0c-.62,0-1.26-.03-1.89-.1-3.55-.35-6.81-2.98-13.3-8.21-14.4-11.61-41.21-33.23-79.72-33.23-3.89,0-7.87,.23-11.81,.67-55.37,6.25-76.93,27.42-91.19,41.44-8.32,8.17-14.88,14.62-24.44,14.62Z"/><path class={`${clr1}-9`} d="M793.25,177.47s-60.23,3.35-95.5,44.18c-11.96,13.85-29.88,41.27-15.51,43.5,22.77,3.53,26.91-45.65,117.26-55.84,61.9-6.98,98.43,40,106.07,40.77,11.2,1.12,17.36-12.01-1.09-30.57-18.45-18.57-62.8-43.83-111.23-42.02Z"/><path class={`${clr1}-2`} d="M677.48,333.83c-2.75,.7-5.48,1.66-8.12,2.86-16.26,7.41-26.5,24.07-27.38,44.54-.89,20.61,7.08,40.23,25.09,61.73,8.15,9.73,19.14,20.6,29.4,29.06,34.72,28.64,73.33,37.7,99.61,40.25,27.46,2.67,48.14-1.05,49.01-1.21l.58-.11c2.34-.48,4.67-1.02,6.92-1.59,27.85-7.04,55.21-22.1,79.11-43.55,19.51-17.51,36.37-39.19,46.27-59.47,8.42-17.24,12.27-34.33,11.46-50.8-.88-17.85-6.93-30.68-11.84-38.31-13.23-20.53-34.22-30.05-54.79-24.85-1.72,.43-3.44,.98-5.11,1.62-12.93,4.93-19.28,14.96-26.64,26.58-9.49,14.98-27.14,42.87-57.53,50.55-3.03,.77-6.18,1.34-9.37,1.71-50.53,5.87-74.43-10.82-90.24-21.87-14.71-10.27-33.02-23.06-56.42-17.15Z"/><path class={`${clr1}-4`} d="M679.48,341.73c-2.43,.61-4.84,1.46-7.17,2.52-13.97,6.37-22.76,20.62-23.51,38.11-.78,18.06,6.5,35.6,22.9,55.18,7.84,9.36,18.43,19.82,28.32,27.98,33.35,27.5,70.61,36.22,96,38.69,26.67,2.6,46.59-.99,47.43-1.14l.46-.09c2.28-.47,4.51-.98,6.68-1.53,26.96-6.81,53.48-21.42,76.67-42.24,18.9-16.97,35.2-37.88,44.72-57.38,7.79-15.97,11.37-31.64,10.63-46.57-.78-15.7-6.04-26.9-10.31-33.53-11.44-17.75-29.64-25.98-47.5-21.46-1.51,.38-3.02,.86-4.49,1.42-11.09,4.23-16.64,12.99-23.66,24.08-9.96,15.73-28.49,45-61.13,53.25-3.27,.83-6.66,1.45-10.1,1.85-52.8,6.13-77.94-11.43-94.58-23.05-14.33-10.01-30.57-21.35-51.36-16.1Z"/><path class={`${clr1}-5`} d="M681.47,349.63c-2.11,.53-4.2,1.27-6.22,2.19-11.67,5.32-19.01,17.17-19.64,31.69-.67,15.51,5.91,30.97,20.72,48.64,7.53,8.99,17.72,19.05,27.25,26.91,31.97,26.37,67.89,34.75,92.39,37.13,25.88,2.52,45.04-.93,45.84-1.08l.41-.08c2.14-.44,4.28-.93,6.38-1.46,26.08-6.59,51.75-20.74,74.23-40.93,18.29-16.42,34.02-36.57,43.16-55.28,7.17-14.69,10.47-28.94,9.81-42.34-.67-13.54-5.15-23.12-8.79-28.76-9.65-14.98-25.06-21.9-40.22-18.08-1.3,.33-2.61,.74-3.88,1.23-9.25,3.53-14.04,11.1-20.68,21.58-10.43,16.47-29.84,47.13-64.73,55.95-3.5,.89-7.14,1.55-10.82,1.98-55.07,6.4-81.46-12.03-98.92-24.23-13.83-9.66-28.13-19.65-46.3-15.05Z"/><path class={`${clr1}-6`} d="M683.47,357.52c-1.78,.45-3.55,1.07-5.27,1.86-9.38,4.27-15.27,13.72-15.77,25.26-.56,12.96,5.33,26.34,18.53,42.1,7.22,8.62,17,18.28,26.17,25.84,30.6,25.24,65.17,33.27,88.78,35.57,25.08,2.44,43.49-.87,44.26-1.01l.29-.06c2.06-.42,4.12-.9,6.14-1.41,25.19-6.37,50.02-20.06,71.8-39.62,17.68-15.87,32.85-35.26,41.6-53.19,6.55-13.42,9.57-26.24,8.99-38.1-.56-11.39-4.26-19.33-7.27-23.99-7.87-12.2-20.48-17.83-32.93-14.69-1.09,.28-2.19,.62-3.25,1.03-7.41,2.82-11.5,9.29-17.7,19.08-10.9,17.22-31.19,49.26-68.33,58.65-3.74,.94-7.62,1.65-11.54,2.11-57.34,6.66-84.97-12.64-103.25-25.41-13.21-9.23-25.68-17.94-41.24-14.01Z"/><path class={`${clr1}-7`} d="M685.46,365.42c-1.46,.37-2.91,.88-4.32,1.52-7.19,3.28-11.52,10.14-11.89,18.83-.45,10.41,4.74,21.71,16.34,35.55,6.91,8.24,16.29,17.5,25.09,24.77,29.23,24.1,62.45,31.8,85.17,34.01,24.29,2.36,41.94-.81,42.68-.95l.18-.03c2-.41,3.97-.86,5.9-1.35,24.3-6.14,48.29-19.39,69.36-38.31,17.08-15.33,31.67-33.95,40.04-51.1,5.93-12.15,8.67-23.54,8.16-33.87-.46-9.23-3.38-15.55-5.74-19.22-6.08-9.43-15.9-13.76-25.65-11.3-.88,.22-1.77,.5-2.64,.83-5.57,2.12-8.82,7.26-14.72,16.57-11.37,17.96-32.54,51.39-71.93,61.34-3.98,1-8.1,1.76-12.27,2.24-59.61,6.93-88.48-13.24-107.59-26.59-12.47-8.71-23.24-16.23-36.18-12.96Z"/><path class={`${clr1}-8`} d="M687.46,373.32c-1.13,.29-2.27,.69-3.37,1.19-6.65,3.03-7.88,9.07-8.02,12.4-.33,7.75,4.3,17.24,14.16,29.01,6.59,7.87,15.57,16.73,24.01,23.69,27.85,22.97,59.73,30.33,81.56,32.45,23.49,2.29,40.39-.75,41.09-.88l.12-.02c1.86-.38,3.75-.82,5.61-1.29,23.41-5.92,46.56-18.71,66.93-36.99,16.47-14.78,30.49-32.64,38.48-49,12.27-25.13,6.27-39.21,3.12-44.09-4.29-6.66-11.33-9.69-18.36-7.91h0c-.67,.17-1.35,.38-2.01,.64-3.73,1.42-6.4,5.65-11.74,14.07-11.84,18.7-33.88,53.51-75.53,64.04-4.21,1.06-8.58,1.86-12.99,2.38-61.88,7.19-92-13.85-111.92-27.77-11.62-8.12-20.79-14.53-31.12-11.92Z"/><path class={`${clr1}-9`} d="M835.25,463.21s-66.21,12.2-117.46-30.07c-17.38-14.34-45.57-44.31-30.75-51.06,23.49-10.71,43.77,50.69,144.75,38.96,69.18-8.04,93.59-77.76,101.6-80.82,11.75-4.48,22.63,10.52,8.65,39.17-13.98,28.65-53.82,72.88-106.78,83.83Z"/><path class={`${clr1}-0`} d="M801.97,443.91c-31.61,0-61.33-12.31-83.68-34.66-22.35-22.35-34.66-52.07-34.66-83.68s12.31-61.33,34.66-83.68c22.35-22.35,52.07-34.66,83.68-34.66s61.33,12.31,83.68,34.66c22.35,22.35,34.66,52.07,34.66,83.68s-12.31,61.33-34.66,83.68c-22.35,22.35-52.07,34.66-83.68,34.66Z"/><path class={`${clr1}-9`} d="M806.19,203.07s-17.29,4.38,0,5.09c17.29,.7,37.04-1.12,37.04-1.12,21.6-4.21,11.12-4.53,5.56-4.63-5.56-.1-21.4,0-21.4,0l-21.2,.66Z"/><path class={`${clr1}-9`} d="M912.82,402.19c-5.56-.1-21.4,0-21.4,0l-3.29,.1c18.88-21.15,29.21-48.14,29.21-76.72,0-30.82-12-59.79-33.79-81.58s-50.76-33.79-81.58-33.79c-2.76,0-5.51,.1-8.24,.29,2.55-6.42-3.67-7.23-7.63-7.57-6.12-.51-23.55,0-23.55,0l-23.34,3.4s-16.11,19.13-3.81,24.98c-5.3,3.76-10.32,7.99-15.01,12.68-.28,.28-.56,.57-.84,.86l-3.53,.48s-6,6.6-7.74,12.89c-10.4,14.4-17.26,30.9-20.14,48.42l-3.02,.41s-18.49,20.32,0,23.58c.53,.09,1.06,.17,1.6,.25,1.1,24.48,9.81,47.58,24.99,66.57-4.3,5.71-11.86,18.23,2.32,20.73,6.39,1.13,13.09,.86,19.12,.02,.4,.29,.79,.58,1.19,.87-3.44,6.12-5.38,13.96,5.52,15.88,7.91,1.39,16.3,.65,23.32-.66,12.29,4.37,25.36,6.65,38.79,6.65,3.51,0,6.99-.16,10.44-.47,.31,.07,.6,.14,.93,.2,18.49,3.26,39.63-5.18,39.63-5.18,7.51-6.34,11.38-10.77,13-13.89,5.9-3.95,11.46-8.47,16.64-13.54,13.14-.19,24.66-1.25,24.66-1.25,21.6-4.21,11.12-4.53,5.56-4.63Z"/><polygon class={`${clr1}-9`} points="91.42 151.67 75.22 135.89 97.61 132.63 107.61 112.35 117.63 132.63 140.01 135.89 123.81 151.67 127.63 173.97 107.62 163.44 87.6 173.97 91.42 151.67"/><polygon class={`${clr1}-8`} points="94.05 150.82 80.48 137.59 99.23 134.87 107.61 117.88 116 134.87 134.75 137.59 121.18 150.82 124.39 169.49 107.62 160.68 90.85 169.49 94.05 150.82"/><polygon class={`${clr1}-6`} points="96.68 149.97 85.74 139.3 100.86 137.11 107.61 123.41 114.38 137.11 129.49 139.3 118.56 149.97 121.14 165.02 107.62 157.91 94.09 165.02 96.68 149.97"/><polygon class={`${clr1}-4`} points="99.31 149.11 91 141.01 102.48 139.34 107.62 128.93 112.75 139.34 124.24 141.01 115.93 149.11 117.89 160.55 107.62 155.15 97.34 160.55 99.31 149.11"/><polygon class={`${clr1}-2`} points="101.94 148.26 96.25 142.72 104.11 141.58 107.62 134.46 111.13 141.58 118.98 142.72 113.3 148.26 114.64 156.08 107.62 152.38 100.59 156.08 101.94 148.26"/><polygon class={`${clr1}-0`} points="107.62 139.99 109.5 143.81 113.72 144.43 110.67 147.4 111.39 151.6 107.62 149.62 103.84 151.6 104.56 147.4 101.51 144.43 105.73 143.81 107.62 139.99"/><polygon class={`${clr1}-9`} points="456.2 124.62 440 108.84 462.38 105.58 472.39 85.3 482.4 105.58 504.79 108.84 488.59 124.62 492.41 146.92 472.39 136.39 452.37 146.92 456.2 124.62"/><polygon class={`${clr1}-8`} points="458.83 123.77 445.26 110.54 464.01 107.82 472.39 90.83 480.78 107.82 499.53 110.54 485.96 123.77 489.16 142.44 472.39 133.63 455.62 142.45 458.83 123.77"/><polygon class={`${clr1}-6`} points="461.45 122.92 450.52 112.25 465.63 110.06 472.39 96.36 479.15 110.06 494.27 112.25 483.33 122.92 485.91 137.97 472.39 130.86 458.87 137.97 461.45 122.92"/><polygon class={`${clr1}-4`} points="464.08 122.06 455.77 113.96 467.26 112.29 472.39 101.89 477.53 112.29 489.01 113.96 480.7 122.06 482.66 133.5 472.39 128.1 462.12 133.5 464.08 122.06"/><polygon class={`${clr1}-2`} points="466.71 121.21 461.03 115.67 468.88 114.53 472.39 107.41 475.9 114.53 483.76 115.67 478.07 121.21 479.41 129.03 472.39 125.34 465.37 129.03 466.71 121.21"/><polygon class={`${clr1}-0`} points="472.39 112.94 474.28 116.77 478.5 117.38 475.45 120.35 476.17 124.55 472.39 122.57 468.62 124.55 469.34 120.35 466.29 117.38 470.51 116.77 472.39 112.94"/><polygon class={`${clr1}-9`} points="368.3 481.43 352.1 465.64 374.49 462.39 384.49 442.11 394.51 462.39 416.89 465.64 400.69 481.43 404.51 503.72 384.5 493.2 364.48 503.73 368.3 481.43"/><polygon class={`${clr1}-8`} points="370.93 480.58 357.36 467.35 376.11 464.63 384.49 447.64 392.88 464.63 411.63 467.35 398.06 480.58 401.27 499.25 384.5 490.44 367.73 499.25 370.93 480.58"/><polygon class={`${clr1}-6`} points="373.56 479.72 362.62 469.06 377.74 466.86 384.49 453.16 391.26 466.86 406.37 469.06 395.44 479.72 398.02 494.78 384.5 487.67 370.97 494.78 373.56 479.72"/><polygon class={`${clr1}-4`} points="376.19 478.87 367.88 470.77 379.36 469.1 384.5 458.69 389.63 469.1 401.12 470.77 392.81 478.87 394.77 490.31 384.5 484.91 374.22 490.31 376.19 478.87"/><polygon class={`${clr1}-2`} points="378.82 478.02 373.13 472.48 380.99 471.34 384.5 464.22 388.01 471.34 395.86 472.48 390.18 478.02 391.52 485.83 384.5 482.14 377.47 485.83 378.82 478.02"/><polygon class={`${clr1}-0`} points="384.5 469.75 386.38 473.57 390.6 474.19 387.55 477.16 388.27 481.36 384.5 479.38 380.72 481.36 381.44 477.16 378.39 474.19 382.61 473.57 384.5 469.75"/><polygon class={`${clr1}-9`} points="1273.4 154.84 1257.2 139.05 1279.58 135.8 1289.59 115.51 1299.6 135.8 1321.98 139.05 1305.79 154.84 1309.61 177.13 1289.59 166.61 1269.57 177.13 1273.4 154.84"/><polygon class={`${clr1}-8`} points="1276.02 153.99 1262.46 140.76 1281.21 138.04 1289.59 121.04 1297.98 138.04 1316.73 140.76 1303.16 153.99 1306.36 172.66 1289.59 163.84 1272.82 172.66 1276.02 153.99"/><polygon class={`${clr1}-6`} points="1278.65 153.13 1267.71 142.47 1282.83 140.27 1289.59 126.57 1296.35 140.27 1311.47 142.47 1300.53 153.13 1303.11 168.19 1289.59 161.08 1276.07 168.19 1278.65 153.13"/><polygon class={`${clr1}-4`} points="1281.28 152.28 1272.97 144.18 1284.46 142.51 1289.59 132.1 1294.73 142.51 1306.21 144.18 1297.9 152.28 1299.86 163.71 1289.59 158.31 1279.32 163.72 1281.28 152.28"/><polygon class={`${clr1}-2`} points="1283.91 151.42 1278.23 145.89 1286.08 144.74 1289.59 137.63 1293.1 144.74 1300.95 145.89 1295.27 151.42 1296.61 159.24 1289.59 155.55 1282.57 159.24 1283.91 151.42"/><polygon class={`${clr1}-0`} points="1289.59 143.16 1291.48 146.98 1295.7 147.59 1292.64 150.57 1293.36 154.77 1289.59 152.79 1285.82 154.77 1286.54 150.57 1283.49 147.59 1287.7 146.98 1289.59 143.16"/><polygon class={`${clr1}-9`} points="1451.67 446.96 1435.47 431.17 1457.86 427.92 1467.86 407.63 1477.88 427.92 1500.26 431.17 1484.06 446.96 1487.88 469.25 1467.87 458.73 1447.84 469.25 1451.67 446.96"/><polygon class={`${clr1}-8`} points="1454.3 446.1 1440.73 432.88 1459.48 430.15 1467.86 413.16 1476.25 430.15 1495 432.88 1481.43 446.11 1484.63 464.78 1467.87 455.96 1451.09 464.78 1454.3 446.1"/><polygon class={`${clr1}-6`} points="1456.93 445.25 1445.99 434.59 1461.1 432.39 1467.86 418.69 1474.63 432.39 1489.74 434.59 1478.8 445.25 1481.39 460.31 1467.87 453.2 1454.34 460.31 1456.93 445.25"/><polygon class={`${clr1}-4`} points="1459.56 444.4 1451.25 436.3 1462.73 434.63 1467.86 424.22 1473 434.63 1484.49 436.3 1476.18 444.4 1478.14 455.83 1467.87 450.43 1457.59 455.83 1459.56 444.4"/><polygon class={`${clr1}-2`} points="1462.18 443.54 1456.5 438 1464.35 436.86 1467.86 429.75 1471.38 436.86 1479.23 438 1473.55 443.54 1474.89 451.36 1467.87 447.67 1460.84 451.36 1462.18 443.54"/><polygon class={`${clr1}-0`} points="1467.87 435.28 1469.75 439.1 1473.97 439.71 1470.92 442.69 1471.64 446.89 1467.87 444.91 1464.09 446.89 1464.81 442.69 1461.76 439.71 1465.98 439.1 1467.87 435.28"/><polygon class={`${clr1}-9`} points="1208.36 338.26 1201.1 331.18 1211.14 329.72 1215.63 320.62 1220.12 329.72 1230.16 331.18 1222.9 338.26 1224.61 348.26 1215.63 343.54 1206.65 348.26 1208.36 338.26"/><polygon class={`${clr1}-8`} points="1209.54 337.88 1203.46 331.94 1211.87 330.72 1215.63 323.1 1219.39 330.72 1227.8 331.94 1221.72 337.88 1223.15 346.25 1215.63 342.3 1208.11 346.25 1209.54 337.88"/><polygon class={`${clr1}-6`} points="1210.72 337.49 1205.82 332.71 1212.6 331.72 1215.63 325.58 1218.66 331.72 1225.45 332.71 1220.54 337.49 1221.7 344.25 1215.63 341.06 1209.56 344.25 1210.72 337.49"/><polygon class={`${clr1}-4`} points="1211.9 337.11 1208.17 333.48 1213.33 332.73 1215.63 328.06 1217.93 332.73 1223.09 333.48 1219.36 337.11 1220.24 342.24 1215.63 339.82 1211.02 342.24 1211.9 337.11"/><polygon class={`${clr1}-2`} points="1213.08 336.73 1210.53 334.24 1214.06 333.73 1215.63 330.54 1217.21 333.73 1220.73 334.24 1218.18 336.73 1218.78 340.24 1215.63 338.58 1212.48 340.24 1213.08 336.73"/><polygon class={`${clr1}-0`} points="1215.63 333.02 1216.48 334.73 1218.37 335.01 1217 336.34 1217.32 338.23 1215.63 337.34 1213.94 338.23 1214.26 336.34 1212.89 335.01 1214.78 334.73 1215.63 333.02"/><polygon class={`${clr1}-9`} points="174.25 452.26 166.98 445.18 177.03 443.72 181.51 434.62 186.01 443.72 196.05 445.18 188.78 452.26 190.5 462.26 181.52 457.54 172.53 462.27 174.25 452.26"/><polygon class={`${clr1}-8`} points="175.43 451.88 169.34 445.95 177.75 444.73 181.52 437.1 185.28 444.73 193.69 445.95 187.6 451.88 189.04 460.26 181.52 456.3 173.99 460.26 175.43 451.88"/><polygon class={`${clr1}-6`} points="176.61 451.5 171.7 446.71 178.48 445.73 181.52 439.58 184.55 445.73 191.33 446.71 186.42 451.5 187.58 458.25 181.52 455.06 175.45 458.25 176.61 451.5"/><polygon class={`${clr1}-4`} points="177.79 451.11 174.06 447.48 179.21 446.73 181.52 442.06 183.82 446.73 188.97 447.48 185.24 451.11 186.12 456.25 181.52 453.82 176.91 456.25 177.79 451.11"/><polygon class={`${clr1}-2`} points="178.97 450.73 176.42 448.25 179.94 447.73 181.52 444.54 183.09 447.73 186.61 448.25 184.06 450.73 184.67 454.24 181.52 452.58 178.37 454.24 178.97 450.73"/><polygon class={`${clr1}-0`} points="181.52 447.02 182.36 448.74 184.25 449.01 182.89 450.35 183.21 452.23 181.52 451.34 179.82 452.23 180.15 450.35 178.78 449.01 180.67 448.74 181.52 447.02"/><polygon class={`${clr1}-9`} points="388.59 351.5 381.33 344.41 391.37 342.95 395.86 333.85 400.35 342.95 410.39 344.41 403.12 351.5 404.84 361.5 395.86 356.77 386.88 361.5 388.59 351.5"/><polygon class={`${clr1}-8`} points="389.77 351.11 383.69 345.18 392.1 343.96 395.86 336.33 399.62 343.96 408.03 345.18 401.95 351.11 403.38 359.49 395.86 355.53 388.33 359.49 389.77 351.11"/><polygon class={`${clr1}-6`} points="390.95 350.73 386.04 345.95 392.83 344.96 395.86 338.81 398.89 344.96 405.67 345.95 400.77 350.73 401.92 357.48 395.86 354.29 389.79 357.48 390.95 350.73"/><polygon class={`${clr1}-4`} points="392.13 350.35 388.4 346.71 393.55 345.96 395.86 341.29 398.16 345.96 403.31 346.71 399.59 350.35 400.47 355.48 395.86 353.05 391.25 355.48 392.13 350.35"/><polygon class={`${clr1}-2`} points="393.31 349.96 390.76 347.48 394.28 346.97 395.86 343.77 397.43 346.97 400.96 347.48 398.41 349.96 399.01 353.47 395.86 351.81 392.71 353.47 393.31 349.96"/><polygon class={`${clr1}-0`} points="395.86 346.25 396.7 347.97 398.6 348.24 397.23 349.58 397.55 351.46 395.86 350.57 394.17 351.46 394.49 349.58 393.12 348.24 395.01 347.97 395.86 346.25"/><polygon class={`${clr1}-9`} points="438.77 281.57 431.5 274.49 441.54 273.03 446.03 263.93 450.52 273.03 460.56 274.49 453.3 281.57 455.01 291.57 446.03 286.85 437.05 291.58 438.77 281.57"/><polygon class={`${clr1}-8`} points="439.95 281.19 433.86 275.26 442.27 274.04 446.03 266.41 449.79 274.04 458.21 275.26 452.12 281.19 453.56 289.57 446.03 285.61 438.51 289.57 439.95 281.19"/><polygon class={`${clr1}-6`} points="441.12 280.81 436.22 276.02 443 275.04 446.03 268.89 449.07 275.04 455.85 276.02 450.94 280.81 452.1 287.56 446.03 284.37 439.97 287.56 441.12 280.81"/><polygon class={`${clr1}-4`} points="442.3 280.42 438.58 276.79 443.73 276.04 446.03 271.37 448.34 276.04 453.49 276.79 449.76 280.42 450.64 285.56 446.03 283.13 441.42 285.56 442.3 280.42"/><polygon class={`${clr1}-2`} points="443.48 280.04 440.93 277.56 444.46 277.04 446.03 273.85 447.61 277.04 451.13 277.56 448.58 280.04 449.18 283.55 446.03 281.89 442.88 283.55 443.48 280.04"/><polygon class={`${clr1}-0`} points="446.03 276.33 446.88 278.05 448.77 278.32 447.4 279.66 447.72 281.54 446.03 280.65 444.34 281.54 444.66 279.66 443.29 278.32 445.19 278.05 446.03 276.33"/><polygon class={`${clr1}-9`} points="497.52 387.97 490.25 380.89 500.29 379.43 504.78 370.33 509.28 379.43 519.32 380.89 512.05 387.97 513.77 397.97 504.79 393.25 495.8 397.97 497.52 387.97"/><polygon class={`${clr1}-8`} points="498.7 387.59 492.61 381.66 501.02 380.43 504.78 372.81 508.55 380.43 516.96 381.66 510.87 387.59 512.31 395.97 504.79 392.01 497.26 395.97 498.7 387.59"/><polygon class={`${clr1}-6`} points="499.88 387.21 494.97 382.42 501.75 381.44 504.78 375.29 507.82 381.44 514.6 382.42 509.69 387.21 510.85 393.96 504.79 390.77 498.72 393.96 499.88 387.21"/><polygon class={`${clr1}-4`} points="501.06 386.82 497.33 383.19 502.48 382.44 504.79 377.77 507.09 382.44 512.24 383.19 508.51 386.82 509.39 391.95 504.79 389.53 500.18 391.95 501.06 386.82"/><polygon class={`${clr1}-2`} points="502.24 386.44 499.69 383.96 503.21 383.44 504.79 380.25 506.36 383.44 509.88 383.96 507.33 386.44 507.94 389.95 504.79 388.29 501.64 389.95 502.24 386.44"/><polygon class={`${clr1}-0`} points="504.79 382.73 505.63 384.45 507.52 384.72 506.15 386.06 506.48 387.94 504.79 387.05 503.09 387.94 503.42 386.06 502.05 384.72 503.94 384.45 504.79 382.73"/><polygon class={`${clr1}-9`} points="1289.78 542.74 1282.52 535.65 1292.56 534.19 1297.05 525.09 1301.54 534.19 1311.58 535.65 1304.31 542.74 1306.03 552.74 1297.05 548.02 1288.07 552.74 1289.78 542.74"/><polygon class={`${clr1}-8`} points="1290.96 542.35 1284.87 536.42 1293.29 535.2 1297.05 527.57 1300.81 535.2 1309.22 536.42 1303.13 542.35 1304.57 550.73 1297.05 546.78 1289.52 550.73 1290.96 542.35"/><polygon class={`${clr1}-6`} points="1292.14 541.97 1287.23 537.19 1294.01 536.2 1297.05 530.05 1300.08 536.2 1306.86 537.19 1301.96 541.97 1303.11 548.72 1297.05 545.54 1290.98 548.72 1292.14 541.97"/><polygon class={`${clr1}-4`} points="1293.32 541.59 1289.59 537.95 1294.74 537.2 1297.05 532.53 1299.35 537.2 1304.5 537.95 1300.78 541.59 1301.66 546.72 1297.05 544.29 1292.44 546.72 1293.32 541.59"/><polygon class={`${clr1}-2`} points="1294.5 541.2 1291.95 538.72 1295.47 538.21 1297.05 535.01 1298.62 538.21 1302.14 538.72 1299.6 541.2 1300.2 544.71 1297.05 543.05 1293.9 544.71 1294.5 541.2"/><polygon class={`${clr1}-0`} points="1297.05 537.5 1297.89 539.21 1299.79 539.49 1298.42 540.82 1298.74 542.7 1297.05 541.81 1295.35 542.7 1295.68 540.82 1294.31 539.49 1296.2 539.21 1297.05 537.5"/><polygon class={`${clr1}-9`} points="1053.15 207.17 1045.88 200.09 1055.93 198.63 1060.42 189.53 1064.91 198.63 1074.95 200.09 1067.68 207.17 1069.4 217.17 1060.42 212.45 1051.43 217.17 1053.15 207.17"/><polygon class={`${clr1}-8`} points="1054.33 206.79 1048.24 200.86 1056.65 199.63 1060.42 192.01 1064.18 199.63 1072.59 200.86 1066.5 206.79 1067.94 215.17 1060.42 211.21 1052.89 215.17 1054.33 206.79"/><polygon class={`${clr1}-6`} points="1055.51 206.41 1050.6 201.62 1057.38 200.64 1060.42 194.49 1063.45 200.64 1070.23 201.62 1065.32 206.41 1066.48 213.16 1060.42 209.97 1054.35 213.16 1055.51 206.41"/><polygon class={`${clr1}-4`} points="1056.69 206.02 1052.96 202.39 1058.11 201.64 1060.42 196.97 1062.72 201.64 1067.87 202.39 1064.14 206.02 1065.02 211.15 1060.42 208.73 1055.81 211.15 1056.69 206.02"/><polygon class={`${clr1}-2`} points="1057.87 205.64 1055.32 203.16 1058.84 202.64 1060.42 199.45 1061.99 202.64 1065.51 203.16 1062.97 205.64 1063.57 209.15 1060.42 207.49 1057.27 209.15 1057.87 205.64"/><polygon class={`${clr1}-0`} points="1060.42 201.93 1061.26 203.65 1063.16 203.92 1061.79 205.26 1062.11 207.14 1060.42 206.25 1058.72 207.14 1059.05 205.26 1057.68 203.92 1059.57 203.65 1060.42 201.93"/><polygon class={`${clr1}-9`} points="434.12 394.41 428.24 388.68 436.37 387.5 440 380.14 443.63 387.5 451.76 388.68 445.88 394.41 447.27 402.5 440 398.68 432.73 402.5 434.12 394.41"/><polygon class={`${clr1}-8`} points="435.08 394.1 430.15 389.3 436.96 388.31 440 382.15 443.04 388.31 449.85 389.3 444.92 394.1 446.09 400.88 440 397.68 433.91 400.88 435.08 394.1"/><polygon class={`${clr1}-6`} points="436.03 393.79 432.06 389.92 437.55 389.12 440 384.15 442.45 389.12 447.94 389.92 443.97 393.79 444.91 399.26 440 396.68 435.09 399.26 436.03 393.79"/><polygon class={`${clr1}-4`} points="436.98 393.48 433.97 390.54 438.14 389.94 440 386.16 441.86 389.94 446.03 390.54 443.02 393.48 443.73 397.63 440 395.67 436.27 397.63 436.98 393.48"/><polygon class={`${clr1}-2`} points="437.94 393.17 435.88 391.16 438.73 390.75 440 388.17 441.27 390.75 444.12 391.16 442.06 393.17 442.55 396.01 440 394.67 437.45 396.01 437.94 393.17"/><polygon class={`${clr1}-0`} points="440 390.17 440.68 391.56 442.22 391.78 441.11 392.86 441.37 394.39 440 393.67 438.63 394.39 438.89 392.86 437.78 391.78 439.32 391.56 440 390.17"/><polygon class={`${clr1}-9`} points="1155.81 334.46 1149.93 328.74 1158.06 327.55 1161.69 320.19 1165.32 327.55 1173.45 328.74 1167.57 334.47 1168.96 342.56 1161.69 338.74 1154.42 342.56 1155.81 334.46"/><polygon class={`${clr1}-8`} points="1156.77 334.15 1151.84 329.36 1158.65 328.37 1161.69 322.2 1164.73 328.37 1171.54 329.36 1166.61 334.16 1167.78 340.93 1161.69 337.73 1155.6 340.93 1156.77 334.15"/><polygon class={`${clr1}-6`} points="1157.72 333.84 1153.75 329.98 1159.24 329.18 1161.69 324.21 1164.14 329.18 1169.63 329.98 1165.66 333.85 1166.6 339.31 1161.69 336.73 1156.78 339.31 1157.72 333.84"/><polygon class={`${clr1}-4`} points="1158.67 333.54 1155.66 330.6 1159.83 329.99 1161.69 326.21 1163.55 329.99 1167.72 330.6 1164.71 333.54 1165.42 337.69 1161.69 335.73 1157.96 337.69 1158.67 333.54"/><polygon class={`${clr1}-2`} points="1159.63 333.23 1157.57 331.22 1160.42 330.8 1161.69 328.22 1162.97 330.8 1165.81 331.22 1163.75 333.23 1164.24 336.06 1161.69 334.72 1159.14 336.06 1159.63 333.23"/><polygon class={`${clr1}-0`} points="1161.69 330.23 1162.38 331.61 1163.91 331.84 1162.8 332.92 1163.06 334.44 1161.69 333.72 1160.32 334.44 1160.58 332.92 1159.48 331.84 1161.01 331.61 1161.69 330.23"/><polygon class={`${clr1}-9`} points="308.26 265.13 302.38 259.4 310.51 258.22 314.14 250.86 317.77 258.22 325.89 259.4 320.02 265.13 321.4 273.22 314.14 269.4 306.87 273.22 308.26 265.13"/><polygon class={`${clr1}-8`} points="309.21 264.82 304.29 260.02 311.09 259.03 314.14 252.86 317.18 259.03 323.99 260.02 319.06 264.82 320.22 271.6 314.14 268.4 308.05 271.6 309.21 264.82"/><polygon class={`${clr1}-6`} points="310.17 264.51 306.2 260.64 311.68 259.84 314.14 254.87 316.59 259.84 322.08 260.64 318.11 264.51 319.04 269.97 314.14 267.4 309.23 269.98 310.17 264.51"/><polygon class={`${clr1}-4`} points="311.12 264.2 308.11 261.26 312.27 260.66 314.14 256.88 316 260.66 320.17 261.26 317.15 264.2 317.87 268.35 314.14 266.39 310.41 268.35 311.12 264.2"/><polygon class={`${clr1}-2`} points="312.08 263.89 310.01 261.88 312.86 261.47 314.14 258.88 315.41 261.47 318.26 261.88 316.2 263.89 316.69 266.73 314.14 265.39 311.59 266.73 312.08 263.89"/><polygon class={`${clr1}-0`} points="314.14 260.89 314.82 262.28 316.35 262.5 315.25 263.58 315.51 265.11 314.14 264.39 312.77 265.11 313.03 263.58 311.92 262.5 313.45 262.28 314.14 260.89"/><polygon class={`${clr1}-9`} points="1300.98 267.59 1295.11 261.86 1303.23 260.68 1306.86 253.31 1310.5 260.68 1318.62 261.86 1312.74 267.59 1314.13 275.68 1306.86 271.86 1299.6 275.68 1300.98 267.59"/><polygon class={`${clr1}-8`} points="1301.94 267.28 1297.01 262.48 1303.82 261.49 1306.86 255.32 1309.91 261.49 1316.71 262.48 1311.79 267.28 1312.95 274.05 1306.86 270.85 1300.78 274.05 1301.94 267.28"/><polygon class={`${clr1}-6`} points="1302.89 266.97 1298.92 263.1 1304.41 262.3 1306.86 257.33 1309.32 262.3 1314.8 263.1 1310.83 266.97 1311.77 272.43 1306.86 269.85 1301.95 272.43 1302.89 266.97"/><polygon class={`${clr1}-4`} points="1303.85 266.66 1300.83 263.72 1305 263.11 1306.86 259.33 1308.73 263.11 1312.89 263.72 1309.88 266.66 1310.59 270.81 1306.86 268.85 1303.13 270.81 1303.85 266.66"/><polygon class={`${clr1}-2`} points="1304.8 266.35 1302.74 264.34 1305.59 263.92 1306.86 261.34 1308.14 263.92 1310.99 264.34 1308.92 266.35 1309.41 269.18 1306.86 267.84 1304.31 269.18 1304.8 266.35"/><polygon class={`${clr1}-0`} points="1306.86 263.35 1307.55 264.73 1309.08 264.96 1307.97 266.04 1308.23 267.56 1306.86 266.84 1305.49 267.56 1305.75 266.04 1304.65 264.96 1306.18 264.73 1306.86 263.35"/><polygon class={`${clr1}-9`} points="1133.79 92.07 1127.91 86.34 1136.04 85.16 1139.67 77.8 1143.3 85.16 1151.43 86.34 1145.55 92.08 1146.93 100.17 1139.67 96.35 1132.4 100.17 1133.79 92.07"/><polygon class={`${clr1}-8`} points="1134.75 91.76 1129.82 86.96 1136.63 85.98 1139.67 79.81 1142.71 85.98 1149.52 86.96 1144.59 91.76 1145.76 98.54 1139.67 95.34 1133.58 98.54 1134.75 91.76"/><polygon class={`${clr1}-6`} points="1135.7 91.45 1131.73 87.58 1137.22 86.79 1139.67 81.82 1142.12 86.79 1147.61 87.58 1143.64 91.45 1144.58 96.92 1139.67 94.34 1134.76 96.92 1135.7 91.45"/><polygon class={`${clr1}-4`} points="1136.65 91.14 1133.64 88.2 1137.81 87.6 1139.67 83.82 1141.53 87.6 1145.7 88.2 1142.69 91.14 1143.4 95.3 1139.67 93.34 1135.94 95.3 1136.65 91.14"/><polygon class={`${clr1}-2`} points="1137.61 90.83 1135.55 88.83 1138.4 88.41 1139.67 85.83 1140.94 88.41 1143.79 88.83 1141.73 90.83 1142.22 93.67 1139.67 92.33 1137.12 93.67 1137.61 90.83"/><polygon class={`${clr1}-0`} points="1139.67 87.84 1140.35 89.22 1141.89 89.45 1140.78 90.52 1141.04 92.05 1139.67 91.33 1138.3 92.05 1138.56 90.52 1137.45 89.45 1138.98 89.22 1139.67 87.84"/><polygon class={`${clr1}-9`} points="1146.24 500.21 1139.67 493.8 1148.75 492.48 1152.81 484.25 1156.88 492.48 1165.96 493.8 1159.39 500.21 1160.94 509.25 1152.81 504.98 1144.69 509.25 1146.24 500.21"/><polygon class={`${clr1}-8`} points="1147.31 499.86 1141.8 494.49 1149.41 493.39 1152.81 486.49 1156.22 493.39 1163.82 494.49 1158.32 499.86 1159.62 507.44 1152.81 503.86 1146.01 507.44 1147.31 499.86"/><polygon class={`${clr1}-6`} points="1148.37 499.51 1143.94 495.19 1150.07 494.3 1152.81 488.74 1155.56 494.3 1161.69 495.19 1157.25 499.51 1158.3 505.62 1152.81 502.74 1147.33 505.62 1148.37 499.51"/><polygon class={`${clr1}-4`} points="1149.44 499.17 1146.07 495.88 1150.73 495.2 1152.81 490.98 1154.9 495.2 1159.56 495.88 1156.19 499.17 1156.98 503.81 1152.81 501.62 1148.65 503.81 1149.44 499.17"/><polygon class={`${clr1}-2`} points="1150.51 498.82 1148.2 496.57 1151.39 496.11 1152.81 493.22 1154.24 496.11 1157.42 496.57 1155.12 498.82 1155.66 501.99 1152.81 500.5 1149.96 501.99 1150.51 498.82"/><polygon class={`${clr1}-0`} points="1152.81 495.47 1153.58 497.02 1155.29 497.27 1154.05 498.47 1154.34 500.18 1152.81 499.37 1151.28 500.18 1151.57 498.47 1150.34 497.27 1152.05 497.02 1152.81 495.47"/></svg>
