<svg xmlns="http://www.w3.org/2000/svg" viewBox="0 0 474.95 409.23"><polygon class="brown-2" points="217.77 0.63 52.12 64 218.23 133.2 279.38 158.67 431.48 61.75 217.77 0.63"/><path class="brown-3" d="M279.38,158.67s-22.7-51.26-23-53.28-1.71-2.43-2.52-3.64-.2-3.84-1.44-6.47S217.78,4.06,217.78,4.06h0c-1.31.12-6.77,3.13-10.18,4.27s-16,6.31-20.4,8.24-42,15.91-45.09,17.18-11.3,3.49-12,4.31a4.81,4.81,0,0,1-3.75,1.59c-1.9.07-11.11,3.82-13.46,4.78S98.1,50.62,96.41,51a10,10,0,0,0-4.69,2.21c-1,1-9.89,3-12.15,4s-18.1,7.39-23,8.7L218.23,133.2h0Z"/><path class="brown-4" d="M218.23,133.2l38.3,16a3.3,3.3,0,0,0-.81-1.8c-.78-1-1-.79-1.23-1.58s-1.37-1.62-2-2.21a3,3,0,0,1-1-2.11,4,4,0,0,0-1-2.61c-.73-.73-2.21-7.56-1.22-7.91s5.45,1.67,5.5,1.23-6.73-2.22-8-2.67-1.71-2.9-.94-3,5.75,2,5.71,1.47-7-2.69-8.56-3.34-2.85-2.37-2.28-2.94,7.37,2.61,7.45,2-11.45-4.32-12-4.81-1.34-2.61-.16-2.77,7.34,3.26,7.5,2.49-21.11-8.93-22-9.38a2.19,2.19,0,0,1-1-2.32c.21-.73,3.3.65,5.06,1.22s10.14,4.32,10.18,3.34-14.75-5.34-15.08-6-.41-1.75.3-1.87,7.23,2.85,7.23,2.23-7.35-2.7-7.62-3.48-.16-1.88.58-2.11,12.12,5,12.2,4.22-10.24-4.38-11.53-5-2.82-2.77-.71-3,18.14,7.63,18.24,6.29-18.77-7-18.4-8-.44-1.23-.32-2,13.83,5.26,13.83,4.32-14.12-5.09-13.77-6-.35-2.56-.35-3.37.56-2.1.26-2.91-.46-1-.28-3.51-.22-2.73-.54-6.71.13-19.16-1.75-22.53l-.17-48.06c-2,2.48-2.17,22.84-2,25.75s.73,17.29,0,18.76-.11,2.14,0,2.8-.34,1.48-.37,2.21.63,2,.34,2.44-11.44,5.16-11.32,6.38,10.36-5.13,11.17-4.91-.22,2.14-.15,2.8.45,1.57.08,2.31-14,6.5-14.09,7.78,13.23-6.07,14.13-5.86.3,2-.15,2.6-9.45,4.42-9.5,5.35c0,.6,8.75-4.15,9.3-3.84s-.25,1.86-.2,2.21S202.93,76.35,203,77s11.27-5,11.72-5,.75.6.4,2-14.4,7-14.39,8.19,13-6.78,14-6.57-.08,2.07-.23,2.63-22.57,12.22-22.46,13,13.86-7,16.06-8.22,6.11-3.49,6.8-3.06-.14,1.8-.71,2.32-25,13.64-25,14.65,24.15-13.86,24.91-13.61-.35,1.63-.24,2.49-9.23,5.49-9.17,6.15,8.75-4.62,9.21-4.46-.61,3.2-1.22,4.12-14.32,6.45-14,7.78c.12.5,7.13-3.63,8.17-3.41s.82,2-.79,3.1-16.67,8.24-16.67,9.11,8-4.49,9.85-4.09,1.3,1.5-2,3.91-18,8.77-18,8.77L217.77,133h0l.46.2Z"/><path class="brown-2" d="M279.38,158.67,52.12,64,66.55,224.33h0a17.86,17.86,0,0,0,1.63,6.78c1.34,3.5-.43,6.55,0,11.36h0l3.89,45.65L279,408l3.13.64,2.72-1.41.5-252.32Z"/><path class="brown-3" d="M279.38,158.67h0s0,.56,0,1.33L65.5,194.73l.77,26.49c4.74,2.4,48.68,26.53,54,29.63s34.29,17.26,36.71,19,4.57,2.11,4.19,6.36a117.87,117.87,0,0,0-.16,12.17c.05,2.11.71.5.71-2.4s.78-6.57.69-7.93.91-4.19,2.81-2.93S200,292.53,203,293.53s12.9,4.85,16,5.86,16.59,7.74,20.12,8.58,19.55,7.86,26.27,11.4,10.1,6.75,15.48,7.39h0a9.53,9.53,0,0,0,.61,2.81,7.24,7.24,0,0,1,.08,3.6,6.09,6.09,0,0,0,.09,3.5,5.75,5.75,0,0,1,0,3.82,3.77,3.77,0,0,0-.11,2.67,7.2,7.2,0,0,1,0,3.22,7.52,7.52,0,0,0,.07,3.39,4.18,4.18,0,0,1,.11,2.92,6.33,6.33,0,0,0-.06,3.54,13.34,13.34,0,0,0,.87,2.26c.32,1,0,1.39-.24,2.3a5,5,0,0,0,.46,3.09c.53,1.31-.14,4.4-.5,5.47s-.1,3.82,0,5.31-.59,1.53-.57,3,.48,1.67.62,3.11-.57,1.93-.55,3.42.59,1.93.68,3.16-.63,1.58-.61,2.89.61,1.8.69,3.07-.64,1.62-.63,3,1,2,.5,3.72.19,2.06.36,3.91-1.58,2.2-3.45,1.32-13.52-7.74-14.58-8.36-7.92-4.66-9.68-5.72S249,388.9,247.29,388s-6.94-5.11-8.62-6.07-3-3.79-4.13-4.4-3.17.7-5.37,0-3.08-3.08-4.57-4-17.51-9.24-19.27-10.29a21.66,21.66,0,0,1-5.1-3.87c-1.14-1.41-7.21-4.4-9.32-4.84s-22-12.23-23.14-12.85-4-1.93-4-3.16.5-3,0-4.05-.55-7.83-.64-9.06-.79-2.64-.68.35.77,13.11-.64,13.11-1.23-2.55-2.5-3.08-4.45-1.41-5.59-2.46-15.57-9.41-17.95-10.91-6.33-4.05-7.74-4.13-3.78-1-4.4-1.85-.44-2.2-.79-2.72-1.49-.18-2.46,0-10.47-5.45-11.53-6.24-10.73-6.25-12.22-6.95a84.33,84.33,0,0,1-8.36-5.28,8,8,0,0,0-2.46-1.15c-1-.44-1.06-.88-1.59-1.49s-2.28-.62-3.16-.79-1.59-1.32-2-2.2-2.37-1.5-4.31-2.29S73.29,281.69,73,279a45.46,45.46,0,0,0-2.65-10.66l1.68,19.75L279,408c3.14,1.81,5.85-.77,5.85-.77l134.6-128.13,12-217.31Z"/><path class="brown-4" d="M424.48,188.05l-7.77,6.26a4.89,4.89,0,0,1,0,4.35c-1.08,2.64-12.27,9.31-12.27,10.71s11.46-9.14,12.92-8.3.21,4.17-.7,5.21-20.43,15.94-20.34,17.45S414.6,209.1,416.56,209s1.35,4.58-1.86,7.09-25.18,19.16-25.18,20.77S410.09,220,412.8,220s-.1,5.27-3,7.65S395.54,237.93,395.64,239s13.14-9.78,14.25-9.26.64,4.42-2.89,7.23-18.19,13.65-18.14,14.75,13.7-11.15,16.21-11.8,1.4,3.77-.6,5.88-23.58,18.67-23.38,20,19.6-16.46,21.69-16.86-.42,6.32-2.13,8-29.28,23.5-29.51,25.44,24-20.47,26.67-21-.41,6.36-3.36,9.09-39.22,32.62-39.22,34.45,35.12-30.73,37.74-31.06-4.43,9.8-8.87,13.44-47.29,42-47.29,43.08,32.63-29.84,34.79-29.93-3,9.13-8.76,14.7S324,349.66,324.19,351.37s30.24-28.86,33.54-29.43-2.73,9.48-8,13.66-36.84,32.61-36.95,34.09,28.08-25.53,30.7-27.2-8,13.21-12.85,17.08S314,375.49,311.46,378.9s-3.41,2.61-5.12,3.52-2.27,2.39-3.07,3.41-3.18,4.26-4.55,4.75-4.32,4.59-5.22,5.72-6.44,5.33-8.17,7.38-1.57,4.06-3,4.81a6,6,0,0,0,2.52-1.3l134.6-128.13Z"/><path class="stroke" d="M65.5,212.66l1,11.67h0a17.86,17.86,0,0,0,1.63,6.78c1.34,3.5-.43,6.55,0,11.36h0l3.89,45.65L279,408c3.14,1.81,5.85-.77,5.85-.77l134.6-128.13,12-217.31L279.38,158.67"/><path class="brown-2" d="M279.4,160.74s34,62.26,37.09,64.62,2.36,4.71,2.88,6.8,9.46,31.37,9.46,31.37l2.16-.15,143.34-115.5s-6.43-21.76-10.06-27.52-32.8-58.61-32.8-58.61L279.38,158.67Z"/><path class="stroke" d="M431.47,61.75,217.77.62S53.57,62.41,52.12,64"/><path class="brown-2" d="M52.12,64S2.64,173.1,1.24,176.16s0,4.16,0,4.16,192.26,96.83,196.1,98.37,6.92,2.05,11.79,2.79a26,26,0,0,0,8.36,0l61.89-119.76v-3.05Z"/><path class="brown-3" d="M279.38,161.72v-3.05l-1.05-.44c-2.5,4-5.24,7.48-5.54,9.76s-.76,2.28-2,3.5-3.77,6.67-4.8,9-.39,3.49-2.05,4.47-1.65,2.63-2.36,3.74-17,34.32-18.78,36.45a44.69,44.69,0,0,0-4.58,7.58c-1,1.81-8,16.72-9,18.3s-2.05,2.37-2.28,3.87a7.68,7.68,0,0,1-1.5,3.94c-1,1.34-6.63,13.34-7.81,14.92s-2,2.28-2.77,2.21-1.34-1.27-2.36-.56-4.18,3.19-6.66,3.23-4.86-.72-6.7-.58a16.59,16.59,0,0,1-6-1.36c2.44,1.2,3.91,1.91,4.21,2,3.85,1.54,6.92,2.05,11.79,2.79a26,26,0,0,0,8.36,0Z"/><path class="brown-4" d="M277.8,161.31c-.28-.46-1.11-.2-1.26.91s.2,2.36-.6,2.81-2.06.76-2,2.06-.56,2.12.3,1.86,1.76-1.71,2.06-2.41S279,163.22,277.8,161.31Z"/><path class="brown-4" d="M273.29,170c-.35,0-1.26.84-.52,1S273.92,170,273.29,170Z"/><path class="brown-4" d="M272.35,171.75c-.49,0-1.61,1.43-1.71,2.27s-1.16,3-1.23,3.46.46-.24.67-.84a7.85,7.85,0,0,1,1.53-2.79C272.21,173.46,272.84,171.79,272.35,171.75Z"/><path class="brown-4" d="M269.13,176.26c-.38.17-1.05,1.37-.73,1.37S269.76,176,269.13,176.26Z"/><path class="brown-4" d="M268.82,178.81c-.31.08-1.26.35-1.36,1.05s-.24.84.16.94S269.43,178.65,268.82,178.81Z"/><path class="brown-4" d="M267,181.92c-.5.2-.91,1-.32.94S267.74,181.61,267,181.92Z"/><path class="brown-4" d="M266.36,184c-.63.16-1.09.71-.63.94S267,183.83,266.36,184Z"/><path class="brown-4" d="M265,185.86c-.55.13-1.42.51-1.58,1.27s.41,1.53-.25,2.29-1.22.56-1.58,1.12a1.78,1.78,0,0,0,0,1.67c.21.36,1.62.21,1.6-.76a5.73,5.73,0,0,1,1.81-3.4C265.63,187.69,265.61,185.71,265,185.86Z"/><path class="brown-4" d="M261.35,193.08c-1.18.3-2,1.43-1.21,1.63S261.9,193,261.35,193.08Z"/><path class="brown-4" d="M259.82,196.05c-.63-.2-1.65.94-1.65,1.65s.44,2.52-.82,3.23-1.81,1.49-1.81,2.53-.27,2.36-1.26,2.85a3.19,3.19,0,0,0-1.7,2.47c-.06.87-.5,1.86.33,1.81s2.71-2.82,3.33-4.1S261.91,196.71,259.82,196.05Z"/><path class="brown-4" d="M251.81,211.74c-.71,0-2,1.31-1.1,1.75S252.52,211.74,251.81,211.74Z"/><path class="brown-4" d="M250.39,214.37c-.17-.06-1.1,1-.33,1S251,214.59,250.39,214.37Z"/><path class="brown-4" d="M249.45,216.29a2.47,2.47,0,0,0-1.48,2.14c0,1.09.22,1.59-.6,2s-1.65.6-1.65,1.86.33,2-.76,2.63-1.27.5-1.43,2,.18,2.26.77,1.87,3.27-5,3.86-6.71,1.87-2.69,2.1-3.6S250.14,216,249.45,216.29Z"/><path class="brown-4" d="M242.44,232.29a2.74,2.74,0,0,0-3.22,1.52c-.6,1.36.08,3.48-1,4.33s-2.46,1.61-2.63,3.14-.34,3.65-1.78,4.58a6.09,6.09,0,0,0-2.63,4.84c.08,1.78-1,2.29-1.11,3.57s.39,2.14.95,1.06,11.44-21.43,11.44-21.43Z"/><path class="brown-4" d="M229.14,253.76c-1-.1-2.35,1.47-1.12,2.06S230.16,253.86,229.14,253.76Z"/><path class="brown-4" d="M228.55,257.94c-1.64.24-2.47,2-2.57,3.06s.26,2-1.53,2.53-2.15,2.26-1.94,3.89-.72,1-1.33,2.35a7.48,7.48,0,0,0-.81,3.87c.2.82,6-9.36,7.15-11.58S229.1,257.86,228.55,257.94Z"/><path class="brown-4" d="M218.74,275.17c-1.33.11-2.45,1.74-1.84,2.76S220,275.07,218.74,275.17Z"/><path class="brown-4" d="M216.19,279.66c-.91-1.58-2.09-1.87-2.15-3s-2.44.57-2.65,2.21-2,.71-2.75.4-3.37-.36-3,.54,3.67,2,6.12,2S217,281.09,216.19,279.66Z"/><path class="stroke" d="M52.12,64S2.64,173.1,1.24,176.16s0,4.16,0,4.16,192.26,96.83,196.1,98.37,6.92,2.05,11.79,2.79a26,26,0,0,0,8.36,0l61.89-119.76v-3.05Z"/><path class="brown-3" d="M211,273c-.36-1.74-4.81,1-7.6,1.11s-10.68-2.84-10.68-1.7,5.95,2,9.66,2.75S211.52,275.61,211,273Z"/><path class="brown-3" d="M214.81,269.11c-1.19-.18-3.8,1.3-1.67,2.23S217.32,269.48,214.81,269.11Z"/><path class="brown-3" d="M217.9,268.36c1.38-.23,1.65-3.06,1.93-4.27s1.95-2.69,1.21-2.78-2.28,3.25-3.14,4.08S216.81,268.55,217.9,268.36Z"/><path class="brown-3" d="M222.06,259.45c-.47-.56.18-2.69.93-2.23S222.52,260,222.06,259.45Z"/><path class="brown-3" d="M186.3,266.41c0,.74-2,.83-2,0S186.3,265.66,186.3,266.41Z"/><path class="brown-1" d="M52.33,71.64C51,71.52,49.54,73.85,49.39,75s-1.62,3.38-1.91,4.56,1-.73,1.79-2.16a12,12,0,0,1,2.41-3C52.44,73.73,53.06,71.7,52.33,71.64Z"/><path class="brown-1" d="M46.81,81.62c-.58,0-1.93,1.35-1.16,1.74S47.39,81.62,46.81,81.62Z"/><path class="brown-1" d="M44.63,86.58c-.35-.68-1.7,1.84-1.41,2.22S45.26,87.84,44.63,86.58Z"/><path class="brown-1" d="M58.44,69.12c-1.08-.28-2.42.45-1.7,1.35s3.13.72,5.1,1.66,4.92,1.74,5.1,1.11S60.14,69.57,58.44,69.12Z"/><path class="brown-1" d="M69.81,75c-.38.34.89,1.43,1.79.81S70.79,74.09,69.81,75Z"/><path class="brown-1" d="M74.28,76.42c-.16.28,1.88,1.7,2.6,1.34S74.82,75.53,74.28,76.42Z"/><path class="brown-1" d="M54.72,67.69c-.85-.27-1.79-.29-2.07.35s-1.19,3,.3,2.13,1.7-1.49,2.27-1.63S55.43,67.91,54.72,67.69Z"/><path class="brown-1" d="M79.6,78.34c-.29.46,1.63,1.36,2.65,1.6s5.56,3,5.9,2.55-4.14-2.11-5-3.13S80.42,77.05,79.6,78.34Z"/><path class="brown-1" d="M92.57,83.4c-1.23.85,3.77,2.63,4.31,2.2S93.11,83,92.57,83.4Z"/><path class="brown-1" d="M105.32,88.87c-.32.71,1.62,1.36,1.83.82S105.65,88.16,105.32,88.87Z"/><path class="brown-1" d="M112.64,91.41c-.26.29,4.62,2.9,6.34,2.8S113.39,90.55,112.64,91.41Z"/><path class="brown-3" d="M208.77,269.73c-.94,1.24-11.82-4.49-16.11-6.18s-29.56-12.79-28.9-14.27,25,11.59,28.86,13S210,268.13,208.77,269.73Z"/><path class="brown-3" d="M155.93,245.14c-1.48.83,4.51,4.39,5.2,2.93S156.62,244.75,155.93,245.14Z"/><path class="brown-3" d="M149.32,243.08c-.27.94,2.89,1.91,3.27,1.33S149.59,242.15,149.32,243.08Z"/><path class="brown-3" d="M210.87,263.15c.75-.64-14.39-6.25-17.8-8.36s-13.43-6.53-14-5.43,9.26,5.73,12.63,7S209.84,264,210.87,263.15Z"/><path class="brown-3" d="M154.25,252c-.56.69,28,13.88,28.68,12.77s-15.89-7.61-18.79-9.16S155,251.13,154.25,252Z"/><path class="brown-3" d="M188.22,267.47c-.82.82,3.29,4.26,4.09,3.29S188.76,266.93,188.22,267.47Z"/><path class="brown-1" d="M55.32,75.07c-.64,1.69,9.82,4.91,10.38,4C66.15,78.35,55.94,73.45,55.32,75.07Z"/><path class="brown-2" d="M69.42,229.59c-.64.5.6,3.71,1.21,4.85s1.82,1.35,2,.34-.94-1.42-1.58-2.9S70,229.12,69.42,229.59Z"/><path class="brown-2" d="M68.54,226.91c-.23,0-.35,1.41.27,1.5S69,227,68.54,226.91Z"/><path class="brown-1" d="M70.92,236.89c-1-.26-1.69,2.48-1.13,3S72.75,237.37,70.92,236.89Z"/><path class="brown-3" d="M161.47,291.85c-.58,0-.6,7.5,0,7.5S161.9,291.85,161.47,291.85Z"/><path class="brown-3" d="M161.85,302.47c-.78.17-.48,2.53,0,2.53S162.63,302.3,161.85,302.47Z"/><path class="brown-3" d="M161.85,307.28c-.68.28-.82,3,0,2.79S163.31,306.69,161.85,307.28Z"/><path class="brown-3" d="M272.39,326.36c.18-1.2-37.46-17.36-40.33-17.72s13.83,6.59,18.27,8.47S272.17,327.9,272.39,326.36Z"/><path class="brown-3" d="M230,307.67c.37-.82-6.73-3.36-6.82-2.67S229.68,308.5,230,307.67Z"/><path class="brown-3" d="M219.83,303.21c0-.74-3.06-2.06-3.1-1.24S219.83,304,219.83,303.21Z"/><path class="brown-3" d="M214.54,300.81c0-.74-2.11-1.4-2.21-.82S214.54,301.56,214.54,300.81Z"/><path class="brown-3" d="M278.51,335.24c-.37-1.69-9.91-5.26-9.84-4.14S278.89,336.93,278.51,335.24Z"/><path class="brown-3" d="M278.53,328.43c.12-1.15-2.19-2.3-2.28-1.24S278.4,329.58,278.53,328.43Z"/><path class="brown-3" d="M278.87,342.2c0-1.07-4.07-2.66-4.07-1.87S278.87,343.26,278.87,342.2Z"/><path class="brown-3" d="M278.87,347.16c-.16-1.07-2.35-.48-2,0S279,348.06,278.87,347.16Z"/><path class="brown-3" d="M278.87,351.71c-.15-.61-1.65-.34-1.48.42S279.08,352.54,278.87,351.71Z"/><path class="brown-3" d="M278.89,400.28c.25-1.94-5.24-2.16-5.29-1.25S278.65,402.22,278.89,400.28Z"/><path class="brown-3" d="M278.13,396c-.5-.79-2.21-1.36-2.21-.56S278.6,396.67,278.13,396Z"/><path class="brown-3" d="M278.19,391.48c0-.58-5-2.32-5-2S278.22,392.51,278.19,391.48Z"/><path class="brown-3" d="M272.39,397.7c.34-.87-2.14-1-2.14-.55S272.06,398.58,272.39,397.7Z"/><path class="brown-1" d="M321.39,227.68c-1.35.25-1.47,3.86-.55,4.11S322.74,227.43,321.39,227.68Z"/><path class="brown-3" d="M317.42,223.17c-.41.68,2.54,3.54,3,2.92S317.82,222.49,317.42,223.17Z"/><path class="brown-3" d="M321.52,233.2c-.7.42.77,4.41,1.47,4.2S322.22,232.78,321.52,233.2Z"/><path class="brown-3" d="M323.37,239.08c-.54.38.18,2,.6,1.75S324.07,238.59,323.37,239.08Z"/><path class="brown-3" d="M464.27,120.36c-3.62-5.76-32.8-58.61-32.8-58.61l-1.79,1.14s2.47.08,1.79,1.37-6.34,4.8-8,5.77a24.51,24.51,0,0,0-4,2.92c-.7.69-1.67.55-2.85,1.11s-1.88-.28-2.71.9-6.53,5.22-9.59,7.3-10.64,7-11.89,8.06a24.23,24.23,0,0,1-5.21,2.78c-.83.28-3,1.39-3.26,2.23s-1.05,1.46-3,1.66-1.57,1.06-4.82,3.38S332.56,128.2,328,131.06,290.28,155.26,289,156a15.88,15.88,0,0,0-3.22,2.75c-.63.63-1.67.32-2.14.67s-.36,1.67.35,3,5.29,10,8.88,16.42,8.86,15.58,9.31,17.23a15.24,15.24,0,0,0,2.69,5.19c.78.67,1,.33,1.34,2.09s8.9,14.69,9.81,16.23a18.28,18.28,0,0,0,4.27,4.49,7.66,7.66,0,0,1,2.36,5.46,9.24,9.24,0,0,0,.56,4.27,33.2,33.2,0,0,1,1.58,7.08c.1,1.7,5.6,19.81,6.24,22.54l143.34-115.5S467.9,126.12,464.27,120.36Z"/><path class="stroke" d="M279.4,160.74s34,62.26,37.09,64.62,2.36,4.71,2.88,6.8,9.46,31.37,9.46,31.37l2.16-.15,143.34-115.5s-6.43-21.76-10.06-27.52-32.8-58.61-32.8-58.61L279.38,158.67Z"/><path class="brown-1" d="M282.6,158.71c.63.3,8.75-4.9,8.12-5.21S281.77,158.31,282.6,158.71Z"/><path class="brown-1" d="M58,64c-1.61-.62,9.62-5,10.25-4.59S59.29,64.49,58,64Z"/><path class="brown-1" d="M71.59,58.54c-1.41-.39,2.49-2.19,3.22-1.8S72.47,58.79,71.59,58.54Z"/><path class="brown-1" d="M88.87,53.22c-1.6.19,1.17-2.78,2.24-2.78S91,53,88.87,53.22Z"/><path class="brown-1" d="M128.72,35.83c-1.46.36-2.56,2.2-1.19,2.29S130.19,35.46,128.72,35.83Z"/><path class="brown-1" d="M163.11,23.45c.64.55,6.09-1.65,5.61-2.11S162.47,22.9,163.11,23.45Z"/><path class="brown-1" d="M171.27,20.15c.74.55,3.12-.74,2.57-1S170.54,19.6,171.27,20.15Z"/><path class="brown-1" d="M219.7,2.86c0,1.06,6.43,2.68,6.81,2.14S219.7,1.94,219.7,2.86Z"/><path class="brown-1" d="M228.14,5.3c-.24.48,1.39.87,1.49.39S228.3,5,228.14,5.3Z"/><path class="brown-1" d="M231.05,6.07c-.13.33,1.35.65,1.45.46S231.18,5.75,231.05,6.07Z"/><line class="stroke" x1="218.23" y1="133.2" x2="217.77" y2="0.63"/><path class="brown-4" d="M469.61,139.57c-.85.07.12,2.67.57,3.62s-.83,4.39,0,4.7,1.78-.76,1.71-1.9S470.37,139.51,469.61,139.57Z"/><path class="brown-4" d="M469,147.64c-.57-.25-1.08,1.84-.31,1.91S469.54,147.89,469,147.64Z"/><path class="brown-4" d="M468.8,144.15c-.53-.07-.3,1.39,0,1.46S469.32,144.21,468.8,144.15Z"/><path class="brown-4" d="M467.45,149.93c-.08-.58-1.34.69-1,1S467.51,150.37,467.45,149.93Z"/><path class="brown-4" d="M465.67,151.64c-.38-.51-4.38,2.8-4,3.37S466.05,152.15,465.67,151.64Z"/><path class="brown-4" d="M468.27,138.16c.55-.26.48-3.19-.36-2.8S467.72,138.42,468.27,138.16Z"/><path class="brown-4" d="M466.92,144.88s-10.73,7.68-10,8.45S467.35,145.5,466.92,144.88Z"/><path class="brown-4" d="M466.38,138.7c-.34-.52-14.4,10.43-13.95,11.08S467,139.57,466.38,138.7Z"/><path class="brown-4" d="M460.2,155.89c-.41-.59-8.47,5.79-8,6.67C452.42,163,460.86,156.84,460.2,155.89Z"/></svg>
