<svg xmlns="http://www.w3.org/2000/svg" viewBox="0 0 296.41 549.86"><g id="Layer_2" data-name="Layer 2"><g id="main"><path class="carton-offwhite-3" d="M296,100.49c-.4-12-42-41-51-47-3-2-3-10-3-18s-2.94-8.24-7.87-9.28h0c-2.09-.6-4.76-1.05-8.13-1.72-12.9-2.58-144-23-152-24s-7,5-7,9,2,15-3,20S1,105.49.46,124C-.85,172.49,13,415.49,24,467.49c0,0,79,51,146,82,58-45,110-102,110-102C288,395.49,297,130.49,296,100.49Z"/><path class="carton-offwhite-4" d="M296,100.49a6.15,6.15,0,0,0-.17-1.24s-1.68-.87-2.06-1.79-7.87-10.85-17.5-18.8a103.65,103.65,0,0,0-19.64-12.84c-1.37-.68-1.6-2.67-2.29-3.43s-2-.62-2.52-1.07a11.3,11.3,0,0,0-2.37-2.07c-1.15-.61-2.6.77-3.67-.15s.08-2.14-3-3.75S240,47.21,240,47.21h0c-.41,7.6-1.83,9.13-6.84,16.28-4.65,6.64-25.47,42.21-42,72.25,10.34,1.95,28.75.39,47-3.86s19.39-7.62,19.86-8.31a3,3,0,0,1,2.88-1.62c1.85,0,2.43-2.54,3.23-3.58s3.24-1.38,4.5-1.61,3.47-2.31,5.08-3.81,5.63-.28,5.63-.28l6.27-4.4c.22,3.72-2.11,5.83-2.76,6.71s-1.65.71-2.83.89-.82,1.23-1.94,2.41-3,.83-4.42,2.18-2.9,3.6-2.74,17.51a95.7,95.7,0,0,0,3.67,24.72c.24,1.57.84,1.06.72,3s-.24,1.43.12,2.51,1.31,1.79,1,3.22-.7,1.46.08,3.4,2.13,5.8,3.87,20.31,1.78,34.33,1.36,36a12.85,12.85,0,0,0-.06,5.27c.3,1.15-.73,1.86-.87,3s1,.93.86,2.89-1.89,7.18-1.3,11.43,2.13,21.37.74,28.17-.82,23.06-.48,24.48-.42,4.33-.59,5.58a7,7,0,0,0,.34,3.5c.41,1.09-.17,2.17-.75,5s1.28,2.68,1.47,5.63-2.26,4.71-1.67,6.81.93-3.33-.67,51.1-29.74,92.81-30.54,93.52-2.47,1.06-2.83,2.56a2.79,2.79,0,0,1-2.3,2.13c-.53,0-1.06-1.59-4.25,3.18s-14.86,15-17.34,17.26-19.56,15.75-21.15,18.67-2.66,1.86-5.13,3.36-5.22,4.43-5.93,6.38-3.6,1.9-6.26,3.53c-7.51,4.59-12,10.24-13,15,58-45,110-102,110-102C288,395.49,297,130.49,296,100.49Z"/><path class="carton-blue-2" d="M240.14,34.49c0-8-4-8-14-10-12.9-2.58-144-23-152-24s-7,5-7,9,2,15-3,20-63,76-63.5,94.5C0,148.66,3.22,223.65,8,298.23H8C39.64,245,62.64,239,87.64,258s52.41,30.7,79.21,23.85h0c.85-59.74,2.43-96.73,2.79-102.85.5-8.5,55.56-104.17,63.5-115.5C240.14,53.49,240.14,54.49,240.14,34.49Z"/><path class="carton-blue-3" d="M296,100.49c-.4-12-42-41-51-47-3-2-3-10-3-18s-2.94-8.24-7.87-9.28l2.51,1h0c-1.64-.09-1.41.75.07,3.32-1,.5-3.4-.43-4.89.14s-2.84.07-6.31-.64-23.11-4.18-25.31-4.53-2.13.93-3.9.53-1-1.17-2.41-1.67-1.77,1-3.05.57-.21-1.06-1.7-1.42-65.14-10.31-69.47-10.79-5,.77-7,0-1.41-1.24-2.48-1.5-.71.51-1.77.41.07-.23-2.12-.73S72,5.9,69.93,5.58c-1.24-.2-1-2.05-2.72-1.69a12.38,12.38,0,0,0-.28,2.89A2.71,2.71,0,0,0,68.57,7c3.06-.41,51.31,7.68,58.36,8.69s14.12,2,15.88,1.51,2.38.79,3.22,1.14,1.8-.56,3.33,0,1.25,2.08,2.5,1,4.44.49,8.26,1.11,66,11.64,69.21,12.3,4-.19,5.28,0a2.66,2.66,0,0,1,2.18,2.45c.05.4.37.44.74.21a17.23,17.23,0,0,1-.5,2.17,17.46,17.46,0,0,1-3.15-1c-1.85-.62-2.47,1.32-5,1.58S201,33.78,199.58,33.52s-2.2.26-3,0-1.5-.79-2.29-1-1.68,1.06-2.47,1-.79-1.23-1.59-1.5-1.06.88-2,.71.44-.8-2-1.77-32.92-5.07-35.46-5.58-2.54,0-3.55.39-.77-1.15-1.7-1.66-.42.93-1.35,1.53-.68-.93-1.18-1.61-1.1-.08-1.78.42-1.1.26-1.95,0a22.32,22.32,0,0,0-6.42-1.94c-4.49-.76-35-5.76-38-6s-4-.85-5-.38-1.52.54-2.07,0-1-.73-1.65-.22-1.69.08-3.21-.76-8-1.27-10.49-1.19-4.49,0-5.18-1.82c0,0,.14,4.85.13,6.77s.49,2.51,1.35,3,5.49,1,8.33,1.52a20.34,20.34,0,0,0,5.89,0,6.53,6.53,0,0,1,2.38,1.13c.6.33,1.19-.33,1.85-.33s.6.79,1.26,1,3.31-.13,5.82.26,62,11.05,62.79,11.14a3.68,3.68,0,0,0,1.56-.22c.49-.09,1.43.67,1.74,1s.85-.05,1.34-.09,1.38.36,1.42.8,1.21.62,1.74.4,1.69,0,5.15.69,58.61,9.76,62,10.3a9.42,9.42,0,0,1,3.83,1.17,4.38,4.38,0,0,0,.44,2.79c1.34,2.43-2.59,5-4.17,6.3S223,74.25,220.7,78s-8.57,14.71-9.91,17.22-1.85,5.8-3,7.86-3.31,2.43-3.57,4.36-3.33,6.92-4,7.43-2.18,1.28-1.92,3.21-.9,1.79-3.34,5.88-15.83,27.73-15.66,28.93a4.93,4.93,0,0,1-1.37,3.63c-.77.68-1.54,1.11-1.11,2s-.34,1.8-1.88,3.17-6.75,13.67-6.92,14.53-.52.94-1.91.68-12.88-4.44-13.82-4.36-13.59-4.36-14.28-4.79a10.74,10.74,0,0,0-4-1c-.86.08-.34-.34-.69-1.37s-1.19.09-2.56,0-13.08-4.1-15.13-4.62a40.8,40.8,0,0,1-6.33-2.47c-.59-.35-1,.08-1.81.46s-.41-1-1.09-1.37-.94.05-1.45,0-1.82-.05-2.31-.89-2.22-1-7.18-2.31-19.67-6.42-22.36-7.34c-1.35-.46-5-1.87-6.17-2.38s-2.41-.29-3.35-.55a11.32,11.32,0,0,1-2.84-1.81c-.77-.54-6-1.14-8.44-1.68A11.64,11.64,0,0,1,46.68,137c-.59-.83-2.12.43-3.15.6a7.35,7.35,0,0,1-4.83-2.22c-1-1.28-8.87-3-10.48-3.91a65.05,65.05,0,0,0-8.42-3c-1.11-.22-6.27-.5-8-1.83a6,6,0,0,0-4-1.69c-1.52-.12-5.39-1.51-7.2-1a.13.13,0,0,0,0,.06C0,148.66,3.22,223.65,8,298.23H8C39.64,245,62.64,239,87.64,258s52.41,30.7,79.21,23.85c18.39-16.82,49.05-38.56,70.23-27.41s51.19-16.4,55.83-29.52C295.1,164.53,296.37,112.78,296,100.49ZM237.59,27.55v.14a5.65,5.65,0,0,0-.58-.36Z"/><path class="carton-blue-4" d="M296,100.49a6.15,6.15,0,0,0-.17-1.24s-1.68-.87-2.06-1.79-7.87-10.85-17.5-18.8a103.65,103.65,0,0,0-19.64-12.84c-1.37-.68-1.6-2.67-2.29-3.43s-2-.62-2.52-1.07a11.3,11.3,0,0,0-2.37-2.07c-1.15-.61-2.6.77-3.67-.15s.08-2.14-3-3.75S240,47.21,240,47.21h0c-.41,7.6-1.83,9.13-6.84,16.28-4.65,6.64-25.47,42.21-42,72.25,10.34,1.95,28.75.39,47-3.86s19.39-7.62,19.86-8.31a3,3,0,0,1,2.88-1.62c1.85,0,2.43-2.54,3.23-3.58s3.24-1.38,4.5-1.61,3.47-2.31,5.08-3.81,5.63-.28,5.63-.28l6.27-4.4c.22,3.72-2.11,5.83-2.76,6.71s-1.65.71-2.83.89-.82,1.23-1.94,2.41-3,.83-4.42,2.18-2.9,3.6-2.74,17.51a95.7,95.7,0,0,0,3.67,24.72c.24,1.57.84,1.06.72,3s-.24,1.43.12,2.51,1.31,1.79,1,3.22-.7,1.46.08,3.4,2.13,5.8,3.87,20.31,1.78,34.33,1.36,36a12.85,12.85,0,0,0-.06,5.27c.3,1.15-.73,1.86-.87,3-.09.67.26.88.54,1.33,5.82-5.56,10.11-11.44,11.64-15.77C295.1,164.53,296.37,112.78,296,100.49Z"/><path class="carton-blue-3" d="M103.87,133.69A35.06,35.06,0,0,0,137,121.86c.59-.77.3-1.94.95-2.48s1,0,1.48-.71l.15-.22c.48-.78,1.52-2.55,2-3.48l.24-.46c.3-.66-.35-1.1,1.12-2.58a34.65,34.65,0,0,0,1.31-4A32.06,32.06,0,0,0,120,68.16c-18.06-3.91-36.47,7.56-41.12,25.62a32.06,32.06,0,0,0,22,39.19C103,133,103.07,132.91,103.87,133.69Z"/><path class="carton-white-2" d="M135.33,75.73h0l0,0a20.9,20.9,0,0,0-1.64-2.11L120.75,56.91c-.06-.09-.13-.17-.19-.25l-.21-.27h0c-3.55-4.47-9-7.49-15.9-8.19C88.14,46.53,70,58.37,64,74.65c-3.27,8.8-2.34,17.09,1.77,23.11h0a19,19,0,0,0,1.52,2l12.82,16.53c.25.34.51.68.78,1l.07.09h0c3.56,4.25,8.89,7.11,15.58,7.79,16.3,1.67,34.42-10.17,40.47-26.45C140.23,90,139.35,81.75,135.33,75.73Z"/><path class="illu-stroke" d="M223.28,79.17C239,82.49,288,96.49,296,100.49"/><path class="carton-blue-1" d="M74.89,8.31c-3.25-.58-5.71-.71-4.75.73s4.32.39,7.65,1,5.78,1.38,5.72,0C83.48,9.34,79,9,74.89,8.31Z"/><path class="carton-blue-1" d="M87.75,10.57c-.51-.21-1.6-.23-1.24.58s1.92.9,2.38.62S88.65,10.92,87.75,10.57Z"/><path class="carton-blue-1" d="M92.1,11.6c-.76-.1-1,.46-.71.76s1.94.55,1.77,0S92.78,11.68,92.1,11.6Z"/><path class="carton-blue-1" d="M99.3,12.16c-1.22.16-.89,1.13-.38,1.26s5,.63,6.36.92,2.9.53,2.48.15a13.72,13.72,0,0,0-4.63-1.24C102.08,13.29,101.15,11.92,99.3,12.16Z"/><path class="carton-blue-1" d="M226,24.49c-12.9-2.58-144-23-152-24-4.53-.57-6.17,1.11-6.75,3.4C68.52.08,73.66,2.82,78.62,3.5s7.49,1.28,7.89,1.12S88.12,3.43,89,3.75s.48,1.43,1.73,1.63a4.6,4.6,0,0,0,2.69-.65,1.7,1.7,0,0,1,1.62.34,7.51,7.51,0,0,0,3.46,1.39c1.81.3,46,7.26,86,13.22s44.32,6.73,48.09,6.16C230.81,25.4,228.6,25,226,24.49Z"/><path class="carton-blue-1" d="M69.39,25c-1.67.3.23,2.15,1.5,1.79s3.83-.58,4.86.14a7.92,7.92,0,0,0,3.87,1.3c1.67.18,5.81-.22,5.5-.81s-3.78-.86-5.14-.77S72.61,24.46,69.39,25Z"/><path class="carton-blue-1" d="M93,28.68c-1.2-.23-1.71.18-1.44.59s2.23,1.48,3.14,1.08S94.4,29,93,28.68Z"/><path class="carton-blue-1" d="M102.37,30.24c-.32.07-.59,1.23,0,1.27s2.32-.54,1.63-.9S103.09,30.09,102.37,30.24Z"/><path class="carton-blue-1" d="M100.38,29.77c-.76.13-1.31.62-1,.89s1.53.27,1.58-.22S100.74,29.71,100.38,29.77Z"/><path class="carton-blue-1" d="M112.57,32c-.74,0-.76.58-.22.9s3.52.36,4.83.5a20.28,20.28,0,0,1,3.79.76c.94.32,1.86-.65,1.19-.66a35,35,0,0,1-6.35-1.1A7,7,0,0,0,112.57,32Z"/><path class="carton-blue-3" d="M231,52.14c-.15-.68-3-1.21-3.88-.66S218.51,50,217.41,50s-2.33.77-1.78,1.05,4.33-.16,6.54.39a30.74,30.74,0,0,1,5.32,1.66C228.6,53.7,231.37,53.7,231,52.14Z"/><path class="carton-blue-3" d="M209.07,49.15c-.66-.11-2,1.11-.89,1.44S210.4,49.37,209.07,49.15Z"/><path class="carton-blue-3" d="M202.27,48.21c-.56-1-4.88-.88-6.21-1s1.11.65,2.55,1S203.27,50,202.27,48.21Z"/><path class="carton-blue-1" d="M65.28,33.41c-1.17-.55-4,2.15-4.58,3.44s-3.57,4.84-4.23,5.79,2.19-.47,3.62-2.66,1.91-3.74,3.66-4.15S66.28,33.88,65.28,33.41Z"/><path class="carton-blue-1" d="M26.34,83.25c-1.05.28-1.4.74-.66,1.24s3-.09,2.47-.62A2,2,0,0,0,26.34,83.25Z"/><path class="carton-blue-1" d="M23.62,87.07a3.59,3.59,0,0,0-2.14,2.22c-.16.91.58,2,1.07,1.24s.33-1.4,1.07-2S24.77,87.07,23.62,87.07Z"/><path class="carton-blue-1" d="M20,91.74c-.81,0-1.6,1.8-.66,2S21.49,91.74,20,91.74Z"/><path class="carton-blue-1" d="M3.83,120.57c-1.12.07-1.68,1.26-.67,1.77s6.3.61,7.39,1.65,5.63,2.46,6.64,2.63,1.34-1.09,0-1.34-7-2.77-8.57-2.86S5.34,120.49,3.83,120.57Z"/><path class="carton-blue-1" d="M22.56,126.64c-1,.33-1.62.82-1.1,1.07s2.47.26,2.88.51,1.23.42.94,0S23.41,126.34,22.56,126.64Z"/><path class="carton-blue-1" d="M28.22,128.47c-.4.18-.28,1.18.39,1.26s10.34,2.44,11.85,3.61,2.85,1.68,2.69.84-3.09-2.54-4.6-3-4.21-1.11-4.55-1.78-3-.34-3.79-.17S29.33,128,28.22,128.47Z"/><path class="carton-blue-1" d="M48.92,135.06c-.64.1-.62,1.13.41,1.65s4,.72,5.05,1.13,3.61,1.55,3.82,1-3-2.06-4.85-2.27S51,134.75,48.92,135.06Z"/><path class="carton-blue-1" d="M63.59,140.93c-1.29-.54-1.34-1.06-.62-1.19a3.86,3.86,0,0,1,2.75,1.19C66,141.46,64.26,141.21,63.59,140.93Z"/><path class="carton-blue-1" d="M68.54,141c-.85-.07-2.24.84-1.33,1.14S70.31,141.1,68.54,141Z"/><path class="illu-stroke" d="M.46,124C-.85,172.49,13,415.49,24,467.49c0,0,79,51,146,82,0,0-3.85-82.45-3.85-188.23S169,187.49,169.46,179,225,74.82,233,63.49c7-10,7-9,7-29,0-8-4-8-14-10-12.9-2.58-144-23-152-24s-7,5-7,9,2,15-3,20S1,105.49.46,124Z"/><path class="carton-blue-3" d="M205.78,99.25c-.84,0-3.32,3.45-1.42,3.45S207.52,99.26,205.78,99.25Z"/><path class="carton-blue-2" d="M6.9,127.54a2.46,2.46,0,0,1,2.39.33c.49.41,1,1,1.4,1.07s.4.82-.34.82S5.5,128.19,6.9,127.54Z"/><path class="carton-blue-2" d="M25.91,133c1,0,.9,2.19,0,1.63S23.19,133,25.91,133Z"/><path class="carton-blue-2" d="M135.69,168.84c-.81,0-1.56,1.34-.55,1.56S138.15,169,135.69,168.84Z"/><path class="carton-white-3" d="M137,98.69a28.54,28.54,0,0,0,1.77-13.51c-.25-.37-5.16-7.6-7.64-11.32s-5.09-6.18-6.31-6.47h0A28.71,28.71,0,0,1,123,80.69c-6,16.28-24.17,28.12-40.47,26.45a27,27,0,0,1-5.27-1.08h0c-.32,4.2,5,8.59,7,10.35,1.19,1.07,6.18,5.25,9.92,8.37.76.15,1.54.27,2.35.35C112.82,126.81,130.94,115,137,98.69Z"/><path class="illu-stroke" d="M77.25,112.59c3.54,4.67,9.2,7.83,16.27,8.55,16.3,1.67,34.42-10.17,40.47-26.45,3.5-9.41,2-18.24-2.83-24.34"/><path class="illu-stroke" d="M135.33,75.73h0l0,0a20.9,20.9,0,0,0-1.64-2.11L120.75,56.91c-.06-.09-.13-.17-.19-.25l-.21-.27h0c-3.55-4.47-9-7.49-15.9-8.19C88.14,46.53,70,58.37,64,74.65c-3.27,8.8-2.34,17.09,1.77,23.11h0a19,19,0,0,0,1.52,2l12.82,16.53c.25.34.51.68.78,1l.07.09h0c3.56,4.25,8.89,7.11,15.58,7.79,16.3,1.67,34.42-10.17,40.47-26.45C140.23,90,139.35,81.75,135.33,75.73Z"/><path class="carton-white-3" d="M96.51,101.68c-1.07.16-.78,2.08,0,1.82s1.63-.78,1.24-1.24S97.36,101.55,96.51,101.68Z"/><path class="carton-white-3" d="M100.42,100.17c-.52.29-.57,1.26,0,1.47s2.1,0,1.59-.73S101.22,99.73,100.42,100.17Z"/><path class="carton-white-3" d="M104.17,98.34a.64.64,0,0,0,0,1.19c.68.28,1.93.34,1.53-.6S105.08,98.06,104.17,98.34Z"/><path class="carton-white-3" d="M107.29,96.58c-.69.47.71,1.42,1.26.74s.44-1.25,1.29-1.59,1.71-.75,1-1.17-1.43-.43-1.71,0A6.49,6.49,0,0,1,107.29,96.58Z"/><path class="carton-white-3" d="M112.17,92c-.63.76.67,1.66,1.12,1.14s1.17-1.09,0-1.44A.86.86,0,0,0,112.17,92Z"/><path class="carton-white-3" d="M115.36,89.2c-.52-.25-1,.89-.55,1.16s1.49.06,1.32-.58S115.8,89.42,115.36,89.2Z"/><path class="carton-white-3" d="M117.13,85.68c-.59,0-1.11,1.1-.5,1.38s1.43.16,1.38-.33S117.84,85.62,117.13,85.68Z"/><path class="carton-white-1" d="M81.06,56.06c-2,1.34-7.16,5-9.61,8.57s1.76.38,2.55-.58,5.15-6.35,8-6.94S83.48,54.47,81.06,56.06Z"/><path class="carton-white-1" d="M89.67,51.48c-.86.4-2.8,1.24-3.39,1.54s-1.15,1-.4,1.44,1.61-.5,2.37-1.26,3,.36,3.18-.74S90.45,51.13,89.67,51.48Z"/><path class="illu-stroke" d="M234.09,26.21c4.93,1,7.87,1.28,7.87,9.28s0,16,3,18c9,6,50.6,35,51,47,1,30-8,295-16,347,0,0-52,57-110,102"/><path class="carton-blue-4" d="M236.05,140.43c-.48-.8-3.61.51-4.08.76s-2.72,2.73-4.26,3.8.12,1.18.83.94,1.32-1.74,3-2.52S236.58,141.32,236.05,140.43Z"/><path class="carton-blue-4" d="M224,147.37c-.68-.19-2.48.95-1.3,1.54S225.26,147.72,224,147.37Z"/><path class="carton-blue-4" d="M219.82,148.55c-.58.13-2,.7-.83,1.53s1.87,1.53,2.12,0S220.41,148.41,219.82,148.55Z"/><path class="carton-blue-4" d="M175.85,171.85c-1.68.54-3.53,2-2.55,2.87s5,.85,5.3-.59,1.24-1,1.31-1.84S177.4,171.35,175.85,171.85Z"/><path class="carton-blue-4" d="M182.65,169.88c-.53.85-2.15.4-1.57,1.18a2,2,0,0,0,2.95-.33c.52-1,.45-1.24,1.37-1.63S183.65,168.31,182.65,169.88Z"/><path class="carton-blue-4" d="M188.41,167.2c-.76.27-1.64.93-.85,1.34s2.22.2,2.22-.67S188.77,167.06,188.41,167.2Z"/><path class="carton-blue-4" d="M214.91,152.31c-.61-.56-4.83,1.95-5.85,3s-8.25,5-10,5.82-.49,1.68.88.8,8.25-5.38,9.19-5.66S216,153.34,214.91,152.31Z"/><path class="carton-blue-4" d="M195.86,162.94c-1.39.22-2.46.5-1.34,1.12s2.91-.06,2.69-.56S196.63,162.82,195.86,162.94Z"/><path class="carton-blue-4" d="M245.57,134.32c-1.86.24-5.28,3-5.72,3.69s.59.74,1.37-.26a3.94,3.94,0,0,1,2.52-1.72C244.59,136,247.35,134.1,245.57,134.32Z"/><path class="carton-blue-4" d="M252.42,129.49c-.65.34-1.39.85-.87,1.07s1.21-.77,2.09-1.07S253.29,129,252.42,129.49Z"/><path class="carton-blue-4" d="M256.51,127.2c-.55.19-1.19,1-.5,1s1.72,0,1.23-.52S256.89,127.08,256.51,127.2Z"/><path class="carton-blue-4" d="M260.6,123.7c-.51-.17-.55.73-1,1.21s-1.43,1.18-.59,1.35,1.83-.21,1.91-.76S262.11,124.18,260.6,123.7Z"/><path class="carton-blue-4" d="M266,120.48c-.59,0-.58,1.61,0,1.66s1.7,0,1.27-.83S266.54,120.53,266,120.48Z"/><path class="carton-blue-4" d="M269,119.66c-.22-.42-1.77-.38-1.67,0s-.15,1.36.53,1.31S269.27,120.16,269,119.66Z"/><path class="carton-blue-4" d="M273.85,115.66c-.94-.18-.57,1.51-1.28,1.61s-2.85,1-2.1,1.41,2.36-.63,2.89-1.07S276.48,116.16,273.85,115.66Z"/><path class="carton-blue-4" d="M275.94,113.86a.74.74,0,0,0-.34,1.35c.54.31,1.22,1.06,1.71.44s1.56-1.3.48-1.55S276.87,113.67,275.94,113.86Z"/></g></g></svg>