<svg id="Layer_2" xmlns="http://www.w3.org/2000/svg" viewBox="0 0 834.92 690"><path class={`${clr2}-2`} d="M834.3,315.46c0,.76,0,1.49-.01,2.24,0,.4-.01,.79-.03,1.18v.13c-.03,.5-.06,1-.1,1.49-.01,.22-.04,.44-.06,.66-.01,.03-.01,.06-.01,.1-.19,1.51-.52,2.94-1.15,4.3-.2,.44-.43,.89-.72,1.32-.13,.22-.27,.43-.43,.65-.13,.17-.26,.33-.4,.5-.09,.1-.17,.2-.26,.29-.13,.14-.26,.29-.39,.43-.07,.07-.13,.13-.19,.19-.17,.16-.33,.32-.52,.47-.13,.11-.26,.23-.39,.33-.21,.17-.42,.33-.63,.49-.01,.01-.04,.03-.06,.04-.1,.06-.17,.13-.27,.19-.33,.23-.7,.46-1.08,.69-.11,.06-.21,.11-.33,.19-.42,.23-.85,.46-1.3,.67-.1,.04-.26,.11-.43,.22-.04,.01-.1,.04-.14,.07-.09,.04-.19,.1-.29,.16-.1,.04-.21,.11-.34,.19-.01,0-.03,.01-.04,.01-.16,.09-.31,.17-.5,.27-.13,.07-.26,.14-.4,.22-.13,.07-.26,.14-.4,.21-.11,.07-.23,.13-.36,.2-.23,.13-.47,.26-.72,.4-.2,.11-.43,.23-.66,.36-.17,.1-.34,.2-.53,.3-.3,.16-.62,.33-.95,.52-.01,.01-.03,.01-.04,.03l-24.73,355.97H71.55L28.73,333.66l-1.78-14.81c-8.79-2.91-14.18-4.7-15.32-5.1-11.35-4-11.01-11.17-11.01-15.82s-.01-9.37,9.63-14.86c.07-.06,.16-.1,.23-.14,2.88-1.75,6.59-3.38,11.05-4.77,0,0,232.14-72.74,259.54-81.31,27.38-8.59,35.6-11.17,71.65-3.12,36.03,8.04,428.13,95.5,456.21,101.77,4.64,1.03,8.49,2.08,11.55,3.17,3.07,1.09,5.36,2.22,6.94,3.4,3,1.62,4.94,3.45,5.98,6.55,.11,.34,.21,.69,.3,1.06,.06,.22,.11,.43,.16,.65,.03,.16,.06,.33,.09,.5,.06,.27,.1,.54,.13,.83,.04,.29,.07,.57,.1,.87,.03,.22,.04,.44,.06,.67,.04,.7,.07,1.46,.07,2.28Z"/><path class={`${clr2}-3`} d="M834.3,315.46c0,.76,0,1.49-.01,2.24,0,.4-.01,.79-.03,1.18v.13c-.03,.5-.06,1-.1,1.49-.01,.22-.04,.44-.06,.66-.01,.03-.01,.06-.01,.1-.19,1.51-.53,2.94-1.15,4.3-.2,.44-.43,.89-.72,1.32-.13,.22-.27,.43-.43,.65-.13,.17-.26,.33-.4,.5-.09,.1-.17,.2-.26,.29-.13,.14-.26,.29-.39,.43-.07,.07-.13,.13-.19,.19-.17,.16-.33,.32-.52,.47-.13,.11-.26,.23-.39,.33-.21,.17-.42,.33-.63,.49-.01,.01-.04,.03-.06,.04-.1,.06-.17,.13-.27,.19-.33,.23-.7,.46-1.08,.69-.11,.06-.21,.11-.33,.19-.42,.23-.85,.46-1.3,.67-.1,.04-.26,.11-.43,.22-.04,.01-.1,.04-.14,.07-.09,.04-.19,.1-.29,.16-.11,.06-.23,.11-.34,.19-.01,0-.03,.01-.04,.01-.04,.03-.1,.06-.14,.09-.11,.06-.24,.11-.36,.19-.13,.07-.26,.14-.4,.22-.13,.07-.26,.14-.4,.21-.11,.07-.23,.13-.36,.2-.13,.07-.27,.14-.4,.21-.1,.06-.2,.11-.32,.19-.2,.11-.43,.23-.66,.36-.17,.1-.34,.2-.53,.3-.3,.16-.62,.33-.95,.52-.01,.01-.03,.01-.04,.03l-24.73,355.97h-254.96c1.05-84.75,1.91-152.39,2.14-165.48,.73-39.69-19.48-31.03-48.35-38.97-28.87-7.94-465.55-153-465.55-153l-1.78-14.81s461.58,151.76,470.09,154.5c7.71,2.48,20.8,4.8,23.19,5.2-4.37-1.02-2.68-9.73,6.95-11.14,9.93-1.46,21.8-3.88,42.15-14.29,20.34-10.42,226.97-119.43,238.64-125.49,11.68-6.05,22.72-11.14,25.41-19.05,.11,.34,.21,.69,.3,1.06,.06,.22,.11,.43,.16,.65,.03,.16,.06,.33,.09,.5,.06,.27,.1,.54,.13,.83,.04,.29,.07,.57,.1,.87,.03,.22,.04,.44,.06,.67,.04,.7,.07,1.46,.07,2.28Z"/><line class="stroke" x1="795.46" y1="691.11" x2="818.31" y2="362.13"/><path class={`${clr2}-1`} d="M21.54,278.15c-18.29,5.73-24.17,15.46-9.97,19.88l483.36,150.17c22.87,7.11,55.99,10.17,80.08-2.51l238.06-125.21c22.61-11.89,23.95-18.74-4.14-25l-456.21-101.76c-36.04-8.04-44.27-5.46-71.65,3.12L21.54,278.15Z"/><line class="stroke" x1="26.95" y1="318.86" x2="71.55" y2="691.11"/><path class={`${clr2}-4`} d="M630.38,442.48v6.86l167.15-96.46s14.51-9.24,20.02-15.73v25.5l6.2-4.15,.1-25.38"/><path class={`${clr2}-2`} d="M40.83,284.18c-10.16,3.39-9.4,6.28-2.76,8.44,7.3,2.37,463.66,138.64,478.46,143.12,16.66,5.04,34.7,2.69,43.55-1.84,9.96-5.11,225.5-114.51,238.44-121.32,8.84-4.65,2.99-7.18-3.59-8.63-7.45-1.64-433.41-98.39-449.98-102.21-16.56-3.82-31.18-4.66-43.18-.6-12.3,4.16-250.81,79.67-260.94,83.05Z"/><path class={`${clr2}-0`} d="M22.71,280.16c-5.01,1.92-15.86,6.14-15.34,10.92,.52,4.78,8.86,6.51,9.2,6.08s-6.48-2.97-6.14-6.88c.34-3.96,4.9-5.34,9.92-7.75s3.65-2.86,2.36-2.37Z"/><path class={`${clr2}-0`} d="M19.37,297.84c-1.01,.59,1.55,2.13,3.05,1.09,.95-.66-1.54-1.98-3.05-1.09Z"/><path class={`${clr2}-0`} d="M26.95,300.15c-1.16,2.37,25.5,9.31,26.31,8.16,.91-1.3-25.84-9.12-26.31-8.16Z"/><path class={`${clr2}-0`} d="M61.37,311.05c-2.92,.86,2.18,2.37,2.94,1.8s-1.33-2.27-2.94-1.8Z"/><path class={`${clr2}-0`} d="M67.06,312.98c-1.23,1.01,1.23,2.05,2.46,1.01s-1.23-2.02-2.46-1.01Z"/><path class={`${clr2}-0`} d="M82.32,317.55c-1.71,1.71,10.96,4.77,11.6,4.06s-10.7-4.96-11.6-4.06Z"/><path class={`${clr2}-0`} d="M801.99,302.68c-1.95-.27-.49,.92,1.02,1.84,1.51,.92,3.32,4.25,0,6.67s1.63,1.72,4.04-1.15c2.41-2.87,0-6.67-5.06-7.36Z"/><polygon class={`${clr2}-4`} points="623.34 475.36 623.34 446.44 630.38 442.48 630.38 470.65 623.34 475.36"/><path class={`${clr2}-0`} d="M791.66,301.15c1.44-1.54-14.74-5.07-15.43-3.99-.34,.54,15.17,4.26,15.43,3.99Z"/><path class={`${clr2}-0`} d="M797.49,302.02c.39-1.53-2.47-1.93-2.86-1.04-.39,.89,2.47,2.57,2.86,1.04Z"/><path class={`${clr2}-4`} d="M584.47,467.91c-8.42,4.21-18.65,8.41-31.32,10.49h-.02c18.72-1.03,35.87-6.42,47.5-13.26,11.63-6.84,22.7-18.71,22.7-18.71h0c-20.01,11.24-34.59,19.34-38.87,21.48Z"/><path class={`${clr2}-0`} d="M770.72,295.88c.3-.97-4.54-2.17-4.94-1.28s4.44,2.86,4.94,1.28Z"/><path class={`${clr2}-0`} d="M762.03,293.61c.63-.69-2.86-2.47-3.26-1.18-.39,1.28,2.17,2.37,3.26,1.18Z"/><polyline class="stroke" points="630.38 442.48 630.38 470.65 623.34 475.36 600.64 468.49 600.64 459.13"/><path class="stroke" d="M834.3,315.46c-.01-7.74-2.13-10.86-6.88-13.42h0c-3.15-2.36-9.2-4.5-18.48-6.57-28.09-6.27-420.18-93.72-456.21-101.76-36.04-8.04-44.27-5.46-71.65,3.12-27.39,8.58-259.53,81.31-259.53,81.31-4.46,1.4-8.18,3.03-11.05,4.77h0c-.08,.05-.16,.09-.24,.14-9.65,5.49-9.62,10.26-9.62,14.88s-.34,11.82,11.01,15.81c11.35,3.99,439.47,144.8,482.99,158.84,43.52,14.04,71.13,4.68,89.85-4.68,18.72-9.36,234.48-132.61,241.51-135.93,8.41-3.96,8.32-9.93,8.31-16.52Z"/><polyline class="stroke" points="823.74 333.66 823.74 358.5 817.54 362.65 797.53 357.94 797.53 347.87"/><path class={`${clr2}-3`} d="M382.38,395.63c-23.68-36.68-58.46-138.26-63.14-162.44l-.23-5.41c-.55-11.42-8.49-21.68-21.07-17.21-12.57,4.47-256.77,83-256.77,83,22.65,6.86,162.23,48.58,284.39,85.09h0l56.82,16.98Z"/><path class={`${clr2}-4`} d="M307.19,373.16h0c-.31-15.69-1.05-37.52-1.3-49.19-.25-11.66-1.49-32.51-20.6-25.07-17.21,6.71-84.34,33.34-97.51,38.56,37.85,11.32,79.2,23.67,119.41,35.69Z"/><path class={`${clr1}-1`} d="M685.41,168.72c0-27.76-74.79-75.61-165.54-75.61s-162.05,47.54-163.07,75.03c-.11,.06-.17,.09-.17,.09l5.8,52.76c0,43.21,70.99,78.25,158.56,78.25s158.56-35.03,158.56-78.25l5.17-47.61c.46-1.53,.71-3.08,.71-4.65Z"/><path class={`${clr1}-1`} d="M724.49,122.88h.24l-1.84-3.8c-.34-.73-.69-1.47-1.06-2.2l-7.2-14.85h-2.79c-31.11-36.83-104.32-65.96-189.68-65.96s-161.1,30.15-191.26,67.9l-5.34,.03-8.56,27.46h.38c-.57,2.95-.88,5.92-.88,8.9,0,52.7,92.08,95.42,205.66,95.42s205.66-42.72,205.66-95.42c0-5.86-1.14-11.71-3.33-17.47Z"/><path class={`${clr1}-0`} d="M681.7,64.79c-31.98-27.86-91.93-48.61-160.61-48.61s-127.1,20.23-159.37,47.56c35.87-24.48,93.82-41.82,159.22-41.82s125.02,17.83,160.76,42.87Z"/><path class={`${clr1}-0`} d="M681.7,64.79c15.65,13.63,24.6,28.97,24.6,44.41,0,47.01-82.92,85.12-185.2,85.12s-185.2-38.11-185.2-85.12c0-15.84,9.43-31.57,25.83-45.46-23.86,16.28-37.95,35.73-37.95,55.34,0,49.1,88.28,88.91,197.18,88.91s197.18-39.81,197.18-88.91c0-19.19-13.49-38.22-36.42-54.29Z"/><path class={`${clr1}-1`} d="M680.74,200.46l-2.22,20.46c0,10.31-4.04,20.15-11.38,29.16-23.42,28.78-80.5,49.09-147.18,49.09s-123.44-20.2-146.98-48.85c-7.47-9.08-11.58-19.01-11.58-29.4l-2.41-21.93c37.64,22.35,96.27,36.72,162.14,36.72s121.89-13.74,159.6-35.25Z"/><path class={`${clr1}-2`} d="M518.38,142.74c88.39,0,161.74-24.66,175.82-57.02-36.68-28.77-100.23-49.65-172.5-49.65s-141.39,22.76-177.18,53.48c17.99,30.45,89,53.18,173.86,53.18Z"/><path class={`${clr1}-1`} d="M724.49,122.12h.24l-1.84-3.8c-.34-.73-.69-1.47-1.06-2.2l-7.2-14.85h0c2.29,5.62,3.5,11.32,3.5,17.05,0,49.1-88.28,88.91-197.18,88.91s-197.18-39.81-197.18-88.91c0-5.06,.94-10.1,2.74-15.09h-.96l-8.56,27.46h.38c-.57,2.95-.88,5.92-.88,8.9,0,52.7,92.08,95.42,205.66,95.42s205.66-42.72,205.66-95.42c0-5.86-1.14-11.71-3.33-17.47Z"/><path class={`${clr1}-1`} d="M698.14,75.31c0,37.75-79.81,68.34-178.27,68.34s-178.27-30.6-178.27-68.34S421.42,.62,519.87,.62s178.27,36.94,178.27,74.69Z"/><path class={`${clr1}-4`} d="M497.96,115.76c-.65,1.12,.7,2.3,1.73,1.52,5.01-3.79,16.38-10.08,36.55-9.97,28.81,.16,49.83,9.45,73.69,26.3l17.56-4.72s-44.18-36.77-91.64-33.85c-12.79,.79-24.4,6.65-28.02,9.67-6.8,5.67-8.28,8.31-9.88,11.06Z"/><path class={`${clr1}-3`} d="M521.28,.62c-.17,0-.34,0-.51,0,98.22,.13,177.75,37.01,177.75,74.69,0,21.63-26.22,40.92-67.14,53.44-11.78-9.23-54.29-39.81-96.46-36.32-42.04,3.48-45.91,39.34-46.12,50.16-83.45-5.7-146.82-33.65-146.82-67.28,0-25.87,37.49-51.36,92.77-64.84-58.69,14.09-98.68,41.37-98.68,69.06,0,39.88,82.92,72.21,185.2,72.21s185.2-32.33,185.2-72.21S623.57,.62,521.28,.62Zm18.41,100.34c21.61,.55,52.95,25.41,64,34.75-23.2,4.72-49.43,7.53-77.29,7.89-.04-.13-13.28-43.33,13.3-42.64Z"/><path class={`${clr1}-3`} d="M437.16,9.9c25.1-5.82,53.51-9.24,83.61-9.27-.17,0-.35,0-.52,0-30.01,0-58.28,3.44-83.09,9.28Z"/><path class={`${clr1}-0`} d="M436.51,10.05c.22-.05,.43-.1,.65-.15-.22,.05-.43,.1-.65,.15Z"/><path class={`${clr1}-0`} d="M521.28,.62c-.17,0-.34,0-.51,0,98.22,.13,177.75,37.01,177.75,74.69s-79.81,68.34-178.27,68.34-178.27-30.6-178.27-68.34c0-25.87,37.49-51.36,92.77-64.84-58.69,14.09-98.68,41.37-98.68,69.06,0,39.88,82.92,72.21,185.2,72.21s185.2-32.33,185.2-72.21S623.57,.62,521.28,.62Z"/><path class={`${clr1}-0`} d="M434.76,10.47c.58-.14,1.17-.28,1.76-.42-.59,.14-1.17,.28-1.76,.42Z"/><path class={`${clr1}-0`} d="M520.25,.62c-30.01,0-58.28,3.44-83.09,9.28,25.1-5.82,53.51-9.24,83.61-9.27-.17,0-.35,0-.52,0Z"/><path class={`${clr1}-2`} d="M536.29,107.32c-3.67-.02-7.05,.17-10.16,.53-6.95,12,.23,35.53,.3,35.77,.46,0,.92-.01,1.38-.02,.72-.01,1.43-.03,2.15-.04,1.16-.02,2.32-.05,3.48-.08,.14,0,.28,0,.42-.01,25.08-.74,48.7-3.48,69.8-7.79-5.9-4.99-17.5-14.32-30.31-22.05-11.35-4.06-23.32-6.21-37.06-6.29Z"/><path class={`${clr1}-1`} d="M558.72,434.41c4.05-2.08,46.25-23.5,92.01-46.76l18.43-137.34h-1.86c-23.42,28.78-80.5,49.09-147.18,49.09s-123.44-20.2-146.98-48.85l14.36,145.9c70.74,21.14,127.65,38.14,132.44,39.59,14.84,4.49,30.9,2.4,38.78-1.64Z"/><path class="stroke" d="M558.72,434.41c4.05-2.08,46.25-23.5,92.01-46.76l18.43-137.34h-1.86c-23.42,28.78-80.5,49.09-147.18,49.09s-123.44-20.2-146.98-48.85l14.36,145.9c70.74,21.14,127.65,38.14,132.44,39.59,14.84,4.49,30.9,2.4,38.78-1.64Z"/><path class="stroke" d="M680.74,200.46l-2.22,20.46c0,10.31-4.04,20.15-11.38,29.16-23.42,28.78-80.5,49.09-147.18,49.09s-123.44-20.2-146.98-48.85c-7.47-9.08-11.58-19.01-11.58-29.4l-2.41-21.93c37.64,22.35,96.27,36.72,162.14,36.72s121.89-13.74,159.6-35.25Z"/><path class="stroke" d="M727.82,139.59c0-5.86-1.15-11.71-3.33-17.47h.24l-1.84-3.8c-.34-.73-.69-1.47-1.06-2.2l-7.2-14.85h0c.42,1.03,.79,2.07,1.14,3.11l-1.14-2.35h0c-2.12-5.19-5.16-10.31-9.06-15.29,.6-2.37,.92-4.78,.92-7.21,0-23.8-29.55-47.3-75.12-62.38C601.93,6.86,565.72,.75,526.54,.66c-1.75-.02-3.5-.04-5.25-.04-.17,0-.34,0-.51,0,.56,0,1.11,0,1.66,.01-.61,0-1.21,0-1.82-.01,.05,0,.1,0,.16,0-.17,0-.35,0-.52,0-.06,0-.11,0-.17,0-.07,0-.14,0-.21,0-40.24,0-77.37,6.17-107.2,16.05-46.41,15.06-76.59,38.8-76.59,62.86,0,2.21,.27,4.4,.77,6.56-4.64,5.81-8.13,11.81-10.33,17.9h-.26c.09-.25,.17-.51,.26-.77h-.96l-8.56,27.46h.24l-.24,.77h.25c-.48,2.7-.75,5.41-.75,8.13,0,.12,0,.25,.01,.37,0,.13-.01,.26-.01,.39,0,52.7,92.08,95.42,205.66,95.42s205.66-42.72,205.66-95.42c0-.14,0-.27,0-.4,0-.12,0-.24,0-.36ZM524.97,.66h0c-.08,0-.15,0-.23,0,.08,0,.16,0,.24,0Z"/><path class="stroke" d="M434.76,10.47c-58.69,14.09-98.68,41.37-98.68,69.06,0,39.88,82.92,72.21,185.2,72.21s185.2-32.33,185.2-72.21S623.57,.62,521.28,.62"/><path class="stroke" d="M705.57,86.75c-.56,2.19-1.38,4.36-2.43,6.49,2.06,5.26,3.16,10.61,3.16,15.96,0,47.01-82.92,85.12-185.2,85.12s-185.2-38.11-185.2-85.12c0-5.5,1.16-10.98,3.33-16.38-1.05-2.21-1.85-4.45-2.37-6.73-8.44,10.56-13.08,21.75-13.08,32.98,0,49.1,88.28,88.91,197.18,88.91s197.18-39.81,197.18-88.91c0-11.01-4.44-21.96-12.56-32.33Z"/><path class="stroke" d="M698.14,75.31c0,37.75-79.81,68.34-178.27,68.34s-178.27-30.6-178.27-68.34S421.42,.62,519.87,.62s178.27,36.94,178.27,74.69Z"/><circle cx="442.38" cy="331.37" r="21.56"/><circle cx="601.94" cy="334.18" r="21.56"/><path class={`${clr1}-0`} d="M520.22,392.06c-20.41,0-41.56-19.33-47.76-36.68-2.85-7.96-1.98-14.34,2.43-17.96,5.65-4.63,11.68-6.79,18.98-6.79,5.97,0,12.09,1.47,18.01,2.9,3.34,.8,6.8,1.63,10.19,2.19,3.79,.62,8,.91,13.25,.91,2.41,0,4.81-.06,7.12-.11,2.26-.05,4.4-.11,6.49-.11,6.15,0,12.47,.4,17.11,3.28,5.44,3.38,7.26,10.41,4.87,18.78-4.77,16.69-23.71,33.58-50.7,33.58Z"/><path d="M493.88,331.13c5.91,0,12,1.47,17.9,2.88,3.35,.81,6.81,1.64,10.22,2.2,3.81,.63,8.05,.92,13.33,.92,2.42,0,4.82-.06,7.14-.11,2.26-.05,4.39-.11,6.48-.11,6.07,0,12.32,.39,16.85,3.21,5.24,3.26,6.98,10.07,4.65,18.22-2.33,8.15-8.27,16.28-16.29,22.31-6.63,4.98-17.9,10.91-33.93,10.91-9.39,0-19.72-4.25-29.1-11.98-8.41-6.93-15.21-16.04-18.19-24.37-2.77-7.75-1.96-13.93,2.28-17.4,5.55-4.56,11.48-6.68,18.67-6.68m0-1c-6.49,0-12.95,1.69-19.3,6.9-15.79,12.95,15.17,55.53,45.65,55.53,43.15,0,63.33-42.57,46.1-53.29-4.52-2.81-10.57-3.36-17.37-3.36-4.31,0-8.91,.22-13.62,.22-4.35,0-8.8-.19-13.17-.91-9.38-1.54-18.87-5.1-28.28-5.1h0Z"/><circle class={`${clr4}-1`} cx="452.44" cy="326.35" r="4.52"/><path d="M452.44,322.33c2.22,0,4.02,1.8,4.02,4.02s-1.8,4.02-4.02,4.02-4.02-1.8-4.02-4.02,1.8-4.02,4.02-4.02m0-1c-2.77,0-5.02,2.25-5.02,5.02s2.25,5.02,5.02,5.02,5.02-2.25,5.02-5.02-2.25-5.02-5.02-5.02h0Z"/><path class={`${clr4}-1`} d="M611.34,333.68c-2.49,0-4.52-2.03-4.52-4.52s2.03-4.52,4.52-4.52,4.52,2.03,4.52,4.52-2.03,4.52-4.52,4.52Z"/><path d="M611.34,325.14c2.22,0,4.02,1.8,4.02,4.02s-1.8,4.02-4.02,4.02-4.02-1.8-4.02-4.02,1.8-4.02,4.02-4.02m0-1c-2.77,0-5.02,2.25-5.02,5.02s2.25,5.02,5.02,5.02,5.02-2.25,5.02-5.02-2.25-5.02-5.02-5.02h0Z"/><path d="M567.1,339.27c-7.66-4.76-19.71-3.02-32.35-3.15,.59,1.21,.94,2.66,.94,4.22,0,4.25-2.56,7.69-5.71,7.69s-5.71-3.44-5.71-7.69c0-1.8,.46-3.45,1.23-4.76-.85-.1-1.71-.22-2.56-.36-.59-.1-1.17-.2-1.76-.31,.62,1.23,.99,2.72,.99,4.32,0,4.25-2.56,7.69-5.71,7.69s-5.71-3.44-5.71-7.69c0-2.51,.9-4.74,2.28-6.14-12.64-3.04-25.35-6.18-37.67,3.94-15.79,12.95,15.17,55.53,45.65,55.53,43.15,0,63.33-42.57,46.1-53.29Z"/><path class={`${clr4}-1`} d="M520.99,392.16c-18.03,0-35.85-14.75-44.38-29.5,7.13-2.07,23.94-6.42,39.15-6.42,1.32,0,2.62,.03,3.87,.1,19.52,1.03,38.7,9.61,46.55,13.54-9.71,13.96-26.55,22.28-45.18,22.28Z"/><path d="M515.76,356.74c1.31,0,2.61,.03,3.84,.1,19.01,1,37.71,9.21,45.83,13.23-9.67,13.54-26.19,21.59-44.44,21.59-8.28,0-17.15-3.23-25.66-9.33-7.19-5.16-13.68-12.16-17.97-19.37,7.42-2.12,23.67-6.22,38.39-6.22m0-1c-15.6,0-32.74,4.51-39.9,6.61,8.45,15.03,26.88,30.3,45.13,30.3,21.78,0,37.7-10.85,45.92-22.97-6.92-3.5-26.98-12.78-47.26-13.85-1.28-.07-2.58-.1-3.89-.1h0Z"/><ellipse class={`${clr3}-0`} cx="441.45" cy="369.17" rx="16.02" ry="5.03"/><ellipse class={`${clr3}-0`} cx="601.94" cy="374.2" rx="16.02" ry="5.03"/></svg>
