<svg xmlns="http://www.w3.org/2000/svg" viewBox="0 0 265.03 461.41"><path class={`${clr1}-4`} d="M7.03,79.32c-1.46-1.48-2.76-2.99-3.9-4.54,8.78,66.6,38.24,289.73,45.13,337.53l3.99-.16s-9.62-78.64-13.49-105.73S12.84,84.46,7.03,79.32Z"/><path class={`${clr1}-4`} d="M258.75,78.55h0c-5.36,6.66-4.7,11.1-5.36,16.36s-38.31,289.09-38.31,289.09l5.74-2.23,41.05-306.92c-.93,1.25-1.97,2.48-3.11,3.7Z"/><path class={`${clr1}-2`} d="M246.91,45.42c-.47-.45-.94-.91-1.44-1.35-.5-.37-1-.83-1.51-1.33-20.68-17.5-62.82-29.49-111.44-29.49-51.71,0-96.08,13.55-115.12,32.89-4.11,4.79,.34,18.74,2.31,24.34s7.04,13.78,7.04,13.78l28.9,14.46,86.63,7.13,89.24-15.47,13.97-12.52s9.17-23.52,1.41-32.44Z"/><path class={`${clr1}-1`} d="M132.52,.62C59.67,.62,.62,24.8,.62,54.63s59.05,54,131.89,54,131.89-24.18,131.89-54S205.36,.62,132.52,.62Zm0,101.46c-59.98,0-110.08-16.36-122.23-38.2-.97-2.42-1.48-4.89-1.48-7.42,0-26.48,55.38-47.94,123.7-47.94s123.7,21.46,123.7,47.94c0,2.52-.51,5-1.48,7.42-12.15,21.84-62.25,38.2-122.23,38.2Z"/><path class={`${clr1}-4`} d="M8.82,56.47c0-26.48,55.38-47.94,123.7-47.94s123.7,21.46,123.7,47.94c0,2.52-.51,5-1.48,7.42,1.84-3.31,2.82-6.74,2.82-10.26,0-26.76-55.98-48.46-125.04-48.46S7.47,26.87,7.47,53.63c0,3.52,.98,6.95,2.82,10.26-.97-2.42-1.48-4.89-1.48-7.42Z"/><path class={`${clr1}-5`} d="M132.52,105.99C60.75,105.99,2.38,82.52,.67,53.31c-.03,.44-.04,.88-.04,1.32,0,29.83,59.05,54,131.89,54s131.89-24.18,131.89-54c0-.44-.02-.88-.04-1.32-1.72,29.21-60.09,52.68-131.85,52.68Z"/><g><path class={`${clr1}-1`} d="M132.52,108.63C63.14,108.63,6.27,86.7,1.02,58.84c.32,2.41,.83,6.29,1.5,11.4,16.25,25.28,68.29,43.77,129.99,43.77s113.67-18.47,129.96-43.72l1.52-11.38c-5.33,27.82-62.16,49.72-131.48,49.72Z"/><path class={`${clr1}-1`} d="M.67,55.97h-.02l.07,.5c-.01-.17-.03-.34-.04-.5Z"/><path class={`${clr1}-1`} d="M264.32,56.45l.06-.48h-.02c0,.16-.03,.32-.04,.48Z"/><path class={`${clr1}-6`} d="M.99,56.03l-.35-.06c1.52,11.52,6.39,20.56,13.37,25.13s39.26,21.02,72.95,21.58h0C39.51,95.53,4.88,77.53,.99,56.03Z"/><path class={`${clr1}-6`} d="M175.26,103.09h0c18.51-.4,51.53-8.75,65.49-15.25s18.05-13.96,20.64-24.34c-9.83,18.54-42.92,33.53-86.14,39.59Z"/><path class={`${clr1}-5`} d="M233.42,287.48s-12.83,68.21-21.32,95.27c-.24,.9-.52,1.8-.87,2.68v.04h-.02c-3.99,9.86-15.12,18.41-30.56,24.24,13.97,6.52,20.61,14.56,34.41,14.56,.72-2.3,1.11-4.67,1.11-7.08,0-.19-.02-.37-.03-.56l17.27-129.15h0Z"/><path class={`${clr1}-6`} d="M212.1,382.75c-.24,.9-.52,1.8-.87,2.68v.04h-.02c-3.99,9.86-15.12,18.41-30.56,24.24,12.93,6.04,19.59,13.36,31.46,14.42,.69-2.26,1.07-4.57,1.07-6.94,0-.19-.02-.37-.03-.56l11.33-84.73c-3.98,18.68-8.61,38.82-12.38,50.84Z"/><path class={`${clr1}-5`} d="M50,424.27c15.7,0,24.85-6.91,38.56-13.11-17.58-5.8-30.36-14.97-34.7-25.69h0c-.74-1.85-1.23-3.74-1.46-5.67-5.63-22.84-21.07-92.24-21.09-92.32,8.12,60.81,15.28,113.84,17.6,129.34,0,.12-.02,.24-.02,.36,0,2.41,.39,4.77,1.11,7.08Z"/><path class={`${clr1}-4`} d="M191.02,440.83c10.23-4.96,21.5-8.99,16.02-13.02-5.48-4.03-38.63-5.17-31.36-12.5,1.03-1.04,.73-2.3-.54-3.71-12.35,3.9-26.95,6.16-42.61,6.16-23.33,0-44.33-5.01-59-13l-13.6,4.14,20.05,6.41c9.97,4.13,1.6,8.23-6.46,8.82s-6.51,8.96-5.58,12.99c.93,4.03-12.19-5.67-17.25-10.89,7.98,19.74,41.58,34.57,81.84,34.57,23.09,0,43.99-4.88,59.13-12.76-.01,0-10.87-2.24-.64-7.19Zm-20.9-.64c-29.04,10.97-84.9-11.98-82.37-14.62s6.82-3.45,0-10.87l53.94,4.57s36.92-8.82,27.33-1.83,17.56,9.75,21.01,10.56c3.45,.81,9.14,1.22-19.9,12.19Z"/><path class={`${clr1}-6`} d="M53.86,385.47h0c-.74-1.85-1.23-3.74-1.46-5.67-3.02-12.27-8.87-37.96-13.65-59.13,6.19,46.19,11.27,83.56,13.16,96.15,0,.12-.02,.24-.02,.36,0,2.38,.38,4.71,1.08,6.99,13.93-.81,22.77-7.22,35.58-13.02-17.58-5.8-30.36-14.97-34.7-25.69Z"/><path class={`${clr1}-1`} d="M95.67,415.5c8.57,11.96,12.79,14.97,23.71,14.76s30.1,3.88,42.81,4.52,7.11-2.37,2.15-7.76-4.09-9.26-4.09-9.26l-46.97,1.29-17.62-3.56Z"/><path class={`${clr1}-5`} d="M212.83,377.37c0,22.31-35.95,40.4-80.3,40.4s-80.3-18.09-80.3-40.4h0c0,24.84,35.95,44.98,80.3,44.98s80.3-20.14,80.3-44.98h0Z"/><path class={`${clr1}-5`} d="M167.65,448.29c-18.29,6.01-58.46,1.56-74.02-3.27-15.55-4.83-26.27-2.95-19.73,3.26,15.09,7.74,35.79,12.51,58.63,12.51,19.85,0,38.07-3.61,52.41-9.63,7.07-4.12,.96-8.86-17.29-2.87Z"/><path class={`${clr1}-4`} d="M212.83,377.37c0-1.76-.25-3.49-.68-5.19l-65.55-34.57c-4.57-.41-9.26-.63-14.06-.63-15.15,0-29.31,2.11-41.4,5.78l-11.28,4.14c-16.91,7.41-27.62,18.31-27.62,30.48s11.3,23.69,29.05,31.1c2.04-16.87,29.31-28.34,51.53-27.39,22.22,.96,55.01,3.56,47.84,23.6-.71,2-.41,3.56,.7,4.76,19.13-7.38,31.48-19,31.48-32.07Z"/><path class={`${clr1}-1`} d="M153.45,416.37c34.2-4.63,59.38-20.33,59.38-39.01,0-22.31-35.95-40.4-80.3-40.4s-80.3,18.09-80.3,40.4c0,3.71,1.02,7.31,2.88,10.72,15.04-11.75,52.28-22.93,78.76-22.93s58.74,4.19,59.02,22.94c.22,14.85-27.78,24.78-39.45,28.27Z"/><path class={`${clr1}-4`} d="M132.53,346.97c37.45,0,68.92,12.9,77.79,30.35,1.63-3.21,2.5-6.58,2.5-10.05,0-22.31-35.95-40.4-80.3-40.4s-80.3,18.09-80.3,40.4c0,3.47,.87,6.83,2.5,10.05,8.88-17.45,40.34-30.35,77.79-30.35Z"/><path class={`${clr1}-6`} d="M73.91,448.27c10.77,5.52,24.39,9.52,39.61,11.37l5.87-7.61c-5.64-1.89-19.41-5.36-19.41-5.36h0c-2.39-.54-4.53-1.09-6.33-1.65-15.55-4.83-26.27-2.95-19.73,3.26Z"/><path class={`${clr1}-2`} d="M162.82,451.54c-22.96,5.61-63.29-2.11-75.16-5.05s-13.16-.21-8.19,4.4h0c14.44,6.19,32.92,9.91,53.07,9.91,18.5,0,35.58-3.14,49.43-8.43,4.13-5.47,3.78-6.42-19.15-.82Z"/><path class={`${clr1}-5`} d="M237.22,93.69c-9.68,5.35-9.81,17.38-12.73,32.27-3.05,15.52-29,240.27-46.54,266.07-17.54,25.8-42.65,19.61-44.03,22.67s42.86-3.11,55.02-11.74c12.16-8.63,13.73-19.82,15.89-29.23S242.42,102.85,243.29,96.37s8.47-7.7,8.58-11.68h0c-4.18,3.2-9.09,6.21-14.66,9Z"/><path class={`${clr1}-6`} d="M58.27,369.69c3.51-8.64,12.82-16.21,25.79-21.64h0c-17.89,2.94-28.32,7.47-25.78,21.64h0Z"/><path class={`${clr1}-6`} d="M208.04,374.08h.01c2.9-15.63-9.76-21.05-18.07-21.59,0,0-.02,0-.02,0,10.11,5.9,16.69,13.37,18.08,21.59Z"/><path class={`${clr1}-5`} d="M65.86,377.37c0-17.34,29.85-31.39,66.68-31.39s66.68,14.05,66.68,31.39h0c0-18.53-29.85-33.55-66.68-33.55s-66.68,15.02-66.68,33.55h0Z"/><path class={`${clr1}-5`} d="M71.96,389.86c-9.33-18.6-31.51-181.05-35.93-210.7-4.42-29.65-8.91-84.75-17.23-90.53h0c-3.65-2.32-6.89-4.75-9.67-7.28h0c-.92,5.14,4.8,1.61,6.72,12.59,1.92,10.98,37.73,246.85,40.56,260.46s.91,37.14,18.62,48c17.71,10.87,40.17,13.28,39.83,11.23-.34-2.04-33.57-5.17-42.9-23.77Z"/><path class={`${clr1}-2`} d="M207.04,115.29h-.01c-21.37,5.79-46.98,9.16-74.51,9.16-35.13,0-67.13-5.49-91.18-14.48h0c-7.09-2.85-7.68-.1-6.1,6.55s28.73,197.73,30.62,206.79,4.88,6.94,8.1,5.3c.02,0,.05-.02,.07-.03,14.65-7.84,35.43-12.74,58.51-12.74,15.57,0,30.09,2.24,42.4,6.09,.11,.03,.23,.06,.32,.09,7.99,2.89,10.64-2.31,11.27-9.59,.63-7.28,28.28-183.8,28.54-189.86,.26-6.06-.88-9.11-8.03-7.3Z"/><path class={`${clr1}-5`} d="M256.22,56.47c0,2.52-.51,5-1.48,7.42,1.84-3.31,2.82-6.74,2.82-10.26,0-26.76-55.98-48.46-125.04-48.46-9.06,0-17.88,.38-26.39,1.09-22.48,2.88-53.59,11.04-67.61,19.06h0c22.69-10.27,56.38-16.78,94-16.78,68.32,0,123.7,21.46,123.7,47.94Z"/><path class={`${clr1}-6`} d="M239.26,28.38c-2.72-.02-4.81,.12-5.84,.35h0c14.35,7.83,22.79,17.4,22.79,27.73,0,2.52-.51,5-1.48,7.42,1.84-3.31,2.82-6.74,2.82-10.26,0-9.25-6.69-17.89-18.3-25.25Z"/><path class={`${clr1}-0`} d="M183.86,26.17c-6.14-1.33-8.51,60.3-8.61,66.66s17.48-55.6,19.79-60.51c2.63-5.61-6.84-5.21-11.18-6.15Z"/><path class="stroke" d="M264.32,56.45l.06-.48h-.02c.03-.44,.04-.89,.04-1.34C264.41,24.8,205.36,.62,132.52,.62S.62,24.8,.62,54.63c0,.45,.01,.89,.04,1.34h-.02s.02,.17,.07,.5c.06,.79,.16,1.58,.31,2.37,4.19,31.81,41.93,318.25,47.89,357.99,0,.12-.02,.24-.02,.36,0,24.08,37.45,43.6,83.64,43.6s83.64-19.52,83.64-43.6c0-.19-.02-.37-.03-.56L264,58.91c.16-.82,.26-1.64,.33-2.46Z"/><path class={`${clr1}-0`} d="M58.64,111.3c-4.38-.79-2.27,13.24-1.27,23.08s23.3,242.18,26.69,244.14-15.66-253.24-16.29-259.36-2.9-6.73-9.13-7.86Z"/><path class={`${clr1}-0`} d="M77.24,115.33c-3.79-.82,8.67,187.59,8.67,187.59,0,0-3.56-186.48-8.67-187.59Z"/></svg>
