<svg xmlns="http://www.w3.org/2000/svg" xmlns:xlink="http://www.w3.org/1999/xlink" viewBox="0 0 265.03 465.58"><path class={`${clr1}-1`} d="M132.52,113.29c-50.66,0-94.89-11.83-118.5-29.4h0L55.6,386.06l150-3.21,40-295.26h0C221,103.1,179.54,113.29,132.52,113.29Z"/><path class={`${clr1}-0`} d="M132.52,4.83a280.36,280.36,0,0,0-45,3.53,282.13,282.13,0,0,1,42.11-3.07c67.17,0,121.63,22.3,121.63,49.8,0,21-31.72,38.94-76.59,46.27,46.42-7,79.51-25.29,79.51-46.73C254.14,27.12,199.69,4.83,132.52,4.83Z"/><path class={`${clr1}-3`} d="M119,5.75q-6.77,0-13.34.3c-54.25,5-94.77,24.85-94.77,48.58,0,27.5,54.45,49.8,121.63,49.8q6.76,0,13.34-.3c54.25-5,94.77-24.85,94.77-48.58C240.63,28.05,186.17,5.75,119,5.75Z"/><ellipse class={`${clr1}-1`} cx="132.52" cy="56.4" rx="117.31" ry="48.04"/><path class={`${clr1}-0`} d="M134.09,104.42c26.85-.14,51.51-4,71.11-10.32L214.46,22c-19.23-7.68-44.88-12.69-73.35-13.53Z"/><path class={`${clr1}-3`} d="M264.36,56v0h0A.06.06,0,0,1,264.36,56Z"/><path class={`${clr1}-3`} d="M.67,56h0l.12,1C.72,56.61.69,56.29.67,56Z"/><path class={`${clr1}-3`} d="M250.91,78.45c-9.39,69.16-36.23,267.42-40.31,303,0,.65-.13,1.3-.22,1.94,0,.18,0,.36-.06.52h0c-3.86,25.61-37.8,45.65-79.11,45.65-41.71,0-75.9-20.43-79.2-46.41h0C48.56,364.21,19.11,146.12,9.4,74c-4.67-5-7.59-10.28-8.48-15.82,3.82,29,43.77,332.23,48.33,361,0,.23.07.45.11.68s0,.27.07.39h0C54.24,445.42,89.59,465,132.52,465c43.49,0,79.21-20.06,83.25-45.69h0L264,59.13C262.56,66,258,72.54,250.91,78.45Z"/><path class={`${clr1}-3`} d="M264.36,56v0h0A.06.06,0,0,1,264.36,56Z"/><path class={`${clr1}-3`} d="M.67,56h0l.12,1C.72,56.61.69,56.29.67,56Z"/><path class={`${clr1}-3`} d="M250.91,78.45c-9.39,69.16-36.23,267.42-40.31,303,0,.65-.13,1.3-.22,1.94,0,.18,0,.36-.06.52h0c-3.86,25.61-37.8,45.65-79.11,45.65-41.71,0-75.9-20.43-79.2-46.41h0C48.56,364.21,19.11,146.12,9.4,74c-4.67-5-7.59-10.28-8.48-15.82,3.82,29,43.77,332.23,48.33,361,0,.23.07.45.11.68s0,.27.07.39h0C54.24,445.42,89.59,465,132.52,465c43.49,0,79.21-20.06,83.25-45.69h0L264,59.13C262.56,66,258,72.54,250.91,78.45Z"/><ellipse class={`${clr1}-4`} cx="132.52" cy="414.43" rx="83.64" ry="50.53"/><path class={`${clr1}-0`} d="M200.57,364.88,222.87,176c.63-5.33,1.15-7.41,2.67-7.41s2.59,2.8,1.93,8.43l-23.6,199.87Z"/><path class={`${clr1}-0`} d="M227.32,157.08c-1.95-.33-3.73,6.92-1.53,7.29,1.89.33,4.85-6.56,1.83-7.3"/><path class={`${clr1}-0`} d="M228.87,148.06c-1.8.47-4,2.84-1.63,3.74S232.1,147.22,228.87,148.06Z"/><path class={`${clr1}-0`} d="M228.91,143.8c-2.72,0,2-17,2.57-22.61S231.86,143.77,228.91,143.8Z"/><path class={`${clr1}-2`} d="M210.69,386.06c0,22.95-35.58,41.55-79.48,41.55S51.72,409,51.72,386.06s35.59-41.54,79.49-41.54S210.69,363.12,210.69,386.06Z"/><path class={`${clr1}-2`} d="M200.73,388.12c0,20.07-31.12,36.34-69.52,36.34s-69.53-16.27-69.53-36.34,31.14-36.34,69.53-36.34S200.73,368.05,200.73,388.12Z"/><path class={`${clr1}-0`} d="M194.59,389.07c0,18.29-28.37,33.12-63.38,33.12s-63.38-14.83-63.38-33.12,28.38-33.13,63.38-33.13S194.59,370.77,194.59,389.07Z"/><path class={`${clr1}-1`} d="M189.5,389.07c0,17.95-27.23,32.5-60.83,32.5S67.83,407,67.83,389.07s27.24-32.51,60.84-32.51S189.5,371.12,189.5,389.07Z"/><path class={`${clr1}-0`} d="M76.14,160.54c-5.83,1-5.38,6.26-4.29,15.23S89.91,332.24,91.21,337.3s8.32,2.74,8.54.9S85.25,183.63,84.3,174.05,81.93,159.56,76.14,160.54Z"/><path class={`${clr1}-0`} d="M150.55,115.77c-10,.53-17.7,2.41-18,7.49S118.34,332.5,118.15,336.38s-6.34,4.07-10.12,4.72-23.43,6-23.33,7.59,15.35-5.29,29.86-6.24,43-1.38,65,7.72,13,4,11.12,3.18-18-6.46-17.15-12.07,2.46-17.42,3.17-22.85l26.51-201.36c.6-4.5,4.21-6.48,9.63-8.44s18.92-5.78,18.62-8.86-11.2,2.81-21,5.74A289,289,0,0,1,150.55,115.77Z"/><ellipse class={`${clr1}-0`} cx="72.28" cy="137.02" rx="6.26" ry="11.36" transform="translate(-8.55 4.86) rotate(-3.64)"/><ellipse class="stroke" cx="132.52" cy="54.63" rx="131.89" ry="54"/><path class="stroke" d="M.67,56h0l.12,1C.72,56.61.69,56.29.67,56Z"/><path class="stroke" d="M132.52,108.63C62.61,108.63,5.42,86.36.92,58.21c3.82,29,43.77,332.23,48.33,361,0,.23.07.45.11.68s0,.27.07.39h0C54.24,445.42,89.59,465,132.52,465c43.49,0,79.21-20.06,83.25-45.69h0L264,59.13C258.36,86.85,201.65,108.63,132.52,108.63Z"/><path class="stroke" d="M264.36,56v0h0A.06.06,0,0,1,264.36,56Z"/></svg>
