<svg xmlns="http://www.w3.org/2000/svg" viewBox="0 0 220.84 419.68"><ellipse class={`${clr2}-3`} cx="111.95" cy="366.11" rx="88.1" ry="52.95"/><path class={`${clr2}-4`} d="M80,411.56c3.13,1.12,1.48,2.32-2.29,1.63s-19.36-4.88-22.64-6.63a14.66,14.66,0,0,1-5-4.29Z"/><path class={`${clr2}-2`} d="M131,414.84c-1.68.48.05,2.18,3.31,1.63s12.62-2.82,13-3.65S135,413.7,131,414.84Z"/><path class={`${clr2}-2`} d="M150.52,411.19c-1.39,0-2.8,1.53-1.11,1.95S152.31,411.24,150.52,411.19Z"/><path class={`${clr2}-2`} d="M88.77,413c.2,2.37,3.1,3.86,4.82,3.86s3.91-1.46,2.43-3S88.77,413,88.77,413Z"/><path class={`${clr2}-2`} d="M102.76,414.31c-1.91.41-3.41,3.71-.26,3.1S105.59,413.7,102.76,414.31Z"/><path class={`${clr2}-2`} d="M109.43,414.55c-2,.44-3.81,4.32.49,3.88S112.22,413.94,109.43,414.55Z"/><ellipse class="stroke" cx="111.95" cy="366.11" rx="88.1" ry="52.95"/><path class={`${clr2}-2`} d="M207.13,47.52h-8.55c-20-12.42-52-20.47-88.16-20.47S42.26,35.1,22.25,47.53H13.71S.61,61.93.63,77.72L12.09,357.33c0,31.6,44.71,57.22,99.86,57.22s99.86-25.62,99.86-57.22l8.41-279.61C220.27,63.69,207.13,47.52,207.13,47.52Z"/><path class={`${clr1}-2`} d="M211.81,357.33,216,217.83c-1.78,14.63-6,34.82-15.95,54.06-18.58,36-80,40.64-107.41-14S16.13,195.27,6.49,220.8l5.6,136.53c0,31.6,44.71,57.22,99.86,57.22S211.81,388.93,211.81,357.33Z"/><ellipse class="stroke" cx="110.42" cy="41.08" rx="97.01" ry="40.46"/><path class={`${clr2}-1`} d="M110.42,125.69h.06c3.24,0,6.64,0,10.23-.17,24.85-.9,29.19-2.67,28.2-9-.79-3.86-4.88-3.19-5-8.79s1.4-7.53.26-12.14c-.86-2.4-2.39-3.32-5.77-2.8-4.05.63-18.52,2-23.34,1.87S108.44,88,108.44,88A169.51,169.51,0,0,1,78.91,85.8c-14-2.54-25-5.39-25-5.39,1.12,4,2.21,7.54-2.38,5.91A125.3,125.3,0,0,1,32,77.72a12.49,12.49,0,0,0-1.21-.61,69.63,69.63,0,0,1-11.53-8.48c-2.23-2.14-4-3.69-6.08-.69a87.3,87.3,0,0,0-6.83,14.5h0c-1,2.74-2.17-4.87-3-4.72-1.26.23.21,7,2.49,10.81h0a55.28,55.28,0,0,0,5.86,8.13c1.29,1.55,1.63,2.41,1.6,5.75-.42,5.62.2,32.05,1.63,66.16-.53,1.28-2.11.9-2.52,3.39s2.1,5.28,3,8.22c3.42,75.87,10.38,180,18.73,185.93s6-96.61,3.19-171.54c-.11-3.11-11.08-7.75-10.08-13.69.67-3.95,9,1.12,9.5-1.46C35.4,145.55,34.1,120.25,34,118.71c-.25-5,.73-6.06,3.09-5.17a158.68,158.68,0,0,0,18,6.1h0c5.7,1.32,6.25,5.84,6.25,15s.66,47.05.66,51.18,1.76,4.52,2,7.36-1.33,2.71-1.46,5.8,2.77,130.71,3.37,140.48S68,352,68.41,358.1s-1.72,9-1.72,16.47c0,5,.42,18.51.7,26.93.09,2.61.76,7,7.52,9,.9.22,1.87.45,2.89.68.33.06.61.12.87.19,6.63,1.47,15.07,2.94,22,2.95h0c12.94,1.22,29.68-.77,29.68-.77-20.85,2.16-27.7-3.55-27.56-7.13h0c0-10.18.09-28.21,0-41.6-.17-19.71-2.15-215.68-2.09-225S101.34,125.82,110.42,125.69Z"/><path class={`${clr2}-0`} d="M70.19,84.35c1.15,4.34,3.58,8.38,12.56,9.79s17,2.22,16,0-6.47-6.86-6.47-6.86Z"/><path class={`${clr2}-1`} d="M153.91,119.33c-1.21.38-1.41,1.69,0,2s13.56-2.52,15.71-3.56S157.17,118.29,153.91,119.33Z"/><path class={`${clr2}-1`} d="M173.39,114.33c-1.23.36-1.82,1.3-.34,1.65s5.89-.18,6.15-1.3S174.87,113.9,173.39,114.33Z"/><path class={`${clr2}-1`} d="M183.45,111.28c-1.07.22-3.23,2.59-1.44,2.64S185.15,110.92,183.45,111.28Z"/><path class={`${clr2}-1`} d="M150.46,101.93c-1.75.28-2.29,7.73-.35,9s3.68.18,3.33-2.46S152.13,101.67,150.46,101.93Z"/><path class={`${clr2}-1`} d="M39.28,186.24c-.82,1.16.87,3.4,5.56,4.47s8.9-.09,9.77-1.47S40.3,184.81,39.28,186.24Z"/><path class={`${clr2}-0`} d="M94.1,127.84a17.6,17.6,0,0,1,.64-5.33c.54-2.81-8.52-3.92-12.93-4.58s-11.75-1-13.41.76C67,120.13,65.86,121,65.91,124c0,0,2.1,134.45,3.32,215,.09,6.39,2.37,17,2.37,21.8s-1.86,12.37-1.77,18.77h0c.16,10.71.25,17.42.25,18.39,0,6.57,3.83,7.4,6.3,8.22s9.17,1.25,12.39,1.58,6.17-2.86,6.17-5.56S94.18,132.73,94.1,127.84Z"/><path class={`${clr2}-1`} d="M144.39,140.06c-5.82,1.91-3.55,200.53-2.76,215.93s2,6.95,3.44-12.78S151.4,137.74,144.39,140.06Z"/><path class={`${clr2}-1`} d="M157,142.43c-3.15,2.73-4.13,183-3.48,201.18s2.67,10.52,3.48,2.83S161.82,138.22,157,142.43Z"/><path class={`${clr1}-3`} d="M30.17,390.14C24.38,384.7,21,370.35,20.68,361s-2.32-63.87-5.39-62.61c-2.19.9.68,43.67.7,50.35,0,5.58,1.17,24.3-2.09,19.38C16.6,376.21,22.24,383.67,30.17,390.14Z"/><path class={`${clr2}-3`} d="M201.57,366.11c.13-2.79.63-22.46,1.32-49.94h0c.15-6.15,3.84-11,3.68-5s-1.33,31.73-1.16,39,1.92-6.28,2.83-15.06,1.27-33.69,1.61-45.48-.24-25.59-2.07-23.6.15,22.12-2.08,24.6-2-7.48-1.93-10.13h0c1.87-76.12,4.24-175.8,4.34-179.62.15-6.08,3.69-5.35-.68-14.52-1.89-4-2.77-8-4.62-13.2s.58-14,.58-14C199.52,68.24,175,77.72,175,77.72s3.27,6,6.34,4.8a101.14,101.14,0,0,0,10-4.8c2-1.1,4.49-4,5.41-1.53s2.64,6.2,5.68,14.92-2,8.13-1.86,15.55-7.55,252-8.11,266.46S179.09,395.68,169.22,400s-17.61,7.88-28.8,12.18c41.27-7,71.39-28.91,71.39-54.84l.14-4.66C209.94,366.76,201.12,376.56,201.57,366.11Z"/><polygon class={`${clr2}-3`} points="211.95 352.67 211.95 352.67 211.95 352.67 211.95 352.67"/><path class={`${clr2}-3`} d="M198.66,100.34c-1.74,0-1.48,3-2.23,4.36s-9.64,5-9,6,11.31-4.31,11.87-6.44S199.39,100.34,198.66,100.34Z"/><path class={`${clr2}-3`} d="M174.29,81c-.8-.06-3.48,0-4,1.41S159.72,86.8,160.19,88s10.9-2.81,13.25-3.63S175.5,81.06,174.29,81Z"/><path class={`${clr2}-3`} d="M156.61,86.94c-1.07-.35-6,1.41-3.12,2.35S158.87,87.7,156.61,86.94Z"/><path class={`${clr2}-0`} d="M68.59,89c-1.67-.79-5,1-2.43,1.77S70.86,90.12,68.59,89Z"/><path class={`${clr2}-0`} d="M61.63,86.82c-1.16,0-3.85,2.34-1.08,2.32S63.4,86.9,61.63,86.82Z"/><path class={`${clr2}-5`} d="M207.11,47.52l-.69,5.87c2.87,2.29,12.25,16.52,13.67,28.62l.13-4.29c.05-14-13.09-30.2-13.09-30.2Z"/><path class={`${clr2}-3`} d="M211.09,90c-.4,1.13-.18,3.63,1.37,2.27s5.06-9.11,4.78-10.79-2.85,5.06-3.52,6.48S211.69,88.3,211.09,90Z"/><path class={`${clr1}-1`} d="M34.15,366.11c7.91,5.65,6.25-85,3.68-158.2-8-1.77-15.29-1.18-21,1.57C20.59,280.37,26.83,360.88,34.15,366.11Z"/><path class={`${clr1}-1`} d="M128.44,413.76c-19.36,1.62-25.77-3.84-25.64-7.31h0c0-10.18.09-28.21,0-41.6-.07-8.34-.47-48.26-.9-92.24a88.67,88.67,0,0,1-9.23-14.71c-8.44-16.83-19-29.22-29.73-37.59.79,37.47,2.55,111.84,3,119.2.59,9.77,2.12,12.46,2.5,18.59s-1.72,9-1.72,16.47c0,5,.42,18.51.7,26.93.09,2.54.74,6.73,7,8.84A165.76,165.76,0,0,0,112,414.55C117.57,414.55,123.07,414.27,128.44,413.76Z"/><path class={`${clr1}-0`} d="M67.46,224.12c.6,38.6,1.26,81.43,1.77,115,.09,6.39,2.37,17,2.37,21.8s-1.86,12.37-1.77,18.77h0c.16,10.71.25,17.42.25,18.39,0,6.57,3.83,7.4,6.3,8.22s9.17,1.25,12.39,1.58,6.17-2.86,6.17-5.56c0-1.38-.2-71.69-.4-140.8-.65-1.16-1.29-2.35-1.9-3.57C85.39,243.45,76.62,232.29,67.46,224.12Z"/><path class={`${clr1}-1`} d="M145.07,343.21c.38-5.27,1-22.39,1.59-44.59a58.36,58.36,0,0,1-5.93-.93c.25,29.85.65,53.39.9,58.3C142.42,371.38,143.65,362.94,145.07,343.21Z"/><path class={`${clr1}-1`} d="M157,346.44c.24-2.29.76-21.71,1.26-47.72-1.62.14-3.25.23-4.89.24-.08,22.41,0,39.65.15,44.65C154.13,361.81,156.16,354.13,157,346.44Z"/><path class={`${clr1}-3`} d="M201.57,366.11c.13-2.79.63-22.46,1.32-49.94h0c.15-6.15,3.84-11,3.68-5s-1.33,31.73-1.16,39,1.92-6.28,2.83-15.06,1.27-33.69,1.61-45.48-.24-25.59-2.07-23.6.15,22.12-2.08,24.6-2-7.48-1.93-10.13h0c.14-5.7.28-11.53.43-17.44-1.26,2.95-2.63,5.91-4.15,8.84a47.09,47.09,0,0,1-4.6,7.2c-1.5,47.85-2.79,88.39-3,94-.56,14.46-13.35,22.56-23.22,26.87s-17.61,7.88-28.8,12.18h0c1.17-.2,2.33-.41,3.49-.63l.6-.12c1.12-.22,2.23-.45,3.34-.7l.49-.11A140.38,140.38,0,0,0,162,406.83l.48-.15c1-.33,1.92-.67,2.87-1l.73-.27c.93-.34,1.86-.7,2.76-1.06l.54-.22q4.41-1.77,8.45-3.81l.52-.26c.75-.38,1.48-.77,2.21-1.17l1-.52c.68-.38,1.35-.76,2-1.15l1-.61c.64-.39,1.27-.78,1.89-1.18l.93-.61c1.2-.79,2.36-1.6,3.49-2.43l.77-.57c.49-.37,1-.75,1.43-1.13s.78-.61,1.15-.92.87-.74,1.29-1.11l1.15-1,1.17-1.09c.39-.38.77-.77,1.16-1.16s.67-.68,1-1c.56-.59,1.09-1.19,1.62-1.8.3-.35.58-.71.87-1.06.43-.53.86-1.06,1.26-1.6.25-.32.47-.65.7-1,.34-.48.67-.95,1-1.44.22-.33.43-.67.64-1,.31-.5.6-1,.89-1.51.18-.31.36-.63.53-1,.32-.61.62-1.21.9-1.82.11-.23.23-.45.33-.68.37-.83.71-1.67,1-2.52.09-.24.16-.48.24-.72.21-.62.41-1.25.59-1.88.09-.32.16-.63.24-.95.14-.57.27-1.15.38-1.73.07-.32.13-.65.18-1,.1-.61.18-1.23.25-1.85,0-.28.07-.57.09-.85.07-.9.12-1.81.12-2.72l.14-4.66C209.94,366.76,201.12,376.56,201.57,366.11Z"/><path class="stroke" d="M207.13,47.52h-8.55c-20-12.42-52-20.47-88.16-20.47S42.26,35.1,22.25,47.53H13.71S.61,61.93.63,77.72L12.09,357.33c0,31.6,44.71,57.22,99.86,57.22s99.86-25.62,99.86-57.22l8.41-279.61C220.27,63.69,207.13,47.52,207.13,47.52Z"/><path class={`${clr2}-2`} d="M207.43,41.08c0-22.34-43.43-40.45-97-40.45s-97,18.11-97,40.45l.19,4a16.58,16.58,0,0,0-.19,2.43c0,22.35,43.43,40.46,97,40.46s97-18.11,97-40.46a16.58,16.58,0,0,0-.19-2.43Z"/><path class={`${clr2}-1`} d="M63.34,73.43C20.23,62.05,17.7,47.68,17.24,42.38c0,0,.12,8.75,7.53,17.71a13.73,13.73,0,0,0,2,1.94h0A54,54,0,0,1,33.9,72.37C51.65,81.87,79.31,88,110.42,88a222.47,222.47,0,0,0,32.42-2.32,7.45,7.45,0,0,1,6.2-7.45l-.6,0a106.12,106.12,0,0,0,31.8-12C164.26,74.86,106.44,84.81,63.34,73.43Z"/><path class="stroke" d="M94.28,42.38a42.41,42.41,0,0,1,11.39,3.38c3.17,1.53,4.83,3.16,5,4.57"/><path class={`${clr2}-1`} d="M135.39,14.19a78.5,78.5,0,0,0-9.07-.87c-1.72-.06-4-2.16-5.09-5.53s-.39-4.62-3.32-4.71-29.26-.46-46.07,3S44.45,13.28,31,21.35c0,0,9.46-10.27,34.83-16.2s51.59-4.67,61-3.95,35,3.45,48.86,9.94,15.78,10.64,15.78,10.64-13.23-7.52-22.21-10.15-3.93,9-16.3,5.81-8.71-9.07-8.71-9.07Z"/><path class={`${clr2}-0`} d="M116.26.7c-2.89-.06-4.44,2.26-1,2.32s11.77.39,14.55.83,3.35,4,3.06,6.57,1.32,3.72,3.77,4.06,11.76,1.47,15.05,2.65,5.29-.59,5.53-3.48,1-5.23,3.53-4.55,5,1.41,7,2.15,6,1,4.13-1.47A189.77,189.77,0,0,0,146,3.46C133,1.4,116.26.7,116.26.7Z"/><path class={`${clr2}-0`} d="M63.34,73.43C49.53,69.78,39.9,65.83,33.15,62h0c4.45,4.4,10.47,8.57,14.16,9.83s5.26,8.27,10.45,9.69c.51.14,1.05.26,1.57.4,3.57.87,8.34,2,12.92,2.82,2.25.41,4.57.76,6.9,1.09,6.34.65,5.44-5.48,12.62-5s26.57,0,42-3.64h0C111.54,79.49,85.5,79.28,63.34,73.43Z"/><path class={`${clr2}-3`} d="M19.7,50.74C23,31,62.32,15.45,110.42,15.45c6.82,0,13.45.33,19.84.92l-.09,0C103.89,11,72.43,14.88,48,21.78S18.7,41.54,18.46,45.41s.55,3.39,1.22,5.33Z"/><path class={`${clr2}-3`} d="M181.32,25.88c-4.61-1.82-11.81-2.89-21.8-4.42,23.91,6.41,40.17,17.36,41.73,29.93a8.46,8.46,0,0,0,1.84-4.25C204.32,36.5,189.62,29.14,181.32,25.88Z"/><path class={`${clr2}-4`} d="M170.78,25h0c17.66,6.53,29.18,15.88,30.48,26.36a9.09,9.09,0,0,0,1.49-2.75C199.59,34.22,182.47,28.27,170.78,25Z"/><path class={`${clr2}-4`} d="M83.48,17.15h0C67.38,18.71,32.78,24.49,23.62,39a25.92,25.92,0,0,0-4.19,11.14,5.13,5.13,0,0,1,.25.61h0C22.33,34.87,48.34,21.7,83.48,17.15Z"/><path class={`${clr2}-3`} d="M197.53,55.34s1.14-1.06,1.6-1.56c0,0,2.9-10.66-20.69-23.15-1.18-.63-1.66.34-.76,1S193,39.39,196,47.13C198.59,53.78,197.53,55.34,197.53,55.34Z"/><path class={`${clr2}-3`} d="M53,48.83c-3,1.52-2.48,4.2,3,4.75s21.6,5.16,23,8.39,1.6,7.83,6.67,8.1S115,62,115,62,75.37,53.64,72.09,49.19s8.12-2.44,11.39-.78,26.94,9.77,26.94,9.77l8.21-6.52L86.45,40.49,59.34,42.38Z"/><path class={`${clr2}-3`} d="M174.61,28.26c-2-.83-1.8.94-.36,1.37S176.48,29.05,174.61,28.26Z"/><path class={`${clr2}-3`} d="M169,26.17c-1.15-.28-1.94.72-.36,1.3S170.15,26.46,169,26.17Z"/><path class={`${clr2}-3`} d="M84.53,70.23c7-.83,18.3-7.79,49.81-14.14s49-15.58,35.5-24.8c0,0,23.1,11.74-22.08,22.88s-54.33,16.3-63.23,17.5S79.41,70.83,84.53,70.23Z"/><path class={`${clr2}-4`} d="M54.26,48.85c-1.85,1.86,5,2.06,8.29,3.31s15.21,4.6,13,.78S64,47.49,67.1,45.22s3.56,2,7.24,1.27,12.49,0,20.32,3.84,11.22,4.14,11.22,4.14l-5-9.92L75.16,39.26,52.06,46Z"/><path class={`${clr2}-1`} d="M153.18,27.59c-7.4-1.11-25.3-2.13-38.37.45s-3.6,1.63-.5,1.13A163.16,163.16,0,0,1,146.36,28C160.68,29.13,155.31,27.92,153.18,27.59Z"/><path class={`${clr2}-0`} d="M135,26.43c-2.41,0-4.16,1.31-1.26,1.28s6.57-.12,6.79-.64S136.64,26.42,135,26.43Z"/><path class={`${clr2}-3`} d="M112.16,47.4h0c-11.4-5.53-29.88-8.31-41.27-6.2L45,46c-10.58,2-10.57,7.72,0,12.86L48,60.25C58.57,65.39,75.74,68,86.33,66l25.84-4.79C123.56,59.12,123.55,52.93,112.16,47.4ZM79.28,63.2h0c-6.73,1.24-17.65-.4-24.38-3.67l-4.59-2.22c-6.74-3.27-6.74-6.93,0-8.18h0c4.62-.85,12.11.27,16.73,2.51l12.25,6C83.9,59.83,83.9,62.34,79.28,63.2Zm27.51-6-3.39.63c-6.05,1.12-15.85-.35-21.9-3.29l-4.32-2.1c-6.05-2.93-6.05-6.22,0-7.34l3.39-.62a15.17,15.17,0,0,1,8,1.2l18.22,8.84C109,55.57,109,56.77,106.79,57.18Zm-12.51-12a42.41,42.41,0,0,1,11.39,3.38c3.17,1.53,4.83,3.16,5,4.57"/><path class={`${clr2}-2`} d="M77.47,42.19c-2.08.38-3.34,2.78-.3,2.89l3.39-.62a15.17,15.17,0,0,1,8,1.2l7.29,3.53h0c1.85.9,3.61-.42,1.31-2.2a5.25,5.25,0,0,1-.7-.71l-2.18-1.06,1.58.28a36,36,0,0,1-2.25-3.72,85.37,85.37,0,0,0-12.28-1.25A21.93,21.93,0,0,1,77.47,42.19Z"/><path class={`${clr2}-2`} d="M89.89,62.51c-.9,0-3.68-.33-7.42-.8a5,5,0,0,1-3.19,1.49h0c-6.73,1.24-17.65-.4-24.38-3.67l-4.42-2.14c-1.75-.24-3-.41-3.5-.46-3.33-.38-1.42,1.41-1.18,2.27l2.18,1C58.57,65.39,75.74,68,86.33,66l4.21-.78.29-.06C93.51,64.8,93.63,62.61,89.89,62.51Z"/><path class={`${clr2}-2`} d="M50.54,46.25c-1.69.58-1.48,1.54-.59,3h0l.34-.08c4.62-.85,12.11.27,16.73,2.51L69.79,53a2.1,2.1,0,0,1,1.36-.15c2.14.54,2.42-.85.92-1.58s-4.65-6-4.65-6S52.22,45.67,50.54,46.25Z"/><path class={`${clr2}-1`} d="M69.36,49.94c-1.46-.71-3.4-3.22-4.42-4.64-2.66.1-6.93.27-10.16.48l-.49,0h0c-1.84,0-1.64,2.83,0,3h0A33.15,33.15,0,0,1,67,51.64l.57.28a3.26,3.26,0,0,1,1.07.24C70.16,53,71.44,51,69.36,49.94Z"/><path class={`${clr2}-0`} d="M66,46.68l-.1-.12c-1,0-4.36,0-6.15,0-2.11,0-1,2.15,1.14,2.63l0,.44a29.46,29.46,0,0,1,3.73,1,2.28,2.28,0,0,1,.76.08c1.52.46,1.43-1.75.33-2.53C64.81,47.6,65.59,46.94,66,46.68Z"/><path class={`${clr2}-1`} d="M94.73,45.81c-1-.48-2.42-2.47-3.65-4.42a81.34,81.34,0,0,0-8.62-.81,12.74,12.74,0,0,1-2.92,1.22c-1.84.3-1,2.07,0,2.84h0l1-.18a15.17,15.17,0,0,1,8,1.2l5.68,2.75h0C96.09,49.15,96.82,46.82,94.73,45.81Z"/><path class={`${clr2}-0`} d="M89.89,46c1.33.34,1.32-1.41,0-2.55a1.88,1.88,0,0,1-.62-2.29l-.39-.05c-1.1.1-4,.35-5.83.39-2.25,0-2.13,2.44-.3,2.79v0a15.62,15.62,0,0,1,5.8,1.32l.6.29A2.58,2.58,0,0,1,89.89,46Z"/><path class={`${clr2}-1`} d="M83.1,63.61a37.45,37.45,0,0,1-4.66-.28,58.19,58.19,0,0,1-22.27-3.22,29.31,29.31,0,0,1-4.22-1c-2.54-1.08-2.83,1.22.14,2.89,10,3.74,23.42,5.53,32.72,4.25C87.53,65.66,86.79,63.38,83.1,63.61Z"/><path class={`${clr2}-2`} d="M112.16,44.56h0c-11.4-5.53-29.88-8.31-41.27-6.2L45,43.14c-10.58,2-10.57,7.72,0,12.86L48,57.41c10.59,5.14,27.76,7.72,38.35,5.76l25.84-4.78C123.56,56.28,123.55,50.09,112.16,44.56ZM79.28,60.36h0C72.55,61.6,61.63,60,54.9,56.69l-4.59-2.22c-6.74-3.27-6.74-6.93,0-8.18h0c4.62-.85,12.11.27,16.73,2.51l12.25,6C83.9,57,83.9,59.5,79.28,60.36Zm27.51-6L103.4,55c-6.05,1.12-15.85-.35-21.9-3.29l-4.32-2.1c-6.05-2.93-6.05-6.22,0-7.34l3.39-.62a15.17,15.17,0,0,1,8,1.2l18.22,8.84C109,52.73,109,53.93,106.79,54.34Z"/><path class={`${clr2}-3`} d="M110.65,50.33c-.11-1.42-1.81-3-5-4.57a41.7,41.7,0,0,0-11.39-3.38c-1.84-.29,2.29,1.28,4.46,1.73s7.58,3,8.93,4.3S110.77,51.91,110.65,50.33Z"/><path class={`${clr2}-0`} d="M68.86,63.19c-.5-.12-1.17-.27-1.92-.42-1-.15-1.94-.32-2.9-.51S62,62,61.08,62c-2.55-.1-1.77,1-1,2.45A83.52,83.52,0,0,0,68.87,66C71.22,65.58,70.55,63.62,68.86,63.19Z"/><path class={`${clr2}-0`} d="M72.64,66.27c-.94-.38-.82-2.67,1.49-2.57S76,67.62,72.64,66.27Z"/><path class="stroke" d="M120.69,52.6c-.12-2.47-3-5.33-8.53-8h0c-11.4-5.53-29.88-8.31-41.27-6.2L45,43.14c-5.17,1-7.8,2.83-7.91,5.09h0v2.84h0c-.12,2.36,2.51,5.15,7.93,7.78L48,60.25C58.57,65.39,75.74,68,86.33,66l25.84-4.79c5.55-1,8.37-3,8.51-5.43h0V52.6ZM73.24,46.74a7.38,7.38,0,0,1,3.93-1.66l3.39-.62a15.17,15.17,0,0,1,8,1.2l18,8.73L103.4,55c-6.05,1.12-15.85-.35-21.9-3.29l-4.32-2.1A10.75,10.75,0,0,1,73.24,46.74ZM54.9,56.69l-4.59-2.22a11.52,11.52,0,0,1-4.51-3.35c.74-.87,2.22-1.57,4.5-2,4.62-.85,12.11.27,16.73,2.51l12.25,6A9.58,9.58,0,0,1,82,59.38a6.86,6.86,0,0,1-2.67,1h0C72.55,61.6,61.63,60,54.9,56.69Z"/><path class="stroke" d="M207.43,41.08c0-22.34-43.43-40.45-97-40.45s-97,18.11-97,40.45l.19,4a16.58,16.58,0,0,0-.19,2.43c0,22.35,43.43,40.46,97,40.46s97-18.11,97-40.46a16.58,16.58,0,0,0-.19-2.43Z"/></svg>
