<svg id="Layer_2" xmlns="http://www.w3.org/2000/svg" viewBox="0 0 751.75 634.02"><path class="main-250" d="M88.37,23.12s-4.02,4.69-1.67,9.04c2.34,4.35,6.51,3.06,4.54,5.64-1.97,2.58-.46,.46-1.97,2.58-1.52,2.12-3.86,3.64-3.3,6.83s2.24,4.86,4.06,7.59c1.82,2.73,2.73,1.06,3.03,6.37,.3,5.31,1.06,5.92,0,8.8-1.06,2.88-9.41,0-12.44,4.1-3.03,4.1,4.7,9.1,7.44,12.59,2.73,3.49,5.49,12.75,5.55,16.24,.06,3.49,2.34,8.95,5.98,10.77,3.64,1.82,11.92,.33,14.03,4.2,2.11,3.87,8.8,16.54,16.18,16.54s19-14.43,29.2-10.56c10.2,3.87,10.56,19,27.8,17.94s23.22-11.26,31.31-10.91c8.09,.35,6.33,3.87,9.15,3.87s4.57-1.76,6.33-2.81,4.93-.35,5.28,1.06c.35,1.41-4.57,2.81-3.87,5.98s2.81,8.8,1.41,11.61c-1.41,2.81-6.33,1.41-5.98,4.57,.35,3.17,7.39,20.76,3.17,24.63-4.22,3.87-29.18,58.91-36.17,61.39-6.98,2.48-28.61,3.6-32.21,1.8s-16.22-12.84-24.78-13.96c-8.56-1.13-23.88,11.49-33.34,11.71-9.46,.23-49.68-25.98-64.5-25.54-14.82,.44-15.04,16.57-16.13,19.4-1.09,2.83-5.67,2.4-6.1,5.01-.44,2.62,4.97,36.73,0,45.69-4.97,8.97-21.62,118.49-19.7,124.25s137.06,26.9,166.52,26.9,67.89,3.2,67.89,3.2c0,0-4.48-9.61-8.97-12.17s-14.73-9.61-15.37-14.09c-.64-4.48,3.84-15.37,3.84-15.37,0,0-29.39-53.79-31.83-69.47-2.43-15.68-.27-13.52-2.16-17.3-1.89-3.78-14.87-13.25-15.95-17.3-1.08-4.06-2.16-11.63-2.16-14.06s5.95,2.16,7.3,5.68c1.35,3.51,.54,6.76,2.97,10.54s11.35,9.46,12.98,12.44-1.89,6.49,1.89,7.03,7.3-10.81,9.73-15.68c2.43-4.87,3.51-15.68,7.84-16.22,4.33-.54-3.78,18.38-1.08,23.52,2.7,5.14,30.55,46.77,31.36,55.96,.81,9.19,4.87,7.03,8.11,11.35,3.24,4.33-1.08,16.22,5.14,18.92,6.22,2.7,10.81-2.16,20.28,14.87,9.46,17.03,5.57,48.81,13.03,57.52,7.46,8.71,24.25,17.72,29.54,22.7,5.29,4.97,4.97,17.41,12.44,30.16s20.21,14.61,22.08,22.7c1.87,8.08,10.84,24.84,8.07,33.17-2.78,8.33-5.86,2.47-5.86,6.17s4.45,2.47,6.39,4.01c1.94,1.54,3.79,.31,3.17,6.48-.62,6.17-1.61,6.48,.12,12.95s3.89,2.47,5.12,10.18c1.23,7.71-.62,16.04,4.63,17.89s23.74,2.16,34.23-1.85c10.48-4.01,5.24-11.41,15.11-11.41s22.82,1.54,30.84-1.23c8.02-2.78,10.79-12.64,17.58-14.49s12.64,.93,17.58,0c4.93-.93,4.93-13.26,13.57-16.04,8.63-2.78,39.96-7.74,51.47-15.91,11.51-8.17,3.71-13.73,7.79-16.7s16.7-8.17,24.13-11.14,7.79-8.54,12.25-8.17,7.42,2.97,18.93,0c11.51-2.97-2.6-13.36,5.57-18.56,8.17-5.2,17.44-.74,20.79-4.83,3.34-4.08-.74-12.25,3.34-14.48,4.08-2.23,12.62-4.08,19.3-7.79,6.68-3.71-2.23-31.18,2.97-33.03,5.2-1.86,15.59,3.34,18.93,0,3.34-3.34,.37-7.42,0-7.05s-4.08,1.11-4.45-.74c-.37-1.86-.74-4.83,1.86-7.05,2.6-2.23,11.14-11.14,13.36-15.59s6.68-16.7,2.97-17.82-5.94-.74-10.39-2.97c-4.45-2.23-7.79-15.22-13.36-15.96s-21.16,6.68-34.15-5.2-12.62-5.94-13.73-13.73c-1.11-7.79,3.34-31.92-1.11-31.55-4.45,.37-7.05,6.68-10.76,12.25-3.71,5.57-27.1,25.24-26.72,30.06,.37,4.83,1.11,5.57-.37,7.79-1.48,2.23-14.1,2.23-15.22,1.48s-2.97-5.94-5.2-5.94-2.97-.37-3.71,3.34c-.74,3.71,2.23,2.97-.74,3.71-2.97,.74-4.45-3.34-7.05-4.83-2.6-1.48-4.45-1.48-5.57,1.11-1.11,2.6-.74,4.45-1.11,6.68-.37,2.23-3.71,2.23-5.94,1.86-2.23-.37-.37-2.97-4.83-4.83-4.45-1.86-7.79-.37-8.17-4.08-.37-3.71,1.48-2.97,2.23-4.83s2.6-13.73,.74-17.82c-1.86-4.08-1.86-14.48-5.57-14.1-3.71,.37-9.65,.37-9.28,6.31,.37,5.94-1.48,11.88-1.86,12.99s-5.94,4.08-7.79,.37c-1.86-3.71-5.57-4.08-5.57-10.39s2.97-13.73-2.23-17.44-15.88-10.02-20.55-17.04c-4.68-7.02-9.35-18.71-11.69-22.21-2.34-3.51-9.35-9.35-9.35-14.03s11.11-9.35,13.45-12.28c2.34-2.92,10.52-.58,15.2-1.75,4.68-1.17,4.09-9.35,9.35-1.17,5.26,8.18,19.29,38.58,24.55,41.51,5.26,2.92,12.28-1.17,19.29,5.26,7.02,6.43,33.32,18.71,41.51,18.12,8.18-.58,15.78,2.34,21.63-2.34,5.85-4.68,5.26-9.94,11.11-11.11,5.85-1.17,15.2-4.68,16.95,0,1.75,4.68,.58,18.71,8.18,21.05,7.6,2.34,50.13,8.18,59.26,7.02,9.13-1.17,24.33,3.51,24.92-.58,.58-4.09-2.34-14.61,0-21.63,2.34-7.02,9.94-13.45,15.78-15.2s10.52,1.17,11.11-1.75c.58-2.92,4.68-9.94,0-11.11-4.68-1.17-9.35,1.75-11.69-1.17-2.34-2.92,0-14.03-2.92-17.54-2.92-3.51-18.12-1.75-20.46-5.26-2.34-3.51-7.02-12.86-9.35-15.2s-12.28-5.26-11.11-10.52c1.17-5.26,15.78-19.29,14.03-28.64-1.75-9.35-16.37-4.09-18.71-8.18-2.34-4.09-2.34-8.77-2.92-12.86-.58-4.09-4.68-5.26-5.26-9.94-.58-4.68,1.75-8.18,2.92-11.69s-1.75-5.85-4.09-6.43-8.77-6.43-6.43-9.94c2.34-3.51,5.26-1.75,6.43-5.85,1.17-4.09,3.51-22.21,1.75-27.48-1.75-5.26-5.26-4.09-5.85-8.77s2.34-9.94,0-10.52c-2.34-.58-8.77,1.75-12.28,.58-3.51-1.17-7.02-4.8-11.11-6.49s-7.02-5.79-11.69-6.96c-4.68-1.17-15.78-2.92-18.71-2.92s-8.18,2.92-10.52-.58c-2.34-3.51-8.77-6.43-12.28-6.43s-8.77-1.17-11.11,2.92-12.86,1.75-16.37,4.09-2.92,9.94-5.26,12.86c-2.34,2.92-7.02-1.17-11.11,1.75-4.09,2.92-4.68,6.43-6.43,8.77s-12.28,2.34-15.2,3.51c-2.92,1.17,0,6.43-14.61,5.85-14.61-.58-27.48-14.03-33.32-14.03s-17.54,3.51-19.29-1.17c-1.75-4.68,2.92-4.21-1.17-7.66-4.09-3.45-4.68-10.46-7.6-9.88-2.92,.58-9.35,3.51-9.35-2.92s6.43-11.11,3.51-16.95c-2.92-5.85-14.61-6.43-16.95-3.51-2.34,2.92-7.02,14.03-16.37,15.2-9.35,1.17-19.88-2.92-23.97-10.52-4.09-7.6-3.51-8.77-7.02-10.52-3.51-1.75-9.16,1.17-11.3-1.17-2.14-2.34-7.99-8.77-5.65-11.11,2.34-2.34,8.96-5.26,5.65-8.77s-16.17-15.2-19.1-14.03c-2.92,1.17-2.34,4.68-5.85,5.26-3.51,.58-15.2-1.17-17.54,1.75-2.34,2.92-6.43,11.11-14.03,9.94-7.6-1.17-12.86-8.77-19.88-8.18-7.02,.58-6.43,7.6-14.61,5.85-8.18-1.75-13.45-8.77-18.12-9.35-4.68-.58-8.77,1.17-15.2-2.92s-3.51-7.02-7.6-7.6c-4.09-.58-8.77-2.34-8.77-2.34,0,0,2.34-4.09-3.51-6.43-5.85-2.34-35.66,.58-38,0-2.34-.58-6.43,.58-8.77,2.92-2.34,2.34-8.18,7.6-11.69,8.18-3.51,.58-7.02-1.17-15.78-1.75-8.77-.58-14.03,1.75-16.37-1.17-2.34-2.92-6.43-2.34-9.94-3.51s-7.6-3.6-8.77-5.6-.58-7.85-2.34-10.19S101.9-1.76,99.56,1.16s-9.94,5.26-9.94,7.02,5.85,2.34,6.43,5.26c.58,2.92-7.69,9.68-7.69,9.68Z"/><path class="stroke" d="M88.37,23.12s-4.02,4.69-1.67,9.04c2.34,4.35,6.51,3.06,4.54,5.64-1.97,2.58-.46,.46-1.97,2.58-1.52,2.12-3.86,3.64-3.3,6.83s2.24,4.86,4.06,7.59c1.82,2.73,2.73,1.06,3.03,6.37,.3,5.31,1.06,5.92,0,8.8-1.06,2.88-9.41,0-12.44,4.1-3.03,4.1,4.7,9.1,7.44,12.59,2.73,3.49,5.49,12.75,5.55,16.24,.06,3.49,2.34,8.95,5.98,10.77,3.64,1.82,11.92,.33,14.03,4.2,2.11,3.87,8.8,16.54,16.18,16.54s19-14.43,29.2-10.56c10.2,3.87,10.56,19,27.8,17.94s23.22-11.26,31.31-10.91c8.09,.35,6.33,3.87,9.15,3.87s4.57-1.76,6.33-2.81,4.93-.35,5.28,1.06c.35,1.41-4.57,2.81-3.87,5.98s2.81,8.8,1.41,11.61c-1.41,2.81-6.33,1.41-5.98,4.57,.35,3.17,7.39,20.76,3.17,24.63-4.22,3.87-29.18,58.91-36.17,61.39-6.98,2.48-28.61,3.6-32.21,1.8s-16.22-12.84-24.78-13.96c-8.56-1.13-23.88,11.49-33.34,11.71-9.46,.23-49.68-25.98-64.5-25.54-14.82,.44-15.04,16.57-16.13,19.4-1.09,2.83-5.67,2.4-6.1,5.01-.44,2.62,4.97,36.73,0,45.69-4.97,8.97-21.62,118.49-19.7,124.25s137.06,26.9,166.52,26.9,67.89,3.2,67.89,3.2c0,0-4.48-9.61-8.97-12.17s-14.73-9.61-15.37-14.09c-.64-4.48,3.84-15.37,3.84-15.37,0,0-29.39-53.79-31.83-69.47-2.43-15.68-.27-13.52-2.16-17.3-1.89-3.78-14.87-13.25-15.95-17.3-1.08-4.06-2.16-11.63-2.16-14.06s5.95,2.16,7.3,5.68c1.35,3.51,.54,6.76,2.97,10.54s11.35,9.46,12.98,12.44-1.89,6.49,1.89,7.03,7.3-10.81,9.73-15.68c2.43-4.87,3.51-15.68,7.84-16.22,4.33-.54-3.78,18.38-1.08,23.52,2.7,5.14,30.55,46.77,31.36,55.96,.81,9.19,4.87,7.03,8.11,11.35,3.24,4.33-1.08,16.22,5.14,18.92,6.22,2.7,10.81-2.16,20.28,14.87,9.46,17.03,5.57,48.81,13.03,57.52,7.46,8.71,24.25,17.72,29.54,22.7,5.29,4.97,4.97,17.41,12.44,30.16s20.21,14.61,22.08,22.7c1.87,8.08,10.84,24.84,8.07,33.17-2.78,8.33-5.86,2.47-5.86,6.17s4.45,2.47,6.39,4.01c1.94,1.54,3.79,.31,3.17,6.48-.62,6.17-1.61,6.48,.12,12.95s3.89,2.47,5.12,10.18c1.23,7.71-.62,16.04,4.63,17.89s23.74,2.16,34.23-1.85c10.48-4.01,5.24-11.41,15.11-11.41s22.82,1.54,30.84-1.23c8.02-2.78,10.79-12.64,17.58-14.49s12.64,.93,17.58,0c4.93-.93,4.93-13.26,13.57-16.04,8.63-2.78,39.96-7.74,51.47-15.91,11.51-8.17,3.71-13.73,7.79-16.7s16.7-8.17,24.13-11.14,7.79-8.54,12.25-8.17,7.42,2.97,18.93,0c11.51-2.97-2.6-13.36,5.57-18.56,8.17-5.2,17.44-.74,20.79-4.83,3.34-4.08-.74-12.25,3.34-14.48,4.08-2.23,12.62-4.08,19.3-7.79,6.68-3.71-2.23-31.18,2.97-33.03,5.2-1.86,15.59,3.34,18.93,0,3.34-3.34,.37-7.42,0-7.05s-4.08,1.11-4.45-.74c-.37-1.86-.74-4.83,1.86-7.05,2.6-2.23,11.14-11.14,13.36-15.59s6.68-16.7,2.97-17.82-5.94-.74-10.39-2.97c-4.45-2.23-7.79-15.22-13.36-15.96s-21.16,6.68-34.15-5.2-12.62-5.94-13.73-13.73c-1.11-7.79,3.34-31.92-1.11-31.55-4.45,.37-7.05,6.68-10.76,12.25-3.71,5.57-27.1,25.24-26.72,30.06,.37,4.83,1.11,5.57-.37,7.79-1.48,2.23-14.1,2.23-15.22,1.48s-2.97-5.94-5.2-5.94-2.97-.37-3.71,3.34c-.74,3.71,2.23,2.97-.74,3.71-2.97,.74-4.45-3.34-7.05-4.83-2.6-1.48-4.45-1.48-5.57,1.11-1.11,2.6-.74,4.45-1.11,6.68-.37,2.23-3.71,2.23-5.94,1.86-2.23-.37-.37-2.97-4.83-4.83-4.45-1.86-7.79-.37-8.17-4.08-.37-3.71,1.48-2.97,2.23-4.83s2.6-13.73,.74-17.82c-1.86-4.08-1.86-14.48-5.57-14.1-3.71,.37-9.65,.37-9.28,6.31,.37,5.94-1.48,11.88-1.86,12.99s-5.94,4.08-7.79,.37c-1.86-3.71-5.57-4.08-5.57-10.39s2.97-13.73-2.23-17.44-15.88-10.02-20.55-17.04c-4.68-7.02-9.35-18.71-11.69-22.21-2.34-3.51-9.35-9.35-9.35-14.03s11.11-9.35,13.45-12.28c2.34-2.92,10.52-.58,15.2-1.75,4.68-1.17,4.09-9.35,9.35-1.17,5.26,8.18,19.29,38.58,24.55,41.51,5.26,2.92,12.28-1.17,19.29,5.26,7.02,6.43,33.32,18.71,41.51,18.12,8.18-.58,15.78,2.34,21.63-2.34,5.85-4.68,5.26-9.94,11.11-11.11,5.85-1.17,15.2-4.68,16.95,0,1.75,4.68,.58,18.71,8.18,21.05,7.6,2.34,50.13,8.18,59.26,7.02,9.13-1.17,24.33,3.51,24.92-.58,.58-4.09-2.34-14.61,0-21.63,2.34-7.02,9.94-13.45,15.78-15.2s10.52,1.17,11.11-1.75c.58-2.92,4.68-9.94,0-11.11-4.68-1.17-9.35,1.75-11.69-1.17-2.34-2.92,0-14.03-2.92-17.54-2.92-3.51-18.12-1.75-20.46-5.26-2.34-3.51-7.02-12.86-9.35-15.2s-12.28-5.26-11.11-10.52c1.17-5.26,15.78-19.29,14.03-28.64-1.75-9.35-16.37-4.09-18.71-8.18-2.34-4.09-2.34-8.77-2.92-12.86-.58-4.09-4.68-5.26-5.26-9.94-.58-4.68,1.75-8.18,2.92-11.69s-1.75-5.85-4.09-6.43-8.77-6.43-6.43-9.94c2.34-3.51,5.26-1.75,6.43-5.85,1.17-4.09,3.51-22.21,1.75-27.48-1.75-5.26-5.26-4.09-5.85-8.77s2.34-9.94,0-10.52c-2.34-.58-8.77,1.75-12.28,.58-3.51-1.17-7.02-4.8-11.11-6.49s-7.02-5.79-11.69-6.96c-4.68-1.17-15.78-2.92-18.71-2.92s-8.18,2.92-10.52-.58c-2.34-3.51-8.77-6.43-12.28-6.43s-8.77-1.17-11.11,2.92-12.86,1.75-16.37,4.09-2.92,9.94-5.26,12.86c-2.34,2.92-7.02-1.17-11.11,1.75-4.09,2.92-4.68,6.43-6.43,8.77s-12.28,2.34-15.2,3.51c-2.92,1.17,0,6.43-14.61,5.85-14.61-.58-27.48-14.03-33.32-14.03s-17.54,3.51-19.29-1.17c-1.75-4.68,2.92-4.21-1.17-7.66-4.09-3.45-4.68-10.46-7.6-9.88-2.92,.58-9.35,3.51-9.35-2.92s6.43-11.11,3.51-16.95c-2.92-5.85-14.61-6.43-16.95-3.51-2.34,2.92-7.02,14.03-16.37,15.2-9.35,1.17-19.88-2.92-23.97-10.52-4.09-7.6-3.51-8.77-7.02-10.52-3.51-1.75-9.16,1.17-11.3-1.17-2.14-2.34-7.99-8.77-5.65-11.11,2.34-2.34,8.96-5.26,5.65-8.77s-16.17-15.2-19.1-14.03c-2.92,1.17-2.34,4.68-5.85,5.26-3.51,.58-15.2-1.17-17.54,1.75-2.34,2.92-6.43,11.11-14.03,9.94-7.6-1.17-12.86-8.77-19.88-8.18-7.02,.58-6.43,7.6-14.61,5.85-8.18-1.75-13.45-8.77-18.12-9.35-4.68-.58-8.77,1.17-15.2-2.92s-3.51-7.02-7.6-7.6c-4.09-.58-8.77-2.34-8.77-2.34,0,0,2.34-4.09-3.51-6.43-5.85-2.34-35.66,.58-38,0-2.34-.58-6.43,.58-8.77,2.92-2.34,2.34-8.18,7.6-11.69,8.18-3.51,.58-7.02-1.17-15.78-1.75-8.77-.58-14.03,1.75-16.37-1.17-2.34-2.92-6.43-2.34-9.94-3.51s-7.6-3.6-8.77-5.6-.58-7.85-2.34-10.19S101.9-1.76,99.56,1.16s-9.94,5.26-9.94,7.02,5.85,2.34,6.43,5.26c.58,2.92-7.69,9.68-7.69,9.68Z"/><path class="main-700" d="M346.13,506.19c-5.87,0-12.04-.69-18.51-2.06-40.11-8.51-59.1-36.93-50.8-76.02,3.68-17.34,11.26-30.53,22.55-39.3-3.52-6.6-6.26-15.6-5.58-27.28,.58-12.95,2.16-25.6,4.71-37.59,2.72-12.8,6.1-23.87,10.21-33.31-4.63,.45-8.94,.25-12.98-.61-11.6-2.46-20.55-9.77-25.22-20.59-3.62-8.4-4.2-18.06-1.76-29.55l6.38-30.08c2.14-10.07,5.85-18.71,11.03-25.71,6.12-8.25,14.53-14.18,25.02-17.6l.77-.24c25.68-7.43,56.23-7.47,90.8-.14,41.29,8.76,72.11,24.67,91.61,47.28,20.81,24.14,28.23,53.78,21.46,85.71-4.63,21.84-14.16,38.75-28.31,50.28-13.34,10.87-28.44,17.44-44.88,19.54-7.44,.95-14.8,1.21-22.01,.79-.31,1.88-.66,4.38-1.03,7.64-.35,4.98-.72,8.19-1.25,10.68-2.98,14.03-9.93,22.05-15.89,26.5,5.16,11.78,6.13,25.47,2.87,40.84-4.15,19.53-13.43,33.81-27.6,42.43-9.17,5.58-19.74,8.37-31.59,8.37Zm-10.73-82c-2.9,0-5.19,.46-6.65,1.36-2.45,1.52-4.62,6.01-5.96,12.32-1.34,6.31-1.18,11.29,.44,13.68,1.82,2.68,6.97,5.09,14.14,6.61,7.22,1.53,12.88,1.36,15.92-.49,3.32-2.02,5.12-7.66,6.05-12.03,.93-4.38,1.57-10.26-.64-13.46-2.03-2.93-7.12-5.38-14.35-6.91h0c-3.36-.71-6.4-1.07-8.96-1.07Zm5.39-57.64c.46,.38,1.56,.89,3.43,1.29l28.5,6.05c0-.06,0-.13,.01-.19l.09-.99c.7-6.37,1.49-11.57,2.4-15.9,2.43-11.44,5.93-20.24,10.7-26.9l9.43-13.17,15.67,4.13c8.12,2.14,16.51,2.61,25.65,1.45,7.71-.99,14.63-4.05,21.15-9.36,5.62-4.58,9.66-12.52,12.01-23.59,3.76-17.74,.24-32.12-11.08-45.26-12.63-14.65-34.76-25.42-65.76-32-26.7-5.67-49.42-5.94-67.52-.82-.94,.34-1.44,.66-1.55,.81-.64,.87-1.86,2.99-2.81,7.47l-4.38,20.66c10.56-2.99,20.86-4.73,30.71-5.18,11.82-.54,24.42,.58,37.43,3.34,24.85,5.27,42.2,13.86,53.03,26.25l10.88,12.44-22.82,41.02-20.98-13.15c-7.86-4.93-16.08-8.32-24.44-10.1-9.85-2.09-16.87-1.35-20.88,2.2-2.74,2.42-9.7,10.84-15.17,36.66-2.02,9.53-3.28,19.65-3.74,30.09l-.02,.42c-.08,1.28,.02,2.01,.08,2.32Z"/><path class="main-0" d="M317.25,362.77c.52-11.79,1.93-23.1,4.23-33.94,5.12-24.12,12.65-40.58,22.59-49.38s23.72-11.32,41.33-7.59c11.11,2.36,21.79,6.75,32.04,13.17l2.75-4.94c-7.29-8.35-20.7-14.59-40.21-18.73-11.11-2.36-21.6-3.31-31.47-2.85-9.87,.45-20.29,2.49-31.25,6.11-7.04,2.47-12.59,3.28-16.66,2.41s-6.91-3.17-8.52-6.91-1.73-8.86-.35-15.37l6.38-30.09c1.44-6.78,3.74-12.31,6.92-16.59,3.17-4.28,7.65-7.37,13.44-9.26,22.03-6.37,48.49-6.28,79.39,.28,36.32,7.71,62.55,20.92,78.69,39.64,16.14,18.72,21.56,40.55,16.27,65.48-3.51,16.53-10.23,28.84-20.16,36.93-9.93,8.09-20.94,12.91-33.02,14.45-12.08,1.54-23.62,.86-34.62-2.04-2.82,3.93-5.09,9.97-6.81,18.1-.75,3.52-1.43,8.05-2.03,13.59-.26,3.91-.54,6.54-.83,7.9-1.32,6.23-3.87,10.58-7.65,13.03s-9.19,2.94-16.24,1.44l-32.12-6.82c-7.32-1.55-12.95-4.73-16.88-9.53s-5.67-10.98-5.2-18.52Zm31.98,39.5c13.55,2.88,23.15,8.38,28.78,16.52s7.08,18.71,4.32,31.72-8.37,22.09-16.82,27.23-19.46,6.28-33.01,3.4c-27.37-5.81-38.27-21.86-32.69-48.15,5.58-26.29,22.06-36.53,49.43-30.72Z"/></svg>
