<svg xmlns="http://www.w3.org/2000/svg" viewBox="0 0 277.11 310.64"><path class={`${clr1}-2`} d="M275.71,204.95c-2.32-7.63-29.87-36.84-35.85-41.82-1.42-1.18-3.2-2.69-5.22-4.45,11.34-15.38,40.9-41.45,36.65-57.05-4.25-15.6-17.02-60.5-19.38-65.23-2.36-4.73-12.29-10.4-15.13-12.76-2.84-2.36-26-19.38-34.51-21.74-5.32-1.48-13.42-2.57-18.27,2.17-10.36,10.49-23.27,35.69-28.93,53.67l-.31-.17c-14.39,.33-25.77,5.97-29.75,10.29-3.04,3.3-11.71,24.43-17.11,36.14-.03,.02-26.05,16.31-33.68,23.94s-31.2,12.61-38.84,13.94c-7.63,1.33-16.6-1.66-21.91,0-5.31,1.66-5.31,3.98-5.31,13.28s4.98,9.96,12.61,19.92c7.63,9.96-1.33,33.19,2.32,57.09s-13.28,43.82-18.59,45.81-3.65,5.31-3.65,5.31c35.85,32.2,83.32,2.99,88.63,3.65,5.31,.66,30.54,10.95,36.84,14.27s13.61,9.96,16.93,8.63c3.32-1.33,21.58-2.32,24.9-3.98s-.66-14.94-5.64-20.91c-4.98-5.97-1.66-5.97,0-11.95,1.62-5.82,27.83-51.97,29.15-54.29,14.38-.18,57.45-.31,68.96,1.52h.01c4.62,1.33,9.35,.09,11.2-1.01,2.77-1.66,6.19-6.64,3.87-14.27Z"/><path class={`${clr1}-3`} d="M140.5,297.96c-3.96-6.25-8.45-22.46-9.23-28.32-.78-5.86-5.61-7.81-8.37-13.87s-5.67-17.6-1.87-16.52h0c-2.01-10.29-1.89-38.62,1.01-38.62,1.65,0,8.22-1.72,15.59-3.7-6.05-4.36-20.54-16.81-22.32-15.16s-16.12,22.13-19.12,22.44c-2.22,.23-.2-5.02,1.42-8.54l-1.42,1.31c.69-.94,1.79-2.41,2.77-4.06h0c1.8-3.02,3.2-6.62,.83-8.55-3.65-2.99-11.95-4.98-10.29-10.95,1.66-5.97,11.29-57.76,14.6-62.07,.19-.25,.43-.62,.69-1.06-.05,.03-22.54,14.25-25.59,18.66-3.05,4.42-17.54,12.55-36.35,14.84s-15.25,5.43-16.52,7.42c-1.27,1.99-6.1,10.63-3.56,12.66,2.54,2.03,16.52,3.81,18.81,6.1,2.29,2.29-1.27,15.25-3.3,17.03-2.03,1.78-2.54,6.53-1.53,12.04,1.02,5.5,1.27,17.96-3.3,25.84-4.58,7.88-3.56,11.8-4.83,17.97-1.27,6.18-2.8,17.36-11.95,27.53-9.15,10.17-11.44,13.73-2.8,16.78,8.64,3.05,24.91,11.44,27.45,6.61s-7.63-20.08,1.27-27.71c8.9-7.63,13.98-11.59,12.2-23.21-1.78-11.62,5.59-27.17,9.91-24.22,4.32,2.95,12.96,8.79,13.73,10.57s1.11,4.33-2.32,9.06-16.54,22.44-18.29,27.53c-1.75,5.09-.73,12.79-5.34,18.32-4.61,5.53-4.22,7.38-1.44,8.04,2.78,.65,29.24-1.99,31.39-10.19,2.15-8.2,2.34-9.18,4.88-7.42,2.54,1.76,4.1,8.4,9.77,9.57,5.66,1.17,40.43,17.58,42.39,21.1,1.95,3.52,4.99-.98,1.03-7.23Z"/><path class={`${clr1}-3`} d="M140.5,187.36c5.34-.47,3.42,7.88,3.42,7.88,5.49-1.47,10.79-2.85,14.29-3.57,9.63-1.99,35.19-2.32,43.75-1.66,0,0,1.71-12.3,0-16.54-1.71-4.24-35.43-21.23-37.77-22.28s-10.61,34.66-14.22,25.1c-5.18-13.72-17.09-32.03-18.97-43.81-1.88-11.78-6.09-30.12-8.11-30.25s-5.31,7.62-11.2,10.1c-5.89,2.48-5.65,5.54-6.83,12.61-1.18,7.07-8.64,38.33-8.68,40.83-.04,2.51,17.63-2.68,19.04,1.33,1.41,4-.47,7.77-3.06,7.3s-4.48-.47-2.36,1.88c2.12,2.35,25.35,11.54,30.7,11.07Z"/><path class={`${clr1}-4`} d="M51.04,292.13c2.78,.65,29.24-1.99,31.39-10.19,2.15-8.2,2.34-9.18,4.88-7.42,2.54,1.76,4.1,8.4,9.77,9.57,5.66,1.17,40.43,17.58,42.39,21.1,1.95,3.52,4.99-.98,1.03-7.23s-8.45-22.46-9.23-28.32c-.78-5.86-5.61-7.81-8.37-13.87s-5.67-17.6-1.87-16.52h0c-2.01-10.29-1.89-38.62,1.01-38.62,1.65,0,8.22-1.72,15.59-3.7-6.05-4.36-20.54-16.81-22.32-15.16-.96,.89-5.56,7.24-10.07,12.96h0c-5.25,11.17-4.57,35.32-16.73,43.09-12.16,7.77-22.97,19.59-26.51,28.2-3.55,8.61-6,11.12-6,11.12l-.28,.23c-.59,2.38-1.52,4.7-3.21,6.73-4.61,5.53-4.22,7.38-1.44,8.04Z"/><path class={`${clr1}-4`} d="M152.45,207.67c2.32-2.26,4.9-4.14,17.05-3.46s30.9,.09,31.49-6.42-24.27-7.82-24.27-7.82l-16.58,1.35-9.68,15.68,1.98,.67Z"/><path class={`${clr1}-4`} d="M153.45,63.53c-15.02,2.02-27.06,4.19-28.25,7.35s-4.54,24.28,0,29.61,9.5,30.39,11.36,37.11,9.82,19.14,8.51,12.04-6.25-30.99-2.3-39.47,4.71-19.5,4.82-25.24,4.51-14.03,4.51-14.03l1.35-7.36Z"/><path class={`${clr1}-5`} d="M157.95,191.85c-6.72,4.67-19.67,25.2-20.98,37.33l-.37,.09c-.4,4.22,2.28,5.01,4.71-.09,2.77-5.82,8.29-20.17,13.46-23.77s3.77-3.61,12.71-4.5,28.64,.36,28.96-1.89c.31-2.16-27.45-8.16-38.49-7.17Z"/><path class={`${clr1}-5`} d="M149.7,143.74h0c.09,1.09,.16,2.23,.21,3.46,.33,8.63-1,25.23,2.99,27.88,3.38,2.25,10.31,5.92,14.58,6.59-1.63-6.85-4.01-16.1-1.63-22.98-2.01-13.07-10.47-32.13-14.6-34.05-2.6-1.21-4.46-2.25-5.42-3.9,1.38,7.83,6.59,11.31,3.89,23.01Z"/><path class={`${clr1}-4`} d="M191.73,218.61c8.69-.17,43.47-.31,61.31,.87-7.05-3.51-9.2-8.68-15.91-14.27-6.11-5.09-20.94-5.76-27.81-6.29v.1c-.26-.07-.54-.12-.83-.17-.36-.03-.7-.06-1-.09h-.7c-4.75,.2-10.81,4.24-16.39,16.81-6.64,14.94-20.25,22.57-23.24,31.53-2.99,8.96-27.88,16.93-32.2,15.93-3.78,9.97,2.18,20.05,5.78,15.65,3.6-4.4,13.47-7.07,16.53-6.54,3.05,.53,12.02-19.61,20.33-28.32,7.15-12.95,14.13-25.21,14.13-25.21Z"/><path class={`${clr1}-3`} d="M186.09,108.02c7.63,18.92,24.56,60.08,19.58,81.99l-.73,.47c7.69,1.73,15.78,7.28,24.29,8.16,9.63,1,19.25,10.29,24.9,17.26,2.54,3.13,5.81,4.45,8.9,4.8,2.24-3.59,13.97-7.73,10.47-10.28-3.5-2.55-29.98-6.05-29.73-14.79,.25-8.74,2.28-19.99-5.23-27.48s-21.48-26.3-21.48-26.3h0c-2.1-2.22-4.19-4.54-6.24-6.93l18.1-1.87,42.36-31.43c-7.03-15.66-16.27-49.14-19.27-55.39-3-6.25-5.75-11.34-12.24-15.79-6.5-4.45-35.23-28.1-44.72-26.39-9.49,1.71-12.99,6.46-12.24,24.19,.75,17.69-1.45,48.9-1.47,49.07,.57,12.34,1.85,23.54,4.73,30.7Z"/><path class={`${clr1}-4`} d="M203.68,39.31c-.04,.71-.08,1.43-.13,2.14h0c-1.05,16.61-3.05,33.65,.13,40.01,1.06,2.13,2.09,6.78,3.02,12.48l14.94,8.29,47.76-1.86s-2.15-5.72-5.86-12.73c-3.72-7.01-13.87-4.15-21.88-4.43-8.01-.29-8.58,4.29-10.01,7.86-1.43,3.57-5.82,3-5.82,3,0,0,2.82-5.15,4.4-7.44,1.57-2.29,4.29-8.15,1.14-10.29-3.15-2.14-27.81-45.9-27.81-45.9v8.91l.13-.06Z"/><path class={`${clr1}-5`} d="M271.29,101.63c-.12-.42-.24-.87-.36-1.33,0,0-4.13-5.64-7.26-6.69s-28.16,1.25-32.34,0c-4.17-1.25-10.64-16.27-10.64-16.27,0,0-6.68,7.72-15.31,9.66,2.59,11.45,4.72,34.29,5.27,43.6,.08,1.28,.13,2.74,.18,4.33h0c8.22,9.61,17.31,18.07,23.82,23.75,11.35-15.38,40.9-41.45,36.65-57.05Z"/><path class="stroke" d="M234.65,158.67c11.34-15.38,40.9-41.45,36.65-57.05-4.25-15.6-17.02-60.5-19.38-65.23-2.36-4.73-12.29-10.4-15.13-12.76-2.84-2.36-26-19.38-34.51-21.74-8.51-2.36-24.16-3.74-22.16,18.17,1.99,21.91-1.66,69.04,5.97,87.96,7.63,18.92,24.56,60.08,19.58,81.99"/><path class="stroke" d="M203.68,39.31c-1,17.26-3.32,35.52,0,42.16,3.32,6.64,6.31,37.84,6.97,49.13s0,36.84,0,36.84c0,0,19.92,14.94,22.57,17.26s-8.07,13.18-8.07,13.18"/><path class="stroke" d="M210.83,134.92c10.78,12.6,23.06,23.22,29.03,28.2s33.53,34.19,35.85,41.82c2.32,7.63-1.09,12.61-3.87,14.27s-12.07,3.65-17.71-3.32-15.27-16.26-24.9-17.26c-9.63-1-18.71-7.97-27.28-8.63s-34.13-.33-43.75,1.66c-9.63,1.99-32.86,8.96-36.18,8.96s-2.99,37.18,0,41.82c2.99,4.65,8.63,19.58,12.95,20.58,4.32,1,29.21-6.97,32.2-15.93s16.6-16.6,23.24-31.53c6.64-14.94,13.94-17.83,18.92-16.55"/><path class="stroke" d="M188.83,218.75c10.21-.19,59.39-.5,71.81,1.48"/><path class="stroke" d="M191.73,218.61s-27.55,48.41-29.21,54.39c-1.66,5.97-4.98,5.97,0,11.95,4.98,5.97,8.96,19.25,5.64,20.91-3.32,1.66-21.58,2.66-24.9,3.98-3.32,1.33-10.62-5.31-16.93-8.63-6.31-3.32-31.53-13.61-36.84-14.27-5.31-.66-52.78,28.55-88.63-3.65,0,0-1.66-3.32,3.65-5.31,5.31-1.99,22.24-21.91,18.59-45.81-3.65-23.9,5.31-47.13-2.32-57.09-7.63-9.96-12.61-10.62-12.61-19.92s0-11.62,5.31-13.28c5.31-1.66,14.27,1.33,21.91,0,7.63-1.33,31.2-6.31,38.84-13.94,7.63-7.63,33.68-23.94,33.68-23.94"/><path class="stroke" d="M96.18,196.98c1.95-2.66,7.26-9.63,3.61-12.61-3.65-2.99-11.95-4.98-10.29-10.95,1.66-5.97,11.29-57.76,14.61-62.07,3.32-4.32,16.93-39.17,20.91-43.48s15.36-9.96,29.75-10.29"/><path class="stroke" d="M184.01,4.06c-12.52,12.68-28.79,46.87-31.44,63.8-2.66,16.93-5.31,39.5-6.97,46.14-1.66,6.64,.66,8.3,5.64,10.62,4.98,2.32,16.26,29.54,14.94,41.16"/><path class="stroke" d="M145.06,128.93c3.19,4.65,4.51,9.63,4.85,18.26,.33,8.63-1,25.23,2.99,27.88s12.95,7.3,16.6,6.64"/><path class="stroke" d="M51.32,285.28c4.65-3.98,6.31-13.61,5.97-17.59s20.91-32.2,24.23-36.84"/><path class={`${clr1}-4`} d="M166.5,233.76c-.85-2.76-17.9,8.84-23.36,9.21s-11.42,.56-9.38,5.26,7.31,5.64,10.13,1.32,24.34-10.15,22.6-15.79Z"/><path class={`${clr1}-5`} d="M140.32,245.6c-.91-3.64-7.76-.61-4.89,3.01s5.83,.75,4.89-3.01Z"/><path class={`${clr1}-4`} d="M36.78,214.59h0c-.57,3.66-1.61,7.29-3.33,10.27-4.58,7.88-3.56,11.8-4.83,17.97-1.27,6.18-2.8,17.36-11.95,27.53-9.15,10.17-11.44,13.73-2.8,16.78,3.46,1.22,8.15,3.3,12.69,5.04,.04,.02,.08,.03,.12,.04,12.81,5.09,6.02-11.29,5.8-21.65-.22-10.37,17.06-19.65,16.63-30.24-.43-10.58-8.21-30.89-12.33-25.74Z"/><path class={`${clr1}-4`} d="M22.32,144.98c-1.94-1.23-9.07,7.02-9.25,11.99s7.19,9.59,10.96,15.07,2.74,15.58,5.48,17.98,10.1-8.73,7.88-14.38-13.18-3.94-16.27-11.13-3.77-12.33-.86-15.07,3.94-3.25,2.05-4.45Z"/><path class="stroke" d="M158.21,191.67c-6.64,4.32-19.92,25.23-21.24,37.51"/><path class="stroke" d="M147.59,204.21c7.97-2.92,41.24-5.19,41.24-5.19"/></svg>
