<svg xmlns="http://www.w3.org/2000/svg" viewBox="0 0 411.11 320.81"><path class="paper-white-1" d="M404.3,50S279.79,16.86,253.88,10.44L214.26.63,7,108.2l.85.33h0l-1.34.66,198.15,80.2L397.54,55.49l-5.14-1.35C396.31,51.27,404.3,50,404.3,50Z"/><path class="paper-white-2" d="M157.71,166.29c9.21,3,26.26,6.32,42.7,4.59s38.3-6.53,42.89-8.32,11.77-8.17,11.77-8.17l.85-4.3-11.6,4-65.15,10.52-16.23,1.64Z"/><path class="paper-white-3" d="M157.71,166.29c14.31,1.93,25.71,2.81,36.23,1.93s45.76-7.49,50.49-8.65A26.49,26.49,0,0,0,255,153.85c.88-1.06,1.68-3.47,3.84-5l-10.18,4.26-64.11,10-17.79,3Z"/><path class="paper-white-3" d="M249.44,152.85l-84.88,13.44s10.85-1.42,17.65-9.11,32.09-8.1,34.57-9.24-6.58-6.67-8.19-9.62c0,0,11,8.59,20.44,11.91S242.76,154,249.44,152.85Z"/><polygon class="paper-white-2" points="397.54 55.49 389.19 141.41 202.25 320.18 15.76 214.9 6.5 109.19 204.65 189.39 397.54 55.49"/><path class="paper-white-3" d="M202.25,320.18,389.19,141.41l8.35-85.92L204.65,189.39c-.06,1.4-.68,12.51-.36,15.24s-.09,9.07-.13,11.49.36,4.66-.07,3.33-1-5.5-2.42-5.2c-11.13,2.36-17.17,13.28-17.17,13.28l19.29,9.29c0,8.69-1.11,54-1.11,55.39S202.25,320.18,202.25,320.18Z"/><line class="illu__stroke" x1="164.56" y1="166.29" x2="249.44" y2="152.85"/><path class="paper-white-3" d="M38,207.11s1.93,5.28,1.79,8.91c0,0-5.89-4.16-7.49-6.2Z"/><path class="illu__stroke" d="M214.26.62,7,108.2s111.63,43.67,143.42,56.17,49.12-33.75,49.12-33.75,35.25,34.89,59.26,18.27c19.82-13.73,104.9-73.68,133.61-94.75,3.91-2.87,11.9-4.1,11.9-4.1S279.79,16.86,253.88,10.44Z"/><path class="paper-white-3" d="M189.46,261s3.79,10.91,3.16,19.87L176.7,269.73Z"/><polyline class="illu__stroke" points="7.84 108.53 6.5 109.19 204.65 189.39 397.54 55.49 392.4 54.14"/><polyline class="illu__stroke" points="6.5 109.19 15.76 214.9 202.25 320.18 389.19 141.41 397.54 55.49"/><path class="paper-white-1" d="M43.62,187.34,189,261.06s-20.71,12.42-22.37,21.12C166.61,282.18,119,234.14,43.62,187.34Z"/><path class="paper-white-1" d="M23.32,200.24l14,6.94s-8.22,3.49-11.17,7.72C26.2,214.9,23.28,209.41,23.32,200.24Z"/><path class="illu__stroke" d="M43.62,187.34,189,261.06s-20.71,12.42-22.37,21.12C166.61,282.18,119,234.14,43.62,187.34Z"/><path class="illu__stroke" d="M23.32,200.24l14,6.94s-8.22,3.49-11.17,7.72C26.2,214.9,23.28,209.41,23.32,200.24Z"/><path class="paper-white-1" d="M205.64,305.25c1-2.65,6.89-9.86,14.88-18.8h0c-5.13-1.15-17.07,6.57-17.07,6.57L182.3,282.18A53.16,53.16,0,0,1,205.64,305.25Z"/><path class="illu__stroke" d="M182.3,282.18,203.45,293l69.73-61.92s-64.25,64.9-67.54,74.15A53.16,53.16,0,0,0,182.3,282.18Z"/><path class="paper-white-3" d="M231.13,196.15s149-103,179.35-109.48c0,0-3.48-14.87-14.54-14.68Z"/><path class="paper-white-3" d="M269.73,211.78,392.14,111.1l.61-6.34,17.73,11.18S393.9,113.21,269.73,211.78Z"/><path class="paper-white-1" d="M8.52,132.25s-7.9,5.09-7.9,9.16l179.81,93.52s7-17.31,20.79-20.29Z"/><path class="illu__stroke" d="M8.52,132.25s-7.9,5.09-7.9,9.16l179.81,93.52s7-17.31,20.79-20.29Z"/><path class="illu__stroke" d="M231.13,196.15s149-103,179.35-109.48c0,0-3.48-14.87-14.54-14.68Z"/><path class="illu__stroke" d="M269.73,211.78,392.14,111.1l.61-6.34,17.73,11.18S393.9,113.21,269.73,211.78Z"/><path class="paper-white-3" d="M18.41,167.21c-.22,1.32,45.92,23.3,45.9,22.5S18.52,166.53,18.41,167.21Z"/><path class="paper-white-1" d="M18.41,121.77c0,1.06,25.21,11.44,25.21,10.48S18.41,121,18.41,121.77Z"/><path class="paper-white-1" d="M35.46,134.37c0,1.45,16.25,7.3,16.32,6.57S35.46,132.93,35.46,134.37Z"/><path class="paper-white-3" d="M81,189.73c0,.8,32.73,15.93,32.74,14.61C113.72,203.74,81,188.59,81,189.73Z"/><path class="paper-white-3" d="M109.25,170.52c.12.38,49.46,21.18,49.36,20.23C158.55,190.15,108.91,169.44,109.25,170.52Z"/><path class="paper-white-3" d="M43.62,225.85c.15.86,65.67,37.11,65.63,35.71C109.22,260.57,43.37,224.36,43.62,225.85Z"/><path class="paper-white-3" d="M61.65,219.81c0,.33,17.41,9.33,17.18,8.53C78.52,227.27,61.72,218.56,61.65,219.81Z"/><path class="paper-white-3" d="M92.33,243.82c0,.33,31.61,17.42,31.35,16.62C123.26,259.16,92.29,242.33,92.33,243.82Z"/><path class="paper-white-4" d="M212.55,252.88c.15,1.35,38-28,38.19-29.35C250.93,222,212.37,251.42,212.55,252.88Z"/><path class="paper-white-4" d="M241.82,246.56c.17-2.38,30.23-26.94,30.23-25.8S241.71,248,241.82,246.56Z"/><path class="paper-white-4" d="M281.69,184.39c1-2.13,14.81-12.43,14.81-11.65S281.25,185.36,281.69,184.39Z"/><path class="paper-white-4" d="M234.26,281.37c.43-2.19,52.22-51.39,51.89-50.27S234,282.68,234.26,281.37Z"/><path class="paper-white-4" d="M318,120.79c.48-2.68,46.4-34.93,46-34.12S317.79,121.94,318,120.79Z"/><path class="paper-white-4" d="M299.12,161.67c0-2.14,27.78-23.91,27.64-23.35C326.54,139.21,299.11,163.16,299.12,161.67Z"/></svg>
