<svg xmlns="http://www.w3.org/2000/svg" viewBox="0 0 255.74 382.25"><path class={`${clr1}-2`} d="M210.28,340.31c.2-.96,.36-1.93,.45-2.91L252.7,65.77H2.65L47.72,338.49c.08,.58,.17,1.17,.29,1.75l.07,.45h.03c5.05,23.08,39.4,40.94,81.05,40.94s76-17.86,81.05-40.94h.03l.06-.38Z"/><path class={`${clr1}-3`} d="M177.76,353.69c-2.85,15.38-37.02,29.54-66.79,26.76,5.85,.76,11.93,1.17,18.18,1.17,41.65,0,76-17.86,81.05-40.94h.03l.06-.38c.2-.96,.36-1.93,.45-2.91L252.7,65.77H2.65l2.15,13.02c.61,1.21,1.2,2.26,1.72,3.11,.03,.05,.06,.1,.09,.16,.97,1.57,1.67,2.44,1.67,2.44h0c15.84,21.22,63.3,36.62,119.39,36.62,24.7,0,47.73-2.99,67.12-8.15h0c7.64-2.2,9.03,5.86,7.42,17.12s-21.23,206.24-24.45,223.61Z"/><path class={`${clr1}-3`} d="M99.69,378.49c-.55-.14-1.05-.26-1.52-.36,.51,.12,1.01,.25,1.52,.36Z"/><path class={`${clr1}-2`} d="M250.85,43.77h-9.8c-19.9-17.8-63.17-30.14-113.37-30.14S34.2,25.97,14.3,43.77H4.51c-8.17,15.08-1.45,29.27,2.02,34.93,.03,.05,.06,.1,.09,.16,.97,1.57,1.67,2.44,1.67,2.44h0c15.84,21.22,63.3,36.62,119.39,36.62s103.55-15.4,119.39-36.62h0s15.24-17.48,3.78-37.52Z"/><path class={`${clr1}-3`} d="M25.53,95.84c22.64,13.35,59.95,22.08,102.15,22.08,56.09,0,103.55-15.4,119.39-36.62,0,0,11.34-13.02,7.08-29.48,.9,5.61,.54,15.2-12.32,26.29-12.94,11.16-31.42,15.08-31.33,17.58,.09,2.5-2.68,5.89-14.9,9.73-12.22,3.84-111.04,21.25-170.07-9.58Z"/><path class={`${clr1}-4`} d="M255.1,60.08h0c-2.66,11.39-5.45,25.48-53.79,47.83,0,0,16.65-2.82,24.93-6.61,8.28-3.79,5.69,6.72,4.83,13.45-.86,6.72-31.05,216.58-26.82,213.41s32.67-225.81,38.5-231.8c5.83-5.98,7-11.5,7-11.5l1.59-10.27c1.85-3.7,3.62-8.73,3.77-14.51Z"/><path class="stroke" d="M4.51,43.77c-8.17,15.08-1.45,29.27,2.02,34.93,.03,.05,.06,.1,.09,.16,.97,1.57,1.67,2.44,1.67,2.44h0c15.84,21.22,63.3,36.62,119.39,36.62s103.55-15.4,119.39-36.62h0s15.24-17.48,3.78-37.52"/><ellipse class={`${clr1}-2`} cx="127.68" cy="52.77" rx="125.02" ry="52.14"/><path class={`${clr1}-3`} d="M127.68,104.91c26.41,0,50.9-3.42,71.08-9.25-2.26-14.34-42.18-93.64-99.11-90.25C42.72,8.8,1.49,37.8,3.19,57.59h0c5.83,26.54,59.34,47.32,124.49,47.32Z"/><path class={`${clr1}-4`} d="M116.57,104.7C104.44,62.14,22.07,8.17,3.88,60.08h0c8.03,23.83,54.67,42.49,112.69,44.62Z"/><ellipse class="stroke" cx="127.68" cy="52.77" rx="125.02" ry="52.14"/><path class="stroke" d="M3.99,73.88L47.72,338.49c.08,.58,.17,1.17,.29,1.75l.07,.45h.03c5.05,23.08,39.4,40.94,81.05,40.94s76-17.86,81.05-40.94h.03l.06-.38c.2-.96,.36-1.93,.45-2.91L251.34,74.6"/></svg>
