<svg xmlns="http://www.w3.org/2000/svg" viewBox="0 0 613.12 712.09"><g id="Layer_2" data-name="Layer 2"><g id="main"><path class="paper-bg" d="M207.77,709.28l386-145.14a28.22,28.22,0,0,0,9.94-46.48c-20.6-20.29-45.79-54-66.3-108.56-42.53-113.13,2.48-154.77-36.9-259.52C472.91,76.09,435.49,30.41,415.62,9.69A28.23,28.23,0,0,0,385.3,2.81l-366,137.6C-.17,147.74-5.34,173,9.81,187.3c24.28,22.93,54.87,58.86,72.8,106.53C115.72,381.9,50,467.46,98.47,596.3c26.81,71.28,65.9,100.52,85.85,111.35A28.3,28.3,0,0,0,207.77,709.28Z"/></g></g></svg>