<svg xmlns="http://www.w3.org/2000/svg" viewBox="0 0 452.32 749.68"><path class={`${clr1}-2`} d="M297.8,749.05s-118.68-68.14-158.17-92.85S16.56,577.19,10.11,568.22s-4.52-115.77-7.73-122.95-1.28-5.38,0-11.67,3.05-109.09,0-114.72-.86-5.87,0-9.3S-3.95,158.86,6.02,46.99c0,0,112.37-19.57,115-20.01S149.79,.13,152.25,.63s76.06,16.64,115.76,24.89,177.43,28.33,179.74,29.28-6.55,269.95-3.51,278.06,2.7,7.09,1.01,11.48-1.68,100.88,1.31,110.09,3.13,10.21,1.19,15.19,1.99,105.06,3.89,114.02-41.67,53.28-64.58,77.43-89.26,87.99-89.26,87.99Z"/><path class={`${clr1}-1`} d="M103.91,494.57c1.94,6.1,90.61,59.97,103.87,71.16s87.92,47.88,84.78,28.08-51.21-31.4-51.21-31.4l-137.43-67.84Z"/><path class={`${clr1}-1`} d="M9.02,445.24c-6.05,2.79,17.53,23.15,36.06,33.08s53.92,18.85,52.93,13.23-50.61-33.74-50.61-33.74l-38.37-12.57Z"/><path class={`${clr1}-3`} d="M6.02,46.99s108.98,24.56,127.25,29.28c0,0,.25,19.86,29.66,27.53,28.8,7.51,35.57-11.46,35.57-11.46,0,0,63.32,17.65,101.67,31.3,0,0,1.86-1.64,4.9-4.32l-75.62-61.82S168.53,8.62,152.25,.63c-2.46-.5-28.6,25.91-31.23,26.35S6.02,46.99,6.02,46.99Z"/><path class={`${clr1}-3`} d="M441.84,53.74c-.18-.03-.35-.06-.54-.09,.18,.03,.36,.06,.54,.09Z"/><path class={`${clr1}-3`} d="M440.31,53.5c-.15-.02-.31-.05-.46-.07,.16,.03,.31,.05,.46,.07Z"/><path class={`${clr1}-3`} d="M436.78,52.93c-.08-.01-.16-.02-.24-.04,.08,.01,.16,.03,.24,.04Z"/><path class={`${clr1}-3`} d="M438.64,53.23c-.14-.02-.28-.04-.42-.07,.14,.02,.28,.04,.42,.07Z"/><path class={`${clr1}-3`} d="M447.75,54.8s-.1-.03-.2-.06c.1,.02,.17,.04,.2,.06Z"/><path class={`${clr1}-3`} d="M434.77,52.62h0Z"/><path class={`${clr1}-3`} d="M451.64,583.64c-1.89-8.96-5.82-109.04-3.89-114.02,1.94-4.98,1.8-5.98-1.19-15.19s-3-105.7-1.31-110.09c1.69-4.39,2.03-3.38-1.01-11.48-3.04-8.11,5.82-277.1,3.51-278.06,0,0-88.99,18.41-91.83,20.3s-55.76,48.55-55.76,48.55c0,0-6,261.06-5.7,279.13s-8.44,18.98-13.25,17.17c-4.82-1.81-268.1-118.08-269.91-118.39-1.81-.3-1.21,7.23,0,9.64,1.21,2.41,277.19,117.58,281.55,125.2,4.36,7.63,4.72,11.62,4.72,17.8s-.38,123.45-.69,127.38c-.3,3.93-55.32-25.39-62.27-29.02s-13.6,2.72-25.09-10.58c-11.49-13.3-198.6-106.71-201.02-108.22-2.42-1.51-7.31,6.76-1.33,9.91,5.98,3.15,290.62,152.88,290.62,152.88,0,0,2.34,132.16,2.37,137.35,.03,5.19-7.91,4.82-7.01,8.9s4.64,6.23,4.64,6.23c0,0,66.36-63.84,89.26-87.99,22.9-24.15,66.47-68.46,64.58-77.43Z"/><path class={`${clr1}-3`} d="M446.91,54.61c-.1-.02-.19-.04-.31-.06,.12,.02,.21,.04,.31,.06Z"/><path class={`${clr1}-3`} d="M447.4,54.71c-.07-.02-.14-.03-.23-.05,.09,.02,.16,.03,.23,.05Z"/><path class={`${clr1}-3`} d="M446.24,54.49c-.12-.02-.24-.04-.37-.07,.14,.02,.25,.04,.37,.07Z"/><path class={`${clr1}-3`} d="M445.4,54.34c-.15-.03-.29-.05-.44-.08,.16,.03,.3,.05,.44,.08Z"/><path class={`${clr1}-3`} d="M443.15,53.96c-.15-.02-.3-.05-.46-.08,.16,.03,.31,.05,.46,.08Z"/><path class={`${clr1}-3`} d="M444.37,54.16c-.16-.03-.31-.05-.47-.08,.17,.03,.32,.05,.47,.08Z"/><path class={`${clr1}-4`} d="M151.07,3.3c-2.51,2.53-24.19,21.74-26.49,24.48-2.3,2.74-2.45,3.46-2.3,5.47,.14,2.02-2.3,39.8-2.3,39.8h0c5.96,1.41,10.61,2.53,13.29,3.22,0,0,.19,13.67,17.05,22.71,.53-25.8,1.89-92.73,1.97-94.55,.09-2.26-.81-1.55-1.22-1.13Z"/><path class={`${clr1}-4`} d="M364.92,511.57c-5.69-1.55-53.96,171.85-58.04,200.87s30.38-69.83,40.81-107.92,22.22-91.59,17.23-92.95Z"/><path class={`${clr1}-4`} d="M451.64,583.64c-1.89-8.96-5.82-109.04-3.89-114.02,1.28-3.28,1.64-4.85,.89-8.17-7.77-.58-67.11,32.95-72.9,34.4-5.79,1.45-7.57-330.99-12.86-327.36-4.1,2.82,2.11,313.45,2.82,331.71s85.94,83.44,85.94,83.44Z"/><path class="stroke" d="M297.8,749.05s-118.68-68.14-158.17-92.85S16.56,577.19,10.11,568.22s-4.52-115.77-7.73-122.95-1.28-5.38,0-11.67,3.05-109.09,0-114.72-.86-5.87,0-9.3S-3.95,158.86,6.02,46.99c0,0,112.37-19.57,115-20.01S149.79,.13,152.25,.63s76.06,16.64,115.76,24.89,177.43,28.33,179.74,29.28-6.55,269.95-3.51,278.06,2.7,7.09,1.01,11.48-1.68,100.88,1.31,110.09,3.13,10.21,1.19,15.19,1.99,105.06,3.89,114.02-41.67,53.28-64.58,77.43-89.26,87.99-89.26,87.99Z"/><path class="stroke" d="M268.01,25.52C228.3,17.27,154.7,1.13,152.25,.63s-28.6,25.91-31.23,26.35S6.02,46.99,6.02,46.99c0,0,108.98,24.56,127.25,29.28,0,0,.25,19.86,29.66,27.53,28.8,7.51,35.57-11.46,35.57-11.46,0,0,63.32,17.65,101.67,31.3,0,0,52.92-46.66,55.76-48.55s91.83-20.3,91.83-20.3c-2.31-.96-140.03-21.04-179.74-29.28Z"/><path class={`${clr1}-4`} d="M441.84,155.8c-1.6-.23-6.18,140.97-3.62,141.24s7.34-140.71,3.62-141.24Z"/><path class={`${clr1}-4`} d="M438.7,307.93c-1.18-.13-2.17,18.95,0,18.55s1.78-18.36,0-18.55Z"/><path class={`${clr1}-4`} d="M441.26,345.43c-1.69,.15-27.24,8.68-25.66,10.07s24.28,5.53,24.58,1.97,2.97-12.2,1.08-12.04Z"/><path class={`${clr1}-4`} d="M301.38,594.53c.5,2.98,31.82-50.31,31.44-52.2s-32.45,46.16-31.44,52.2Z"/><path class={`${clr1}-4`} d="M302.05,447.15c.08,2.33,35.79-36.97,35.79-40.32s-35.94,36.26-35.79,40.32Z"/><path class={`${clr1}-3`} d="M33.57,74.16c-9.91-3.43-20.59,9.15-19.06,30.5s-5.63,77.02-.15,85.41S63.69,122.67,60.26,98.99s-26.69-24.82-26.69-24.82Z"/><path class={`${clr1}-3`} d="M198.95,111.19c0-5.5-11.89,3.02-25.19,1.41s-22.58-2.82-21.46,1.61,15.42,14.91,28.92,10.68,17.73-11.08,17.73-13.7Z"/><path class={`${clr1}-1`} d="M187.43,237.4c17.16,6.68,50.98,99,71.78,125.3s4.02,34.87-7.38,30.59-136.84-53.52-111.35-94.3,40.41-64.13,46.96-61.58Z"/><path class={`${clr1}-1`} d="M12.25,320.16c-2.02-.9,.29,8.66,5.42,11.45s81.11,39.26,115.82,56.1,152.11,65.36,151.55,59.43-7.74-9.12-7.74-9.12L12.25,320.16Z"/><path class={`${clr1}-3`} d="M213.63,483.38c-6.84,.65-.1,52.48,2.47,56.8s12.63-58.24-2.47-56.8Z"/><path class={`${clr1}-4`} d="M442.49,588.98c-1.28-5.12-114.02,114.86-112.26,117.49s114.9-106.94,112.26-117.49Z"/><path class={`${clr1}-3`} d="M285.04,726.69c-7.73-12.09-121.95-61.03-124.64-70.45s83.02,23.78,98.72,3.14,23.78-28.27,28.27-20.19,7.41,102.76-2.36,87.51Z"/></svg>
