<svg xmlns="http://www.w3.org/2000/svg" viewBox="0 0 143.55 393.9"><path class={`${clr1}-3`} d="M9.01,8.56c-.41,1.01-.94,1.9-1.54,2.64-1.24,1.52-2.78,2.37-4.13,2.19-.22-.03-.43-.08-.64-.17C.58,12.38-.01,8.91,1.37,5.49,2.62,2.38,5.06,.37,7.08,.66c.12,.02,.24,.04,.36,.08,.04,.01,.08,.02,.12,.04,.04,.01,.08,.03,.12,.04,2.11,.85,2.71,4.31,1.33,7.74Z"/><path class={`${clr1}-3`} d="M113.97,44.71c-.5,1.4-.98,2.6-.98,2.6l-1.27-.39L3.33,13.39c1.35,.17,2.89-.68,4.13-2.19L113.97,44.71Z"/><path class={`${clr1}-2`} d="M115.38,34.12s0,4.44-.4,7.11c-.13,.85-.57,2.24-1.01,3.48L7.47,11.2c.6-.74,1.14-1.63,1.54-2.64,1.38-3.42,.78-6.89-1.33-7.74-.04-.02-.08-.03-.12-.04L115.38,34.12Z"/><path class={`${clr1}-2`} d="M127.37,77.14v0Z"/><path class={`${clr1}-3`} d="M129.86,78.14l-.16,312.86c-1.46-1.13-2.34-2.52-2.34-3.78,0-.04,0-.08,0-.11V79.11s.01-.73,0-1.93c0,.03,0,.08,0,.12,0,.06,0,.13,.01,.18,0,.01,0,.03,0,.04,0,.02,0,.03,.01,.05,0,.02,.01,.04,.02,.05,0,0,0,0,.01,0,.25,.06,1.08,.3,2.43,.5Z"/><path class={`${clr1}-2`} d="M127.37,77.31c0,.06,0,.12,.01,.18,0-.06-.01-.12-.01-.18Z"/><path class={`${clr1}-2`} d="M140.67,81.81V390.87s-.02,.08-.03,.12c-.01,.04-.03,.09-.04,.13-.78,2.14-4.34,2.8-7.96,1.48-1.12-.41-2.12-.96-2.93-1.6l.16-312.86-.65-1.14,11.39-.85h0c.01,1,.03,1.98,.07,2.96,.02,.42,0,2.7,0,2.7Z"/><path class={`${clr1}-3`} d="M114.59,46.39c-.05,.09-.1,.19-.16,.28-.05,.09-.1,.18-.15,.27-.03,.06-.07,.12-.1,.18-.09,.15-.17,.3-.25,.44-.02,.04-.04,.08-.07,.11-.22,.38-.41,.7-.56,.95-.03,.05-.06,.09-.08,.14-.04,.06-.07,.12-.1,.17-.02,.03-.03,.05-.05,.08l-.08,.12c-.18-.27,0-1.82,0-1.82,0,0,.49-1.2,.98-2.6l.62,1.69Z"/><path class={`${clr1}-1`} d="M118.35,33.75s-.53,5.16-1.56,8.04c-.03,.09-.06,.18-.1,.27-.07,.18-.14,.36-.22,.55-.04,.09-.08,.19-.12,.28-.04,.1-.09,.19-.13,.29-.04,.1-.09,.2-.14,.29-.05,.12-.11,.24-.17,.37-.09,.18-.17,.35-.26,.53-.35,.7-.72,1.39-1.07,2.03h0l-.62-1.69c.44-1.23,.88-2.62,1.01-3.48,.39-2.67,.4-7.11,.4-7.11,0,0,2.46-.56,2.98-.37Z"/><path class={`${clr1}-3`} d="M118.35,47.05c-.55,.77-1.07,1.41-1.4,1.81-.06,.08-.12,.15-.17,.21-.05,.06-.09,.11-.12,.14-.05,.05-.07,.08-.07,.08,0,0-3.41,.1-3.59-.17l.08-.12s.03-.05,.05-.08c.03-.05,.06-.1,.1-.17,.03-.04,.05-.09,.08-.14,.15-.24,.34-.57,.56-.95,.02-.04,.04-.08,.07-.11,.08-.14,.17-.29,.25-.44,.04-.06,.07-.12,.1-.18,.05-.09,.1-.18,.15-.27,.05-.09,.1-.18,.16-.28h0l3.76,.65Z"/><path class={`${clr1}-2`} d="M122.01,37.37v.04c-.08,.38-.63,3.16-1.21,5.04-.02,.06-.04,.12-.06,.18-.06,.19-.13,.39-.2,.58-.03,.09-.06,.17-.1,.26-.5,1.22-1.33,2.52-2.09,3.58l-3.76-.65c.35-.63,.72-1.33,1.07-2.03,.09-.18,.18-.35,.26-.53,.06-.12,.12-.24,.17-.37,.05-.1,.09-.19,.14-.29,.05-.1,.09-.19,.13-.29,.04-.09,.08-.19,.12-.28,.08-.18,.15-.37,.22-.55,.04-.09,.07-.18,.1-.27,1.02-2.88,1.56-8.04,1.56-8.04,1.19,.45,3.54,3.48,3.65,3.62h0Z"/><path class={`${clr1}-2`} d="M118.74,49.13c-.08,.09-.16,.18-.23,.27-.06,.07-.11,.13-.17,.19-.34,.38-.66,.72-.93,1-.06,.06-.12,.12-.17,.18-.09,.09-.16,.17-.24,.24-.02,.02-.05,.04-.07,.07-.23,.23-.39,.37-.45,.43,0,0-.01,.01-.02,.02,0,0-.01,.01-.01,.01-.35-.49,.12-2.23,.12-2.23,0,0,.03-.03,.07-.08,.03-.04,.08-.09,.12-.14,.05-.06,.11-.13,.17-.21,.34-.4,.85-1.04,1.41-1.81l.39,2.07Z"/><path class={`${clr1}-1`} d="M124.39,36.97s-.5,2.6-2.1,6.71c-.09,.24-.2,.48-.31,.72-.06,.13-.12,.25-.19,.38-.12,.24-.25,.47-.38,.7-.08,.13-.16,.26-.23,.39-.14,.22-.28,.44-.43,.66-.35,.52-.72,1.02-1.09,1.49-.05,.07-.11,.14-.17,.21-.17,.21-.33,.41-.5,.6-.08,.1-.16,.19-.24,.28l-.39-2.07c.72-.99,1.49-2.2,1.99-3.35,.03-.08,.06-.15,.1-.23,.04-.09,.07-.17,.1-.26,.07-.19,.14-.39,.2-.58,.02-.06,.04-.12,.06-.18,.76-2.32,1.13-4.53,1.2-4.99,0-.02,0-.03,0-.04v-.04s1.97-.59,2.39-.4Z"/><path class={`${clr1}-3`} d="M121.64,50.12c-1.05,.89-1.92,1.52-1.92,1.52h0c-.1,.01-2.92,.37-3.26-.11,0,0,0,0,.01-.01,0,0,0-.01,.02-.02,.06-.06,.22-.21,.45-.43l.07-.07c.07-.07,.15-.15,.24-.24,.05-.06,.11-.12,.17-.18,.27-.28,.59-.62,.93-1,.06-.06,.11-.13,.17-.19,.08-.09,.15-.17,.23-.27l2.9,.99Z"/><path class={`${clr1}-2`} d="M126.83,40.78h0c-.03,.13-.86,4.23-2.21,6.26-.69,1.03-1.92,2.19-2.98,3.08h0l-2.9-.99c.08-.09,.16-.19,.24-.28,.16-.19,.33-.39,.5-.6,.06-.07,.11-.14,.17-.21,.37-.47,.74-.97,1.09-1.49,.15-.22,.29-.44,.43-.66,.08-.13,.16-.26,.23-.39,.13-.23,.26-.47,.38-.7,.06-.12,.13-.25,.19-.38,.11-.24,.22-.48,.31-.72,1.6-4.11,2.1-6.71,2.1-6.71,.92,.41,2.44,3.81,2.44,3.81Z"/><path class={`${clr1}-2`} d="M121.64,50.12l-.03,2.18h0c-.51,.38-.98,.71-1.33,.96-.04,.03-.07,.05-.11,.07-.01,0-.03,.02-.04,.03-.04,.03-.08,.05-.12,.08,0,0-.01,0-.01,.01-.04,.03-.08,.05-.12,.08h-.01s-.04,.04-.06,.05c-.18,.12-.28,.18-.28,.18-.35-.45,.15-2.04,.18-2.11h0s.87-.63,1.92-1.52h0Z"/><path class={`${clr1}-1`} d="M130.15,41.22s-1.74,4.13-3.66,6.69c-.06,.08-.12,.16-.19,.24-.47,.58-1.08,1.18-1.73,1.77-.18,.16-.36,.32-.54,.47-.1,.08-.19,.16-.29,.24-.19,.16-.39,.32-.58,.48-.1,.08-.19,.16-.29,.23-.43,.34-.85,.66-1.24,.95l.03-2.18c1.05-.89,2.29-2.05,2.98-3.08,1.35-2.03,2.19-6.13,2.21-6.25h0s2.86,.08,3.32,.44Z"/><path class={`${clr1}-3`} d="M124.37,53.36c-1,.58-1.77,.96-1.77,.96,0,0-2.7-.11-3.06-.57,0,0,.1-.06,.28-.18,.02-.01,.04-.02,.06-.04h.01s.08-.05,.12-.08c0,0,0,0,.01-.01,.04-.02,.08-.05,.12-.08,.01-.01,.03-.02,.04-.03,.03-.02,.07-.05,.11-.07,.35-.25,.82-.57,1.33-.95l2.76,1.06Z"/><path class={`${clr1}-2`} d="M131.52,44.85h0c-.01,.11-.37,2.76-3.3,5.79-.9,.93-2.56,1.97-3.84,2.71l-2.76-1.06h0c.39-.29,.81-.61,1.24-.95,.1-.08,.19-.15,.29-.23,.19-.15,.39-.31,.58-.48,.1-.08,.19-.16,.29-.24,.18-.16,.36-.31,.54-.47,.66-.59,1.27-1.2,1.73-1.77,.06-.08,.13-.16,.19-.24,1.93-2.56,3.66-6.69,3.66-6.69,.46,.36,1.37,3.64,1.37,3.64Z"/><path class={`${clr1}-2`} d="M124.37,53.36l-.28,2.29h0l-.42,.21c-.15,.07-.28,.14-.41,.2-.06,.03-.12,.06-.18,.09-.3,.14-.54,.25-.72,.34-.03,.01-.06,.03-.09,.04-.16,.08-.25,.11-.25,.11-.41-.45,.6-2.32,.6-2.32,0,0,.77-.39,1.77-.96Z"/><path class={`${clr1}-1`} d="M134.41,45.32s-1.93,4.2-4.27,6.46c-.23,.22-.49,.44-.77,.67-.09,.07-.18,.14-.27,.21-.2,.15-.41,.3-.63,.45l-.29,.19c-.43,.29-.88,.57-1.33,.83-.14,.08-.27,.16-.4,.23-.09,.05-.18,.11-.28,.16-.11,.06-.22,.12-.32,.18-.62,.34-1.22,.66-1.76,.93l.28-2.29c1.28-.74,2.95-1.79,3.84-2.71,2.93-3.03,3.29-5.68,3.3-5.79h0s2.35,.1,2.89,.46Z"/><path class={`${clr1}-3`} d="M126.35,56.81c-.07,.02-.14,.04-.2,.06-.1,.03-.2,.06-.29,.09-.5,.15-.87,.24-1.01,.28h-.03l-.03,.02s-2.39-.16-2.79-.62c0,0,.09-.04,.25-.11,.03-.01,.06-.03,.09-.04,.18-.09,.43-.2,.72-.34,.06-.03,.12-.06,.18-.09,.13-.06,.27-.13,.41-.2l.42-.21h0l2.26,1.17Z"/><path class={`${clr1}-2`} d="M135.46,49.51s-1.66,3.03-3.94,4.81c-.1,.08-.21,.16-.32,.24-.08,.06-.16,.11-.24,.17-.53,.36-1.11,.67-1.7,.95-.11,.05-.22,.1-.32,.15-.93,.42-1.84,.75-2.58,.99l-2.26-1.17c.54-.27,1.14-.58,1.76-.93,.11-.06,.22-.12,.32-.18,.09-.05,.18-.1,.28-.16,.13-.08,.27-.15,.4-.23,.45-.27,.9-.55,1.33-.83l.29-.19c.22-.15,.43-.3,.63-.45,.09-.07,.18-.14,.27-.21,.28-.22,.54-.45,.77-.67,2.33-2.27,4.27-6.46,4.27-6.46,.55,.36,1.05,4.2,1.05,4.2Z"/><path class={`${clr1}-2`} d="M125.53,58.59l.11,.07c-.28,.07-.54,.13-.77,.18-.07,.02-.14,.03-.2,.05-.31,.07-.54,.12-.64,.14l-.07,.02c-.1-.44,.84-1.79,.84-1.79h.03l.03-.02c.14-.04,.5-.13,1.01-.28,.09-.03,.19-.06,.29-.09,.06-.02,.13-.04,.2-.06l-.82,1.77Z"/><path class={`${clr1}-1`} d="M138.29,51.06s-2.83,3.26-5.8,5.24c-.09,.06-.19,.12-.29,.18-.05,.03-.1,.06-.16,.09-.12,.07-.25,.13-.39,.2-.09,.04-.19,.09-.29,.13-.19,.09-.4,.17-.62,.25l-.16,.06c-.71,.27-1.5,.52-2.28,.75-.12,.04-.24,.07-.36,.1-.06,.02-.12,.03-.18,.05-.12,.04-.24,.07-.35,.1-.12,.03-.23,.06-.35,.09-.17,.04-.34,.09-.5,.13-.22,.05-.43,.11-.63,.16-.05,.01-.1,.02-.15,.04-.05,.01-.1,.02-.15,.04h0l-.11-.07,.82-1.77c.74-.24,1.65-.57,2.58-.99,.11-.05,.21-.1,.32-.15,.59-.28,1.17-.6,1.7-.95,.08-.05,.16-.11,.24-.17,.11-.08,.22-.16,.32-.24,2.29-1.78,3.94-4.81,3.94-4.81,0,0,2.43,1.01,2.83,1.54Z"/><path class={`${clr1}-3`} d="M127.82,60.13h0c-1.12,.21-1.88,.32-1.88,.32h0c-.05-.03-1.88-.98-1.98-1.41l.07-.02c.11-.02,.33-.07,.64-.14,.06-.02,.13-.03,.2-.05,.23-.05,.49-.11,.77-.18h0l2.18,1.48Z"/><path class={`${clr1}-2`} d="M138.29,55.41s-1.37,2.07-4.59,3.24c-1.85,.67-4.24,1.18-5.88,1.49h0l-2.18-1.48s.1-.02,.15-.04c.05-.01,.1-.02,.15-.04,.2-.05,.41-.1,.63-.16,.16-.04,.33-.09,.5-.13,.11-.03,.23-.06,.35-.09,.12-.03,.23-.06,.35-.1,.06-.02,.12-.03,.18-.05,.12-.03,.24-.07,.36-.1,.78-.23,1.57-.48,2.28-.75l.16-.06c.21-.08,.42-.17,.62-.25,.1-.04,.19-.09,.29-.13,.14-.06,.27-.13,.39-.2,.05-.03,.1-.06,.16-.09,.1-.06,.2-.12,.29-.18,2.97-1.97,5.8-5.24,5.8-5.24,.4,.53,0,4.36,0,4.36Z"/><path class={`${clr1}-2`} d="M127.82,60.14l-1.4,1.54c-.17,.01-.34,.02-.49,.03-.08,0-.15,0-.22,.01-.08,0-.16,0-.23,.01-.5,.02-.8,.03-.8,.03-.18-.61,1.18-1.26,1.26-1.3h0s.77-.11,1.88-.32Z"/><path class={`${clr1}-1`} d="M140.29,57.26s-3.27,2.02-6.48,3.2c-.1,.04-.2,.07-.31,.11-.1,.03-.21,.07-.31,.1-.36,.11-.74,.21-1.14,.29-.21,.05-.43,.09-.64,.13-.12,.02-.25,.05-.37,.07-.13,.02-.25,.04-.38,.06-.11,.02-.22,.03-.32,.05-.09,.01-.17,.02-.25,.04-.17,.02-.33,.05-.5,.07-.08,.01-.17,.02-.25,.03-.14,.02-.28,.03-.42,.05-.91,.1-1.78,.17-2.48,.22l1.4-1.54h0c1.64-.31,4.03-.82,5.88-1.49,3.22-1.17,4.59-3.24,4.59-3.24,0,0,1.81,1.04,2,1.84Z"/><path class={`${clr1}-3`} d="M128.73,64.11c-1.23-.06-2.1-.15-2.16-.16h0s-1.7-1.57-1.89-2.19c0,0,.3,0,.8-.03,.07,0,.15,0,.23-.01,.07,0,.14,0,.22-.01,.15,0,.32-.02,.49-.03l2.31,2.43Z"/><path class={`${clr1}-2`} d="M139.9,62s-1.72,1.4-5.42,1.95c-1.84,.28-4.11,.24-5.75,.16l-2.31-2.43c.7-.05,1.57-.11,2.48-.22,.14-.02,.28-.03,.42-.05,.08-.01,.16-.02,.25-.03,.17-.02,.33-.04,.5-.07,.08-.01,.16-.03,.25-.04,.11-.02,.22-.03,.32-.05,.13-.02,.25-.04,.38-.06,.12-.02,.25-.04,.37-.07,.22-.04,.43-.09,.64-.13,.4-.09,.78-.18,1.14-.29,.11-.03,.21-.06,.31-.1,.11-.03,.21-.07,.31-.11,3.21-1.18,6.48-3.2,6.48-3.2,.19,.81-.39,4.74-.39,4.74Z"/><path class={`${clr1}-2`} d="M128.73,64.11l-1.15,1.35c-.1-.01-.2-.02-.29-.04-.08-.01-.16-.02-.24-.03-.25-.03-.49-.07-.7-.11-.07-.01-.14-.02-.21-.03-.13-.02-.25-.04-.36-.06-.14-.02-.25-.04-.35-.06-.22-.04-.33-.07-.33-.07,0-.56,1.49-.91,1.49-.91-.01-.07-.02-.13-.03-.2,.06,0,.93,.1,2.16,.16Z"/><path class={`${clr1}-1`} d="M141.64,62.54s-3.22,2.34-7.46,2.97c-1.23,.18-2.51,.22-3.71,.18h-.18c-.49-.03-.97-.06-1.43-.1-.15-.01-.3-.03-.45-.04-.18-.02-.35-.04-.52-.05-.11-.01-.21-.03-.31-.04l1.15-1.35c1.64,.08,3.91,.12,5.75-.16,3.7-.55,5.42-1.95,5.42-1.95,0,0,1.6,.19,1.74,.54Z"/><path class={`${clr1}-3`} d="M129.65,68.14c-1.49-.23-2.62-.49-2.68-.5h0s-1.86-2.02-1.86-2.58c0,0,.12,.03,.33,.07,.1,.02,.22,.04,.35,.06,.11,.02,.23,.04,.36,.06,.06,.01,.14,.02,.21,.03,.21,.04,.45,.07,.7,.11,.08,.01,.16,.02,.24,.03,.1,.01,.19,.03,.29,.04l2.07,2.68Z"/><path class={`${clr1}-2`} d="M140.42,67.01s-2.22,.92-5.4,1.38c-1.54,.23-3.68,0-5.37-.25l-2.07-2.68c.1,.01,.21,.03,.31,.04,.17,.02,.34,.04,.52,.05,.15,.02,.3,.03,.45,.04,.46,.04,.94,.07,1.43,.09h.18c1.2,.05,2.48,0,3.71-.17,4.23-.63,7.46-2.97,7.46-2.97,.14,.35-1.22,4.46-1.22,4.46Z"/><path class={`${clr1}-2`} d="M129.65,68.14l-1.92,1.27h0s-.09-.02-.14-.03c-.09-.02-.19-.05-.28-.07-.09-.02-.18-.05-.26-.07-.17-.05-.33-.09-.49-.14-.08-.02-.15-.04-.22-.06-.12-.04-.24-.07-.34-.1-.05-.02-.09-.03-.14-.04-.11-.04-.22-.07-.31-.1-.04-.01-.07-.03-.11-.04-.05-.02-.09-.03-.13-.04-.03-.01-.05-.02-.08-.03-.1-.03-.15-.05-.15-.05,.04-1.1,1.87-.85,1.87-.85,0-.04,0-.09-.01-.14,.06,.02,1.2,.28,2.68,.5Z"/><path class={`${clr1}-1`} d="M142.44,67.75s-3.5,1.96-8.03,2.33c-2.41,.19-4.88-.23-6.68-.67h0l1.92-1.27c1.69,.26,3.82,.48,5.37,.25,3.18-.47,5.4-1.38,5.4-1.38,0,0,1.82,.35,2.03,.74Z"/><path class={`${clr1}-3`} d="M129.86,73.2h0c-1.52-.31-2.6-.65-2.6-.65,0,0-2.19-2.84-2.16-3.93,0,0,.05,.02,.15,.05,.02,0,.05,.02,.08,.03,.04,.01,.08,.03,.13,.04,.03,.01,.07,.02,.11,.04,.09,.03,.19,.06,.31,.1,.04,.02,.09,.03,.14,.04,.11,.03,.22,.07,.34,.1,.07,.02,.15,.04,.22,.06,.15,.04,.31,.09,.49,.14,.09,.02,.17,.05,.26,.07,.09,.02,.18,.05,.28,.07,.05,.01,.09,.02,.14,.04h0l2.12,3.8Z"/><path class={`${clr1}-2`} d="M140.68,72.27s-.04,.01-.1,.03c-.59,.14-3.57,1.39-6.39,1.39-1.5,0-3.06-.23-4.32-.49l-2.12-3.8c1.79,.44,4.27,.86,6.68,.67,4.53-.36,8.03-2.33,8.03-2.33,.45,.87-1.77,4.53-1.77,4.53Z"/><path class={`${clr1}-2`} d="M129.86,73.2l-2.28,.93c-.24-.09-.47-.18-.68-.28-.05-.02-.1-.04-.15-.06-.23-.1-.43-.19-.61-.28-.05-.03-.11-.05-.15-.08-.34-.17-.53-.27-.53-.27,.04-.71,1.79-.61,1.79-.61,0,0,1.08,.34,2.6,.65Z"/><path class={`${clr1}-1`} d="M142.9,72.89s-3.44,2.3-8.48,2.5c-.25,.01-.49,.01-.73,0-.08,0-.17,0-.25,0-.11,0-.21,0-.32-.02-.02,0-.04,0-.06,0-.07,0-.13,0-.2-.01-1.65-.12-3.19-.5-4.42-.92-.15-.05-.3-.1-.45-.16-.1-.03-.19-.07-.28-.1l-.12-.05h0l2.28-.93h0c1.26,.26,2.82,.49,4.32,.49,2.82,0,5.8-1.25,6.39-1.39,.07-.02,.1-.03,.1-.03,0,0,1.92,.17,2.22,.61Z"/><path class={`${clr1}-3`} d="M129.86,78.14c-1.35-.2-2.18-.44-2.43-.5,0,0,0,0-.01,0,0-.01-.02-.03-.02-.05,0-.01,0-.03-.01-.05,0-.01,0-.03,0-.04,0-.06-.01-.12-.01-.18,0-.05,0-.09,0-.12v-.04h0s-1.94-3.26-1.9-3.98c0,0,.19,.11,.53,.27,.05,.02,.1,.05,.15,.08,.17,.08,.38,.18,.61,.28,.05,.02,.1,.04,.15,.06,.21,.09,.43,.18,.68,.28h0l1.63,2.87,.65,1.14Z"/><path class={`${clr1}-2`} d="M140.6,76.14l-.03,.32s-1.47,1.96-5.71,2c-2.08,.02-3.76-.14-5-.33l-.65-1.14-1.63-2.86,.12,.05c.09,.04,.19,.07,.28,.1,.15,.05,.3,.11,.45,.16,1.23,.42,2.77,.8,4.42,.92,.06,0,.13,.01,.2,.01,.02,0,.04,0,.06,0,.11,0,.21,.01,.32,.02,.08,0,.17,0,.25,0,.24,0,.49,0,.73,0,5.05-.19,8.48-2.5,8.48-2.5,.29,.43-2.19,3.12-2.29,3.26Z"/><path class="stroke" d="M7.09,.62l.35,.11c-.12-.03-.24-.06-.36-.08v-.03Z"/><path class="stroke" d="M9.01,8.56c-1.24,3.09-3.66,5.1-5.67,4.84-.22-.03-.43-.08-.64-.17C.58,12.38-.01,8.91,1.37,5.49,2.62,2.38,5.06,.37,7.08,.66c.12,.02,.24,.04,.36,.08,.08,.02,.16,.05,.24,.08,2.11,.85,2.7,4.31,1.33,7.74Z"/><path class="stroke" d="M115.38,34.12s0,4.44-.4,7.11c-.27,1.82-1.99,6.08-1.99,6.08l-1.27-.39L3.33,13.39c2.01,.26,4.43-1.74,5.67-4.84,1.38-3.42,.78-6.89-1.33-7.74-.04-.02-.08-.03-.12-.04L115.38,34.12Z"/><polygon class="stroke" points="125.94 60.46 125.93 60.46 125.93 60.46 125.94 60.46"/><path class="stroke" d="M140.6,76.15h0c.01,1,.03,1.98,.07,2.96,.02,.42,0,2.7,0,2.7V390.87s-.02,.08-.03,.12c-.01,.04-.03,.09-.04,.13-.78,2.14-4.34,2.8-7.96,1.48-3.14-1.14-5.28-3.41-5.28-5.38,0-.04,0-.08,0-.11V79.11s.01-.75,0-1.98"/><path class="stroke" d="M118.35,33.75s-.53,5.16-1.56,8.04c-1.02,2.88-3.81,7.34-3.81,7.34-.18-.27,0-1.82,0-1.82,0,0,1.72-4.25,1.99-6.08,.39-2.67,.4-7.11,.4-7.11,0,0,2.46-.56,2.98-.37Z"/><path class="stroke" d="M122.01,37.37v.04c-.09,.4-.67,3.34-1.27,5.22-.06,.19-.13,.39-.2,.58-.03,.09-.06,.17-.1,.26-.86,2.1-2.7,4.44-3.49,5.39-.06,.08-.12,.15-.17,.21-.05,.06-.09,.11-.12,.14-.05,.05-.07,.08-.07,.08,0,0-3.41,.1-3.59-.17,0,0,2.79-4.46,3.81-7.34,1.02-2.88,1.56-8.04,1.56-8.04,1.19,.45,3.54,3.48,3.65,3.62h0Z"/><path class="stroke" d="M124.39,36.97s-.5,2.6-2.1,6.71c-1.51,3.87-5.83,7.85-5.83,7.85-.35-.49,.12-2.23,.12-2.23,0,0,.03-.03,.07-.08,.03-.04,.08-.09,.12-.14,.05-.06,.11-.13,.17-.21,.79-.95,2.65-3.28,3.49-5.39,.04-.09,.07-.17,.1-.26,.07-.19,.14-.39,.2-.58,.83-2.47,1.21-4.87,1.26-5.22v-.04s1.97-.59,2.39-.4Z"/><path class="stroke" d="M126.83,40.78h0c-.03,.13-.86,4.23-2.21,6.26-1.37,2.06-4.9,4.6-4.9,4.6h0c-.1,.01-2.92,.37-3.26-.11,0,0,4.32-3.98,5.83-7.85,1.6-4.11,2.1-6.71,2.1-6.71,.92,.41,2.44,3.81,2.44,3.81Z"/><path class="stroke" d="M130.15,41.22s-1.74,4.13-3.66,6.69c-1.93,2.56-6.94,5.85-6.94,5.85-.35-.45,.15-2.04,.18-2.11h0s3.52-2.55,4.9-4.6c1.35-2.03,2.19-6.13,2.21-6.25h0s2.86,.08,3.32,.44Z"/><path class="stroke" d="M131.52,44.85h0c-.01,.11-.37,2.76-3.3,5.79-1.59,1.65-5.61,3.68-5.61,3.68,0,0-2.7-.11-3.06-.57,0,0,5.01-3.29,6.94-5.85,1.93-2.56,3.66-6.69,3.66-6.69,.46,.36,1.37,3.64,1.37,3.64Z"/><path class="stroke" d="M134.41,45.32s-1.93,4.2-4.27,6.46c-2.4,2.33-8.14,4.86-8.14,4.86-.41-.45,.6-2.32,.6-2.32,0,0,4.02-2.03,5.61-3.68,2.93-3.03,3.29-5.68,3.3-5.79h0s2.35,.1,2.89,.46Z"/><path class="stroke" d="M135.46,49.51s-1.66,3.03-3.94,4.81c-2.5,1.94-6.72,2.94-6.72,2.94,0,0-2.39-.16-2.79-.62,0,0,5.74-2.53,8.14-4.86,2.33-2.27,4.27-6.46,4.27-6.46,.55,.36,1.05,4.2,1.05,4.2Z"/><path class="stroke" d="M138.29,51.06s-2.83,3.26-5.8,5.24c-2.15,1.42-8.53,2.75-8.53,2.75-.1-.44,.84-1.79,.84-1.79,0,0,4.23-1,6.72-2.94,2.29-1.78,3.94-4.81,3.94-4.81,0,0,2.43,1.01,2.83,1.54Z"/><path class="stroke" d="M138.29,55.41s-1.37,2.07-4.59,3.24c-3.12,1.13-7.77,1.81-7.77,1.81h0c-.05-.03-1.88-.98-1.98-1.41,0,0,6.39-1.33,8.53-2.75,2.97-1.97,5.8-5.24,5.8-5.24,.4,.53,0,4.36,0,4.36Z"/><path class="stroke" d="M140.29,57.26s-3.27,2.02-6.48,3.2c-3.21,1.18-9.13,1.3-9.13,1.3-.18-.61,1.18-1.26,1.26-1.3h0s4.65-.68,7.77-1.81c3.22-1.17,4.59-3.24,4.59-3.24,0,0,1.81,1.04,2,1.84Z"/><path class="stroke" d="M139.9,62s-1.72,1.4-5.42,1.95c-3.22,.48-7.77,.02-7.91,0h0s-1.7-1.57-1.89-2.19c0,0,5.92-.12,9.13-1.3,3.21-1.18,6.48-3.2,6.48-3.2,.19,.81-.39,4.74-.39,4.74Z"/><path class="stroke" d="M141.64,62.54s-3.22,2.34-7.46,2.97c-4.23,.63-9.08-.45-9.08-.45,0-.56,1.49-.91,1.49-.91-.01-.07-.02-.13-.03-.2,.14,.02,4.69,.48,7.91,0,3.7-.55,5.42-1.95,5.42-1.95,0,0,1.6,.19,1.74,.54Z"/><path class="stroke" d="M140.42,67.01s-2.22,.92-5.4,1.38c-2.91,.43-7.92-.73-8.05-.76h0s-1.86-2.02-1.86-2.58c0,0,4.85,1.08,9.08,.45,4.23-.63,7.46-2.97,7.46-2.97,.14,.35-1.22,4.46-1.22,4.46Z"/><path class="stroke" d="M142.44,67.75s-3.5,1.96-8.03,2.33c-4.53,.36-9.31-1.46-9.31-1.46,.04-1.1,1.87-.85,1.87-.85,0-.04,0-.09-.01-.14,.13,.03,5.15,1.18,8.05,.76,3.18-.47,5.4-1.38,5.4-1.38,0,0,1.82,.35,2.03,.74Z"/><path class="stroke" d="M140.68,72.27s-.04,.01-.1,.03c-.59,.14-3.57,1.39-6.39,1.39-3.31,0-6.92-1.14-6.92-1.14,0,0-2.19-2.84-2.16-3.93,0,0,4.78,1.82,9.31,1.46,4.53-.36,8.03-2.33,8.03-2.33,.45,.87-1.77,4.53-1.77,4.53Z"/><path class="stroke" d="M142.9,72.89s-3.44,2.3-8.48,2.5c-4.73,.18-8.95-2.22-8.95-2.22,.04-.71,1.79-.61,1.79-.61,0,0,3.61,1.14,6.92,1.14,2.82,0,5.8-1.25,6.39-1.39,.07-.02,.1-.03,.1-.03,0,0,1.92,.17,2.22,.61Z"/><path class="stroke" d="M140.6,76.14l-.03,.32s-1.47,1.96-5.71,2c-4.34,.05-6.95-.71-7.44-.83-.06-.02-.06-.51-.06-.51,0,0-1.94-3.25-1.9-3.97,0,0,4.22,2.4,8.95,2.22,5.05-.19,8.48-2.5,8.48-2.5,.29,.43-2.19,3.12-2.29,3.26Z"/></svg>
