<svg class="recycleCat__illu plastic-illu" xmlns="http://www.w3.org/2000/svg" viewBox="0 0 176.64 500.23"><path class="plastic-bottle-2" d="M167.66,432.58,176,155.44C176.36,127.57,158.24,91.89,130,61S76.69,29.33,46.77,61-.75,129.05.71,155.44L16,432.58c1.23,27.1,9.92,37.76,18.4,45.42l0,0C45.65,491,67.22,499.79,92,499.79s46.27-8.76,57.52-21.7l.09-.09.25-.29.06-.07C158.11,468.12,166.76,461.86,167.66,432.58Z"/><path class="plastic-bottle-3-1" d="M23.27,181.49c3.07,2.73,2.4,16.09,2.53,17.94a10,10,0,0,0,5.62,7.51c3.44,1.46,12,5.58,15.16,6.75s14.45,3.25,14.86,2.19-11.17-3.28-14.61-4.29-3.89-3.36-4.47-8,.59-14.83-5.42-17.55-14.61-6.12-14.61-6.12Z"/><path class="plastic-bottle-4-1" d="M26.43,182.7c2.33,2.73.64,18.2,2,20s1.93,2.8,4.18,3,.72-6.5.72-11.49S32.78,184,32.78,184Z"/><path class="plastic-bottle-3-1" d="M23.25,211.32c-2.27-.42-3.6,7.29-2.27,9s1.52-4.06,3.69-4.76,7.73-1.64,8.59,3.68-3.68,6.1-5,9.3-1.8,8,.39,9.39,6.88,6.72,10.16,8.68,16.66,5.24,17.68,4.22-4.77-2.11-6.73-3.13-4.69-2.38-5.16-8.38,1.47-18.57-6.07-22a53.13,53.13,0,0,1-13.25-9Z"/><path class="plastic-bottle-3-1" d="M29.92,251.59c1.65,2.34.62,4.17.22,5.56s1.86,5-1.27,4.88-1.83,3,0,4,7.56,5.84,9.66,7.14,15.63,4.53,16.39,3.57-7.16-1.83-9.68-3.65-3.66-7.49-.35-10,4.53-6,.61-7.24-7.89-.77-11.65-2.77S29.92,251.59,29.92,251.59Z"/><path class="plastic-bottle-3-1" d="M30.12,276.57c1.85,2.79,1.07,6.19,0,8.05s-2.15,5.57,0,7.12,8,4.23,10.3,6.5,14.89,6.16,16.16,4.42-12.35-2.67-13.07-9,1.86-11.06-2.56-13.35-9.7-5.12-9.7-5.12Z"/><path class="plastic-bottle-3-1" d="M30.67,302.53c3.48,3.72,3.3,19.06,3.18,23.27s1,7.32,6.07,9.36,24.67,7.32,25,5.43-9.61-2.23-14-4.78-2.06-9.68-2.18-17.3,1.19-9-2.67-11.6S30.67,302.53,30.67,302.53Z"/><path class="plastic-bottle-3-1" d="M31.38,363.41c1.49,2.59,0,13.14,1.58,15.7s4,6.33,7.34,8,19.62,8.17,20.63,5.69-8.35-2.29-10.36-4.77-1.38-10.09-1.75-13,.82-4.38-2.43-6.09S31.38,363.41,31.38,363.41Z"/><path class="plastic-bottle-4-1" d="M34.38,364.4c.69,2.24-.14,9,0,12.15s-.23,4.67,1.33,5.22,3.95,1.93,4.59,0-.65-6.78-.65-9.53.24-5.3.21-5.95S34.38,364.4,34.38,364.4Z"/><path class="plastic-bottle-3-1" d="M31.38,388.47c1.17,3.08.31,14.58,1.48,17.14s10.76,9.72,13.53,10.67,17.86,6.1,17.82,3.89-13-2.53-14.19-6.37-1.5-12.56-1.6-15.11-3.62-4.15-5.75-4.9S31.38,388.47,31.38,388.47Z"/><path class="plastic-bottle-4-1" d="M33.55,389.2c1.39,2.46.43,16.41,2.24,18s5.43,4.16,5.33,1.49-1.71-6.7-1.6-10.43.3-6,.3-6Z"/><path class="plastic-bottle-4-1" d="M33.55,303.72c2.57,3.75.53,23.9,2.14,26.48s2.91,3.43,4.14,2.14-.37-5.94,0-10.58-.29-15.25-1.3-17S33.55,303.72,33.55,303.72Z"/><path class="plastic-bottle-3-1" d="M31.38,337.7c2.19,1.93,1.18,12.57,1.64,15.23s2,5.41,3.9,6.42,22.88,9.17,24.35,7-10.91-1.48-11.74-6.56,1.18-12.11-1.75-14.71a43.33,43.33,0,0,0-7.48-5Z"/><path class="plastic-bottle-4-1" d="M34.38,339c1.58,2.27,1.39,9.7,1,11.81s-.78,4.41,1.12,5.69,4.75,1.19,5.66,0-.73-3.39-2.38-5.78-3.58-7,0-8.25-1-3.58-2.68-4.13A2.61,2.61,0,0,0,34.38,339Z"/><path class="plastic-bottle-3-1" d="M70.47,74.75A21.37,21.37,0,0,1,72,72.3c8.62-11.67-2.36-7-7.69-.3l-3.4-1.52a17.24,17.24,0,0,1,1.48-2.42c5.86-7.66.26-7.08-2.45-4.07a39.4,39.4,0,0,0-3.4,4.54L53.76,67.3H49.81a9.38,9.38,0,0,0,3.62,6.24h0C45,87.93,33.87,113,29.59,131.32c-5.54,23.81-4.24,36.2-1,38s16.57,7.83,24.83,6.69-5.76-1.31-7.88-6.69c-1.87-4.76,12.71-66.8,22.76-90.08,6.56.38,7.42-2.12,7.42-2.12ZM43.78,136.7c-1.8,12.07-3.43,6.52-1.8-4.56,1.32-8.93,9.93-40,16.29-55.84.93.45,1.94.9,3,1.3C56.2,90.15,45.4,125.8,43.78,136.7Z"/><path class="plastic-bottle-3-1" d="M32.5,414c2.09,3.14,2.16,9.83,1.86,12.66s.24,8.58,3.06,11,14.32,6.59,17.25,7.54,19.15,4.6,19.68,3.24-12.35-3-15.7-4.29-6.27-2.72-6.8-6.38,1.47-11.09-2.3-14a43.88,43.88,0,0,0-8.43-4.92Z"/><path class="plastic-bottle-3-1" d="M167.46,436.77c-2.49,16.81-30.17,37.38-68.54,39.6S57.74,467.77,55,459.13s-3-10-9.38-12.7A90.36,90.36,0,0,1,35,441.11c2.79,5-.15,15.67,3.41,26.56S35,473.31,35,473.31l-.89,3.6c.39.37.78.74,1.18,1.09l0,0c11.25,13,32.82,21.77,57.59,21.77s46.27-8.76,57.53-21.7l.09-.09.25-.29.06-.07c8.07-9.39,16.59-15.62,17.69-43.84A6.53,6.53,0,0,0,167.46,436.77Z"/><path class="plastic-bottle-4-1" d="M35,415.42c1.36,2.93.42,14.54,1,16.95s2.57,4.39,4.43,4.39.37-8.37.64-10.67a62.53,62.53,0,0,0,0-7.32Z"/><path class="plastic-bottle-4-1" d="M32.42,276.92c1.25,2.35.34,8.37-.45,10.19s-.28,5.12,2.36,6.14,3-.44,2.61-4.09.24-4.09.19-7.28a6.16,6.16,0,0,0-1.64-4.55Z"/><path class="plastic-bottle-1-1" d="M23.28,445.35c-.39-11.22,2.67-9.18,4.16-8.24s11.14,8.53,11.77,6.58-6.75-4.84-7.45-7.35-2.67-4.82-5-6.89a58.21,58.21,0,0,1-6.74-7c-1.49-2-.12-2.51,2.22,0s3.83,2,3.85.65-.14-7.54-.24-9.76,1.85-1.38,3.76-.43,8.69,5.89,9.12,4.67-4.72-3.87-5.88-4.77.53-3.5-2.12-5.52S22.34,400.7,20,397.15s-.64-3,1.16-.9,4.95,4.66,5,2.12S25.91,389.86,26,388s2.83-.56,4,.29,14.68,7.94,15.63,6.29S35.06,389.22,34,387.23s-.2-3.28-2.67-5.42-6.39-3.73-10-7.61-5.92-7.13-5.57-8.3,5.21,6.5,7.91,8.23,2.59-2,2.59-3.83-.11-5.77,0-7.75,2.54-.94,3.72,0,8.25,4.35,10.92,5.37,10,3.44,10.53,2.38-13.09-4.87-16.91-7.75-.27-4.42-3.54-6.65-9.87-5.77-13.91-11.06-2.09-5.78-1.34-5.07,6.25,7.53,8.6,8.89,2.56-2.35,2.34-5.18-1.36-8.67,1.53-7.25S45,344,45.69,342.1s-10.84-4.57-14.92-8.05-1.72-5.13-4.33-6.64-10.62-8-13.17-12.49,2.84.7,4.15,2.31a50.06,50.06,0,0,0,7,6.15c1.26.8,2.62-.45,2.32-3.53s-.2-14.45-.35-17,2.71-1.21,4.33-.3S46.19,308.4,47,306.8s-6.35-2.42-8.37-3.93S37.59,298,34.5,296.5s-12.43-6-17.41-10.59-5.86-8.34-3.82-6.45,6.81,6.82,10,8.92,2.53-2.26.76-5-1-7.18,1.29-7.58,13.11,3.51,13.65,2.12-6.08-3.06-7.84-4.46-1.16-4.46-3.43-6-10.22-5.78-13.7-9.51-2.18-4.77-1.29-3.92,4.27,4.44,6.65,5.82,3.15-2.23,1.77-5.38,3.46-7.3,7.38-4,8,4.77,10.22,3.54.13-2.41-1.94-3.18-1.43-6.28-6.91-8.32S14.31,234.66,10,229.22s4.56,2.2,7,4.06,3.92-.39,3.15-3.62-2.72-14-1.55-17.12,2.25-2.95,4.34-1.42,16.68,6.95,19.11,7.09-2-3.46-7.16-5.21-2.85-4.58-7.57-6.91-12.59-5.25-16.83-10.19,3.83.42,5.84,2,2-2.78,1.32-8.41-.69-10.36,1.53-9.6,19,7.82,19.7,5.93-11.73-4.57-14.86-7.3-1.13-5.85-4.82-7.46-9.94-5.58-12.44-10,3.92,2.93,7,4.73,2.84-2.6,1.7-10.53-.7-48.54,31.59-89.7a63,63,0,0,0,7.92-12.66q-4,3.55-8.15,7.93C16.86,92.49-.75,128.86.71,155.25L16,432.4c1.23,27.09,9.92,37.76,18.4,45.42l0,0a50.29,50.29,0,0,0,10.23,8.86C32.43,471.48,23.61,454.75,23.28,445.35Z"/><path class="plastic-bottle-3-1" d="M18.46,348.26c-3.7-2.93-7.25-13-8.06-17.16l.25,4.53h0c.15,3.19,2.74,9,5.11,11.82S22.16,351.19,18.46,348.26Z"/><path class="plastic-bottle-3-1" d="M24.18,403.43c-5.51-4.67-10.39-17.15-11-21.14l.39,7.1a1.44,1.44,0,0,1,.13.37c1,4.19,5.65,11,8.26,13.72C24.44,406.06,29.69,408.11,24.18,403.43Z"/><path class="plastic-bottle-3-1" d="M8.87,303.31l.4,7.35a.67.67,0,0,1,.1.42c.07,3.41,9.08,13.53,11.35,15.13s.15-1.91-3.88-5.45c-3.86-3.39-7.65-11.52-7.78-16A9.12,9.12,0,0,0,8.87,303.31Z"/><path class="plastic-bottle-3-1" d="M22.23,376.3c-2.25-1.84-9.07-11-10.25-16.54l.2,3.63c1.46,5.09,5.37,10.19,8.16,12.91S24.53,378.19,22.23,376.3Z"/><path class="plastic-bottle-3-1" d="M4.13,217.32l.35,6.43a1.12,1.12,0,0,1,.22.38A27,27,0,0,0,12.61,235c3.05,2.31,8.92,3.83,4.18,1.18S4.67,223.36,4.3,218.33A8.19,8.19,0,0,0,4.13,217.32Z"/><path class="plastic-bottle-3-1" d="M10.65,199.06c4,3.84,10.45,4.38,6.29,2.66S2.8,188.41,2.25,183.24h0L2.52,188C3.59,191.48,6.78,195.39,10.65,199.06Z"/><path class="plastic-bottle-3-1" d="M15.66,285.52c-3.14-2.58-8.22-10.49-8.54-13.87h0L7.36,276c.72,2.63,4.07,7.4,6.38,9.92S18.8,288.1,15.66,285.52Z"/><path class="plastic-bottle-3-1" d="M21.8,427c2.72,3.49,5.06,4,1.58-.15a40.6,40.6,0,0,1-2.9-3.85c-.14-.18-.29-.36-.41-.53a3.55,3.55,0,0,1-.54-.95,34.3,34.3,0,0,1-4.81-12.08l.31,5.64C15.73,418.25,19.08,423.48,21.8,427Z"/><path class="plastic-bottle-3-1" d="M5.64,244.82l.29,5.1h0c1.2,5,6.25,10.46,9.81,13.18s7.53,3.35,1.6-.49S6.18,250.47,5.64,244.82Z"/><path class="plastic-bottle-4-1" d="M47.27,93.3c-2.22,0-18.14,44.52-18.4,60.26s7.28-15.92,9.34-23.87C40.5,120.81,50.49,93.3,47.27,93.3Z"/><path class="plastic-bottle-3-1" d="M28.86,172.21c-1.78-.78-3.85.55-1.09,2a82,82,0,0,0,19.47,7.42c9.73,2.26,12.21,2.19,9.89.32C55.24,180.38,42.64,178.27,28.86,172.21Z"/><path class="plastic-bottle-4-1" d="M33.91,174.24c-2.63-1-3.43,1.24.63,2.45s2.22-1.39,0-2.22"/><path class="plastic-bottle-1-1" d="M29.74,217.13c-1.94-1.21-5.85,5.16-2.93,6.8S35,220.41,29.74,217.13Z"/><path class="plastic-bottle-4-1" d="M38.53,220.61c-1.24-.13-2.19,5-4.2,6.31s-4.47,4.78-4.19,8.24,1.45,4.36,3.71,4.44,3.11-4.36,3.09-6.91.89-6.5,2.21-8.44S39.64,220.73,38.53,220.61Z"/><path class="plastic-bottle-1-1" d="M28.38,253.49c-.37-1.41-5.38-1.84-4.56.87S28.93,255.56,28.38,253.49Z"/><path class="plastic-bottle-1-1" d="M26.08,257.63c-.79.59-.74,3.2.84,2.44S26.87,257,26.08,257.63Z"/><path class="plastic-bottle-4-1" d="M35.53,255.83c-1.89,0-2.91,3.08-2.67,4.38s-3,4.84-.89,6.57,4.27,3.31,5,1-.92-6.07-.42-8.43S37.19,255.82,35.53,255.83Z"/><path class="plastic-bottle-1-1" d="M28.43,278.32c-2.34-1.44-4.3,2.48-2.85,4S30.77,279.77,28.43,278.32Z"/><path class="plastic-bottle-0" d="M67.55,153.27c-5.83,5-7.21,24,1.76,25.27a81.86,81.86,0,0,0,20.5.77c5.19-.53,6.6-12.84,4-22.52S74.06,147.64,67.55,153.27Z"/><path class="plastic-bottle-0" d="M63.58,200.35c.23,5.18,2.35,11.18,8.35,12.13s16,.94,18.72,0,3.18-9.49,3.41-13,2.59-6,6.83-6.48,6-1.31,6-2.13c0-1.3-13.41-.48-26.25-.95-13.07-.47-25.72-2.48-25.72-.92,0,2,7.85,2.4,8,5.25A52.55,52.55,0,0,0,63.58,200.35Z"/><path class="plastic-bottle-0" d="M56.69,220.12c.13-2.11,11,.44,23.06,1.16,4.58.27,25.82-.66,26.35.65S94,223.64,93.78,228.36s.26,20.44-8.65,20.31-16-.92-17.43-6.42,1.87-18.95-4.18-20C57.69,221.2,56.6,221.5,56.69,220.12Z"/><path class="plastic-bottle-0" d="M62.85,257.53c.1,1.71,5.38.51,6.27,2.68s2.09,13.34,11,13.18,9.23-8.82,9.6-11,9-2,9.38-3.63-9.13-.89-17.71-1.53S62.77,256.21,62.85,257.53Z"/><path class="plastic-bottle-0" d="M69,285.24c-.15,1.73,6.77,2.47,8.27,5.23s6.6,4.09,9,1.17,7-4.26,9.94-4.85-.66-1.92-4.09-1.92-12.19,0-15.28-.58S69.15,283.36,69,285.24Z"/><path class="plastic-bottle-0" d="M75,311.25c0,1.45,5.73,2.73,8.16,2.81s8.7.25,8.78-1.4S75,310,75,311.25Z"/><path class="plastic-bottle-0" d="M94.73,312.4c-.18,1.5,5.62,1.9,5.38,0S94.9,311.07,94.73,312.4Z"/><path class="plastic-bottle-0" d="M70.93,311.5c-.49,1.92-2.73,1.43-2.56-.32S71.1,310.82,70.93,311.5Z"/><path class="plastic-bottle-0" d="M76,77.89C75.66,83,80,82.8,83.71,82.62s5-1.41,5.53-4S76,77.89,76,77.89Z"/><path class="plastic-bottle-0" d="M77.26,342c-.18,2.54,17.25,1.65,17.32.35S77.43,339.51,77.26,342Z"/><path class="plastic-bottle-0" d="M75,341.65c.7-2-3.33-1.95-3.4-.42S74.53,343,75,341.65Z"/><path class="plastic-bottle-0" d="M77.25,375.24c-.08,1.65,11.91,2.53,12,.59S77.34,373.58,77.25,375.24Z"/><path class="plastic-bottle-0" d="M79.09,402.64c-.07,1.08,4.54,1.85,4.69.12S79.17,401.57,79.09,402.64Z"/><path class="plastic-bottle-0" d="M86.93,402.64c-.15,1,3.89,1.29,3.87.07S87.09,401.65,86.93,402.64Z"/><path class="plastic-bottle-0" d="M50.49,188.36c.71-3-3.83-2.73-4-1.26S50.11,190,50.49,188.36Z"/><path class="plastic-bottle-0" d="M111.29,190.44c.68,1.49,3.41,1.17,3.3-.3S110.6,188.94,111.29,190.44Z"/><path class="plastic-bottle-3-2" d="M160.48,169.91c.64-2.86-7,3.62-18,7.09s-22.93,4.14-23.07,6.24,10.14-.25,16-1.65S159.59,173.94,160.48,169.91Z"/><path class="plastic-bottle-3-2" d="M134.13,189.17c-6,1.35-8.22,6.15-9,10.26s2,11.35-4,12.46-10.1,1.88-9.77,3,19.78-1.42,29.24-4.06,21.91-8.65,23.07-11.35-4.72.91-4.17-2.14,2.37-18.77-2.64-15.7S138.72,188.14,134.13,189.17Z"/><path class="plastic-bottle-3-2" d="M132,222.28c-5,1.65-3.73,8.37-3.83,11.71s1.2,10.89-2.4,12-10.9,3.32-10.6,4.42,20.3-1.5,29.2-5.4,17-9,17.25-11-1.85-1.67-2.25-4.87-.1-10.41-1-12.71-3.4-2.1-7.1-.7S137.35,220.53,132,222.28Z"/><path class="plastic-bottle-3-2" d="M132.55,256.65c-4,.86-3.77,8.34-4.1,10.64s-.51,5.45-5,7c-4,1.42-12.81,2.59-12.81,3.68s19.27-1.09,31.74-5.43c7.31-2.54,14.45-7.11,15.22-9.74s4.7-6,5.36-8.74,1.2-11.86-1.75-9.28S146.27,253.62,132.55,256.65Z"/><path class="plastic-bottle-3-2" d="M134.5,283.83c-5.1,1.39-4.56,7.25-4.56,9.74s-.94,6.23-4.85,7.05-12,2.5-12.19,3.82,16.87-.43,24.61-4.29,17-6.9,19.31-11,4.12-6.54,3.7-11.8-2.17-4.38-6.73-2.13S142.92,281.53,134.5,283.83Z"/><path class="plastic-bottle-3-2" d="M134.27,310.69c-3.5.78-8.89,4-8.42,8.17s7,7.24,6.2,11.45-15.71,8-15.69,9.81,19.78-2.44,23.75-4.66,12.74-5.38,14.38-7.84,4.68-5.14,4.68-10.63,3-19.06-1.87-16.84S140.46,309.31,134.27,310.69Z"/><path class="plastic-bottle-3-2" d="M135.27,345.29c-4.9,2.53-3.4,10.1-3.72,12.81s-19.12,8.07-18.65,9.38,14.89-1.58,22.2-4.07,18.18-7.11,20.65-10.23a22.43,22.43,0,0,0,4.35-12.59c.06-4.4,2-8.92-1.87-5.8S142.26,341.69,135.27,345.29Z"/><path class="plastic-bottle-3-2" d="M137.47,370.82c-5.7,2.26-5.49,9.58-5.7,13.45s-14,7.59-13.93,9.07,13.82-1.22,22.53-5.41,16.68-8.86,18.93-13.23,2.16-16.57-1.45-14.1S143.69,368.36,137.47,370.82Z"/><path class="plastic-bottle-3-2" d="M139.85,396.6c-5,2.31-6.07,7.16-6.32,10.8S127.7,415.91,121,418s-8.62,2.79-6.8,3.28,15-1.58,24-5.22,14.49-7.69,17.65-11.44,3.4-10.79,3.64-14.43-.73-5-3.16-2.67S145.68,393.92,139.85,396.6Z"/><path class="plastic-bottle-3-2" d="M148.74,112.36c-6.54-14.56-17.2-32-21.89-39.23h0c.28-2.48,6.14-5.13,3-7.95s-36.81,9-36.81,9L92.05,78c2.91,1.77,11.41,0,11.82,2,4.57,22,14.49,84.21,15.37,92,.92,8.08,34.44-2.27,39.57-8.53S156.34,129.27,148.74,112.36Z"/><path class="plastic-bottle-3-2" d="M134.75,424c-5.07,1.53-4.13,11.78-7.17,14.82A28.4,28.4,0,0,1,112.89,446c-5.83.85-13,2.43-12.87,3.4s12.38.85,22-1.7,28.17-10.93,30.72-14.45a31.32,31.32,0,0,0,5.83-15.06c.73-6.56-1.82-5.6-3.4-4.25S141.18,422.1,134.75,424Z"/><path class="plastic-bottle-3-2" d="M149.52,478.09l.09-.09.25-.29.06-.07c8.07-9.39,16.58-15.62,17.69-43.82-2.51,9.18-5.77,15.85-8.93,18s-1.83-7-1.59-9.84-1.94-1-4.61,1.34-14,7.68-21.32,9.87C127,454.47,127,464.36,122.6,469s-21.57,7.36-25.72,7.5-16,22.57,0,23a76.09,76.09,0,0,0,11.16-1C125.85,495.64,140.79,488.13,149.52,478.09Z"/><path class="plastic-bottle-1-2" d="M159.66,465.76c4.24-6.65,7.47-15.91,8-33.18L176,155.44C176.36,127.57,158.24,91.89,130,61c-1-1.14-2.1-2.23-3.14-3.29l-1.72,1c4,5,31,35.68,39.07,61.34s7.52,29.93,6.49,34.21-7.52,9.14-7.23,11.06,8.55-9.14,7.82-3.54,3-1.71,3,.84-1.81,5.94-3.73,8.15-.73,16.19-.88,18.42-6.44,6.61-6.44,8.12,8.64-6.75,8.25-4.45,2-1.42,2-.42a16.09,16.09,0,0,1-3.77,8.77c-2.88,3.26-1.06,18.83-1.15,21.6s-5.76,8.05-5.76,10.25,7.29-5.88,7.29-2.46-3.55,6.3-3.36,11.87.39,10.36-.67,11.65-7.39,6-7,7.34,7.1-4.32,8.44-4.8,1.15,3.49.29,5-2.5,3.63-2.4,6.41.86,9.22-.13,11.2-4.43,5.68-4.46,6.65,6.2-2.6,7.61-4.59.41,6-1.33,7.75-.75,6.68-.5,11.08-2.82,6.31-3.4,9.54.58,6.14-.74,8.13-.17,3.07,1.65,1.41,4.55-6.84,4.48-5.12-.33,6.36-2.15,9-2.57,6.47-1.66,8.71,2.07,5.55.74,7.88-4.89,5.31-4.23,6.8,6.44-7.41,6.63-5.53-.24,5.53-1.73,7.6-1.41,8.79-1.58,12a22.11,22.11,0,0,1-2.74,9.12c-1.24,2,1.41,2.07,2.58,0s1.9.58,1.41,2.74-2.74,4.81-2.74,8.38,1.31,9.17,0,11.39-6.65,7.68-6.06,8.36,7.59-6.48,8.1-8,.52,5-.42,6.82a24,24,0,0,0-2.56,9.73c-.34,4.86,1.62,8.18-.09,10.91s-5.28,6.06-5.28,7.34,4.43-2.87,6.14-4.51,2.3,1.14,1.7,3.29-1.7,1.13-1.28,5.82,2.38,20.45-3.54,33.38A4.52,4.52,0,0,0,159.66,465.76Z"/><path class="illu__stroke" d="M167.66,432.4,176,155.25c.35-27.86-17.77-63.54-46.06-94.43s-53.26-31.67-83.18,0S-.75,128.86.71,155.25L16,432.4c1.23,27.09,9.92,37.76,18.4,45.42l0,0c11.24,13,32.81,21.77,57.59,21.77s46.27-8.76,57.52-21.71a.34.34,0,0,0,.09-.08l.25-.29.06-.07C158.11,467.93,166.76,461.67,167.66,432.4Z"/><path class="plastic-bottle-3-2" d="M122.61,325.45c-2.74,1-3.49,8.18,0,7.48S125.72,324.29,122.61,325.45Z"/><path class="plastic-bottle-4-2" d="M114.54,82c-2.3,2.56,5.69,24.09,9.89,41.94,4,16.83,7.28,44.06,10.67,42.12s-3.14-40.46-6.51-53.27C126,103.09,117.86,78.3,114.54,82Z"/><path class="plastic-bottle-4-2" d="M132.36,179.65c-4.72.83-3.62,3.74,0,2.54S134.82,179.21,132.36,179.65Z"/><path class="plastic-bottle-4-2" d="M137.77,225.74c-2.19,1.09-4.19,3.69-3.84,7.8s-.26,10.76,3.84,8.83,4.48-5.17,5-9.57S141.82,223.72,137.77,225.74Z"/><path class="plastic-bottle-4-2" d="M137.3,192.74c-2.9.38-3.49,5-4.22,8.62s-.9,8.26,3,7.4,5.55-8,4.58-11.52S140.17,192.37,137.3,192.74Z"/><path class="plastic-bottle-4-2" d="M138.42,258.87c-3.18.46-6.33,7.92-3.76,9.61s6.15,2.11,6.31-2.21S141.25,258.46,138.42,258.87Z"/><path class="plastic-bottle-4-2" d="M138.23,286.22c-4.31-1.19-7.58,11.93-3.57,10.9s6.77-2.4,6.31-5.42S140.47,286.84,138.23,286.22Z"/><path class="plastic-bottle-4-2" d="M136.57,314.11c-2.43,1.52-4.48,4.73-1.91,7.65s2.25,6.72,2.72,9.34,3.16.36,3.66-2.72,2.59-17.1,0-15.64A9.25,9.25,0,0,1,136.57,314.11Z"/><path class="plastic-bottle-4-2" d="M137.38,346.81c-2.89,1.52-3.08,8.9-2.62,10.63s4.88,3.76,5.49,0S139.69,345.58,137.38,346.81Z"/><path class="plastic-bottle-4-2" d="M139.33,373.58c-2.46.12-6.4,8.79-4,11.24s7.32-2.29,6.94-7.33S141.15,373.49,139.33,373.58Z"/><path class="plastic-bottle-4-2" d="M139.33,400.86c-2,.58-5,9.52-2.76,11.2s5.9-1.16,5.74-5.83S141.26,400.3,139.33,400.86Z"/><path class="plastic-bottle-4-2" d="M137.49,427c-1.64,1-5.74,11.89-.75,10.77s6.15-5.32,5.57-7.41S139.69,425.64,137.49,427Z"/><path class="plastic-bottle-4-2" d="M136.76,455.45c-4.23,2.66-5.25,11.34-6.51,14.42s-12,6.72-11.06,12,16.55,1.4,21.22-3.92,8.32-10.92,7.48-14.56-6.13,2.38-7.48-1.54S140.34,453.21,136.76,455.45Z"/><path class="plastic-bottle-4-1" d="M40.3,448c-2.25.63.64,24.64,7.5,29.13s20.39,9.5,23.78,9.58S68,482.78,64.89,482s-13.4-4.49-14.73-10.82-3.44-16-4-18.14S43.25,447.16,40.3,448Z"/><path class="plastic-bottle-4-2" d="M103.29,76.94c3.74,1.33,12.31,1,16.56-1.16s9.07-4.8,7.65-8S103.29,76.94,103.29,76.94Z"/><path class="plastic-purple-2" d="M88.36.62c-24.24,0-43.89,8-43.89,17.87L46.7,59.73a8.57,8.57,0,0,0-.07,1C46.63,70.25,65.56,78,88.93,78s42.3-7.71,42.3-17.22l1-42.25C132.25,8.62,112.6.62,88.36.62Z"/><path class="plastic-purple-3" d="M44.86,25.6,46.7,59.73a8.57,8.57,0,0,0-.07,1C46.63,70.25,65.56,78,88.93,78s42.3-7.71,42.3-17.22l.87-36.09C123.76,35.28,112.7,36.79,104,38.38S95.78,49.9,94.1,56.19,87.72,64.7,78,64,70,51.82,69,47.6s-2.71-9.31-7.59-11.25S47.44,30,44.86,25.6Z"/><path class="illu__stroke" d="M88.36.62c-24.24,0-43.89,8-43.89,17.87L46.7,59.73a8.57,8.57,0,0,0-.07,1C46.63,70.25,65.56,78,88.93,78s42.3-7.71,42.3-17.22l1-42.25C132.25,8.62,112.6.62,88.36.62Z"/><path class="plastic-purple-2" d="M71.31,65.2c-1.57-.35-.27,3.46,10.07,4.12C92,70,94.49,67.12,92.23,66.91S77.13,66.49,71.31,65.2Z"/><path class="illu__stroke" d="M131.5,49.33c0,9.6-19.13,17.39-42.72,17.39S46.06,58.93,46.06,49.33"/><path class="plastic-purple-1" d="M72,33.86c-2.32-.17-3.18,1.37-.35,2.49s5.41,2,6.27,4.47,3.44,3.18,4.38,2.23,2-4.65,5.41-4.81,3.78-1.11,3.78-1.89c0-1.71-5.12-.81-11.68-1.37A57.25,57.25,0,0,1,72,33.86Z"/><path class="plastic-purple-1" d="M95.58,34.94c-1.2.2-1.58,2.42,0,2.06C100.14,36,98.14,34.52,95.58,34.94Z"/><path class="plastic-purple-1" d="M101.77,34.37c-1.14.22-1.35,1.82,0,2S102.91,34.16,101.77,34.37Z"/><path class="plastic-purple-1" d="M67.38,33.45c-.57-1.33-3.49-1-3.6-.16s1,1.57,2.24,1.58S67.8,34.45,67.38,33.45Z"/><path class="plastic-purple-1" d="M61,31.1c-1.21-.32-1.28,1.92,0,2.28S62.61,31.53,61,31.1Z"/></svg>
