<svg xmlns="http://www.w3.org/2000/svg" viewBox="0 0 83.22 483.25"><path class={`${clr1}-3`} d="M59.22,31.85s-9.95,226.48-11.04,240.67-3.59,26.2,6.08,40.54,21.83,17,26.82,36.49-3.43,41.79-9.2,66.11-18.94,56.07-20.1,60.23-3.39,6.94-4.48,6.71-1.08-2.7-.69-4.41,5.86-26.38,8.18-36.1,6.93-43.73,8.16-49.46,1.58-12.51-1.4-13.57-3.79,5.57-4.25,8.55-1.49,10.23-6.55,30.46-13.98,48.51-15.25,52.57-2.23,8.12-3.9,7.48-1.51-2.71-.56-6.77,5.57-28.1,9.07-42.51,4.94-34.23,5.97-40.6,1.51-12.9-1.19-14.57-3.82,3.58-4.38,9.23-4.06,22.77-5.89,33.19-12.26,49.59-12.9,51.98-1.19,5.65-3.18,5.17-1.03-2.79-.56-5.49,4.7-29.77,6.77-40.52,5.05-42.59,5.34-45.54,1.06-12.03-2.37-13.05-4.4,7.25-4.69,10.92,.05,6.36-5.74,34.23-11.93,48.34-12.29,49.58-1.18,6.38-2.93,5.61-1.69-2.41-.92-6.26,4.31-31.22,5.54-41.52,5.23-49.06,4.92-65.51,2.92-28.45,7.69-33.52,6.15-9.84,5.54-14.92-2-13.53-3.54-32.29S13.18,133.23,10.43,100.13s-.13-75.89-.13-75.89c.99-13.54,6.83-17.65,12.57-21.28,0,0,9.98-6.28,21.91,1.78,10.23,6.91,14.77,19.57,14.43,27.12Z"/><path class={`${clr1}-2`} d="M55.2,46.14c.46-9.42,2.71-7.83,4.02-14.29,.33-7.55-4.2-20.21-14.43-27.12-11.93-8.06-21.91-1.78-21.91-1.78-5.75,3.63-11.59,7.74-12.57,21.28,0,0,44.44,31.32,44.9,21.9Z"/><path class={`${clr1}-1`} d="M41.61,9.09l-4.2,6.04,7.23-3.54,4.93-2.82c-.84-.87-1.73-1.69-2.68-2.47l-5.28,2.78Z"/><path class={`${clr1}-1`} d="M29.26,4.61l1.23,4.16,6.25-2.28,6.41-2.78c-2.31-1.33-4.53-2.16-6.6-2.61l-7.29,3.51Z"/><path class={`${clr1}-2`} d="M2.06,469.02c1.75,.77,2.57-4.37,2.93-5.61s6.5-21.7,12.29-49.58c5.79-27.87,5.45-30.56,5.74-34.23,.29-3.67,1.26-11.94,4.69-10.92,3.43,1.02,2.66,10.1,2.37,13.05-.29,2.95-3.27,34.79-5.34,45.54-2.07,10.75-6.29,37.81-6.77,40.52-.48,2.71-1.43,5.02,.56,5.49,1.99,.48,2.55-2.79,3.18-5.17,.64-2.39,11.06-41.55,12.9-51.98,1.83-10.43,5.33-27.54,5.89-33.19,.56-5.65,1.67-10.91,4.38-9.23,2.71,1.67,2.23,8.2,1.19,14.57-1.03,6.37-2.47,26.19-5.97,40.6-3.5,14.41-8.12,38.45-9.07,42.51-.96,4.06-1.11,6.13,.56,6.77,1.67,.64,2.63-3.42,3.9-7.48s10.2-32.34,15.25-52.57c5.06-20.23,6.09-27.47,6.55-30.46,.46-2.99,1.27-9.61,4.25-8.55,2.98,1.05,2.63,7.84,1.4,13.57s-5.84,39.74-8.16,49.46c-2.31,9.72-7.79,34.4-8.18,36.1-.39,1.7-.39,4.17,.69,4.41s3.32-2.55,4.48-6.71c.58-2.09,4.18-11.12,8.36-22.66,.02-.06,13.97-50.04,19.12-75.64,5.16-25.61-7.38-35.95-17.17-47.29s-18.81-13.66-18.04-43.56c.77-29.9,11.59-249.6,11.59-249.6,.52-9.35-5.24-27.32-22.67-31.93-11.02-2.91-19.49,4.64-21.87,13.38-.37,1.68-.65,3.54-.8,5.64,0,0-2.61,42.79,.13,75.89s9.32,156.11,10.85,174.87c1.54,18.76,2.92,27.22,3.54,32.29,.62,5.07-.77,9.84-5.54,14.92-4.77,5.07-8,17.07-7.69,33.52,.31,16.46-3.69,55.21-4.92,65.51-1.23,10.3-4.77,37.68-5.54,41.52-.77,3.84-.83,5.48,.92,6.26Z"/><path class={`${clr1}-1`} d="M17.15,13.29c2.4-4.51,8.25-8.71,16.64-5.78s10.94,8.46,11.67,10.01-2.35-1.82-4.92-3.91c-2.74-2.22-12.61-7.2-18.74-2.88s-4.65,2.56-4.65,2.56Z"/><path class={`${clr1}-3`} d="M50.6,317.76h0c-8.16-8.33-9.55-15.77-17.33-18.19-6.99-2.18-8.09,5.29-8.32,9.84,.02,4.3-1.57,8.44-5.67,12.8-1.45,1.55-2.76,3.74-3.87,6.5-.04,5.25,23.39,2.97,30.85,6.13,7.9,3.35,34.6,23.12,30.47,14.68-3.7-7.67-9.54-13.31-14.65-19.22-4.21-4.88-8.28-8.09-11.49-12.54Z"/><path class={`${clr1}-3`} d="M57.29,387.63c.46-2.99,1.27-9.6,4.25-8.56-3.97-1.14-5.08,.29-6.98,10.44-1.66,8.87-8.11,43.56-13.97,64.6,3.24-10.73,7.31-24.65,10.15-36.03,5.06-20.23,6.09-27.47,6.55-30.46Z"/><path class={`${clr1}-3`} d="M26.1,451.4c.11-.42,.22-.85,.33-1.28-.18,.62-.28,1.03-.33,1.28Z"/><path class={`${clr1}-3`} d="M34.61,416.13c1.83-10.43,5.33-27.54,5.89-33.19,.45-4.56,1.26-8.86,2.98-9.47h0c-4.15,.97-4.47,5.57-7.49,23.82-2.71,16.4-6.26,39.07-8.76,49.71,3.05-11.87,6.41-25.36,7.37-30.86Z"/><path class={`${clr1}-3`} d="M17.28,413.84c5.79-27.87,5.45-30.56,5.74-34.23,.25-3.17,1.01-9.74,3.41-10.84h0c-4.72,1.7-5.19,6.3-5.83,16.14-.63,9.84-6.34,37.72-10.39,59.39,2.11-8.24,4.62-18.69,7.06-30.47Z"/><path class="stroke" d="M59.22,31.85s-9.95,226.48-11.04,240.67-3.59,26.2,6.08,40.54,21.83,17,26.82,36.49-3.43,41.79-9.2,66.11-18.94,56.07-20.1,60.23-3.39,6.94-4.48,6.71-1.08-2.7-.69-4.41,5.86-26.38,8.18-36.1,6.93-43.73,8.16-49.46,1.58-12.51-1.4-13.57-3.79,5.57-4.25,8.55-1.49,10.23-6.55,30.46-13.98,48.51-15.25,52.57-2.23,8.12-3.9,7.48-1.51-2.71-.56-6.77,5.57-28.1,9.07-42.51,4.94-34.23,5.97-40.6,1.51-12.9-1.19-14.57-3.82,3.58-4.38,9.23-4.06,22.77-5.89,33.19-12.26,49.59-12.9,51.98-1.19,5.65-3.18,5.17-1.03-2.79-.56-5.49,4.7-29.77,6.77-40.52,5.05-42.59,5.34-45.54,1.06-12.03-2.37-13.05-4.4,7.25-4.69,10.92,.05,6.36-5.74,34.23-11.93,48.34-12.29,49.58-1.18,6.38-2.93,5.61-1.69-2.41-.92-6.26,4.31-31.22,5.54-41.52,5.23-49.06,4.92-65.51,2.92-28.45,7.69-33.52,6.15-9.84,5.54-14.92-2-13.53-3.54-32.29S13.18,133.23,10.43,100.13s-.13-75.89-.13-75.89c.99-13.54,6.83-17.65,12.57-21.28,0,0,9.98-6.28,21.91,1.78,10.23,6.91,14.77,19.57,14.43,27.12Z"/><path class="stroke" d="M60.14,453.24s13.96-50.03,19.12-75.65-7.38-35.95-17.17-47.29-18.81-13.66-18.04-43.56S55.64,37.15,55.64,37.15c.52-9.35-5.24-27.32-22.67-31.93C20.33,1.87,11.04,12.3,10.46,22.5"/></svg>
