<svg xmlns="http://www.w3.org/2000/svg" viewBox="0 0 670.31 710.38"><g id="Layer_2" data-name="Layer 2"><g id="main"><path class="illu__bg plastic-bg" d="M616.28,382.31c5.57-15.19,5-31.9-1-49.28a40.31,40.31,0,0,1,17.55-47.84c15.78-9.39,27.07-21.74,32.64-36.92,24.48-66.7-70.53-162.92-212.21-214.91S176.87-6.7,152.4,60c-5.57,15.18-5,31.9,1,49.27a40.31,40.31,0,0,1-17.56,47.84c-15.78,9.4-27.07,21.74-32.64,36.93s-4.94,31.9,1,49.27a40.3,40.3,0,0,1-17.55,47.84C70.89,300.55,59.6,312.89,54,328.07s-5,31.9,1,49.28a40.31,40.31,0,0,1-17.56,47.84c-15.78,9.39-27.07,21.74-32.64,36.92C-19.63,528.82,75.38,625,217.06,677s276.37,40.06,300.85-26.64c5.57-15.18,5-31.9-1-49.27a40.3,40.3,0,0,1,17.55-47.84c15.78-9.4,27.07-21.74,32.64-36.93s4.95-31.89-1-49.27a40.31,40.31,0,0,1,17.56-47.84C599.42,409.83,610.71,397.49,616.28,382.31Z"/></g></g></svg>