<svg xmlns="http://www.w3.org/2000/svg" viewBox="0 0 176.64 500.23"><path class={`${clr1}-3`} d="M167.66,432.58l8.35-277.15c.35-27.87-17.77-63.55-46.07-94.44-28.29-30.89-53.26-31.67-83.17,0C16.86,92.67-.75,129.05,.71,155.44L15.98,432.58c1.23,27.09,9.91,37.76,18.4,45.42,0,0,.02,.01,.03,.02,11.24,12.98,32.81,21.77,57.59,21.77s46.27-8.76,57.53-21.7c.03-.03,.06-.06,.09-.09,.08-.1,.17-.19,.25-.29,.02-.02,.04-.05,.06-.07,8.18-9.52,16.84-15.78,17.73-45.06Z"/><path class={`${clr1}-1`} d="M23.28,445.35c-.39-11.22,2.67-9.18,4.16-8.24,1.49,.94,11.13,8.53,11.77,6.58,.63-1.95-6.74-4.84-7.45-7.36-.71-2.52-2.67-4.81-4.94-6.88-2.28-2.07-5.26-4.97-6.75-7.01-1.49-2.04-.11-2.51,2.22,0,2.33,2.5,3.83,1.97,3.85,.65,.02-1.33-.14-7.53-.24-9.76-.11-2.23,1.86-1.38,3.77-.42,1.91,.95,8.69,5.89,9.12,4.67,.43-1.22-4.72-3.87-5.88-4.77-1.17-.9,.53-3.5-2.12-5.52-2.65-2.02-8.43-6.58-10.77-10.13-2.33-3.55-.64-3.02,1.17-.9,1.8,2.12,4.94,4.67,4.96,2.12s-.23-8.5-.19-10.37c.04-1.86,2.83-.57,3.97,.28,1.13,.85,14.68,7.94,15.64,6.3,.96-1.64-10.5-5.37-11.51-7.35-1.01-1.98-.2-3.28-2.67-5.42-2.47-2.15-6.4-3.72-10.04-7.61-3.64-3.89-5.92-7.13-5.57-8.3,.35-1.17,5.21,6.5,7.9,8.23,2.7,1.73,2.59-2,2.59-3.83s-.11-5.77,0-7.74,2.54-.94,3.72,0c1.19,.94,8.25,4.35,10.92,5.37,2.67,1.02,10,3.44,10.53,2.38,.53-1.05-13.09-4.87-16.91-7.75-3.82-2.88-.27-4.42-3.54-6.65s-9.87-5.77-13.91-11.06c-4.04-5.29-2.09-5.78-1.34-5.07s6.25,7.53,8.6,8.89c2.34,1.36,2.56-2.34,2.34-5.18-.22-2.84-1.36-8.67,1.53-7.25,2.89,1.42,16.82,7.72,17.49,5.88,.67-1.84-10.84-4.58-14.92-8.05-4.08-3.47-1.71-5.14-4.33-6.65-2.62-1.51-10.62-8.01-13.16-12.49s2.84,.7,4.15,2.32c1.31,1.61,5.69,5.34,6.95,6.14,1.26,.81,2.62-.45,2.32-3.52-.3-3.07-.2-14.45-.35-17.02-.15-2.57,2.72-1.21,4.33-.3,1.61,.91,15.53,5.87,16.37,4.27,.84-1.6-6.35-2.42-8.37-3.93s-1.07-4.86-4.16-6.37c-3.09-1.51-12.43-6.03-17.41-10.59-4.98-4.55-5.86-8.34-3.82-6.44,2.04,1.89,6.82,6.82,9.96,8.92,3.15,2.1,2.53-2.26,.76-5-1.77-2.74-1.05-7.18,1.29-7.58,2.34-.4,13.11,3.51,13.66,2.12,.54-1.39-6.08-3.05-7.85-4.46-1.77-1.4-1.15-4.46-3.43-6.02-2.27-1.56-10.21-5.78-13.69-9.51-3.48-3.73-2.19-4.76-1.29-3.91,.89,.85,4.27,4.43,6.65,5.82,2.38,1.38,3.15-2.23,1.77-5.38-1.38-3.15,3.46-7.3,7.38-4,3.92,3.31,7.99,4.77,10.22,3.54,2.23-1.23,.12-2.41-1.95-3.18-2.07-.77-1.43-6.29-6.91-8.33-5.48-2.04-15.53-7.83-19.86-13.27-4.34-5.44,4.56,2.2,7.03,4.06,2.47,1.87,3.92-.39,3.15-3.62-.78-3.23-2.71-13.96-1.55-17.13,1.16-3.17,2.25-2.94,4.34-1.41,2.09,1.53,16.68,6.95,19.11,7.09,2.43,.14-1.97-3.46-7.16-5.21-5.19-1.75-2.85-4.59-7.58-6.91-4.73-2.33-12.58-5.25-16.82-10.18-4.24-4.93,3.82,.42,5.84,2.02,2.02,1.6,1.95-2.78,1.32-8.41-.63-5.63-.7-10.36,1.53-9.59,2.22,.76,19.04,7.82,19.7,5.93,.66-1.89-11.73-4.57-14.86-7.3s-1.14-5.85-4.83-7.46c-3.69-1.61-9.93-5.58-12.44-10.03s3.93,2.93,6.95,4.73c3.03,1.8,2.84-2.6,1.7-10.53-1.14-7.92-.7-48.55,31.58-89.71,3.58-4.57,6.16-8.78,7.93-12.66-2.68,2.37-5.39,5.01-8.15,7.93C16.86,92.49-.75,128.86,.71,155.25L15.98,432.4c1.23,27.09,9.91,37.76,18.4,45.42,0,0,.02,.01,.03,.02,2.8,3.24,6.25,6.22,10.23,8.86-12.21-15.22-21.03-31.95-21.36-41.35Z"/><path class="m" d="M47.27,93.3c-2.22,0-18.14,44.51-18.4,60.26-.26,15.75,7.28-15.92,9.33-23.87,2.3-8.88,12.28-36.39,9.06-36.39Z"/><path class={`${clr1}-6`} d="M23.27,181.49c3.07,2.73,2.4,16.09,2.54,17.94,.16,2.25,2.18,6.04,5.62,7.5,3.44,1.47,11.98,5.58,15.16,6.76s14.45,3.25,14.86,2.19-11.17-3.28-14.6-4.3c-3.44-1.01-3.89-3.36-4.48-7.98-.58-4.62,.59-14.84-5.41-17.55-6.01-2.72-14.61-6.12-14.61-6.12l.94,1.56Z"/><path class={`${clr1}-6`} d="M23.25,211.32c-2.26-.43-3.59,7.28-2.26,9.02,1.33,1.74,1.51-4.05,3.69-4.75,2.18-.7,7.73-1.64,8.59,3.68,.86,5.32-3.68,6.1-5,9.31-1.33,3.21-1.8,7.98,.39,9.38s6.88,6.73,10.17,8.68c3.28,1.96,16.66,5.24,17.67,4.22s-4.77-2.11-6.73-3.13c-1.96-1.02-4.69-2.38-5.16-8.38-.47-6,1.47-18.57-6.07-22.02-7.54-3.45-13.25-9.01-13.25-9.01l-2.04,3.01Z"/><path class={`${clr1}-6`} d="M29.92,251.59c1.65,2.34,.62,4.17,.22,5.56-.4,1.39,1.86,4.96-1.27,4.88-3.13-.09-1.83,2.96,0,4.01,1.83,1.04,7.57,5.83,9.66,7.14s15.63,4.53,16.39,3.57-7.16-1.83-9.68-3.66c-2.53-1.83-3.66-7.49-.35-10.01s4.53-6.04,.61-7.24c-3.92-1.2-7.89-.77-11.65-2.77-3.76-2-3.93-1.47-3.93-1.47Z"/><path class={`${clr1}-6`} d="M30.12,276.57c1.86,2.79,1.08,6.19,.02,8.05-1.05,1.86-2.15,5.57,0,7.12,2.15,1.55,8.03,4.23,10.3,6.5,2.27,2.27,14.9,6.16,16.17,4.42,1.27-1.74-12.35-2.67-13.07-8.96-.72-6.29,1.86-11.06-2.56-13.35-4.42-2.29-9.71-5.12-9.71-5.12l-1.15,1.34Z"/><path class={`${clr1}-6`} d="M30.67,302.53c3.48,3.72,3.3,19.06,3.18,23.27-.12,4.21,1.04,7.32,6.07,9.36s24.67,7.32,24.97,5.43-9.61-2.23-13.96-4.77c-4.36-2.54-2.06-9.68-2.18-17.31-.12-7.62,1.19-8.98-2.66-11.59-3.86-2.62-15.42-4.38-15.42-4.38Z"/><path class={`${clr1}-6`} d="M31.38,363.41c1.48,2.59,.01,13.13,1.57,15.7,1.56,2.57,4.04,6.33,7.34,7.98,3.3,1.65,19.62,8.16,20.63,5.69,1.01-2.48-8.35-2.29-10.36-4.77s-1.38-10.09-1.74-13.02,.81-4.38-2.44-6.09c-3.25-1.71-15-5.49-15-5.49Z"/><path class={`${clr1}-6`} d="M31.38,388.47c1.17,3.09,.3,14.58,1.48,17.14,1.18,2.55,10.75,9.72,13.52,10.68s17.86,6.1,17.82,3.88c-.04-2.21-13.02-2.53-14.19-6.36-1.17-3.83-1.5-12.56-1.6-15.12-.11-2.55-3.62-4.15-5.75-4.9-2.13-.75-11.28-5.32-11.28-5.32Z"/><path class={`${clr1}-6`} d="M31.38,337.7c2.19,1.93,1.18,12.57,1.64,15.23,.46,2.66,2.03,5.41,3.9,6.42s22.88,9.17,24.35,6.97c1.47-2.2-10.91-1.48-11.74-6.57s1.18-12.11-1.75-14.71-7.48-4.95-7.48-4.95l-8.92-2.39Z"/><path class={`${clr1}-6`} d="M70.47,74.75c.53-.97,1.03-1.8,1.52-2.45,8.61-11.68-2.37-7.02-7.69-.3l-3.4-1.52c.52-1,1.02-1.83,1.47-2.42,5.87-7.66,.27-7.08-2.45-4.08-.99,1.1-2.14,2.64-3.4,4.55l-2.76-1.23h-3.95c.35,2.55,1.85,5.04,3.62,6.23h0c-8.39,14.39-19.56,39.43-23.84,57.79-5.54,23.8-4.24,36.2-.98,37.99,3.26,1.79,16.57,7.83,24.83,6.68,8.26-1.14-5.76-1.3-7.88-6.68-1.88-4.76,12.71-66.8,22.76-90.08,6.56,.38,7.42-2.12,7.42-2.12l-5.28-2.35Zm-26.69,61.95c-1.79,12.07-3.42,6.52-1.79-4.56,1.31-8.93,9.92-40.05,16.29-55.84,.93,.45,1.93,.9,3,1.3-5.08,12.55-15.88,48.2-17.5,59.1Z"/><path class={`${clr1}-6`} d="M32.5,413.96c2.09,3.14,2.17,9.83,1.87,12.66-.3,2.82,.24,8.58,3.06,10.99,2.82,2.41,14.32,6.59,17.25,7.53,2.93,.94,19.15,4.6,19.67,3.24s-12.35-3.03-15.69-4.29-6.28-2.72-6.8-6.38c-.52-3.66,1.46-11.09-2.3-14.02-3.77-2.93-8.43-4.92-8.43-4.92l-8.62-4.81Z"/><path class={`${clr1}-6`} d="M167.46,436.77c-2.49,16.82-30.17,37.38-68.53,39.6-38.37,2.22-41.18-8.6-43.95-17.23-2.77-8.64-3.01-9.97-9.39-12.71-6.38-2.73-10.58-5.31-10.58-5.31,2.8,4.95-.15,15.66,3.41,26.56,3.56,10.89-3.41,5.64-3.41,5.64l-.89,3.61c.39,.37,.79,.73,1.18,1.09,0,0,.02,.01,.03,.02,11.24,12.98,32.81,21.77,57.59,21.77s46.27-8.76,57.53-21.7c.03-.03,.06-.06,.09-.09,.08-.1,.17-.19,.25-.29,.02-.02,.04-.05,.06-.07,8.07-9.39,16.59-15.62,17.69-43.84-.51,.7-.88,1.68-1.07,2.97Z"/><path class={`${clr1}-6`} d="M18.46,348.26c-3.7-2.93-7.25-13.04-8.06-17.16l.25,4.53h0c.15,3.18,2.74,8.95,5.11,11.81,2.37,2.86,6.4,3.75,2.7,.82Z"/><path class={`${clr1}-6`} d="M24.18,403.43c-5.51-4.67-10.39-17.16-10.96-21.14l.39,7.09c.05,.11,.1,.23,.13,.38,.95,4.18,5.65,10.96,8.26,13.71,2.44,2.58,7.69,4.63,2.18-.04Z"/><path class={`${clr1}-6`} d="M8.87,303.31l.4,7.35c.06,.06,.09,.2,.1,.42,.07,3.41,9.08,13.53,11.35,15.14,2.27,1.6,.15-1.92-3.88-5.46-3.86-3.39-7.64-11.52-7.78-16.02-.01-.38-.08-.87-.19-1.43Z"/><path class={`${clr1}-6`} d="M22.23,376.3c-2.25-1.84-9.07-10.98-10.25-16.54l.2,3.64c1.46,5.09,5.37,10.19,8.16,12.91s4.18,1.88,1.88,0Z"/><path class={`${clr1}-6`} d="M4.13,217.32l.35,6.42c.08,.09,.15,.21,.22,.38,1.4,3.83,4.77,8.48,7.91,10.86,3.05,2.31,8.92,3.83,4.18,1.18-4.74-2.65-12.12-12.81-12.49-17.84-.02-.32-.08-.66-.17-1.01Z"/><path class={`${clr1}-6`} d="M10.65,199.06c4.05,3.84,10.45,4.37,6.29,2.65-4.16-1.72-14.14-13.3-14.69-18.48h0l.26,4.79c1.07,3.45,4.26,7.36,8.13,11.03Z"/><path class={`${clr1}-6`} d="M15.66,285.52c-3.14-2.58-8.22-10.49-8.54-13.87h0l.24,4.35c.72,2.62,4.07,7.4,6.38,9.91,2.37,2.58,5.06,2.19,1.92-.39Z"/><path class={`${clr1}-6`} d="M21.8,426.97c2.72,3.49,5.06,3.97,1.57-.15-.94-1.11-1.93-2.42-2.89-3.85-.14-.18-.29-.37-.42-.54-.27-.37-.45-.69-.54-.95-2.2-3.57-4.11-7.8-4.81-12.08l.31,5.64c.7,3.2,4.06,8.43,6.78,11.92Z"/><path class={`${clr1}-6`} d="M5.64,244.82l.28,5.09h0c1.21,5.02,6.26,10.46,9.81,13.18,3.56,2.72,7.53,3.35,1.6-.49-5.93-3.84-11.16-12.14-11.7-17.79h0Z"/><path class={`${clr1}-6`} d="M28.86,172.21c-1.77-.78-3.84,.54-1.08,1.96,2.76,1.41,9.86,5.19,19.46,7.42,9.73,2.26,12.21,2.19,9.9,.32-1.89-1.53-14.49-3.64-28.27-9.7Z"/><path class={`${clr1}-10`} d="M33.91,174.24c-2.63-1.01-3.44,1.24,.62,2.45,4.06,1.2,2.23-1.39,0-2.22"/><path class={`${clr1}-0`} d="M67.55,153.27c-5.83,5.04-7.21,23.98,1.76,25.27,8.97,1.3,15.31,1.3,20.5,.77s6.6-12.85,3.96-22.52-19.71-9.15-26.22-3.52Z"/><path class={`${clr1}-0`} d="M63.58,200.35c.24,5.18,2.35,11.18,8.36,12.12,6,.94,16.01,.94,18.72,0,2.71-.94,3.18-9.48,3.41-13.04,.24-3.56,2.59-6.01,6.83-6.49,4.24-.48,6-1.31,6-2.13,0-1.29-13.42-.47-26.25-.94-13.08-.48-25.72-2.49-25.72-.93,0,1.99,7.85,2.4,7.96,5.25,.11,2.85,.7,6.15,.7,6.15Z"/><path class={`${clr1}-0`} d="M56.69,220.12c.13-2.11,10.96,.44,23.07,1.16,4.58,.27,25.82-.66,26.34,.66,.52,1.31-12.06,1.7-12.32,6.42-.26,4.72,.26,20.45-8.65,20.31s-15.99-.92-17.43-6.42c-1.44-5.5,1.87-18.95-4.18-20.02-5.83-1.03-6.91-.73-6.83-2.11Z"/><path class={`${clr1}-0`} d="M62.85,257.53c.1,1.71,5.39,.51,6.27,2.68s2.09,13.34,11.01,13.18c8.92-.16,9.23-8.82,9.6-11s9.05-2.02,9.38-3.63-9.12-.88-17.71-1.53c-8.58-.64-18.63-1.02-18.55,.3Z"/><path class={`${clr1}-0`} d="M68.98,285.24c-.15,1.73,6.77,2.47,8.27,5.23,1.5,2.76,6.6,4.09,9.02,1.17,2.42-2.92,7.02-4.26,9.94-4.84s-.67-1.92-4.09-1.92-12.19,0-15.28-.58-7.68-.93-7.85,.96Z"/><path class={`${clr1}-0`} d="M74.98,311.25c0,1.45,5.73,2.73,8.16,2.81s8.71,.25,8.79-1.41c.08-1.65-16.95-2.65-16.95-1.41Z"/><path class={`${clr1}-0`} d="M94.73,312.4c-.19,1.5,5.62,1.89,5.37,0-.25-1.89-5.21-1.33-5.37,0Z"/><path class={`${clr1}-0`} d="M70.93,311.5c-.48,1.93-2.73,1.44-2.56-.32s2.73-.36,2.56,.32Z"/><path class={`${clr1}-0`} d="M76.03,77.89c-.37,5.09,3.93,4.92,7.69,4.74,3.76-.18,4.96-1.41,5.52-4.02s-13.21-.72-13.21-.72Z"/><path class={`${clr1}-0`} d="M77.26,342.03c-.18,2.55,17.26,1.65,17.33,.35s-17.15-2.87-17.33-.35Z"/><path class={`${clr1}-0`} d="M74.98,341.65c.7-2-3.33-1.95-3.4-.42s2.95,1.72,3.4,.42Z"/><path class={`${clr1}-0`} d="M77.25,375.24c-.08,1.66,11.91,2.54,11.98,.6,.08-1.94-11.9-2.26-11.98-.6Z"/><path class={`${clr1}-0`} d="M79.09,402.64c-.08,1.07,4.53,1.84,4.69,.11s-4.61-1.19-4.69-.11Z"/><path class={`${clr1}-0`} d="M86.93,402.64c-.15,1,3.89,1.29,3.87,.07s-3.71-1.06-3.87-.07Z"/><path class={`${clr1}-0`} d="M50.49,188.36c.71-3-3.82-2.74-4.03-1.27s3.66,2.85,4.03,1.27Z"/><path class={`${clr1}-0`} d="M111.29,190.44c.68,1.49,3.41,1.18,3.31-.29-.1-1.47-3.99-1.2-3.31,.29Z"/><path class={`${clr1}-2`} d="M159.66,465.76c4.24-6.65,7.47-15.9,8-33.17l8.35-277.15c.35-27.87-17.77-63.55-46.07-94.44-1.05-1.14-2.09-2.23-3.13-3.3l-1.73,.98c3.98,5.01,30.96,35.68,39.07,61.34,8.11,25.66,7.52,29.93,6.49,34.21-1.03,4.28-7.52,9.14-7.23,11.06,.29,1.92,8.55-9.14,7.81-3.54-.73,5.6,3.03-1.71,2.99,.84-.04,2.55-1.81,5.94-3.73,8.15-1.92,2.21-.74,16.19-.88,18.42-.15,2.23-6.44,6.62-6.44,8.12s8.63-6.75,8.25-4.45c-.38,2.3,1.98-1.42,2.04-.42s-.89,5.51-3.77,8.77-1.06,18.83-1.15,21.6c-.1,2.77-5.76,8.04-5.76,10.25s7.29-5.88,7.29-2.46-3.55,6.3-3.36,11.87c.19,5.56,.38,10.36-.67,11.66-1.06,1.3-7.39,6-7,7.34s7.1-4.32,8.44-4.8c1.34-.48,1.15,3.48,.29,5-.86,1.52-2.49,3.63-2.4,6.41,.1,2.78,.86,9.21-.13,11.2-1,1.98-4.42,5.68-4.45,6.65-.03,.97,6.19-2.6,7.6-4.59,1.41-1.99,.41,5.96-1.33,7.75-1.74,1.79-.75,6.68-.5,11.08,.25,4.4-2.82,6.3-3.4,9.54-.58,3.24,.58,6.14-.75,8.13-1.33,1.99-.17,3.07,1.66,1.41,1.82-1.66,4.55-6.84,4.47-5.12-.08,1.72-.33,6.36-2.15,9.02-1.82,2.65-2.57,6.47-1.66,8.71,.91,2.24,2.07,5.56,.75,7.88-1.33,2.32-4.89,5.31-4.23,6.8,.66,1.49,6.44-7.41,6.62-5.53,.18,1.88-.23,5.53-1.73,7.6s-1.41,8.79-1.58,11.94c-.17,3.15-1.49,7.13-2.74,9.12-1.24,1.99,1.41,2.07,2.57,0,1.16-2.07,1.91,.58,1.41,2.74-.5,2.16-2.74,4.81-2.74,8.38s1.31,9.18,.03,11.4c-1.28,2.22-6.65,7.67-6.05,8.36,.6,.68,7.59-6.48,8.1-8.02,.51-1.53,.51,5.03-.43,6.82-.94,1.79-2.22,4.86-2.56,9.72-.34,4.86,1.62,8.19-.09,10.92-1.71,2.73-5.29,6.05-5.29,7.33s4.43-2.87,6.14-4.5c1.71-1.63,2.3,1.14,1.71,3.29-.6,2.15-1.71,1.13-1.28,5.82,.43,4.69,2.38,20.45-3.54,33.38-.08,.17-.12,.31-.18,.47Z"/><path class={`${clr1}-7`} d="M160.48,169.91c.64-2.86-7.03,3.62-18.01,7.09-10.98,3.47-22.94,4.14-23.08,6.24s10.15-.25,15.99-1.65c5.84-1.4,24.2-7.65,25.1-11.68Z"/><path class={`${clr1}-7`} d="M134.13,189.17c-5.98,1.35-8.22,6.15-9.04,10.27-.83,4.11,1.96,11.34-4.02,12.46s-10.11,1.88-9.78,2.95c.33,1.08,19.79-1.43,29.24-4.07,9.45-2.64,21.92-8.65,23.08-11.34s-4.73,.91-4.17-2.15c.56-3.05,2.36-18.77-2.64-15.7-5,3.07-18.07,6.54-22.66,7.58Z"/><path class={`${clr1}-7`} d="M132.02,222.28c-5.03,1.65-3.73,8.37-3.83,11.7-.1,3.33,1.2,10.89-2.4,12.01-3.6,1.12-10.9,3.32-10.6,4.42s20.3-1.5,29.2-5.4,16.99-8.96,17.25-11.03-1.85-1.67-2.25-4.87-.1-10.4-1-12.7c-.9-2.3-3.4-2.1-7.1-.7-3.7,1.4-13.94,4.82-19.27,6.57Z"/><path class={`${clr1}-7`} d="M132.55,256.65c-3.95,.87-3.77,8.35-4.1,10.65s-.51,5.45-5.03,7.04c-4.03,1.42-12.81,2.58-12.81,3.68s19.26-1.09,31.74-5.43c7.31-2.54,14.45-7.11,15.21-9.74,.77-2.63,4.71-5.98,5.36-8.74s1.2-11.86-1.75-9.28c-2.96,2.58-14.91,8.8-28.64,11.82Z"/><path class={`${clr1}-7`} d="M134.5,283.83c-5.11,1.39-4.56,7.25-4.56,9.74s-.94,6.23-4.85,7.05c-3.91,.82-12.05,2.5-12.19,3.82s16.87-.44,24.61-4.29c7.74-3.86,16.97-6.9,19.31-10.99,2.34-4.09,4.12-6.54,3.7-11.81-.42-5.26-2.17-4.38-6.73-2.13-4.56,2.25-10.87,6.3-19.29,8.6Z"/><path class={`${clr1}-7`} d="M134.27,310.69c-3.49,.78-8.88,3.95-8.42,8.16s7.01,7.25,6.2,11.46-15.7,8.04-15.68,9.8,19.77-2.44,23.75-4.66c3.97-2.22,12.74-5.38,14.38-7.83,1.64-2.45,4.68-5.14,4.68-10.64s3.04-19.06-1.87-16.84c-4.91,2.22-16.83,9.16-23.03,10.54Z"/><path class={`${clr1}-7`} d="M135.27,345.29c-4.91,2.53-3.4,10.1-3.72,12.81s-19.13,8.07-18.65,9.37,14.89-1.58,22.2-4.06,18.18-7.11,20.65-10.23c2.47-3.12,4.27-8.19,4.34-12.59s2-8.92-1.87-5.8c-3.87,3.12-15.97,6.9-22.95,10.5Z"/><path class={`${clr1}-7`} d="M137.47,370.82c-5.7,2.26-5.49,9.57-5.7,13.45s-13.98,7.59-13.93,9.07c.05,1.47,13.82-1.21,22.53-5.41s16.68-8.85,18.93-13.23,2.15-16.57-1.45-14.09c-3.6,2.47-14.16,7.75-20.38,10.22Z"/><path class={`${clr1}-7`} d="M139.85,396.6c-5.04,2.31-6.07,7.16-6.31,10.81-.24,3.64-5.83,8.5-12.51,10.57-6.68,2.06-8.62,2.79-6.8,3.28,1.82,.49,14.98-1.58,24.01-5.22,9.03-3.64,14.49-7.69,17.65-11.44,3.16-3.74,3.4-10.79,3.64-14.43s-.73-4.98-3.16-2.67c-2.43,2.31-10.69,6.44-16.52,9.11Z"/><path class={`${clr1}-7`} d="M148.74,112.36c-6.55-14.57-17.2-32.06-21.9-39.24h0c.29-2.47,6.14-5.12,2.96-7.95-3.19-2.82-36.82,8.99-36.82,8.99l-.94,3.79c2.91,1.77,11.41-.03,11.82,2,4.57,22.03,14.49,84.21,15.37,92.03,.91,8.08,34.44-2.27,39.57-8.53,5.13-6.27-2.47-34.18-10.06-51.08Z"/><path class={`${clr1}-7`} d="M134.75,424.04c-5.06,1.53-4.13,11.78-7.16,14.82-3.04,3.04-8.86,6.31-14.69,7.16s-13,2.43-12.87,3.4,12.39,.85,21.98-1.7c9.59-2.55,28.17-10.93,30.72-14.45s5.1-8.5,5.83-15.06-1.82-5.6-3.4-4.26c-1.58,1.34-13.97,8.14-20.4,10.09Z"/><path class={`${clr1}-7`} d="M149.52,478.09s.06-.06,.09-.09c.08-.1,.17-.19,.25-.29,.02-.02,.04-.05,.06-.07,8.06-9.39,16.58-15.62,17.68-43.82-2.51,9.17-5.77,15.84-8.93,18.03-3.16,2.19-1.83-7.04-1.59-9.84,.24-2.79-1.94-.97-4.61,1.34-2.67,2.31-13.97,7.68-21.32,9.87-4.19,1.25-4.15,11.14-8.55,15.76-4.4,4.61-21.57,7.35-25.72,7.5-4.15,.15-16.01,22.57,0,23.02,2.44,.07,6.33-.31,11.16-.99,17.81-2.87,32.75-10.37,41.48-20.41Z"/><path class={`${clr1}-7`} d="M122.61,325.45c-2.75,1.03-3.49,8.18,0,7.48s3.1-8.65,0-7.48Z"/><path class="stroke" d="M167.66,432.4l8.35-277.15c.35-27.87-17.77-63.55-46.07-94.44-28.29-30.89-53.26-31.67-83.17,0C16.86,92.49-.75,128.86,.71,155.25L15.98,432.4c1.23,27.09,9.91,37.76,18.4,45.42,0,0,.02,.01,.03,.02,11.24,12.98,32.81,21.77,57.59,21.77s46.27-8.76,57.53-21.7c.03-.03,.06-.06,.09-.09,.08-.1,.17-.19,.25-.29,.02-.02,.04-.05,.06-.07,8.18-9.52,16.84-15.78,17.73-45.06Z"/><path class={`${clr1}-8`} d="M114.54,82.01c-2.29,2.56,5.69,24.09,9.9,41.94,3.97,16.84,7.28,44.06,10.66,42.13,3.39-1.94-3.14-40.46-6.51-53.27-2.55-9.71-10.73-34.5-14.05-30.79Z"/><path class={`${clr1}-8`} d="M132.36,179.65c-4.72,.84-3.62,3.74,0,2.54s2.47-2.98,0-2.54Z"/><path class={`${clr1}-8`} d="M137.77,225.74c-2.19,1.09-4.19,3.68-3.84,7.8,.35,4.12-.26,10.76,3.84,8.83,4.1-1.94,4.48-5.17,5-9.57s-.95-9.08-5-7.06Z"/><path class={`${clr1}-8`} d="M137.3,192.74c-2.9,.37-3.49,5.05-4.22,8.61s-.9,8.26,3.04,7.4c3.94-.85,5.55-7.97,4.58-11.52-.96-3.56-.54-4.87-3.4-4.5Z"/><path class={`${clr1}-8`} d="M138.42,258.87c-3.18,.46-6.33,7.92-3.76,9.62s6.16,2.11,6.32-2.21,.28-7.81-2.56-7.4Z"/><path class={`${clr1}-8`} d="M138.23,286.22c-4.31-1.19-7.58,11.93-3.57,10.9s6.77-2.4,6.32-5.42-.51-4.87-2.75-5.48Z"/><path class={`${clr1}-8`} d="M136.57,314.11c-2.42,1.52-4.48,4.74-1.91,7.65s2.25,6.72,2.72,9.34,3.16,.36,3.66-2.72c.5-3.08,2.58-17.09,0-15.64s-4.48,1.37-4.48,1.37Z"/><path class={`${clr1}-8`} d="M137.38,346.81c-2.89,1.52-3.08,8.9-2.62,10.63s4.88,3.76,5.5,0-.56-11.85-2.87-10.63Z"/><path class={`${clr1}-8`} d="M139.33,373.58c-2.45,.12-6.4,8.79-3.96,11.23,2.44,2.44,7.32-2.29,6.94-7.33-.38-5.04-1.17-4-2.99-3.91Z"/><path class={`${clr1}-8`} d="M139.33,400.86c-2,.58-4.99,9.52-2.76,11.2s5.9-1.16,5.74-5.83c-.16-4.67-1.05-5.93-2.99-5.37Z"/><path class={`${clr1}-8`} d="M137.49,427.04c-1.65,1.05-5.74,11.9-.75,10.78,4.99-1.12,6.15-5.32,5.57-7.42s-2.62-4.76-4.82-3.36Z"/><path class={`${clr1}-8`} d="M136.76,455.45c-4.24,2.66-5.25,11.34-6.51,14.42-1.26,3.08-12.04,6.72-11.06,12.04,.98,5.32,16.54,1.4,21.22-3.92,4.68-5.32,8.32-10.92,7.48-14.56-.84-3.64-6.13,2.38-7.48-1.54s-.08-8.68-3.65-6.44Z"/><path class={`${clr1}-8`} d="M103.29,76.94c3.75,1.33,12.31,.97,16.56-1.16,4.25-2.12,9.08-4.8,7.65-7.96s-24.21,9.12-24.21,9.12Z"/><path class={`${clr1}-5`} d="M88.36,.62c-24.24,0-43.89,8-43.89,17.86l2.23,41.24c-.05,.33-.08,.67-.08,1.01,0,9.51,18.94,17.22,42.3,17.22s42.3-7.71,42.3-17.22l1.02-42.25c0-9.87-19.65-17.86-43.89-17.86Z"/><path class={`${clr1}-9`} d="M44.86,25.6l1.85,34.14c-.05,.33-.08,.67-.08,1.01,0,9.51,18.94,17.22,42.3,17.22s42.3-7.71,42.3-17.22l.87-36.09c-8.34,10.63-19.39,12.14-28.07,13.73-8.68,1.59-8.24,11.52-9.92,17.81-1.68,6.29-6.38,8.5-16.12,7.8-9.75-.71-7.95-12.17-9.01-16.39-1.06-4.22-2.71-9.3-7.59-11.24-4.88-1.94-13.94-6.4-16.52-10.75Z"/><path class="stroke" d="M88.36,.62c-24.24,0-43.89,8-43.89,17.86l2.23,41.24c-.05,.33-.08,.67-.08,1.01,0,9.51,18.94,17.22,42.3,17.22s42.3-7.71,42.3-17.22l1.02-42.25c0-9.87-19.65-17.86-43.89-17.86Z"/><path class={`${clr1}-5`} d="M71.31,65.2c-1.57-.35-.27,3.46,10.07,4.12,10.58,.68,13.11-2.2,10.84-2.41s-15.1-.42-20.91-1.71Z"/><path class="stroke" d="M131.5,49.33c0,9.6-19.13,17.39-42.72,17.39s-42.72-7.79-42.72-17.39"/><path class={`${clr1}-4`} d="M67.38,33.45c-.57-1.33-3.49-.96-3.6-.16s1.03,1.57,2.24,1.58,1.78-.42,1.35-1.42Z"/><path class={`${clr1}-4`} d="M71.98,33.86c-2.32-.17-3.18,1.37-.34,2.49,2.83,1.12,5.41,1.98,6.27,4.47,.86,2.49,3.43,3.18,4.38,2.23s1.98-4.66,5.41-4.81c3.43-.15,3.77-1.11,3.78-1.89,0-1.72-5.12-.81-11.68-1.37-4.98-.43-7.81-1.12-7.81-1.12Z"/><path class={`${clr1}-4`} d="M95.58,34.94c-1.19,.2-1.58,2.42,0,2.06,4.56-1.03,2.56-2.49,0-2.06Z"/><path class={`${clr1}-4`} d="M101.77,34.37c-1.14,.21-1.35,1.82,0,1.98s1.14-2.19,0-1.98Z"/><path class={`${clr1}-4`} d="M60.97,31.1c-1.2-.31-1.28,1.92,0,2.28s1.64-1.85,0-2.28Z"/><path class={`${clr1}-10`} d="M26.61,183.7c2.33,2.72,.64,18.19,2.01,19.95s1.93,2.8,4.18,3.04,.72-6.5,.72-11.49-.56-10.22-.56-10.22l-6.35-1.28Z"/><path class={`${clr1}-10`} d="M34.56,365.4c.69,2.24-.14,9.03,0,12.15s-.23,4.68,1.33,5.23,3.95,1.93,4.59,0-.65-6.79-.65-9.54,.24-5.29,.21-5.95-5.48-1.89-5.48-1.89Z"/><path class={`${clr1}-10`} d="M33.73,390.2c1.39,2.46,.43,16.4,2.24,18,1.81,1.6,5.43,4.15,5.32,1.49-.11-2.66-1.7-6.71-1.6-10.43s.3-6.02,.3-6.02l-6.27-3.03Z"/><path class={`${clr1}-10`} d="M33.73,304.72c2.57,3.75,.54,23.91,2.14,26.48s2.91,3.43,4.13,2.14c1.23-1.29-.37-5.94,0-10.58,.37-4.64-.28-15.25-1.3-16.97s-4.98-1.07-4.98-1.07Z"/><path class={`${clr1}-10`} d="M34.56,340.01c1.58,2.28,1.39,9.71,1.03,11.82s-.78,4.4,1.12,5.69c1.9,1.28,4.75,1.19,5.66,0s-.73-3.39-2.38-5.78c-1.65-2.38-3.58-6.97,0-8.25,3.58-1.28-.95-3.58-2.68-4.13-1.73-.55-2.75,.66-2.75,.66Z"/><path class={`${clr1}-10`} d="M35.19,416.42c1.36,2.93,.42,14.54,1.05,16.95,.63,2.41,2.57,4.39,4.42,4.39s.37-8.37,.64-10.67,0-7.33,0-7.33l-6.11-3.35Z"/><path class={`${clr1}-10`} d="M32.6,277.92c1.25,2.35,.34,8.38-.46,10.2-.8,1.82-.28,5.12,2.36,6.14s3.04-.45,2.61-4.09,.23-4.1,.19-7.28c-.05-3.18-1.64-4.55-1.64-4.55l-3.07-.42Z"/><path class={`${clr1}-10`} d="M47.45,94.3c-2.22,0-18.14,44.51-18.4,60.26-.26,15.75,7.28-15.92,9.33-23.87,2.3-8.88,12.28-36.39,9.06-36.39Z"/><path class={`${clr1}-10`} d="M38.71,221.61c-1.24-.13-2.19,4.99-4.2,6.31-2.01,1.32-4.47,4.78-4.19,8.24s1.45,4.37,3.71,4.45c2.26,.08,3.11-4.37,3.1-6.92s.89-6.49,2.21-8.44c1.32-1.94,.48-3.52-.62-3.64Z"/><path class={`${clr1}-10`} d="M35.71,256.83c-1.89,.01-2.91,3.08-2.68,4.38s-2.95,4.84-.89,6.58c2.07,1.73,4.27,3.31,4.98,1.02,.71-2.28-.92-6.06-.42-8.43s.65-3.56-1-3.55Z"/><path class={`${clr1}-10`} d="M40.48,448.99c-2.25,.63,.64,24.64,7.5,29.13,6.86,4.49,20.39,9.5,23.78,9.58s-3.6-3.92-6.68-4.75c-3.08-.83-13.4-4.49-14.73-10.82-1.33-6.33-3.44-15.98-3.97-18.15-.53-2.16-2.94-5.83-5.9-4.99Z"/><path class={`${clr1}-10`} d="M29.74,217.13c-1.93-1.21-5.85,5.16-2.92,6.8,2.92,1.64,8.16-3.52,2.92-6.8Z"/><path class={`${clr1}-10`} d="M28.38,253.49c-.37-1.41-5.38-1.85-4.57,.87s5.11,1.2,4.57-.87Z"/><path class={`${clr1}-10`} d="M26.08,257.63c-.79,.6-.74,3.21,.84,2.45s-.04-3.04-.84-2.45Z"/><path class={`${clr1}-10`} d="M28.43,278.32c-2.34-1.44-4.3,2.48-2.85,4.02,1.45,1.55,5.19-2.58,2.85-4.02Z"/></svg>
