<svg xmlns="http://www.w3.org/2000/svg" viewBox="0 0 34.51 427"><path class={`${clr1}-2`} d="M.63,12.44L9.63,419.4c0,3.85,3.41,6.98,7.62,6.98s7.62-3.12,7.62-6.98L33.89,12.44H.63Z"/><path class={`${clr1}-1`} d="M.63,12.44l.12,5.3H.74c1.82,4.74,8.16,9.38,16.51,9.04,0,0-2.88,344.65,1.78,344.34,4.66-.31,6.53-345.59,6.53-345.59,0,0,7.27-1.43,8.22-8.24l.11-4.84H.63Z"/><path class="stroke" d="M.63,12.44L9.63,419.4c0,3.85,3.41,6.98,7.62,6.98s7.62-3.12,7.62-6.98L33.89,12.44H.63Z"/><ellipse class={`${clr1}-3`} cx="17.26" cy="12.44" rx="16.63" ry="11.81"/><ellipse class="stroke" cx="17.26" cy="12.44" rx="16.63" ry="11.81"/></svg>
