<svg xmlns="http://www.w3.org/2000/svg" width="177" height="501" viewBox="0 0 177 501">
  <g class="plasticBottle-default 1">
    <g class="main">
      <path d="M167.66 432.58 176 155.44c.36-27.87-17.76-63.55-46-94.44s-53.31-31.67-83.23 0S-.75 129.05.71 155.44L16 432.58c1.23 27.1 9.92 37.76 18.4 45.42 11.25 13 32.82 21.79 57.6 21.79s46.27-8.76 57.52-21.7l.09-.09.25-.29.06-.07c8.19-9.52 16.84-15.78 17.74-45.06Z" class="Purple-2"/>
      <g class={`${clr1}-5}`>
        <path d="M23.27 181.49c3.07 2.73 2.4 16.09 2.53 17.94a9.999 9.999 0 0 0 5.62 7.51c3.44 1.46 12 5.58 15.16 6.75s14.45 3.25 14.86 2.19c.41-1.06-11.17-3.28-14.61-4.29-3.44-1.01-3.89-3.36-4.47-8-.58-4.64.59-14.83-5.42-17.55-6.01-2.72-14.61-6.12-14.61-6.12l.94 1.57Z" class="Vector"/>
        <path d="M23.25 211.32c-2.27-.42-3.6 7.29-2.27 9s1.52-4.06 3.69-4.76c2.17-.7 7.73-1.64 8.59 3.68.86 5.32-3.68 6.1-5 9.3-1.32 3.2-1.8 8 .39 9.39 2.19 1.39 6.88 6.72 10.16 8.68 3.28 1.96 16.66 5.24 17.68 4.22 1.02-1.02-4.77-2.11-6.73-3.13-1.96-1.02-4.69-2.38-5.16-8.38-.47-6 1.47-18.57-6.07-22a53.136 53.136 0 0 1-13.25-9l-2.03 3Z" class="Vector_2"/>
        <path d="M29.92 251.59c1.65 2.34.62 4.17.22 5.56-.4 1.39 1.86 5-1.27 4.88-3.13-.12-1.83 3 0 4s7.56 5.84 9.66 7.14c2.1 1.3 15.63 4.53 16.39 3.57.76-.96-7.16-1.83-9.68-3.65-2.52-1.82-3.66-7.49-.35-10s4.53-6 .61-7.24c-3.92-1.24-7.89-.77-11.65-2.77-3.76-2-3.93-1.49-3.93-1.49Z" class="Vector_3"/>
        <path d="M30.12 276.57c1.85 2.79 1.07 6.19 0 8.05-1.07 1.86-2.15 5.57 0 7.12 2.15 1.55 8 4.23 10.3 6.5 2.3 2.27 14.89 6.16 16.16 4.42 1.27-1.74-12.35-2.67-13.07-9-.72-6.33 1.86-11.06-2.56-13.35-4.42-2.29-9.7-5.12-9.7-5.12l-1.13 1.38Z" class="Vector_4"/>
        <path d="M30.67 302.53c3.48 3.72 3.3 19.06 3.18 23.27-.12 4.21 1 7.32 6.07 9.36 5.07 2.04 24.67 7.32 25 5.43.33-1.89-9.61-2.23-14-4.78-4.39-2.55-2.06-9.68-2.18-17.3-.12-7.62 1.19-9-2.67-11.6-3.86-2.6-15.4-4.38-15.4-4.38Z" class="Vector_5"/>
        <path d="M31.38 363.41c1.49 2.59 0 13.14 1.58 15.7 1.58 2.56 4 6.33 7.34 8s19.62 8.17 20.63 5.69c1.01-2.48-8.35-2.29-10.36-4.77-2.01-2.48-1.38-10.09-1.75-13-.37-2.91.82-4.38-2.43-6.09s-15.01-5.53-15.01-5.53Z" class="Vector_6"/>
        <path d="M31.38 388.47c1.17 3.08.31 14.58 1.48 17.14 1.17 2.56 10.76 9.72 13.53 10.67 2.77.95 17.86 6.1 17.82 3.89-.04-2.21-13-2.53-14.19-6.37-1.19-3.84-1.5-12.56-1.6-15.11-.1-2.55-3.62-4.15-5.75-4.9s-11.29-5.32-11.29-5.32Z" class="Vector_7"/>
        <path d="M31.38 337.7c2.19 1.93 1.18 12.57 1.64 15.23.46 2.66 2 5.41 3.9 6.42 1.9 1.01 22.88 9.17 24.35 7 1.47-2.17-10.91-1.48-11.74-6.56-.83-5.08 1.18-12.11-1.75-14.71a43.338 43.338 0 0 0-7.48-5l-8.92-2.38Z" class="Vector_8"/>
        <path d="M70.47 74.75c.454-.85.965-1.669 1.53-2.45 8.62-11.67-2.36-7-7.69-.3l-3.4-1.52a17.23 17.23 0 0 1 1.48-2.42c5.86-7.66.26-7.08-2.45-4.07a39.402 39.402 0 0 0-3.4 4.54l-2.78-1.23h-3.95a9.38 9.38 0 0 0 3.62 6.24C45 87.93 33.87 113 29.59 131.32c-5.54 23.81-4.24 36.2-1 38 3.24 1.8 16.57 7.83 24.83 6.69 8.26-1.14-5.76-1.31-7.88-6.69-1.87-4.76 12.71-66.8 22.76-90.08 6.56.38 7.42-2.12 7.42-2.12l-5.25-2.37ZM43.78 136.7c-1.8 12.07-3.43 6.52-1.8-4.56 1.32-8.93 9.93-40 16.29-55.84.93.45 1.94.9 3 1.3-5.07 12.55-15.87 48.2-17.49 59.1Z" class="Vector_9"/>
        <path d="M32.5 414c2.09 3.14 2.16 9.83 1.86 12.66-.3 2.83.24 8.58 3.06 11 2.82 2.42 14.32 6.59 17.25 7.54 2.93.95 19.15 4.6 19.68 3.24.53-1.36-12.35-3-15.7-4.29-3.35-1.29-6.27-2.72-6.8-6.38-.53-3.66 1.47-11.09-2.3-14a43.881 43.881 0 0 0-8.43-4.92L32.5 414Z" class="Vector_10"/>
        <path d="M167.46 436.77c-2.49 16.81-30.17 37.38-68.54 39.6-38.37 2.22-41.18-8.6-43.92-17.24-2.74-8.64-3-10-9.38-12.7A90.34 90.34 0 0 1 35 441.11c2.79 5-.15 15.67 3.41 26.56 3.56 10.89-3.41 5.64-3.41 5.64l-.89 3.6c.39.37.78.74 1.18 1.09 11.25 13 32.82 21.77 57.59 21.77 24.77 0 46.27-8.76 57.53-21.7l.09-.09.25-.29.06-.07c8.07-9.39 16.59-15.62 17.69-43.84a6.523 6.523 0 0 0-1.04 2.99Z" class="Vector_11"/>
        <path d="M18.46 348.26c-3.7-2.93-7.25-13-8.06-17.16l.25 4.53c.15 3.19 2.74 9 5.11 11.82 2.37 2.82 6.4 3.74 2.7.81Z" class="Vector_12"/>
        <path d="M24.18 403.43c-5.51-4.67-10.39-17.15-11-21.14l.39 7.1c.06.117.104.241.13.37 1 4.19 5.65 11 8.26 13.72 2.48 2.58 7.73 4.63 2.22-.05Z" class="Vector_13"/>
        <path d="m8.87 303.31.4 7.35a.67.67 0 0 1 .1.42c.07 3.41 9.08 13.53 11.35 15.13 2.27 1.6.15-1.91-3.88-5.45-3.86-3.39-7.65-11.52-7.78-16a9.107 9.107 0 0 0-.19-1.45Z" class="Vector_14"/>
        <path d="M22.23 376.3c-2.25-1.84-9.07-11-10.25-16.54l.2 3.63c1.46 5.09 5.37 10.19 8.16 12.91 2.79 2.72 4.19 1.89 1.89 0Z" class="Vector_15"/>
        <path d="m4.13 217.32.35 6.43c.098.111.172.24.22.38A26.999 26.999 0 0 0 12.61 235c3.05 2.31 8.92 3.83 4.18 1.18-4.74-2.65-12.12-12.82-12.49-17.85a8.19 8.19 0 0 0-.17-1.01Z" class="Vector_16"/>
        <path d="M10.65 199.06c4 3.84 10.45 4.38 6.29 2.66C12.78 200 2.8 188.41 2.25 183.24l.27 4.76c1.07 3.48 4.26 7.39 8.13 11.06Z" class="Vector_17"/>
        <path d="M15.66 285.52c-3.14-2.58-8.22-10.49-8.54-13.87l.24 4.35c.72 2.63 4.07 7.4 6.38 9.92 2.31 2.52 5.06 2.18 1.92-.4Z" class="Vector_18"/>
        <path d="M21.8 427c2.72 3.49 5.06 4 1.58-.15a40.581 40.581 0 0 1-2.9-3.85c-.14-.18-.29-.36-.41-.53a3.545 3.545 0 0 1-.54-.95 34.302 34.302 0 0 1-4.81-12.08l.31 5.64c.7 3.17 4.05 8.4 6.77 11.92Z" class="Vector_19"/>
        <path d="m5.64 244.82.29 5.1c1.2 5 6.25 10.46 9.81 13.18 3.56 2.72 7.53 3.35 1.6-.49s-11.16-12.14-11.7-17.79Z" class="Vector_20"/>
        <path d="M28.86 172.21c-1.78-.78-3.85.55-1.09 2a81.992 81.992 0 0 0 19.47 7.42c9.73 2.26 12.21 2.19 9.89.32-1.89-1.57-14.49-3.68-28.27-9.74Z" class="Vector_21"/>
      </g>
      <g class="{`${clr1}-0}`">
        <path d="M67.55 153.27c-5.83 5-7.21 24 1.76 25.27a81.871 81.871 0 0 0 20.5.77c5.19-.53 6.6-12.84 4-22.52-2.6-9.68-19.75-9.15-26.26-3.52Z" class="{`${clr1}-0}`_2"/>
        <path d="M63.58 200.35c.23 5.18 2.35 11.18 8.35 12.13 6 .95 16 .94 18.72 0 2.72-.94 3.18-9.49 3.41-13 .23-3.51 2.59-6 6.83-6.48 4.24-.48 6-1.31 6-2.13 0-1.3-13.41-.48-26.25-.95-13.07-.47-25.72-2.48-25.72-.92 0 2 7.85 2.4 8 5.25.101 2.044.321 4.081.66 6.1Z" class="{`${clr1}-0}`_3"/>
        <path d="M56.69 220.12c.13-2.11 11 .44 23.06 1.16 4.58.27 25.82-.66 26.35.65.53 1.31-12.1 1.71-12.32 6.43-.22 4.72.26 20.44-8.65 20.31-8.91-.13-16-.92-17.43-6.42-1.43-5.5 1.87-18.95-4.18-20-5.83-1.05-6.92-.75-6.83-2.13Z" class="{`${clr1}-0}`_4"/>
        <path d="M62.85 257.53c.1 1.71 5.38.51 6.27 2.68.89 2.17 2.09 13.34 11 13.18 8.91-.16 9.23-8.82 9.6-11 .37-2.18 9-2 9.38-3.63.38-1.63-9.13-.89-17.71-1.53s-18.62-1.02-18.54.3Z" class="{`${clr1}-0}`_5"/>
        <path d="M69 285.24c-.15 1.73 6.77 2.47 8.27 5.23 1.5 2.76 6.6 4.09 9 1.17 2.4-2.92 7-4.26 9.94-4.85 2.94-.59-.66-1.92-4.09-1.92-3.43 0-12.19 0-15.28-.58s-7.69-.93-7.84.95Z" class="{`${clr1}-0}`_6"/>
        <path d="M75 311.25c0 1.45 5.73 2.73 8.16 2.81 2.43.08 8.7.25 8.78-1.4.08-1.65-16.94-2.66-16.94-1.41Z" class="{`${clr1}-0}`_7"/>
        <path d="M94.73 312.4c-.18 1.5 5.62 1.9 5.38 0-.24-1.9-5.21-1.33-5.38 0Z" class="{`${clr1}-0}`_8"/>
        <path d="M70.93 311.5c-.49 1.92-2.73 1.43-2.56-.32.17-1.75 2.73-.36 2.56.32Z" class="{`${clr1}-0}`_9"/>
        <path d="M76 77.89c-.34 5.11 4 4.91 7.71 4.73 3.71-.18 5-1.41 5.53-4 .53-2.59-13.24-.73-13.24-.73Z" class="{`${clr1}-0}`_10"/>
        <path d="M77.26 342c-.18 2.54 17.25 1.65 17.32.35.07-1.3-17.15-2.84-17.32-.35Z" class="{`${clr1}-0}`_11"/>
        <path d="M75 341.65c.7-2-3.33-1.95-3.4-.42-.07 1.53 2.93 1.77 3.4.42Z" class="{`${clr1}-0}`_12"/>
        <path d="M77.25 375.24c-.08 1.65 11.91 2.53 12 .59.09-1.94-11.91-2.25-12-.59Z" class="{`${clr1}-0}`_13"/>
        <path d="M79.09 402.64c-.07 1.08 4.54 1.85 4.69.12.15-1.73-4.61-1.19-4.69-.12Z" class="{`${clr1}-0}`_14"/>
        <path d="M86.93 402.64c-.15 1 3.89 1.29 3.87.07-.02-1.22-3.71-1.06-3.87-.07Z" class="{`${clr1}-0}`_15"/>
        <path d="M50.49 188.36c.71-3-3.83-2.73-4-1.26-.17 1.47 3.62 2.9 4 1.26Z" class="{`${clr1}-0}`_16"/>
        <path d="M111.29 190.44c.68 1.49 3.41 1.17 3.3-.3-.11-1.47-3.99-1.2-3.3.3Z" class="{`${clr1}-0}`_17"/>
      </g>
      <g class="{`${clr1}-1}`">
        <path d="M23.28 445.35c-.39-11.22 2.67-9.18 4.16-8.24 1.49.94 11.14 8.53 11.77 6.58.63-1.95-6.75-4.84-7.45-7.35-.7-2.51-2.67-4.82-5-6.89a58.188 58.188 0 0 1-6.74-7c-1.49-2-.12-2.51 2.22 0 2.34 2.51 3.83 2 3.85.65.02-1.35-.14-7.54-.24-9.76-.1-2.22 1.85-1.38 3.76-.43 1.91.95 8.69 5.89 9.12 4.67.43-1.22-4.72-3.87-5.88-4.77-1.16-.9.53-3.5-2.12-5.52-2.65-2.02-8.39-6.59-10.73-10.14-2.34-3.55-.64-3 1.16-.9 1.8 2.1 4.95 4.66 5 2.12.05-2.54-.25-8.51-.16-10.37.09-1.86 2.83-.56 4 .29 1.17.85 14.68 7.94 15.63 6.29.95-1.65-10.57-5.36-11.63-7.35-1.06-1.99-.2-3.28-2.67-5.42-2.47-2.14-6.39-3.73-10-7.61-3.61-3.88-5.92-7.13-5.57-8.3.35-1.17 5.21 6.5 7.91 8.23 2.7 1.73 2.59-2 2.59-3.83s-.11-5.77 0-7.75c.11-1.98 2.54-.94 3.72 0 1.18.94 8.25 4.35 10.92 5.37 2.67 1.02 10 3.44 10.53 2.38.53-1.06-13.09-4.87-16.91-7.75-3.82-2.88-.27-4.42-3.54-6.65-3.27-2.23-9.87-5.77-13.91-11.06-4.04-5.29-2.09-5.78-1.34-5.07.75.71 6.25 7.53 8.6 8.89 2.35 1.36 2.56-2.35 2.34-5.18-.22-2.83-1.36-8.67 1.53-7.25S45 344 45.69 342.1c.69-1.9-10.84-4.57-14.92-8.05-4.08-3.48-1.72-5.13-4.33-6.64-2.61-1.51-10.62-8-13.17-12.49-2.55-4.49 2.84.7 4.15 2.31a50.077 50.077 0 0 0 7 6.15c1.26.8 2.62-.45 2.32-3.53-.3-3.08-.2-14.45-.35-17-.15-2.55 2.71-1.21 4.33-.3 1.62.91 15.47 5.85 16.28 4.25.81-1.6-6.35-2.42-8.37-3.93-2.02-1.51-1.04-4.87-4.13-6.37s-12.43-6-17.41-10.59-5.86-8.34-3.82-6.45c2.04 1.89 6.81 6.82 10 8.92 3.19 2.1 2.53-2.26.76-5-1.77-2.74-1-7.18 1.29-7.58 2.29-.4 13.11 3.51 13.65 2.12.54-1.39-6.08-3.06-7.84-4.46-1.76-1.4-1.16-4.46-3.43-6-2.27-1.54-10.22-5.78-13.7-9.51-3.48-3.73-2.18-4.77-1.29-3.92.89.85 4.27 4.44 6.65 5.82 2.38 1.38 3.15-2.23 1.77-5.38s3.46-7.3 7.38-4 8 4.77 10.22 3.54c2.22-1.23.13-2.41-1.94-3.18s-1.43-6.28-6.91-8.32-15.57-7.85-19.88-13.29c-4.31-5.44 4.56 2.2 7 4.06 2.44 1.86 3.92-.39 3.15-3.62s-2.72-14-1.55-17.12c1.17-3.12 2.25-2.95 4.34-1.42 2.09 1.53 16.68 6.95 19.11 7.09 2.43.14-2-3.46-7.16-5.21s-2.85-4.58-7.57-6.91c-4.72-2.33-12.59-5.25-16.83-10.19-4.24-4.94 3.83.42 5.84 2s2-2.78 1.32-8.41c-.68-5.63-.69-10.36 1.53-9.6 2.22.76 19 7.82 19.7 5.93.7-1.89-11.73-4.57-14.86-7.3-3.13-2.73-1.13-5.85-4.82-7.46-3.69-1.61-9.94-5.58-12.44-10s3.92 2.93 7 4.73c3.08 1.8 2.84-2.6 1.7-10.53s-.7-48.54 31.59-89.7a62.996 62.996 0 0 0 7.92-12.66c-2.667 2.367-5.383 5.01-8.15 7.93C16.86 92.49-.75 128.86.71 155.25L16 432.4c1.23 27.09 9.92 37.76 18.4 45.42a50.285 50.285 0 0 0 10.23 8.86c-12.2-15.2-21.02-31.93-21.35-41.33Z" class="{`${clr1}-1}`_2"/>
        <path d="M159.66 465.76c4.24-6.65 7.47-15.91 8-33.18L176 155.44c.36-27.87-17.76-63.55-46-94.44-1-1.14-2.1-2.23-3.14-3.29l-1.72 1c4 5 31 35.68 39.07 61.34 8.07 25.66 7.52 29.93 6.49 34.21-1.03 4.28-7.52 9.14-7.23 11.06.29 1.92 8.55-9.14 7.82-3.54-.73 5.6 3-1.71 3 .84s-1.81 5.94-3.73 8.15-.73 16.19-.88 18.42c-.15 2.23-6.44 6.61-6.44 8.12 0 1.51 8.64-6.75 8.25-4.45-.39 2.3 2-1.42 2-.42a16.095 16.095 0 0 1-3.77 8.77c-2.88 3.26-1.06 18.83-1.15 21.6-.09 2.77-5.76 8.05-5.76 10.25 0 2.2 7.29-5.88 7.29-2.46s-3.55 6.3-3.36 11.87c.19 5.57.39 10.36-.67 11.65-1.06 1.29-7.39 6-7 7.34.39 1.34 7.1-4.32 8.44-4.8 1.34-.48 1.15 3.49.29 5-.86 1.51-2.5 3.63-2.4 6.41.1 2.78.86 9.22-.13 11.2-.99 1.98-4.43 5.68-4.46 6.65-.03.97 6.2-2.6 7.61-4.59 1.41-1.99.41 6-1.33 7.75s-.75 6.68-.5 11.08-2.82 6.31-3.4 9.54c-.58 3.23.58 6.14-.74 8.13-1.32 1.99-.17 3.07 1.65 1.41 1.82-1.66 4.55-6.84 4.48-5.12-.07 1.72-.33 6.36-2.15 9-1.82 2.64-2.57 6.47-1.66 8.71.91 2.24 2.07 5.55.74 7.88-1.33 2.33-4.89 5.31-4.23 6.8.66 1.49 6.44-7.41 6.63-5.53.19 1.88-.24 5.53-1.73 7.6-1.49 2.07-1.41 8.79-1.58 12a22.108 22.108 0 0 1-2.74 9.12c-1.24 2 1.41 2.07 2.58 0 1.17-2.07 1.9.58 1.41 2.74s-2.74 4.81-2.74 8.38c0 3.57 1.31 9.17 0 11.39-1.31 2.22-6.65 7.68-6.06 8.36.59.68 7.59-6.48 8.1-8 .51-1.52.52 5-.42 6.82a23.998 23.998 0 0 0-2.56 9.73c-.34 4.86 1.62 8.18-.09 10.91-1.71 2.73-5.28 6.06-5.28 7.34 0 1.28 4.43-2.87 6.14-4.51 1.71-1.64 2.3 1.14 1.7 3.29-.6 2.15-1.7 1.13-1.28 5.82.42 4.69 2.38 20.45-3.54 33.38-.06.134-.113.271-.16.41Z" class="{`${clr1}-1}`_3"/>
      </g>
      <g class="{`${clr1}-3}`">
        <path d="M160.48 169.91c.64-2.86-7 3.62-18 7.09-11 3.47-22.93 4.14-23.07 6.24-.14 2.1 10.14-.25 16-1.65 5.86-1.4 24.18-7.65 25.07-11.68Z" class="Vector_22"/>
        <path d="M134.13 189.17c-6 1.35-8.22 6.15-9 10.26-.78 4.11 2 11.35-4 12.46-6 1.11-10.1 1.88-9.77 3 .33 1.12 19.78-1.42 29.24-4.06 9.46-2.64 21.91-8.65 23.07-11.35 1.16-2.7-4.72.91-4.17-2.14.55-3.05 2.37-18.77-2.64-15.7-5.01 3.07-18.14 6.5-22.73 7.53Z" class="Vector_23"/>
        <path d="M132 222.28c-5 1.65-3.73 8.37-3.83 11.71-.1 3.34 1.2 10.89-2.4 12-3.6 1.11-10.9 3.32-10.6 4.42.3 1.1 20.3-1.5 29.2-5.4 8.9-3.9 17-9 17.25-11s-1.85-1.67-2.25-4.87c-.4-3.2-.1-10.41-1-12.71-.9-2.3-3.4-2.1-7.1-.7-3.7 1.4-13.92 4.8-19.27 6.55Z" class="Vector_24"/>
        <path d="M132.55 256.65c-4 .86-3.77 8.34-4.1 10.64-.33 2.3-.51 5.45-5 7-4 1.42-12.81 2.59-12.81 3.68 0 1.09 19.27-1.09 31.74-5.43 7.31-2.54 14.45-7.11 15.22-9.74.77-2.63 4.7-6 5.36-8.74.66-2.74 1.2-11.86-1.75-9.28s-14.94 8.84-28.66 11.87Z" class="Vector_25"/>
        <path d="M134.5 283.83c-5.1 1.39-4.56 7.25-4.56 9.74s-.94 6.23-4.85 7.05c-3.91.82-12 2.5-12.19 3.82-.19 1.32 16.87-.43 24.61-4.29 7.74-3.86 17-6.9 19.31-11 2.31-4.1 4.12-6.54 3.7-11.8-.42-5.26-2.17-4.38-6.73-2.13-4.56 2.25-10.87 6.31-19.29 8.61Z" class="Vector_26"/>
        <path d="M134.27 310.69c-3.5.78-8.89 4-8.42 8.17.47 4.17 7 7.24 6.2 11.45-.8 4.21-15.71 8-15.69 9.81.02 1.81 19.78-2.44 23.75-4.66 3.97-2.22 12.74-5.38 14.38-7.84 1.64-2.46 4.68-5.14 4.68-10.63 0-5.49 3-19.06-1.87-16.84-4.87 2.22-16.84 9.16-23.03 10.54Z" class="Vector_27"/>
        <path d="M135.27 345.29c-4.9 2.53-3.4 10.1-3.72 12.81-.32 2.71-19.12 8.07-18.65 9.38.47 1.31 14.89-1.58 22.2-4.07 7.31-2.49 18.18-7.11 20.65-10.23a22.435 22.435 0 0 0 4.35-12.59c.06-4.4 2-8.92-1.87-5.8s-15.97 6.9-22.96 10.5Z" class="Vector_28"/>
        <path d="M137.47 370.82c-5.7 2.26-5.49 9.58-5.7 13.45-.21 3.87-14 7.59-13.93 9.07.07 1.48 13.82-1.22 22.53-5.41s16.68-8.86 18.93-13.23c2.25-4.37 2.16-16.57-1.45-14.1-3.61 2.47-14.16 7.76-20.38 10.22Z" class="Vector_29"/>
        <path d="M139.85 396.6c-5 2.31-6.07 7.16-6.32 10.8-.25 3.64-5.83 8.51-12.53 10.6-6.7 2.09-8.62 2.79-6.8 3.28 1.82.49 15-1.58 24-5.22 9-3.64 14.49-7.69 17.65-11.44 3.16-3.75 3.4-10.79 3.64-14.43.24-3.64-.73-5-3.16-2.67s-10.65 6.4-16.48 9.08Z" class="Vector_30"/>
        <path d="M148.74 112.36c-6.54-14.56-17.2-32-21.89-39.23.28-2.48 6.14-5.13 3-7.95-3.14-2.82-36.81 9-36.81 9L92.05 78c2.91 1.77 11.41 0 11.82 2 4.57 22 14.49 84.21 15.37 92 .92 8.08 34.44-2.27 39.57-8.53 5.13-6.26-2.47-34.2-10.07-51.11Z" class="Vector_31"/>
        <path d="M134.75 424c-5.07 1.53-4.13 11.78-7.17 14.82a28.392 28.392 0 0 1-14.69 7.18c-5.83.85-13 2.43-12.87 3.4.13.97 12.38.85 22-1.7s28.17-10.93 30.72-14.45a31.32 31.32 0 0 0 5.83-15.06c.73-6.56-1.82-5.6-3.4-4.25-1.58 1.35-13.99 8.16-20.42 10.06Z" class="Vector_32"/>
        <path d="m149.52 478.09.09-.09.25-.29.06-.07c8.07-9.39 16.58-15.62 17.69-43.82-2.51 9.18-5.77 15.85-8.93 18-3.16 2.15-1.83-7-1.59-9.84s-1.94-1-4.61 1.34c-2.67 2.34-14 7.68-21.32 9.87-4.16 1.28-4.16 11.17-8.56 15.81-4.4 4.64-21.57 7.36-25.72 7.5-4.15.14-16 22.57 0 23 3.74-.059 7.47-.393 11.16-1 17.81-2.86 32.75-10.37 41.48-20.41Z" class="Vector_33"/>
        <path d="M122.61 325.45c-2.74 1-3.49 8.18 0 7.48 3.49-.7 3.11-8.64 0-7.48Z" class="Vector_34"/>
      </g>
      <path d="M167.66 432.4 176 155.25c.35-27.86-17.77-63.54-46.06-94.43-28.29-30.89-53.26-31.67-83.18 0C16.84 92.49-.75 128.86.71 155.25L16 432.4c1.23 27.09 9.92 37.76 18.4 45.42 11.24 13 32.81 21.77 57.59 21.77s46.27-8.76 57.52-21.71a.328.328 0 0 0 .09-.08l.25-.29.06-.07c8.2-9.51 16.85-15.77 17.75-45.04Z" class="Stroke"/>
      <g class="{`${clr1}-4}`">
        <path d="M114.54 82c-2.3 2.56 5.69 24.09 9.89 41.94 4 16.83 7.28 44.06 10.67 42.12 3.39-1.94-3.14-40.46-6.51-53.27-2.59-9.7-10.73-34.49-14.05-30.79Z" class="Vector_35"/>
        <path d="M132.36 179.65c-4.72.83-3.62 3.74 0 2.54 3.62-1.2 2.46-2.98 0-2.54Z" class="Vector_36"/>
        <path d="M137.77 225.74c-2.19 1.09-4.19 3.69-3.84 7.8.35 4.11-.26 10.76 3.84 8.83 4.1-1.93 4.48-5.17 5-9.57.52-4.4-.95-9.08-5-7.06Z" class="Vector_37"/>
        <path d="M137.3 192.74c-2.9.38-3.49 5-4.22 8.62-.73 3.62-.9 8.26 3 7.4 3.9-.86 5.55-8 4.58-11.52-.97-3.52-.49-4.87-3.36-4.5Z" class="Vector_38"/>
        <path d="M138.42 258.87c-3.18.46-6.33 7.92-3.76 9.61 2.57 1.69 6.15 2.11 6.31-2.21.16-4.32.28-7.81-2.55-7.4Z" class="Vector_39"/>
        <path d="M138.23 286.22c-4.31-1.19-7.58 11.93-3.57 10.9 4.01-1.03 6.77-2.4 6.31-5.42-.46-3.02-.5-4.86-2.74-5.48Z" class="Vector_40"/>
        <path d="M136.57 314.11c-2.43 1.52-4.48 4.73-1.91 7.65 2.57 2.92 2.25 6.72 2.72 9.34.47 2.62 3.16.36 3.66-2.72s2.59-17.1 0-15.64a9.244 9.244 0 0 1-4.47 1.37Z" class="Vector_41"/>
        <path d="M137.38 346.81c-2.89 1.52-3.08 8.9-2.62 10.63.46 1.73 4.88 3.76 5.49 0 .61-3.76-.56-11.86-2.87-10.63Z" class="Vector_42"/>
        <path d="M139.33 373.58c-2.46.12-6.4 8.79-4 11.24 2.4 2.45 7.32-2.29 6.94-7.33-.38-5.04-1.12-4-2.94-3.91Z" class="Vector_43"/>
        <path d="M139.33 400.86c-2 .58-5 9.52-2.76 11.2 2.24 1.68 5.9-1.16 5.74-5.83-.16-4.67-1.05-5.93-2.98-5.37Z" class="Vector_44"/>
        <path d="M137.49 427c-1.64 1-5.74 11.89-.75 10.77 4.99-1.12 6.15-5.32 5.57-7.41-.58-2.09-2.62-4.72-4.82-3.36Z" class="Vector_45"/>
        <path d="M136.76 455.45c-4.23 2.66-5.25 11.34-6.51 14.42-1.26 3.08-12 6.72-11.06 12 .94 5.28 16.55 1.4 21.22-3.92 4.67-5.32 8.32-10.92 7.48-14.56-.84-3.64-6.13 2.38-7.48-1.54-1.35-3.92-.07-8.64-3.65-6.4Z" class="Vector_46"/>
        <path d="M103.29 76.94c3.74 1.33 12.31 1 16.56-1.16 4.25-2.16 9.07-4.8 7.65-8s-24.21 9.16-24.21 9.16Z" class="Vector_47"/>
      </g>
      <path d="M88.36.62c-24.24 0-43.89 8-43.89 17.87l2.23 41.24a8.576 8.576 0 0 0-.07 1c0 9.52 18.93 17.27 42.3 17.27 23.37 0 42.3-7.71 42.3-17.22l1-42.25C132.25 8.62 112.6.62 88.36.62Z" class="Purple-7"/>
      <path d="m44.86 25.6 1.84 34.13a8.576 8.576 0 0 0-.07 1c0 9.52 18.93 17.27 42.3 17.27 23.37 0 42.3-7.71 42.3-17.22l.87-36.09c-8.34 10.59-19.4 12.1-28.1 13.69-8.7 1.59-8.22 11.52-9.9 17.81C92.42 62.48 87.72 64.7 78 64c-9.72-.7-8-12.18-9-16.4-1-4.22-2.71-9.31-7.59-11.25C56.53 34.41 47.44 30 44.86 25.6Z" class="Purple-9"/>
      <g class="stroke">
        <path d="M88.36.62c-24.24 0-43.89 8-43.89 17.87l2.23 41.24a8.576 8.576 0 0 0-.07 1c0 9.52 18.93 17.27 42.3 17.27 23.37 0 42.3-7.71 42.3-17.22l1-42.25C132.25 8.62 112.6.62 88.36.62Z" class="Vector_48"/>
        <path d="M71.31 65.2c-1.57-.35-.27 3.46 10.07 4.12 10.62.68 13.11-2.2 10.85-2.41-2.26-.21-15.1-.42-20.92-1.71Z" class="Vector_49"/>
        <path d="M131.5 49.33c0 9.6-19.13 17.39-42.72 17.39s-42.72-7.79-42.72-17.39" class="Vector_50"/>
      </g>
      <g class="{`${clr1}-6}`">
        <path d="M67.38 33.45c-.57-1.33-3.49-1-3.6-.16-.11.84 1 1.57 2.24 1.58 1.24.01 1.78-.42 1.36-1.42Z" class="Vector_51"/>
        <path d="M72 33.86c-2.32-.17-3.18 1.37-.35 2.49s5.41 2 6.27 4.47c.86 2.47 3.44 3.18 4.38 2.23.94-.95 2-4.65 5.41-4.81 3.41-.16 3.78-1.11 3.78-1.89 0-1.71-5.12-.81-11.68-1.37A57.251 57.251 0 0 1 72 33.86Z" class="Vector_52"/>
        <path d="M95.58 34.94c-1.2.2-1.58 2.42 0 2.06 4.56-1 2.56-2.48 0-2.06Z" class="Vector_53"/>
        <path d="M101.77 34.37c-1.14.22-1.35 1.82 0 2 1.35.18 1.14-2.21 0-2Z" class="Vector_54"/>
        <path d="M61 31.1c-1.21-.32-1.28 1.92 0 2.28 1.28.36 1.61-1.85 0-2.28Z" class="Vector_55"/>
      </g>
      <g class="{`${clr1}-8}`">
        <path d="M28.38 253.49c-.37-1.41-5.38-1.84-4.56.87.82 2.71 5.11 1.2 4.56-.87Z" class="Vector_56"/>
        <path d="M26.08 257.63c-.79.59-.74 3.2.84 2.44 1.58-.76-.05-3.07-.84-2.44Z" class="Vector_57"/>
        <path d="M28.43 278.32c-2.34-1.44-4.3 2.48-2.85 4 1.45 1.52 5.19-2.55 2.85-4Z" class="Vector_58"/>
        <g class="{`${clr1}-8}`">
          <path d="M33.91 174.24c-2.63-1-3.43 1.24.63 2.45 4.06 1.21 2.22-1.39 0-2.22" class="Vector_59"/>
          <path d="M29.74 217.13c-1.94-1.21-5.85 5.16-2.93 6.8 2.92 1.64 8.19-3.52 2.93-6.8Z" class="Vector_60"/>
          <path d="M26.61 183.7c2.33 2.73.64 18.2 2 20 1.36 1.8 1.93 2.8 4.19 3 2.26.2.72-6.5.72-11.49S33 185 33 185l-6.39-1.3Z" class="Vector_61"/>
          <path d="M34.56 365.4c.68 2.24-.14 9 0 12.15.14 3.15-.23 4.67 1.33 5.22 1.56.55 4 1.93 4.59 0 .59-1.93-.65-6.78-.65-9.54 0-2.76.24-5.29.21-5.94-.03-.65-5.48-1.89-5.48-1.89Z" class="Vector_62"/>
          <path d="M33.73 390.2c1.39 2.46.43 16.41 2.24 18 1.81 1.59 5.43 4.15 5.32 1.49-.11-2.66-1.7-6.7-1.59-10.43.11-3.73.3-6 .3-6l-6.27-3.06Z" class="Vector_63"/>
          <path d="M33.73 304.72c2.57 3.75.53 23.9 2.14 26.48 1.61 2.58 2.91 3.43 4.13 2.14 1.22-1.29-.36-5.94 0-10.58s-.28-15.25-1.29-17-4.98-1.04-4.98-1.04Z" class="Vector_64"/>
          <path d="M34.56 340c1.58 2.27 1.39 9.7 1 11.81-.39 2.11-.77 4.4 1.13 5.69s4.74 1.19 5.66 0c.92-1.19-.73-3.4-2.38-5.78-1.65-2.38-3.58-7 0-8.25s-1-3.58-2.68-4.13a2.6 2.6 0 0 0-2.73.66Z" class="Vector_65"/>
          <path d="M35.19 416.42c1.36 2.93.42 14.54 1 16.95.58 2.41 2.57 4.39 4.42 4.39s.37-8.37.65-10.67a62.548 62.548 0 0 0 0-7.32l-6.07-3.35Z" class="Vector_66"/>
          <path d="M32.6 277.92c1.25 2.35.34 8.37-.45 10.19-.79 1.82-.29 5.12 2.36 6.14 2.65 1.02 3-.45 2.61-4.09-.39-3.64.24-4.09.19-7.28a6.206 6.206 0 0 0-1.64-4.55l-3.07-.41Z" class="Vector_67"/>
          <path d="M47.45 94.3c-2.22 0-18.14 44.51-18.4 60.26-.26 15.75 7.28-15.92 9.33-23.87 2.3-8.88 12.29-36.39 9.07-36.39Z" class="Vector_68"/>
          <path d="M38.71 221.61c-1.24-.13-2.19 5-4.2 6.31-2.01 1.31-4.47 4.78-4.19 8.24.28 3.46 1.45 4.36 3.71 4.44 2.26.08 3.11-4.36 3.09-6.92-.02-2.56.89-6.49 2.21-8.43 1.32-1.94.48-3.52-.62-3.64Z" class="Vector_69"/>
          <path d="M35.71 256.83c-1.89 0-2.91 3.08-2.68 4.38.23 1.3-3 4.84-.88 6.57 2.12 1.73 4.27 3.31 5 1 .73-2.31-.92-6.07-.42-8.43.5-2.36.63-3.53-1.02-3.52Z" class="Vector_70"/>
          <path d="M40.48 449c-2.25.63.63 24.64 7.5 29.13 6.87 4.49 20.39 9.5 23.77 9.58 3.38.08-3.6-3.92-6.68-4.75-3.08-.83-13.4-4.5-14.73-10.82s-3.44-16-4-18.15c-.56-2.15-2.91-5.83-5.86-4.99Z" class="Vector_71"/>
        </g>
      </g>
    </g>
  </g>
</svg>
