<svg xmlns="http://www.w3.org/2000/svg" viewBox="0 0 582.88 641.18"><path class={`${clr1}-2`} d="M582.25,89c0-5.4-1.49-7.58-4.8-9.36h0c-2.19-1.65-6.41-3.14-12.89-4.58L246.27,4c-25.14-5.61-30.88-3.81-50,2.18L15.22,62.92a34.79,34.79,0,0,0-7.71,3.33h0l-.17.09C.61,70.18.63,73.5.63,76.72S.39,85,8.3,87.76c.8.28,4.56,1.53,10.69,3.56L84.78,640.56H535.05l37.36-537.88c2.22-1.24,3.64-2,4-2.2C582.32,97.71,582.26,93.54,582.25,89Z"/><path class={`${clr1}-3`} d="M580.5,97.36h0c1.78-2.41,1.76-5.31,1.75-8.41a15.47,15.47,0,0,0-.62-4.79c-1.88,5.52-9.59,9.07-17.73,13.29S411.59,177.73,397.4,185s-22.48,9-29.41,10-7.95,7.41-4.59,7.83A157.1,157.1,0,0,1,347,199.11C341,197.2,19,91.32,19,91.32l1.24,10.32S324.89,202.85,345,208.39s34.24-.5,33.74,27.19-5,405-5,405H535.05l37.36-537.88,0,0,.65-.37.37-.2.69-.38.52-.29.29-.15.52-.29.13-.07.44-.23.11-.05.29-.15c.33-.16.62-.31.91-.47l.23-.14c.27-.15.52-.31.76-.47l.18-.13c.17-.12.33-.25.48-.37s.19-.15.27-.23l.36-.33c.14-.14.28-.28.41-.43s.12-.13.17-.2Z"/><path class={`${clr1}-1`} d="M15.22,62.92c-12.77,4-16.87,10.78-7,13.86L345.49,181.55c16,5,39.06,7.09,55.87-1.75L567.45,92.45c15.77-8.29,16.7-13.07-2.89-17.44L246.27,4c-25.14-5.61-30.88-3.81-50,2.18Z"/><polyline class="stroke" points="18.99 91.32 84.78 640.56 535.05 640.56 572.4 102.67"/><path class={`${clr1}-4`} d="M440,177.57v4.78l116.62-67.3s10.12-6.44,14-11v17.79l4.33-2.9.07-17.7"/><path class={`${clr1}-2`} d="M28.68,67.12c-7.09,2.36-6.56,4.39-1.93,5.89,5.09,1.66,323.48,96.73,333.8,99.85,11.63,3.52,24.21,1.88,30.39-1.28,6.95-3.56,157.32-79.89,166.35-84.64,6.16-3.25,2.09-5-2.5-6-5.2-1.15-302.38-68.65-313.94-71.31s-21.75-3.26-30.13-.43C202.15,12.09,35.74,64.77,28.68,67.12Z"/><path class={`${clr1}-0`} d="M16,64.32C12.53,65.66,5,68.61,5.33,71.94s6.18,4.54,6.42,4.24-4.52-2.07-4.29-4.8,3.42-3.73,6.92-5.41S16.93,64,16,64.32Z"/><path class={`${clr1}-0`} d="M13.7,76.66c-.7.41,1.09,1.48,2.13.76C16.5,77,14.76,76,13.7,76.66Z"/><path class={`${clr1}-0`} d="M19,78.26c-.81,1.65,17.8,6.5,18.36,5.7S19.32,77.6,19,78.26Z"/><path class={`${clr1}-0`} d="M43,85.87c-2,.6,1.52,1.65,2.05,1.26S44.13,85.54,43,85.87Z"/><path class={`${clr1}-0`} d="M47,87.21c-.86.71.86,1.44,1.72.71S47.83,86.51,47,87.21Z"/><path class={`${clr1}-0`} d="M57.62,90.41c-1.19,1.19,7.65,3.32,8.1,2.83S58.25,89.78,57.62,90.41Z"/><path class={`${clr1}-0`} d="M559.71,80c-1.36-.18-.35.64.71,1.28a2.75,2.75,0,0,1,0,4.66c-2.32,1.68,1.13,1.2,2.82-.8S563.24,80.51,559.71,80Z"/><polygon class={`${clr1}-4`} points="435.07 200.5 435.07 180.33 439.98 177.57 439.98 197.22 435.07 200.5"/><path class={`${clr1}-0`} d="M552.51,79c1-1.07-10.29-3.54-10.77-2.78C541.5,76.56,552.33,79.15,552.51,79Z"/><path class={`${clr1}-0`} d="M556.57,79.57c.28-1.07-1.72-1.34-2-.72S556.3,80.64,556.57,79.57Z"/><path class={`${clr1}-4`} d="M408,195.31a75.16,75.16,0,0,1-21.84,7.32h0c13.07-.73,25-4.49,33.15-9.26s15.83-13,15.83-13h0C421.11,188.17,410.94,193.82,408,195.31Z"/><path class={`${clr1}-0`} d="M537.89,75.29c.21-.68-3.16-1.52-3.44-.9S537.55,76.39,537.89,75.29Z"/><path class={`${clr1}-0`} d="M531.83,73.7c.44-.48-2-1.72-2.27-.82S531.07,74.53,531.83,73.7Z"/><polyline class="stroke" points="439.98 177.57 439.98 197.22 435.07 200.5 419.24 195.71 419.24 189.18"/><path class="stroke" d="M582.25,89c0-5.4-1.49-7.58-4.8-9.36h0c-2.19-1.65-6.41-3.14-12.89-4.58L246.27,4c-25.14-5.61-30.88-3.81-50,2.18L15.22,62.92a34.79,34.79,0,0,0-7.71,3.33h0l-.17.09C.61,70.18.63,73.5.63,76.72S.39,85,8.3,87.76s306.61,101,337,110.81,49.63,3.27,62.68-3.26,163.59-92.52,168.5-94.83C582.32,97.71,582.26,93.54,582.25,89Z"/><polyline class="stroke" points="574.89 101.64 574.89 118.97 570.56 121.87 556.6 118.58 556.6 111.56"/><path class={`${clr1}-3`} d="M267,144.88c-16.53-25.59-40.79-96.46-44.05-113.33l-.17-3.77c-.38-8-5.92-15.12-14.69-12S28.91,73.68,28.91,73.68C44.72,78.46,142.1,107.57,227.33,133h0Z"/><path class={`${clr1}-4`} d="M214.51,129.21h0c-.22-11-.74-26.18-.91-34.32s-1-22.68-14.37-17.49c-12,4.68-58.85,23.26-68,26.91Z"/></svg>
