<?xml version="1.0" encoding="UTF-8"?><svg xmlns="http://www.w3.org/2000/svg" viewBox="0 0 121.26 331.8"><defs><style>.d,.e{fill:none;}.f{fill:#fc47bc;}.g{fill:#fcb0e2;}.h{fill:#b80077;}.i{fill:#c28aae;}.j{fill:#d43c9e;}.e{stroke:#000;stroke-miterlimit:10;stroke-width:1.25px;}</style></defs><g id="a"/><g id="b"><g id="c"><g><path class="h" d="M7.68,7.3c-.34,.85-.79,1.6-1.3,2.22-1.04,1.28-2.34,1.99-3.48,1.85-.18-.02-.37-.07-.54-.14C.59,10.52,.09,7.6,1.25,4.72,2.3,2.1,4.36,.4,6.06,.65c.1,.02,.21,.04,.3,.07,.03,.01,.07,.02,.1,.03,.04,.01,.07,.02,.1,.04,1.78,.71,2.28,3.63,1.12,6.51Z"/><path class="j" d="M96.04,37.73c-.42,1.18-.83,2.19-.83,2.19l-1.07-.33L2.91,11.37c1.14,.15,2.44-.57,3.48-1.85l89.66,28.21Z"/><path class="f" d="M97.23,28.82s0,3.74-.34,5.99c-.11,.72-.48,1.89-.85,2.93L6.39,9.52c.51-.62,.96-1.37,1.3-2.22,1.16-2.88,.66-5.8-1.12-6.51-.03-.01-.07-.03-.1-.04L97.23,28.82Z"/><polygon class="d" points="106.12 50.99 106.12 50.99 106.12 50.99 106.12 50.99"/><path class="f" d="M107.32,65.04v0Z"/><path class="j" d="M109.42,65.88l-.13,263.38c-1.23-.95-1.97-2.12-1.97-3.19,0-.03,0-.06,0-.1V66.7s0-.61,0-1.62c0,.03,0,.06,0,.1,0,.05,0,.11,.01,.16,0,.01,0,.02,0,.03,0,.02,0,.03,0,.04,0,.02,.01,.04,.02,.04,0,0,0,0,0,0,.21,.05,.91,.25,2.05,.42Z"/><path class="f" d="M107.33,65.18c0,.05,0,.1,.01,.16,0-.05,0-.1-.01-.16Z"/><path class="f" d="M118.52,68.97V329.15s-.02,.07-.03,.1c-.01,.04-.02,.07-.03,.11-.66,1.8-3.66,2.36-6.7,1.24-.94-.35-1.78-.81-2.47-1.34l.13-263.38-.55-.96,9.59-.71h0c0,.84,.02,1.67,.06,2.5,.01,.35,0,2.28,0,2.28Z"/><path class="i" d="M96.57,39.15c-.04,.08-.09,.16-.13,.23-.04,.08-.09,.15-.13,.23-.03,.05-.06,.1-.09,.15-.07,.13-.14,.25-.21,.37-.02,.03-.04,.06-.06,.1-.19,.32-.35,.59-.47,.8-.02,.04-.05,.08-.07,.12-.03,.05-.06,.1-.09,.14-.02,.02-.03,.05-.04,.07l-.06,.1c-.15-.23,0-1.53,0-1.53,0,0,.41-1.01,.83-2.19l.52,1.42Z"/><path class="g" d="M99.74,28.51s-.45,4.34-1.31,6.77c-.03,.08-.05,.15-.09,.23-.06,.15-.12,.3-.18,.46-.03,.08-.07,.16-.1,.24-.03,.08-.07,.16-.11,.24-.04,.08-.07,.17-.11,.25-.05,.1-.09,.21-.14,.31-.07,.15-.14,.3-.22,.44-.29,.59-.61,1.17-.9,1.71h0l-.52-1.42c.37-1.04,.74-2.21,.85-2.93,.33-2.25,.34-5.99,.34-5.99,0,0,2.07-.47,2.5-.31Z"/><path class="j" d="M99.73,39.7c-.46,.65-.9,1.19-1.18,1.52-.05,.07-.1,.12-.15,.18-.04,.05-.08,.09-.1,.12-.04,.05-.06,.07-.06,.07,0,0-2.87,.09-3.02-.14l.06-.1s.02-.04,.04-.07c.02-.04,.05-.09,.09-.14,.02-.04,.05-.07,.07-.12,.12-.21,.29-.48,.47-.8,.02-.03,.04-.06,.06-.1,.07-.12,.14-.24,.21-.37,.03-.05,.06-.1,.09-.15,.04-.08,.09-.15,.13-.23,.04-.08,.09-.16,.13-.23h0l3.16,.55Z"/><path class="f" d="M102.81,31.56v.04c-.07,.32-.53,2.66-1.02,4.24-.02,.05-.03,.1-.05,.15-.05,.16-.11,.33-.17,.49-.03,.07-.05,.15-.09,.22-.42,1.03-1.12,2.12-1.76,3.01l-3.16-.55c.3-.53,.61-1.12,.9-1.71,.08-.15,.15-.3,.22-.44,.05-.1,.1-.21,.14-.31,.04-.08,.08-.16,.11-.25,.04-.08,.07-.16,.11-.24,.04-.08,.07-.16,.1-.24,.07-.16,.13-.31,.18-.46,.03-.08,.06-.15,.09-.23,.86-2.42,1.31-6.77,1.31-6.77,1,.38,2.98,2.93,3.07,3.05h0Z"/><path class="i" d="M100.06,41.45c-.07,.08-.13,.15-.19,.22-.05,.06-.1,.11-.14,.16-.29,.32-.55,.6-.78,.84-.05,.05-.1,.1-.15,.15-.07,.07-.14,.14-.2,.2-.02,.02-.04,.04-.06,.06-.19,.19-.33,.32-.38,.36,0,0-.01,0-.01,.01h-.01c-.29-.41,.1-1.87,.1-1.87,0,0,.02-.02,.06-.07,.03-.03,.06-.07,.1-.12,.04-.05,.09-.11,.15-.18,.28-.33,.72-.88,1.18-1.52l.33,1.75Z"/><path class="g" d="M104.82,31.22s-.42,2.19-1.77,5.65c-.08,.2-.17,.41-.26,.61-.05,.11-.1,.21-.16,.32-.1,.2-.21,.4-.32,.59-.07,.11-.13,.22-.2,.33-.12,.19-.24,.37-.36,.56-.29,.44-.6,.86-.92,1.25-.05,.06-.09,.12-.14,.18-.14,.18-.28,.34-.42,.51-.07,.08-.14,.16-.2,.24l-.33-1.75c.61-.84,1.25-1.85,1.67-2.82,.03-.06,.05-.13,.08-.19,.03-.07,.06-.15,.09-.22,.06-.16,.12-.33,.17-.49,.02-.05,.03-.1,.05-.15,.64-1.95,.95-3.82,1.01-4.2,0-.02,0-.03,0-.04v-.04s1.66-.5,2.01-.34Z"/><path class="j" d="M102.5,42.29c-.88,.75-1.62,1.28-1.62,1.28h0c-.09,.01-2.46,.32-2.75-.09h.01s0-.02,.01-.02c.05-.05,.18-.17,.38-.36l.06-.06c.06-.06,.13-.13,.2-.2,.05-.05,.1-.1,.15-.15,.23-.24,.5-.52,.78-.84,.05-.05,.1-.11,.14-.16,.06-.07,.13-.15,.19-.22l2.44,.84Z"/><path class="f" d="M106.87,34.43h0c-.02,.11-.72,3.56-1.86,5.27-.58,.87-1.62,1.84-2.5,2.59h0l-2.44-.84c.07-.08,.14-.16,.2-.24,.14-.16,.28-.33,.42-.51,.05-.06,.1-.12,.14-.18,.31-.4,.62-.82,.92-1.25,.12-.18,.24-.37,.36-.56,.07-.11,.13-.22,.2-.33,.11-.19,.22-.39,.32-.59,.05-.1,.11-.21,.16-.32,.1-.2,.19-.41,.26-.61,1.35-3.46,1.77-5.65,1.77-5.65,.78,.34,2.05,3.21,2.05,3.21Z"/><path class="i" d="M102.5,42.29l-.02,1.83h0c-.43,.32-.82,.6-1.12,.81-.03,.02-.06,.04-.09,.06-.01,0-.02,.02-.03,.02-.04,.02-.07,.05-.1,.07,0,0,0,0-.01,0-.03,.02-.07,.05-.1,.07h0s-.04,.03-.05,.04c-.15,.1-.23,.16-.23,.16-.3-.38,.13-1.72,.15-1.78h0s.74-.53,1.62-1.28h0Z"/><path class="g" d="M109.66,34.8s-1.46,3.48-3.08,5.63c-.05,.07-.1,.14-.16,.2-.39,.49-.91,1-1.46,1.49-.15,.13-.3,.27-.45,.4-.08,.07-.16,.14-.25,.21-.16,.14-.33,.27-.49,.4-.08,.07-.16,.13-.25,.19-.36,.29-.72,.56-1.05,.8l.02-1.83c.89-.75,1.92-1.73,2.5-2.59,1.14-1.71,1.84-5.16,1.86-5.27h0s2.41,.07,2.79,.37Z"/><path class="j" d="M104.8,45.01c-.84,.49-1.49,.81-1.49,.81,0,0-2.27-.09-2.58-.48,0,0,.08-.05,.23-.16,.02,0,.03-.02,.05-.04h0s.06-.05,.1-.07c0,0,0,0,.01,0,.03-.02,.07-.04,.1-.07,.01,0,.02-.02,.03-.02,.03-.02,.06-.04,.09-.06,.3-.21,.69-.48,1.12-.8l2.32,.89Z"/><path class="f" d="M110.82,37.86h0c-.01,.09-.31,2.33-2.78,4.87-.75,.78-2.15,1.66-3.24,2.28l-2.32-.89h0c.33-.24,.68-.51,1.05-.8,.08-.06,.16-.13,.25-.19,.16-.13,.33-.26,.49-.4,.08-.07,.16-.14,.25-.21,.15-.13,.31-.26,.45-.4,.55-.5,1.07-1.01,1.46-1.49,.05-.07,.11-.14,.16-.2,1.62-2.15,3.08-5.63,3.08-5.63,.39,.3,1.16,3.06,1.16,3.06Z"/><path class="i" d="M104.8,45.01l-.23,1.93h0l-.35,.18c-.12,.06-.24,.12-.35,.17-.05,.02-.1,.05-.16,.07-.25,.12-.46,.21-.61,.29-.03,.01-.05,.02-.08,.03-.14,.06-.21,.1-.21,.1-.34-.38,.5-1.95,.5-1.95,0,0,.65-.33,1.49-.81Z"/><path class="g" d="M113.26,38.25s-1.63,3.53-3.59,5.44c-.19,.19-.41,.37-.65,.56-.07,.06-.15,.12-.23,.18-.17,.13-.35,.26-.53,.38l-.24,.16c-.36,.24-.74,.48-1.12,.7-.11,.07-.23,.13-.34,.2-.08,.05-.16,.09-.23,.13-.09,.05-.18,.1-.27,.15-.52,.29-1.03,.55-1.48,.78l.23-1.93c1.08-.62,2.48-1.5,3.24-2.28,2.47-2.55,2.77-4.78,2.78-4.87h0s1.98,.08,2.44,.39Z"/><path class="j" d="M106.47,47.92c-.06,.02-.11,.04-.17,.05-.09,.03-.17,.05-.24,.07-.42,.13-.73,.21-.85,.24h-.05s-2.01-.12-2.35-.51c0,0,.08-.03,.21-.1,.02,0,.05-.02,.08-.03,.15-.07,.36-.17,.61-.29,.05-.02,.1-.05,.16-.07,.11-.05,.23-.11,.35-.17l.35-.18h0l1.9,.98Z"/><path class="f" d="M114.14,41.78s-1.39,2.55-3.32,4.05c-.09,.07-.18,.13-.27,.2-.07,.05-.14,.1-.21,.14-.45,.3-.94,.57-1.43,.8-.09,.04-.18,.09-.27,.13-.78,.35-1.55,.63-2.17,.83l-1.9-.98c.45-.23,.96-.49,1.48-.78,.09-.05,.18-.1,.27-.15,.08-.04,.16-.09,.23-.13,.11-.06,.23-.13,.34-.2,.38-.23,.76-.46,1.12-.7l.24-.16c.18-.13,.36-.25,.53-.38,.08-.06,.15-.12,.23-.18,.24-.19,.46-.38,.65-.56,1.96-1.91,3.59-5.44,3.59-5.44,.46,.31,.88,3.53,.88,3.53Z"/><path class="i" d="M105.78,49.42l.09,.06c-.24,.06-.46,.11-.65,.15-.06,.01-.12,.03-.17,.04-.26,.06-.45,.1-.54,.12h-.06c-.08-.36,.71-1.49,.71-1.49h.05c.12-.04,.42-.12,.85-.25,.08-.02,.16-.05,.24-.07,.05-.02,.11-.04,.17-.05l-.69,1.49Z"/><path class="g" d="M116.52,43.08s-2.38,2.75-4.88,4.41c-.08,.05-.16,.1-.25,.15-.04,.02-.09,.05-.13,.07-.1,.06-.21,.11-.33,.17-.08,.04-.16,.07-.24,.11-.16,.07-.34,.14-.52,.21l-.14,.05c-.6,.23-1.26,.44-1.92,.63-.1,.03-.2,.06-.3,.09-.05,.02-.1,.03-.15,.04-.1,.03-.2,.06-.3,.08-.1,.03-.19,.05-.29,.08-.14,.04-.29,.07-.42,.11-.18,.05-.36,.09-.53,.13-.04,.01-.08,.02-.12,.03-.04,.01-.08,.02-.12,.03h0l-.09-.06,.69-1.49c.62-.2,1.39-.48,2.17-.83,.09-.04,.18-.08,.27-.13,.49-.23,.98-.5,1.43-.8,.07-.05,.14-.09,.21-.14,.09-.07,.18-.13,.27-.2,1.92-1.5,3.32-4.05,3.32-4.05,0,0,2.04,.85,2.38,1.3Z"/><path class="j" d="M107.71,50.72h0c-.94,.18-1.59,.27-1.59,.27h0s-1.58-.82-1.66-1.19h.06c.09-.03,.28-.07,.54-.13,.05-.01,.11-.03,.17-.04,.19-.04,.41-.1,.65-.15h0l1.84,1.24Z"/><path class="f" d="M116.52,46.75s-1.15,1.74-3.86,2.72c-1.56,.56-3.57,1-4.95,1.25h0l-1.84-1.24s.08-.02,.12-.03c.04-.01,.08-.02,.12-.03,.17-.04,.35-.09,.53-.13,.14-.04,.28-.07,.42-.11,.1-.03,.19-.05,.29-.08,.1-.03,.2-.05,.3-.08,.05-.01,.1-.03,.15-.04,.1-.03,.2-.06,.3-.09,.66-.19,1.32-.4,1.92-.63l.14-.05c.18-.07,.35-.14,.52-.21,.08-.04,.16-.07,.24-.11,.12-.05,.23-.11,.33-.17,.05-.02,.09-.05,.13-.07,.09-.05,.17-.1,.25-.15,2.5-1.66,4.88-4.41,4.88-4.41,.34,.45,0,3.67,0,3.67Z"/><path class="i" d="M107.71,50.72l-1.18,1.3c-.15,0-.29,.02-.42,.02-.07,0-.13,0-.19,0-.07,0-.13,0-.19,.01-.42,.02-.68,.02-.68,.02-.16-.51,.99-1.06,1.06-1.09h0s.65-.1,1.59-.27Z"/><path class="g" d="M118.2,48.3s-2.75,1.7-5.46,2.7c-.09,.03-.17,.06-.26,.09-.09,.03-.17,.06-.26,.08-.3,.09-.63,.17-.96,.25-.18,.04-.36,.08-.54,.11-.1,.02-.21,.04-.31,.06-.11,.02-.21,.04-.32,.05-.09,.02-.18,.03-.27,.04-.07,0-.14,.02-.21,.03-.14,.02-.28,.04-.42,.06-.07,0-.14,.02-.21,.03-.12,.02-.24,.03-.36,.04-.77,.09-1.5,.14-2.09,.18l1.18-1.3h0c1.38-.26,3.39-.69,4.95-1.25,2.71-.98,3.86-2.72,3.86-2.72,0,0,1.52,.87,1.68,1.55Z"/><path class="j" d="M108.47,54.07c-1.04-.05-1.77-.13-1.82-.13h0s-1.44-1.32-1.59-1.84c0,0,.25,0,.68-.02,.06,0,.13,0,.19-.01,.06,0,.12,0,.19,0,.13,0,.27-.02,.42-.02l1.94,2.05Z"/><path class="f" d="M117.87,52.29s-1.45,1.17-4.56,1.64c-1.55,.23-3.46,.2-4.84,.13l-1.94-2.05c.59-.04,1.32-.1,2.09-.18,.12-.01,.24-.03,.36-.04,.07,0,.14-.02,.21-.03,.14-.02,.28-.04,.42-.06,.07-.01,.14-.02,.21-.03,.09-.02,.18-.03,.27-.04,.11-.02,.21-.04,.32-.05,.1-.02,.21-.04,.31-.06,.18-.03,.37-.07,.54-.11,.33-.07,.66-.16,.96-.25,.09-.03,.18-.05,.26-.08,.09-.03,.18-.06,.26-.09,2.7-.99,5.46-2.7,5.46-2.7,.16,.68-.33,3.99-.33,3.99Z"/><path class="i" d="M108.47,54.07l-.97,1.14c-.08,0-.17-.02-.25-.03-.07-.01-.14-.02-.2-.03-.21-.03-.41-.06-.59-.09-.06,0-.12-.02-.17-.03-.11-.02-.21-.04-.3-.05-.11-.02-.21-.04-.3-.05-.18-.04-.28-.06-.28-.06,0-.47,1.26-.77,1.26-.77,0-.06-.02-.11-.02-.17,.05,0,.79,.08,1.82,.13Z"/><path class="g" d="M119.34,52.75s-2.71,1.97-6.28,2.5c-1.03,.15-2.11,.19-3.12,.15h-.15c-.42-.02-.82-.05-1.21-.08-.13-.01-.25-.02-.38-.04-.15-.01-.3-.03-.44-.05-.09-.01-.18-.02-.26-.03l.97-1.14c1.38,.07,3.29,.1,4.84-.13,3.12-.47,4.56-1.64,4.56-1.64,0,0,1.35,.16,1.47,.46Z"/><path class="j" d="M109.25,57.46c-1.25-.19-2.21-.41-2.26-.42h0s-1.57-1.7-1.57-2.17c0,0,.1,.02,.28,.06,.08,.02,.18,.03,.3,.05,.09,.02,.19,.03,.3,.05,.05,.01,.11,.02,.17,.03,.18,.03,.38,.06,.59,.09,.07,.01,.13,.02,.2,.03,.08,.01,.16,.02,.25,.03l1.74,2.25Z"/><path class="f" d="M118.31,56.51s-1.87,.77-4.55,1.17c-1.3,.19-3.1,0-4.52-.21l-1.74-2.25c.09,.01,.17,.02,.26,.03,.14,.02,.29,.03,.44,.05,.12,.01,.25,.02,.38,.04,.38,.03,.79,.06,1.21,.07h.15c1.01,.04,2.09,0,3.12-.15,3.56-.53,6.28-2.5,6.28-2.5,.12,.3-1.03,3.76-1.03,3.76Z"/><path class="i" d="M109.25,57.46l-1.61,1.07h0s-.08-.02-.12-.03c-.08-.02-.16-.04-.23-.06-.07-.02-.15-.04-.22-.06-.14-.04-.28-.08-.41-.11-.06-.02-.13-.04-.19-.05-.1-.03-.2-.06-.29-.09-.04-.01-.08-.02-.12-.04-.1-.03-.18-.06-.26-.09-.03-.01-.06-.02-.09-.03-.04-.01-.08-.03-.11-.04-.02,0-.04-.02-.06-.02-.08-.03-.12-.04-.12-.04,.03-.93,1.58-.71,1.58-.71,0-.04,0-.08,0-.12,.05,.01,1.01,.23,2.26,.42Z"/><path class="g" d="M120.02,57.13s-2.95,1.65-6.76,1.96c-2.03,.16-4.11-.19-5.62-.56h0l1.61-1.07c1.42,.22,3.22,.4,4.52,.21,2.68-.39,4.55-1.17,4.55-1.17,0,0,1.53,.29,1.71,.62Z"/><path class="j" d="M109.42,61.72h0c-1.28-.26-2.19-.55-2.19-.55,0,0-1.85-2.39-1.82-3.31,0,0,.04,.02,.12,.04,.02,0,.04,.02,.06,.02,.03,.01,.07,.02,.11,.04,.03,0,.06,.02,.09,.03,.08,.03,.16,.05,.26,.09,.04,.01,.08,.02,.12,.04,.09,.03,.19,.06,.29,.09,.06,.02,.12,.04,.19,.05,.13,.04,.26,.07,.41,.11,.07,.02,.15,.04,.22,.06,.07,.02,.15,.04,.23,.06,.04,0,.08,.02,.12,.03h0l1.79,3.2Z"/><path class="f" d="M118.53,60.94s-.03,0-.09,.02c-.49,.12-3.01,1.17-5.38,1.17-1.26,0-2.58-.2-3.64-.41l-1.79-3.2c1.51,.37,3.59,.72,5.62,.56,3.82-.31,6.76-1.96,6.76-1.96,.38,.73-1.49,3.81-1.49,3.81Z"/><path class="i" d="M109.42,61.72l-1.92,.78c-.21-.08-.4-.16-.57-.23-.04-.02-.09-.04-.12-.05-.19-.08-.36-.16-.51-.23-.05-.02-.09-.04-.13-.06-.29-.14-.44-.23-.44-.23,.03-.6,1.51-.52,1.51-.52,0,0,.91,.29,2.19,.55Z"/><path class="g" d="M120.4,61.46s-2.89,1.94-7.14,2.1c-.21,0-.41,.01-.62,0-.07,0-.14,0-.21,0-.09,0-.18,0-.27-.01-.02,0-.03,0-.05,0-.06,0-.11,0-.17-.01-1.39-.1-2.68-.42-3.72-.77-.13-.04-.26-.09-.38-.13-.08-.03-.16-.06-.24-.09l-.1-.04h0l1.92-.78h0c1.06,.22,2.38,.41,3.64,.41,2.37,0,4.89-1.05,5.38-1.17,.06-.01,.09-.02,.09-.02,0,0,1.62,.14,1.87,.51Z"/><path class="j" d="M109.42,65.88c-1.14-.17-1.83-.37-2.05-.42,0,0,0,0,0,0,0,0-.01-.02-.02-.04,0-.01,0-.03,0-.04,0,0,0-.02,0-.03,0-.05,0-.1-.01-.16,0-.04,0-.08,0-.1v-.03h0s-1.63-2.74-1.6-3.35c0,0,.16,.09,.44,.23,.04,.02,.08,.04,.13,.06,.15,.07,.32,.15,.51,.23,.04,.02,.08,.04,.12,.05,.18,.08,.37,.15,.57,.23h0l1.37,2.41,.55,.96Z"/><path class="f" d="M118.47,64.2l-.03,.27s-1.23,1.65-4.8,1.69c-1.75,.02-3.17-.12-4.21-.28l-.55-.96-1.37-2.41,.1,.04c.08,.03,.16,.06,.24,.09,.12,.05,.25,.09,.38,.13,1.04,.35,2.33,.67,3.72,.77,.05,0,.11,0,.17,.01,.02,0,.03,0,.05,0,.09,0,.18,.01,.27,.01,.07,0,.14,0,.21,0,.2,0,.41,0,.62,0,4.25-.16,7.14-2.1,7.14-2.1,.24,.36-1.84,2.63-1.93,2.74Z"/><line class="d" x1="99.74" y1="39.71" x2="99.73" y2="39.7"/></g><g><path d="M6.07,.62v.03c.09,.02,.2,.04,.29,.07l-.29-.09h0Z"/><path class="e" d="M7.68,7.3c-1.05,2.6-3.08,4.29-4.78,4.07-.18-.02-.37-.07-.54-.14C.59,10.52,.09,7.6,1.25,4.72,2.3,2.1,4.36,.4,6.06,.65c.1,.02,.21,.04,.3,.07,.07,.02,.14,.04,.2,.07,1.78,.71,2.28,3.63,1.12,6.51Z"/><path class="e" d="M97.23,28.82s0,3.74-.34,5.99c-.23,1.53-1.68,5.11-1.68,5.11l-1.07-.33L2.91,11.37c1.69,.22,3.73-1.47,4.78-4.07,1.16-2.88,.66-5.8-1.12-6.51-.03-.01-.07-.03-.1-.04L97.23,28.82Z"/><path class="e" d="M118.46,64.2h0c0,.84,.02,1.67,.06,2.5,.01,.35,0,2.28,0,2.28V329.15s-.02,.07-.03,.1c-.01,.03-.02,.07-.04,.11-.66,1.8-3.66,2.36-6.7,1.24-2.64-.96-4.44-2.87-4.44-4.53,0-.03,0-.06,0-.1V66.7s0-.63,0-1.67"/><path class="e" d="M99.74,28.51s-.45,4.34-1.31,6.77c-.86,2.42-3.21,6.18-3.21,6.18-.15-.23,0-1.53,0-1.53,0,0,1.45-3.58,1.68-5.11,.33-2.25,.34-5.99,.34-5.99,0,0,2.07-.47,2.5-.31Z"/><path class="e" d="M102.81,31.56v.04c-.07,.33-.56,2.81-1.07,4.39-.05,.16-.11,.33-.17,.49-.03,.07-.05,.15-.09,.22-.72,1.77-2.28,3.74-2.94,4.53-.05,.07-.1,.12-.15,.18-.04,.05-.08,.09-.1,.12-.04,.05-.06,.07-.06,.07,0,0-2.87,.09-3.02-.14,0,0,2.35-3.75,3.21-6.18,.86-2.42,1.31-6.77,1.31-6.77,1,.38,2.98,2.93,3.07,3.05h0Z"/><path class="e" d="M104.82,31.22s-.42,2.19-1.77,5.65c-1.27,3.26-4.91,6.61-4.91,6.61-.29-.42,.11-1.88,.11-1.88,0,0,.02-.02,.06-.07,.03-.03,.06-.07,.1-.12,.04-.05,.09-.11,.15-.18,.67-.8,2.23-2.76,2.94-4.53,.03-.07,.06-.15,.09-.22,.06-.16,.12-.33,.17-.49,.7-2.08,1.02-4.1,1.06-4.39v-.04s1.66-.5,2.01-.34Z"/><path class="e" d="M106.87,34.43h0c-.02,.11-.72,3.56-1.86,5.27-1.16,1.73-4.12,3.87-4.12,3.87h0c-.09,.01-2.46,.32-2.75-.09,0,0,3.64-3.35,4.91-6.61,1.35-3.46,1.77-5.65,1.77-5.65,.78,.34,2.05,3.21,2.05,3.21Z"/><path class="e" d="M109.66,34.8s-1.46,3.48-3.08,5.63c-1.62,2.15-5.84,4.92-5.84,4.92-.3-.38,.13-1.72,.15-1.78h0s2.97-2.14,4.12-3.88c1.14-1.71,1.84-5.16,1.86-5.27h0s2.41,.07,2.79,.37Z"/><path class="e" d="M110.82,37.86h0c-.01,.09-.31,2.33-2.78,4.87-1.34,1.39-4.73,3.1-4.73,3.1,0,0-2.27-.09-2.58-.48,0,0,4.22-2.77,5.84-4.92,1.62-2.15,3.08-5.63,3.08-5.63,.38,.3,1.16,3.06,1.16,3.06Z"/><path class="e" d="M113.26,38.25s-1.63,3.53-3.59,5.44c-2.02,1.96-6.85,4.09-6.85,4.09-.34-.38,.5-1.95,.5-1.95,0,0,3.38-1.71,4.73-3.1,2.47-2.55,2.77-4.78,2.78-4.87h0s1.98,.08,2.44,.39Z"/><path class="e" d="M114.14,41.78s-1.39,2.55-3.32,4.05c-2.1,1.63-5.66,2.47-5.66,2.47,0,0-2.01-.14-2.35-.52,0,0,4.83-2.13,6.85-4.09,1.96-1.91,3.59-5.44,3.59-5.44,.46,.31,.88,3.53,.88,3.53Z"/><path class="e" d="M116.52,43.08s-2.38,2.75-4.88,4.41c-1.81,1.2-7.18,2.32-7.18,2.32-.08-.37,.71-1.5,.71-1.5,0,0,3.56-.84,5.66-2.47,1.92-1.5,3.32-4.05,3.32-4.05,0,0,2.04,.85,2.38,1.3Z"/><path class="e" d="M116.52,46.75s-1.15,1.74-3.86,2.72c-2.63,.95-6.54,1.52-6.54,1.52h0s-1.58-.82-1.66-1.19c0,0,5.38-1.12,7.18-2.32,2.5-1.66,4.88-4.41,4.88-4.41,.34,.45,0,3.67,0,3.67Z"/><path class="e" d="M118.2,48.3s-2.75,1.7-5.46,2.7c-2.7,.99-7.69,1.09-7.69,1.09-.16-.51,.99-1.06,1.06-1.09h0s3.91-.57,6.54-1.52c2.71-.98,3.86-2.72,3.86-2.72,0,0,1.52,.87,1.68,1.55Z"/><path class="e" d="M117.87,52.29s-1.45,1.17-4.56,1.64c-2.71,.4-6.54,.01-6.66,0h0s-1.44-1.32-1.59-1.84c0,0,4.98-.1,7.69-1.09,2.7-.99,5.46-2.7,5.46-2.7,.16,.68-.33,3.99-.33,3.99Z"/><path class="e" d="M119.34,52.75s-2.71,1.97-6.28,2.5c-3.56,.53-7.64-.38-7.64-.38,0-.47,1.26-.77,1.26-.77,0-.06-.02-.11-.02-.17,.12,.01,3.95,.4,6.66,0,3.12-.47,4.56-1.64,4.56-1.64,0,0,1.35,.16,1.47,.46Z"/><path class="e" d="M118.31,56.51s-1.87,.77-4.55,1.17c-2.45,.36-6.67-.61-6.78-.64h0s-1.57-1.7-1.57-2.17c0,0,4.08,.91,7.64,.38,3.56-.53,6.28-2.5,6.28-2.5,.12,.3-1.03,3.76-1.03,3.76Z"/><path class="e" d="M120.02,57.13s-2.95,1.65-6.76,1.96c-3.82,.3-7.84-1.23-7.84-1.23,.03-.93,1.58-.71,1.58-.71,0-.04,0-.08,0-.12,.11,.03,4.33,1,6.78,.64,2.68-.39,4.55-1.17,4.55-1.17,0,0,1.53,.29,1.71,.62Z"/><path class="e" d="M118.53,60.94s-.03,0-.09,.02c-.49,.12-3.01,1.17-5.38,1.17-2.79,0-5.83-.96-5.83-.96,0,0-1.85-2.39-1.82-3.31,0,0,4.02,1.53,7.84,1.23,3.82-.31,6.76-1.96,6.76-1.96,.38,.73-1.49,3.81-1.49,3.81Z"/><path class="e" d="M120.4,61.46s-2.89,1.94-7.14,2.1c-3.98,.16-7.53-1.87-7.53-1.87,.03-.6,1.51-.52,1.51-.52,0,0,3.04,.96,5.83,.96,2.37,0,4.89-1.05,5.38-1.17,.06-.01,.09-.02,.09-.02,0,0,1.62,.14,1.87,.51Z"/><path class="e" d="M118.47,64.2l-.03,.27s-1.23,1.65-4.8,1.69c-3.65,.04-5.85-.6-6.26-.7-.05-.01-.05-.43-.05-.43,0,0-1.63-2.73-1.6-3.34,0,0,3.55,2.02,7.53,1.87,4.25-.16,7.14-2.1,7.14-2.1,.24,.36-1.84,2.63-1.93,2.74Z"/></g></g></g></svg>