<svg xmlns="http://www.w3.org/2000/svg" viewBox="0 0 1844.83 1178.06"><path class="map__illu" d="M802.05,391c-8.57-7-27,7-33,2s-16-1-14,5,8,9,10,15,9,13,23,7S818.05,404,802.05,391Z"/><path class="map__illu" d="M413.05,184c7.62,4.9,13,0,18-12s20-18,11-25-3-24-17-28-8-27-19-26-25,34-16,44,27,15,18,20S399.05,175,413.05,184Z"/><path class="map__illu" d="M374.05,131c-4-1-7,14-1,14S378.05,132,374.05,131Z"/><path class="map__illu" d="M343.05,153c-6.8,1.94-7,15,3,25s16,8,20,14,8-12.44-1-29C359.05,152,350.05,151,343.05,153Z"/><path class="map__illu" d="M391.05,174c-4.43-7.38-11.5-14-13.75-7.51S375.05,186,381.05,189,400.05,189,391.05,174Z"/><path class="map__illu" d="M317.05,172c-4.05-2.94-20,2-18,7S328.05,180,317.05,172Z"/><path class="map__illu" d="M293.05,187c-6.08,2,0,10,3,7S296.05,186,293.05,187Z"/><path class="map__illu" d="M313.05,185c-6.8,1.94-16.17,3.39-12,13s13,1.82,14-3S320.05,183,313.05,185Z"/><path class="map__illu" d="M342.05,197c-1.48-4.22-5.69-5.06-4.45,0C340.05,207,349.05,217,342.05,197Z"/><path class="map__illu" d="M401.05,197c0-4-14.52-5-14.76,0S401.05,203,401.05,197Z"/><path class="map__illu" d="M415.05,197c-5.07,0,0,10,4,8S419,197,415.05,197Z"/><path class="map__illu" d="M471.05,249c3.33-5.47-8-20-23-12s-33,3-29-4-15.77-22.59-25.38-22.79S383.2,223,392.62,226.48,410,224.35,406.05,245C402.05,266,457.05,272,471.05,249Z"/><path class="map__illu" d="M398.05,243c-2-2-10.53-2.47-11.77,3.76s5.77,15.09,11.77,13.66S402.05,247,398.05,243Z"/><path class="map__illu" d="M418.81,213.82c-2.79.29-1.76,9.18,1.24,8.18S420.57,213.64,418.81,213.82Z"/><path class="map__illu" d="M475.05,230c-1.86-1.24-6,4-4,6S478.05,232,475.05,230Z"/><path class="map__illu" d="M286.05,210c1.16-4.3,4-12-4-12s-18,13.76-22,19.38-19,18.62-7,17.62,20-14,23-12S283.57,219.2,286.05,210Z"/><path class="map__illu" d="M278.05,230c-2-1-11.48,7.28-9,11C273.05,247,280.05,231,278.05,230Z"/><path class="map__illu" d="M304.17,229.92c-3.06-4-10.12-10.92-16.12-6.92s-11.65,22.5-9,26,22.12,4.62,27-2S310.3,237.83,304.17,229.92Z"/><path class="map__illu" d="M347.05,245c-3-4.48-7.77,5.6-2.39,6.8S349.05,248,347.05,245Z"/><path class="map__illu" d="M285.05,274c-3.64-2.18-29.13-20.25-36.57-11.13S241.05,293,239.05,297s4,24,12,22,11.94-20.38,22.47-26.69S295.05,280,285.05,274Z"/><path class="map__illu" d="M297.29,286.56c-4.46-.75-16.24,1.44-21.24,9.44s-4.34,27.8,2.33,29.4,27.67,2.6,25.67,6.6-13-2-21,4,.85,10.38,5.42,11.69,9.23,1.08,10.41,7.19S319.05,358,325.05,353s11-5.47,18-1.23,30.38-4.4,18.19-15.58-18.84-25.69-19-36.44S350,278,341,276s-15,6-14,16,2,25-2,18-1.79-20.54-8.39-20.27S306.53,288.13,297.29,286.56Z"/><path class="map__illu" d="M378.05,272c-3.42-1.14-20.62,2.64-16.81,9.82s7.12,15.35-.54,12.27-5.65,2.91-2.65,4.91a45.07,45.07,0,0,1,11.61,12.45C373.05,317,382,320,385,310.51s-1-16.51-4-18.51,2-9,2-14S381.05,273,378.05,272Z"/><path class="map__illu" d="M385,286.92c-3-.92-3,4.08-1,4.08S388,287.83,385,286.92Z"/><path class="map__illu" d="M394.13,232.08c-2.08-.08-2.85,4.52-.46,4.72S396.21,232.16,394.13,232.08Z"/><path class="map__illu" d="M387.17,239.3c-1.12-2.3-7,1.38-5.58,3S388.29,241.6,387.17,239.3Z"/><path class="map__illu" d="M362.05,191c.73-2.91-7.39-3-7.7,0S361.05,195,362.05,191Z"/><path class="map__illu" d="M412.07,270.65c-6.16-1-21-4.65-21,8.35s-1.84,28.69,3.08,26.84S401.05,296,406.05,294,422.09,272.29,412.07,270.65Z"/><path class="map__illu" d="M379.25,232.08c.8-8.08-2.89-13.93-14.55-13s-23-4.48-20.81,2.72S350,232.91,353.53,237s11.52,5,10.52,12,11.5,5.72,13.25-5.14S379.25,232.08,379.25,232.08Z"/><path class="map__illu" d="M337.05,248c4-5,2.1-14.79-4.95-14.89s-5.82-15.06-8.93-16.58-9.12,3.47-8.12,8.47,12.87,14.46,5.44,15.73-10-.42-11.2,4.43-7.76,8.87-12,10.36-.24,12.48,6.76,7.48,13.38-12,20.19-11S333.92,251.91,337.05,248Z"/><path class="map__illu" d="M529.05,110c6.19-10.33,23-23,17-25s1-6,7-9,17-20,10-25-11-9-12-13-11-8.42-22-9.21-19-7.79-25-3.79-4,3-11,2-13,7-19,6-16,6-19,16-7.37,8-10.18,4.49S433.05,59,434.05,62s-10.74,2.34-16.87,9.17-10.38,9.3-4.26,13.07,6.94,7.14,8.53,15.45,6.6,16.31,12.6,17.31,19.27,4,27.63,0,11.37-2,8.37,0-16,11-24,9-10-1-8,8,7,7,9,14,4.63,12.07-2.18,16.53S429.05,176,432.05,183s14.39,7.33,10.2,11.67-2.88-6.13-10-3.9-6.16,4.23-2.16,9.23-6.48,9.63-7.24,13.81-3.24,7.8,6,10,21.24,1.2,27.24.2,7.93,6.62,14.46,3.31S483.05,219,480.05,212s-3-8,0-12-.34-9.43,6.33-11.22S501.05,174,498.05,167s-2-16,3-18,12.75-8.1,16.87-18.05S526.05,115,529.05,110Z"/><path class="map__illu" d="M15.05,424c1.41-4.24-12.59-8.82-15-4C-.95,422,14.05,427,15.05,424Z"/><path class="map__illu" d="M31.05,458c1-4-8-6-9-2S30.05,462,31.05,458Z"/><path class="map__illu" d="M28.05,515c-3.16-3.16-16,6-15,8S30.05,517,28.05,515Z"/><path class="map__illu" d="M98.05,473c-1.94-.49-15,10-10,15s11-6.36,10-8.68S102.05,474,98.05,473Z"/><path class="map__illu" d="M441.05,336c-9.21-2.3-27.47-6-21.74-30s8.66-31.58,23.2-30.29,30.54-.7,35.54,1.3,16,15,18,23,8,10,14,12,27,31,27,35-10,5.63,0,13.31,29,20.69,24,28.69-10,17-14,9-13-14-13-4,23,20,14,35-23.16,7-29.58,0-16.42-23-22.42-20-15,7-17,1,1-10.57,11-11.29,19-24.71,16-31.71-8-11-14-14-8.13-18.22-16.07-15.11S449.05,338,441.05,336Z"/><path class="map__illu" d="M200.05,513c-2.63,1.75,5,18,8,17S206.05,509,200.05,513Z"/><path class="map__illu" d="M444.05,726c0,4.12,7-4,13-2s20,7,23,11,19,5,18,1-24-13-35-16S444.05,724,444.05,726Z"/><path class="map__illu" d="M382.65,343.61c-3.24-5.27-4.67-5.39-6.13,0S368.05,353,372.05,354s13.7,8.61,16.35,4.3S384.26,346.22,382.65,343.61Z"/><path class="map__illu" d="M490.05,361.35c-4-.35-8,9.65-6,12.65s10,2,11-4S494.05,361.7,490.05,361.35Z"/><path class="map__illu" d="M448.05,399c-5-4-9-8-10-1s-4,16-3,20,6,11,10,6,7-11,11-8,12,9,10,1S450.86,401.25,448.05,399Z"/><path class="map__illu" d="M497.05,364c0,2,5.93,8,6,4.49S497.05,361,497.05,364Z"/><path class="map__illu" d="M518.05,739c-3-2-8.8-3-12.4,0s-13.6,7-8.6,8,36,0,28.49-4Z"/><path class="map__illu" d="M700.05,0c-17,0-31.08,7-30.54,13.5S673.05,36,663.05,28s-10-10-17-7,0,10-2,14-15,6-13,13,10,13,12,20,2,7-3,3-14-18-18-20-12-3-9,6,4.68,17.77-.66,15.39S599.05,67,597.05,60s-3-4-9-1-27,10-27,20,4,21-4,18-11,13-17,17-12,17-2,18,8,16,5,19-16,15-28,18-11.69,20.33,1.66,25.67S535.05,193,538.05,196s10,12-1,11-26.07-2.59-20.53,3.2,10.53,5.8,8.53,12.8,8.13,11.62,22.56,6.81,20.5.4,23.47,3.3,9,13.89,15,21.89,14,36,13,42-10,15-2,18,11-1,16,6-7,2-12,4,5,7,8,9,12,2,9,12-4.39,9.61-9.2,12.3-6.8,18.7-1.8,32.7,5,25,14,38,10,17,17,19,12,13,17,9,15-31,16-44,5-21,17-22,19.27-26.11,31.63-28.05S765.05,340,758.05,338s-32,0-29-7,14-9,16-11,5,2,7,8,12,6,11-5-13-20-15-25-8-11-3-15,4-6,11-1,18.74-2.87,12.87-6.44-11.28-11.14-6.08-11.85,14.56,5.71,13.89,0S760.05,252,771.05,249s-3-17-7-23-2-17,8-13,12-13,1-21-10-19-7-24,8-27,13-27,9-12,9-20,14-24,20-32-6-19-16-16-9,13-17,13-12,4-16,12-8,3-3-8,3-24-4-21-10,13-11,8-8-11-16-9-21,11-20,6,11-14,25-11,30-8,30-14-11-11-16-14-16-9-10-15S727.05,0,700.05,0Z"/><path class="map__illu" d="M459.05,428c-1.9-3.79-12.89,1.18-8.44,6.09S460.05,430,459.05,428Z"/><path class="map__illu" d="M471.05,433c-3.88-1-3,10-1,10S475.05,434,471.05,433Z"/><path class="map__illu" d="M549.05,548c-1,2,11,9,13,6S550.05,546,549.05,548Z"/><path class="map__illu" d="M551.05,573c0,3.16,7,7,9,3S551.05,572,551.05,573Z"/><path class="map__illu" d="M568.05,570c-5,0-7,10-1,10S571.05,570,568.05,570Z"/><path class="map__illu" d="M987.05,154c10.75,3.07,27-6,26-16s-7-10.5-13-11.25-15,3.25-20-2.75-13,7-11,13S980.05,152,987.05,154Z"/><path class="map__illu" d="M970.05,149c-3-9-12-20-12-12,0,5.83-3.76,2.06-11.88,1.53S928.05,144,934.05,160s13,22,14,34,11,33,14,26,9-44,17-47,6-4,1-9S972.28,155.71,970.05,149Z"/><path class="map__illu" d="M988.05,173c-2.64-3.17-9,1-7,7S993.05,179,988.05,173Z"/><path class="map__illu" d="M989.43,183.19c-4.63,1-6.62,1.6-5,6.2s-4.14,9.75,2.24,10.68,6.31,7.38,11.38-1.07C1001.05,194,997.82,181.38,989.43,183.19Z"/><path class="map__illu" d="M930.05,166c-3,1,4.21,18,7.1,17S933.05,165,930.05,166Z"/><path class="map__illu" d="M777.05,218c-3,0,1,17,2,17S781.05,218,777.05,218Z"/><path class="map__illu" d="M778,245.85c-4.9,5.15,4.1,10.15,6.1,8.15S780.9,242.75,778,245.85Z"/><path class="map__illu" d="M600.05,332c-3.23,1.61-1,12,3,14s13.47-3,8.24-7S604.05,330,600.05,332Z"/><path class="map__illu" d="M690.05,865c-9-2-13-10-26-10s-10-6-25-10-20-9-23-20-12-14-25-15-20-16-28-19-20-2-31-5-14-12-26-7-15,8-17,11-6,7-12,3-17,6-23-2,2-29-8-33-24,5-20-6,12-28,0-25-7.19,17-20.6,16-32.4-3-28.4-26,11-37,24-34,21,6,21,1,7-6,10-5,10,5,12,4,11-2,11,8,4,18,7,18,9-5,3-21-2-22,7-27,19-13,19-23,5-24,14-26,14-3,11-10,22-20,25-18-3,5-1,10,11-6,19-9,4-6-1-5-15-6-13-12,9-12,3-14-17,3-16,0,3-11,18-10,19,5,25-1,15-10,11-4-4,12-7,16-8,9,1,10,8,4,12,5,17,1,12-10-11-6-13-12,8-25,0-32-3-6-13-11-14-12-17-23-13-32-17-22-11,22-17,10,0-22-6-23-22-17-32-15-9-2-9,11,1,20-3,24,6,10,7,18-6,20-10,24,5,25-3,27-15-9-14-19,4-13-3-13-17-3-25-10-16-8-20-10-3-13-11-14-3-23,3-30,17-13,17-19,8-3,11-9,4-24,14-25,25-7,19-18,10-13-2-21-16-10-18-5-4,38-10,32-.48-15.25-3.24-20.12-4.76-8.88-9.76-5.88-7-4-9-16-10-24-15-25c-3.1-.62-7.45,7.14-7.72,12.57s-5.18,11.29-2.73,15.86S398.05,340,398.05,345s4.06,16.68-2.47,18.34-7.8-.83-11.66-2.09-5.87.75-9.87,5.75-21,2-27-3-6-14-16-9-11,7-6,8,4.07,9.14-2,6.57-9-1.57-14-.57-25,0-19-4,8.86-11.09-1.07-12.55-14.93.55-22.93-5.45-15-10-22-9-11,8-14,0-4-14-6-9-4,5-10,5-20,6-23,10-5,10-12,8-6-12-35-15-47-13-55-16-28,1-36,9-12,21-22,23,3,19,11,23,14,11,9,13-10-2-11-5-22,7-20,12,2,11,12,12,19-6,21,1,4,11-7,14-18,13-14,24,9,13,13,13,3,9,5,11,12-4,15,1,10,6,3,13-34,22-33,25,43-23,52-32,3-11,4-15,6,5,12,3,15-7,17-12,14-2,19,3,19-1,31,9,20,24,25,32,16,11,18,16,12,20,12,28,21,12,20,37-3,50,20,72,18,23,21,28,2,12,6,16,24,30,25,25-13-26-17-31-2-11,4-5,27.61,30.27,30.8,36.64-.8,15.36,9.2,20.36,30,19,39,18,14-4,21,5,25,6,33,19,9,14,18,16,11,1,14-1,5-3,8,3,7,19.17,0,25.58-13,18.42-13,24.42-8,13,1,23,19,28,21,34,13,15,21,18,13,16,11,31-7,34-7,48-12,35-11,54,6,14,5,22-2,21-8,20-7,6-2,7-6,9-4,19,13,25,12,33,12,19,24,18,11-7,5-15-12-23-4-30,20-19,11-24-1.6-8.71,3.2-18.36,14.8-13.64,7.8-16.64-5-6,3-7,2-11,11-13,27-8,22-18-2-12,3-10,12,1,22-15,17-22,17-31,11-16,21-20,22-5,25-26,0-27,14-40S699.05,867,690.05,865Zm-150-358c2,6,4,4,10,3s3,6,0,4-5,1-2,7-2,5-4,4-1-9-2-12-3-1-2,5.35,1,9.65-1,7.65-2-10-2.07-16S539.34,504.88,540.05,507Zm-35,28c1,2-4,13-6,10S503.78,532.47,505.05,535Zm-21-20c5-1,3,10,3,14s-3,0-3-3.43S480.13,515.78,484.05,515Zm-56,33c3,6-2.7,6.1-5,3C420,546.86,426.2,544.31,428.05,548Zm-4,11c9-6,17,3,20,11s16,6,22.34,11.14-2.31,2.86-5.31,10.34-2,11.52,0,10.52,8-5,12-7.65,15.35-6.42,16-2.35c1,6-4,5-8,3s-8,8-18.84,13-8.16-4-7.16-7,3-18-10-19-6,25-13,26-2-16-2-22,19-8,15.7-10.92-20.7-3.08-30.63-2.64S415.05,565,424.05,559Zm-147-167c-1,6-9,1-10,7s-8,8-13,5,5-13,.25-15.67,4.75-7.33,9.52-3.68S278.21,385,277.05,392Zm13,58c-9,1-7-4-2-8s1-6,2-9,2,0,8,4,10-4,13-8,6.95-.85,6,2-2,2-6,4S299.05,449,290.05,450Zm40,14c-2,4-25,10-25,7S330.94,462.21,330.05,464Zm52,40c2,2-3,7-2.13,12.76s5.13,14.24,6.18,20.1-3.05,9.14-2.05,3.14-3-7-8-12.3-2-9.7,0-13.7S379.81,501.76,382.05,504Zm-3-22c1,4-9,9-10.39,7.26S378.17,478.5,379.05,482Zm-28-11c4,0,2,8-1,8S349.05,471,351.05,471Zm7.75,13.05c.74,5.06-5.75,7.95-7.9,6.92s1.15-4,1.15-8,5.13-6.53,6.75-5.86C361.54,478.29,358.05,479,358.8,484.05ZM360.05,429c-5-3,2.34-11.28,4.65-8.1C365.36,421.8,365.05,432,360.05,429Zm7,101c-3-3.95-3-20,0-20,6,0,0,14,3.69,18.47s8.31,13.53,6.13,14.72S370.05,534,367.05,530Z"/><path class="map__illu" d="M869.05,543c10.93-1.56,18-5,16-13s-9-9-11-16-12-14-10-20,5-14-3-12,1-7-2-8-13,0-12,11,.93,22.7,4.46,23.35S868.05,516,860.05,521s-3,8-9,12,14,2,8,5-11,9-8,9S862.05,544,869.05,543Z"/><path class="map__illu" d="M847.79,510.35c-.64-4.64-12.4-4.65-15.57,0S822.05,513,826.05,518s-3,14,0,17,17-2,18-8S848.54,515.7,847.79,510.35Z"/><path class="map__illu" d="M923.05,601c-5.1,0-2,9.67,0,9.83S926.05,601,923.05,601Z"/><path class="map__illu" d="M922.61,613.55c-2.43,1.67-4.56.45-3.56,3.45s-2.71,12.28,1.65,10.14,6-1.13,5.7-6.64S926.16,611.1,922.61,613.55Z"/><path class="map__illu" d="M1129.05,906c-3-8-5-8-7-3s-7,15-15,17-9,9-8,15-7,17-4,25,8,14,14,9,8-5,10-17,12-34,11-40Z"/><path class="map__illu" d="M1059.05,584c-.49-1.94-13-6-15-3s4,4,4,7S1060.05,588,1059.05,584Z"/><path class="map__illu" d="M1844.32,388.46c-3.27-8.46-2.27-11.46-15.27-11.46s-14-17-38-29-48-19-46-9-2,21-11,10-16-9-24-9-11,4-11,8-4,9-6,0-5-8-4-16-9-13-19-11-18,3-21-5-15-17-19-18-28-8-33-6-4,7-8,11,4,11-6,12-15-4-23-3-6-9-10-2,0,7-5,11-14-10-12-17,4-24-8-26-20.78-7-20.89,0,3.89,13-4.11,11-21-2-19-8-17-7-22-4-28-7-22-13,25-15,17-34-29-13-34-20,1-15-11-16-17,26-24,28-6,8-26,7-47.28,27.74-41.64,36.87S1306.05,276,1299.05,276s-13,4-9,14,13,17,6,18-12-10-18-9-17,1-19-5-10,11-8,20,5,10,2,19,6,27,4,33-11,23-17,20,6-7,7-14a178.59,178.59,0,0,0,1-35c-1-15-4-24-1-37s-18-12-19-5-12,23-9,33,15,38,5,30-22-15-31-17-17-14-18-10,12,9,10,16-6,10-11,6-24,14-23,6-6-6-15,1-13,6-16,13-11,10-12,3,2-5,4-9-4-9-10-8-3,8-3,14,6,20,0,17-8-7-12-2-10,8-7,14,5,9,0,7-14-10-16-6,0,6,2,8,3,9-3,5-12-6-11-16-3-12-6-15-2-6,0-4,19.87,10,28.43,8,18.57-12,5.57-22-18-17-27-18-12-3-10-5-3-6-6-4-14-1-6-6-12-15-14-13-9,4-14,4-36,22-41,31-15,21-19,31-12,28-19,33-23,20-22,30,2,16,3,23,12,5,15,2,9-12,11-8,4,19,8,22,3,15,7,14,4-7,9-8,4-18,6-21,9-5,10-12-11-8-8-19,9-19,16-24,5-26,15-26,13.7,9.3,8.35,12.65S993.05,418,989.05,423s-6,4-5,17,1,19,9,19,26-8,29-5,1,7-3,8-21,1-23,3-1,9,1,10,5,11,1,11-8-6-11-3-4,8-4,15-8,15-11,11-11,3-20,5c-10.78,2.4-28,2-24-14s-3-19-8-10,9,24-5,28-24.21,29.28-33.61,33.14S848.05,560,860.05,568s17.42,28.26-3.29,28.63S832.05,592,832.05,609v23.09c0,6.91,13,4.91,14,9.91s8.77,0,13.39,0,13.61-7,17.61-21,12-6.73,15-18.87,11-.13,21-6.13,11-7,19,5,40,27,23,31-14,2-10,5,14,7,17-6,11-13.78,0-19.39-29-31.61-18-28.61,14.25,14.88,23.62,19.44S975.05,621,979.05,626s6.59,21.44,10.29,18.22,15.71-5.22,7.71-20.22,10-13,12-9,2,21,8,24,13,7,17,3,8.58,6.27,14.29,2.64,10.46-5.78,10.09.79S1056.05,679,1042.05,674s-22,3-37-3-28-10-29,1-11,8-22-3-30,2-25-16-2-16-17-14-26-1.7-36.5,7.15-28.5-3.15-31.5,3.85-18,15-19,27-17,13-29,37,1,30-5,46,15,38,24,45,13,19,45,10,38-8,42-2,8.64,4.44,15.82,5.22S928.05,828,923.05,841s9,15,13,25,13,28,11,33-9,7-10,19,0,17,8,29,2,20,10,35,17,30,13,32,5,15,15,11,30,3,39-11,18-18,20-29,3-14,11-17,3-18,2-21,1-12,11-17,18-11,17-27-16-27-5-42,15-23,23-27,23-22,26-30,21-32-4-22-25,0-29-8-17-10-19-21-9-6-10-17-8-14-9-20-14-27-9-25,9-1,11,4,16,20,17,26,5,14,14,25,4,29,10,29,60-24,68-31,4-10,8-12,10-11-3-17-4-16-12-9-16,10-21,5-10-17-14-21-2-16,5-10,5,11,11,14,10,8,17,5,11,0,11,3,24,7,33,6,15-4,21,7,11,18,16,16,8-5,7,2,10,33,14,45,7,25,14,16,11-23,11-30,11-11,16-17,19-12,19-15,3-7,10-6,10-11,13-3,14,17,13,24,6,12,11,6,8,10,9,17-2,22.64,0,26.82,9,2.18,10,12.18,16,23,18,20,0-15-6-21-19-15-17-24,5-18,12-11,11,8,14,12,1,10,4,10,10-12,16-14,8-15,2-23-21-18-10-26,15-5,17-1,2-5,15-8,18-6,23-10,27-32,21-36,5.38-4.75-.81-12.88-4.19-8.12-8.19-12.12,4-13,8-14,9-5,1-6-12,4-16-3,5-6,7-10,8-11,10-8-5,12-2,13,6-6,12-6,8,2,7,6-1,7,5,7,1,7,1,17,8,1,12,0,7-9,2-17-7-13,0-17,6-13,11-15,6-5,9-2,9-2,19-14,19-27,20-38,6-21,4-26-9-11-13-7-10,0-11-4-9-1-3-6,21-22,25-28,5-11,19-11,17,2,21-1,13.23-3,13.61,0-.61,9,7.39,6,10-4,10-10,13-21,20-19,6,7,8,10,7-8,10-8,4-4,5-8,11.25-3,7.12,0-2.12,13-8.12,17-17,15-19,20-17,13-18,22-1,21,2,30,1,16,4,14,6-5,8-11,8-2,8-9,10-8,9-13,7-11,5-16,4-11-1-10,0-10,3-14,7-9,13-7,10-6,15-4,7,7,10,2,19-17,24-20,13-3,16-2,6-3,4-7-4-14-8-15-3-5,3-4,12-9,12-12,0-7,2-5,3,9,6,8,4-2,7-1-1,6,4,8,9,8,12,7,6-8,6-13S1847.6,396.92,1844.32,388.46ZM940.46,473.7c-1.6-3.3,3.59-11.7,6.59-8.7S942.05,477,940.46,473.7ZM872.05,799c-3-3-8.4-.25-7-2,4-5,7-3,12.05,2S875.05,802,872.05,799Zm187,19c1,0,4,11,3,11S1055.05,818,1059.05,818Zm-5.19,82.75c-.19,9.74-4.81,9.25-3.81,1.25s-3.24-14-1-14C1052.05,888,1054.05,891,1053.86,900.75ZM1052.05,841c3,1,2,2-1,3s-9,10-12.53,9.94-3.47-8.94,0-12.94S1047.21,839.39,1052.05,841Zm17-371c3-5,8,4,5,7S1067.59,472.43,1069.05,470Zm-17-35c1-4,2.17-4.45,3-5,3-2,3,6,4,8s3,6,1,10-3-1-4-4S1051.05,439,1052.05,435Zm-18,5c3-1,5,0,8,7s-2,9-5,11-5-8-7-10S1031.05,441,1034.05,440Zm31.84,172c-6.16-2-13.84-9-23.84-4s-12,5-18.78,1.87-3.22-10.87-1.22-12.87,5-12,8-17,7-5,14-2,22-7,27.79-9-2.56,11.19-5.79,16c-2,3,8,5,13,9s9,6,9,13S1072.05,614,1065.89,612Zm67.16,25c-6-1-9-9-5.56-14.31s1.56-12.69-3.07-16.77-3.37-8.92-7.23-15-1.14-9,1.86-13,16-9.15,20.66-9.26c10.66-.26,8.34,3.26,8.34,7.26s-11,10-13,10,0,8,5,13,7,25,10,34S1139.05,638,1133.05,637Zm123.81-57.07c-.19,8.93-5.81.07-3.81-4.93s15-7.61,15-4C1268.05,575,1257.05,571,1256.86,579.93ZM1430.05,519c-4,3-13,12-19,13.8s-5-2.8,0-3.8,9-10,15-14,6.12-21,10-20S1434.05,516,1430.05,519Z"/><path class="map__illu" d="M1285.05,789c-2,4-4,27,5,18S1286.05,787,1285.05,789Z"/><path class="map__illu" d="M1360.78,809.07c-2.47,1.74,16.27,16.93,19.27,22.93s12,24,19,28,18.27,9,17.14,0-8.94-15.88-13-22.94-17.1-12.06-20.1-16.06S1363.51,807.14,1360.78,809.07Z"/><path class="map__illu" d="M1414.05,870c-1.42,3.31,12,7,17,7s25,6,29,5,7-2.89,0-5.94-14-4.91-21-4S1417.05,863,1414.05,870Z"/><path class="map__illu" d="M1481.66,882.11c-1.15-4-14.79-3.89-15.7,0S1482.28,884.22,1481.66,882.11Z"/><path class="map__illu" d="M1486.4,881.79c-.35,3.21,15.17-.45,15.41-2.62S1486.76,878.58,1486.4,881.79Z"/><path class="map__illu" d="M1481.68,886c-.32,2,9.37,6,9.37,3S1482.31,882,1481.68,886Z"/><path class="map__illu" d="M1504.48,890.08c-.77,5.25,10.76-7.86,18.66-9.47s-3.57-4.39-9.33,0S1504.91,887.16,1504.48,890.08Z"/><path class="map__illu" d="M1475.05,805c-2-2-6.44-.35-9.72,3.82S1451.05,822,1447.05,823s-17,3-17,8,3,18,11,20,24,12,27,2,14.55-18.47,11.77-22.24-5.77-13.76-.77-16.76S1476.05,806,1475.05,805Z"/><path class="map__illu" d="M1513.05,829c-5.23-1.31-3,6-17,3-6-1.27-13.74,10.08-14.37,18s3.87,20,6.12,17.46-.75-15.61,3.25-12.55,5,18,9,11-2.23-12.16-1.62-17.58,9.15-7.43,3.38-7.92-8.76,5.49-10.76,3-2.43-8.32,5.28-7.91S1521.05,831,1513.05,829Z"/><path class="map__illu" d="M1496.05,707c-5.1,0-10,11-7,14s4.11,4.66,5.06-1.67S1498.05,707,1496.05,707Z"/><path class="map__illu" d="M1441.05,735c-1-3-11,.56-11,5.28s6,6.9,9,1.33C1441.05,738,1441.5,736.34,1441.05,735Z"/><path class="map__illu" d="M1496.72,744.91c-3.67-.91-7.5-.66-8.59,5.71s-1.08,15.76,2.92,18.07,4.34,4.58,5.67,10.44,1.86,11,5.09,12.41,10.24-1.54,4.24-8.54-12.18-16.32-8.09-13.66S1508.05,783,1511.05,785s4,6-1,9-13.34,4.23-11.67,7.12,5.67-3.12,7.67-.12,4.18,12.16,9.09,7.08,5.09-16.59,0-26.33S1505.05,767,1500.05,765s4.66-18.18-1.67-20.09"/><path class="map__illu" d="M1641.05,888c-2.47-3.45-18-11-14-17s-27-18-33-21-17-6-21-3-12,9-14,1-12-9-15-6,6.17,14.75,9.08,15.37,21.74,4.62,26.33,10.13-5.5,11.84,1,11.67,19.81,7.05,26.68,1.44,9.4-3.79,18.13,3.8S1646.05,895,1641.05,888Z"/><path class="map__illu" d="M1529.05,826c-5.69-1.9-5.43,15.85-3.22,16.42S1535.05,828,1529.05,826Z"/><path class="map__illu" d="M1527.9,852.2c-.61,2.74,16,5.73,15.55,3.26S1528.74,848.41,1527.9,852.2Z"/><path class="map__illu" d="M1497.05,930c-2.06,7.27-7,10-25,14s-22.37,20.7-16.69,33.85,9.69,33.15,6.69,38.15,4.26,12.71,18.63,7.85,24.37-2.85,27.37-7.85,29-13,38-10,16.36,18.79,20.68,19.4,9.32-4.4,15.32,3.6,8,17,18,19,37,1,40-7,6-23,12-32,9.41-25.34,2.71-38.17S1637.05,947,1630.05,941s-9-12-13-23-8-6-11-16-6.88-12-7.44,0-.56,25-8.56,25-8-7-15-9-8.12-4.94-5.06-10,6.15-7.91-2.9-8.47-17.9-5.53-18.47-1.54-8.57-2-10.57,7-9.43,9.94-12.22,5.47S1500.38,918.22,1497.05,930Z"/><path class="map__illu" d="M1632.09,865c0,4,9.27,6,13.61,2.46s7.35-16.5.35-4.5C1643.11,868,1632.13,861.09,1632.09,865Z"/><path class="map__illu" d="M1712.05,941c-3.8,1.9,14,14,15,12S1714.05,940,1712.05,941Z"/><path class="map__illu" d="M1758.94,1025.76c-2.83,3.35,11.32,16,7.71,23.13s1.4,8.11,1.4,13.11,6,9,8-1,16-14,5-17-14-9-15-13S1760.83,1023.52,1758.94,1025.76Z"/><path class="map__illu" d="M1764.05,1070c1.21-4.85-8-12-9-9s-5,16-13,20-20.9,15.71-15,18.85,17,7.15,20-1.85,7-16.22,11.51-20.61S1763.05,1074,1764.05,1070Z"/><path class="map__illu" d="M1600.05,518c-2.43,5.84-1,10.55,0,19.27s-5,39.75,0,36.24,8,.49,6-6.51-5.75-15.92.62-17-1.62-18-1.62-23S1605.05,506,1600.05,518Z"/><path class="map__illu" d="M1616.05,594c0-5.39-9.93-4.85-12.46-9.43s-3.54,3.43-10,9.43-4.47,7.73-4.49,15.87-11,29.13-22,33.13-26,6-28,15,0,19,4,12,0-9,6-8,13-3,17-5,13-8,19-8,11-15.43,13-21.21-8-29.56,0-26.68,11-3.11,14-4.11S1616.05,598,1616.05,594Z"/><path class="map__illu" d="M1128.05,345c-4.14-3.45-9,6-6,9S1134.05,350,1128.05,345Z"/><path class="map__illu" d="M1103.05,112c-2.3,3.83,8,13,8,8s6.06-1.09,4,2.46,3.06,12.8,10.51,4.67,15.49-21.89,4.48-21S1106.05,107,1103.05,112Z"/><path class="map__illu" d="M1202.05,89c-7.18.65-11,19-3,19S1213.05,88,1202.05,89Z"/><path class="map__illu" d="M1191.05,108c-4.15-6.91-20.55,12.83-13,14C1188,123.54,1194.05,113,1191.05,108Z"/><path class="map__illu" d="M1174.05,75c-3-1-6,20-14,22s-13.22,7-7.61,11,21.61,9.17,21.61,2.08-9.54-3.52-3.77-15.8S1177.05,76,1174.05,75Z"/><path class="map__illu" d="M1171.05,120c-2.47-2-14,6.76-11.47,10.38S1181.05,128,1171.05,120Z"/><path class="map__illu" d="M1364.63,94.28c-3.87-2.46-3.91,8.88-13.25,11.8s-5.66,19.55,0,21.73,20.2-2.12,21.43-13.47S1368.21,96.56,1364.63,94.28Z"/><path class="map__illu" d="M1365.8,130.38c-5.2,1.56-12.39,13.84-8.57,24.23s19.83,15.31,25.32,11.35,8.74-28.5,3.12-31.73S1374.55,127.76,1365.8,130.38Z"/><path class="map__illu" d="M1401.05,150c-3.58-2.68-8.63,8.64-10.32,17.32s-14.57,17.79-2.13,15.73,30.79-6.41,25.12-15.73S1405.05,153,1401.05,150Z"/><path class="map__illu" d="M1354.11,134.23c-.6-2.4-14.06-8.23-11.06,2.77S1355.18,138.46,1354.11,134.23Z"/><path class="map__illu" d="M1226.05,213c-4-6-10-1-15,5s-14,7-21,8-32.64,17.9-30.82,28.45S1149.05,281,1147.05,287s-13,25-6,26,12.69,13.31,21.85,13.15,3.15-2.15,1.15-7.15-10-15,5-40,13-28,34-41S1234.05,225,1226.05,213Z"/><path class="map__illu" d="M1613.05,237c-4.53-5.43-31-14-35-7s-6,25,2,25,19-4,25-3S1618.05,243,1613.05,237Z"/><path class="map__illu" d="M1623.05,243c-3.18,4.23,15,21,21,9C1647.05,246,1626.05,239,1623.05,243Z"/><path class="map__illu" d="M1592.05,264c-4.13,0,3,12.3,0,15.15s17,6.85,13-1.15S1598.05,264,1592.05,264Z"/><path class="map__illu" d="M1785.05,321c.7,3.54,22,3,20-5S1784.05,316,1785.05,321Z"/><path class="map__illu" d="M1618.05,1063c4.94,1.24,13-1,13,5s-8,19-12,13S1610.05,1061,1618.05,1063Z"/></g></g></svg>